M48
; DRILL file {KiCad 8.0.5} date 2024-11-23T20:31:26+1100
; FORMAT={-:-/ absolute / inch / decimal}
; #@! TF.CreationDate,2024-11-23T20:31:26+11:00
; #@! TF.GenerationSoftware,Kicad,Pcbnew,8.0.5
; #@! TF.FileFunction,Plated,1,2,PTH
FMAT,2
INCH
; #@! TA.AperFunction,Plated,PTH,ViaDrill
T1C0.0118
; #@! TA.AperFunction,Plated,PTH,ComponentDrill
T2C0.0256
; #@! TA.AperFunction,Plated,PTH,ComponentDrill
T3C0.0394
; #@! TA.AperFunction,Plated,PTH,ComponentDrill
T4C0.0709
%
G90
G05
T1
X3.1329Y-3.8292
X3.186Y-4.5792
X3.188Y-3.0792
X3.188Y-3.2761
X3.188Y-3.8292
X3.1919Y-4.095
X3.1939Y-4.845
X3.2313Y-3.3351
X3.2707Y-3.7087
X3.2717Y-3.4567
X3.3465Y-3.5566
X3.3465Y-3.5901
X3.3583Y-3.3268
X3.3612Y-3.8981
X3.4026Y-4.654
X3.626Y-3.5236
X3.811Y-3.0335
X3.8238Y-4.282
X3.8258Y-3.5359
X3.8435Y-3.4355
X3.877Y-3.284
X3.877Y-3.3489
X3.9124Y-4.0281
X3.9163Y-3.1344
X3.9478Y-3.1344
X3.9833Y-4.3141
X3.9911Y-3.3489
X4.003Y-3.9532
X4.0118Y-4.8976
X4.0443Y-3.9906
X4.063Y-3.0335
X4.0974Y-4.2559
X4.127Y-4.8529
X4.1486Y-3.4355
X4.1526Y-4.0103
X4.1565Y-4.2559
X4.225Y-3.0875
X4.225Y-4.5875
X4.2254Y-3.8371
X4.3159Y-3.4493
X4.3159Y-4.2032
X4.3169Y-3.3538
X4.3169Y-4.1038
X4.3652Y-4.8568
X4.6427Y-3.3568
X4.6427Y-3.4119
X4.6447Y-4.1619
X4.6506Y-4.8548
X4.6703Y-3.6521
X4.6703Y-4.4021
X4.6722Y-2.9021
X4.6929Y-4.9149
X5.0659Y-3.4513
X5.0669Y-3.3538
X5.0669Y-4.1038
X5.1093Y-4.1658
X5.1112Y-3.4119
X5.1152Y-4.8568
X5.3927Y-3.3568
X5.3927Y-3.4119
X5.3947Y-4.1619
X5.4026Y-4.8529
X5.4203Y-3.6521
X5.4222Y-2.9021
X5.4222Y-4.4021
X5.4429Y-4.9149
X5.8159Y-3.4532
X5.8169Y-3.3538
X5.8169Y-4.1038
X5.8553Y-4.1658
X5.8612Y-3.4119
X5.8652Y-4.8568
X6.1427Y-3.3568
X6.1427Y-3.4119
X6.1427Y-4.1639
X6.1526Y-4.8548
X6.1703Y-2.9021
X6.1703Y-3.654
X6.1703Y-4.4021
X6.1929Y-4.9149
X6.5659Y-3.4513
X6.5669Y-3.3538
X6.5669Y-4.1038
X6.6073Y-4.1658
X6.6112Y-3.4119
X6.6171Y-4.8568
X6.8927Y-3.3568
X6.8947Y-3.4119
X6.8947Y-4.1619
X6.9026Y-4.8548
X6.9203Y-2.9021
X6.9203Y-3.6521
X6.9203Y-4.404
X6.9429Y-4.9149
X7.3159Y-3.4483
X7.3169Y-3.3538
X7.3169Y-4.1038
X7.3553Y-4.1658
X7.3612Y-3.4119
X7.3671Y-4.8568
X7.6043Y-4.8568
X7.625Y-3.2446
X7.6427Y-3.3568
X7.6427Y-3.4119
X7.6427Y-4.1619
X7.6525Y-4.2273
X7.6526Y-4.8548
X7.6703Y-2.9021
X7.6703Y-3.6521
X7.6703Y-4.404
X7.688Y-4.1914
X7.6929Y-4.9149
X7.6962Y-4.284
X7.7096Y-3.3273
X7.751Y-4.2466
X7.7515Y-4.284
X7.7746Y-4.8863
X7.7943Y-4.658
X7.8317Y-3.4454
X7.841Y-4.2092
X7.8435Y-4.2466
X7.8504Y-4.0669
X7.8504Y-4.0993
X7.8533Y-4.718
X7.9085Y-3.6895
X7.9252Y-3.4252
X7.9321Y-4.1576
X7.9321Y-4.3076
X7.9321Y-4.4076
X7.9321Y-4.4576
X7.9321Y-4.5076
X7.9321Y-4.5576
X7.936Y-3.8135
X8.0261Y-3.8509
X8.0266Y-3.8135
X8.0778Y-3.6166
X8.1053Y-3.6914
X8.1624Y-4.3485
X8.1624Y-4.4021
X8.1624Y-4.4572
X8.1732Y-4.311
X8.1954Y-3.6914
X8.1954Y-3.7283
X8.2175Y-4.3469
X8.2175Y-4.404
X8.2175Y-4.4588
X8.2313Y-3.5359
X8.2726Y-4.3469
X8.2726Y-4.404
X8.2726Y-4.4572
X8.3706Y-3.5359
X8.3711Y-3.5733
X8.6211Y-4.6576
X8.623Y-4.7072
X8.6703Y-4.2544
X8.7825Y-3.6599
X8.7835Y-4.4055
X8.814Y-3.3647
X8.8179Y-3.03
X8.8179Y-3.78
X8.8179Y-4.53
X8.8199Y-3.0989
X8.8199Y-4.0458
X8.8219Y-3.2958
X8.8219Y-4.7958
X8.8765Y-3.4237
X8.936Y-3.4252
T3
X3.2908Y-3.0891
X3.2908Y-3.1875
X3.2908Y-3.2859
X3.2908Y-3.8391
X3.2908Y-3.9375
X3.2908Y-4.0359
X3.2908Y-4.5891
X3.2908Y-4.6875
X3.2908Y-4.7859
X8.717Y-3.0891
X8.717Y-3.1875
X8.717Y-3.2859
X8.717Y-3.8391
X8.717Y-3.9375
X8.717Y-4.0359
X8.717Y-4.5891
X8.717Y-4.6875
X8.717Y-4.7859
T2
G00X3.0728Y-3.4126
M15
G01X3.1083Y-3.4126
M16
G05
G00X3.0728Y-3.7528
M15
G01X3.1083Y-3.7528
M16
G05
G00X3.2382Y-3.4126
M15
G01X3.2579Y-3.4126
M16
G05
G00X3.2382Y-3.7528
M15
G01X3.2579Y-3.7528
M16
G05
G00X3.7669Y-2.8356
M15
G01X3.7669Y-2.8711
M16
G05
G00X3.7669Y-3.001
M15
G01X3.7669Y-3.0207
M16
G05
G00X4.1071Y-2.8356
M15
G01X4.1071Y-2.8711
M16
G05
G00X4.1071Y-3.001
M15
G01X4.1071Y-3.0207
M16
G05
T4
G00X3.5743Y-3.0143
M15
G01X3.5586Y-3.0143
M16
G05
G00X3.5743Y-3.3607
M15
G01X3.5586Y-3.3607
M16
G05
G00X3.5743Y-3.7643
M15
G01X3.5586Y-3.7643
M16
G05
G00X3.5743Y-4.1107
M15
G01X3.5586Y-4.1107
M16
G05
G00X3.5743Y-4.5143
M15
G01X3.5586Y-4.5143
M16
G05
G00X3.5743Y-4.8607
M15
G01X3.5586Y-4.8607
M16
G05
G00X8.4336Y-3.0143
M15
G01X8.4493Y-3.0143
M16
G05
G00X8.4336Y-3.3607
M15
G01X8.4493Y-3.3607
M16
G05
G00X8.4336Y-3.7643
M15
G01X8.4493Y-3.7643
M16
G05
G00X8.4336Y-4.1107
M15
G01X8.4493Y-4.1107
M16
G05
G00X8.4336Y-4.5143
M15
G01X8.4493Y-4.5143
M16
G05
G00X8.4336Y-4.8607
M15
G01X8.4493Y-4.8607
M16
G05
M30
