%TF.GenerationSoftware,KiCad,Pcbnew,8.0.5*%
%TF.CreationDate,2024-11-23T20:31:30+11:00*%
%TF.ProjectId,Macro Mixer,4d616372-6f20-44d6-9978-65722e6b6963,rev?*%
%TF.SameCoordinates,Original*%
%TF.FileFunction,Legend,Bot*%
%TF.FilePolarity,Positive*%
%FSLAX46Y46*%
G04 Gerber Fmt 4.6, Leading zero omitted, Abs format (unit mm)*
G04 Created by KiCad (PCBNEW 8.0.5) date 2024-11-23 20:31:30*
%MOMM*%
%LPD*%
G01*
G04 APERTURE LIST*
%ADD10C,0.100000*%
%ADD11C,0.150000*%
%ADD12C,0.120000*%
%ADD13C,0.127000*%
%ADD14C,0.050000*%
G04 APERTURE END LIST*
D10*
X220517580Y-101500594D02*
X219708057Y-101500594D01*
X219708057Y-101500594D02*
X219612819Y-101452975D01*
X219612819Y-101452975D02*
X219565200Y-101405356D01*
X219565200Y-101405356D02*
X219517580Y-101310118D01*
X219517580Y-101310118D02*
X219517580Y-101119642D01*
X219517580Y-101119642D02*
X219565200Y-101024404D01*
X219565200Y-101024404D02*
X219612819Y-100976785D01*
X219612819Y-100976785D02*
X219708057Y-100929166D01*
X219708057Y-100929166D02*
X220517580Y-100929166D01*
X219517580Y-99929166D02*
X219517580Y-100500594D01*
X219517580Y-100214880D02*
X220517580Y-100214880D01*
X220517580Y-100214880D02*
X220374723Y-100310118D01*
X220374723Y-100310118D02*
X220279485Y-100405356D01*
X220279485Y-100405356D02*
X220231866Y-100500594D01*
X220422342Y-99548213D02*
X220469961Y-99500594D01*
X220469961Y-99500594D02*
X220517580Y-99405356D01*
X220517580Y-99405356D02*
X220517580Y-99167261D01*
X220517580Y-99167261D02*
X220469961Y-99072023D01*
X220469961Y-99072023D02*
X220422342Y-99024404D01*
X220422342Y-99024404D02*
X220327104Y-98976785D01*
X220327104Y-98976785D02*
X220231866Y-98976785D01*
X220231866Y-98976785D02*
X220089009Y-99024404D01*
X220089009Y-99024404D02*
X219517580Y-99595832D01*
X219517580Y-99595832D02*
X219517580Y-98976785D01*
X220517580Y-82450594D02*
X219708057Y-82450594D01*
X219708057Y-82450594D02*
X219612819Y-82402975D01*
X219612819Y-82402975D02*
X219565200Y-82355356D01*
X219565200Y-82355356D02*
X219517580Y-82260118D01*
X219517580Y-82260118D02*
X219517580Y-82069642D01*
X219517580Y-82069642D02*
X219565200Y-81974404D01*
X219565200Y-81974404D02*
X219612819Y-81926785D01*
X219612819Y-81926785D02*
X219708057Y-81879166D01*
X219708057Y-81879166D02*
X220517580Y-81879166D01*
X219517580Y-80879166D02*
X219517580Y-81450594D01*
X219517580Y-81164880D02*
X220517580Y-81164880D01*
X220517580Y-81164880D02*
X220374723Y-81260118D01*
X220374723Y-81260118D02*
X220279485Y-81355356D01*
X220279485Y-81355356D02*
X220231866Y-81450594D01*
X220517580Y-80545832D02*
X220517580Y-79926785D01*
X220517580Y-79926785D02*
X220136628Y-80260118D01*
X220136628Y-80260118D02*
X220136628Y-80117261D01*
X220136628Y-80117261D02*
X220089009Y-80022023D01*
X220089009Y-80022023D02*
X220041390Y-79974404D01*
X220041390Y-79974404D02*
X219946152Y-79926785D01*
X219946152Y-79926785D02*
X219708057Y-79926785D01*
X219708057Y-79926785D02*
X219612819Y-79974404D01*
X219612819Y-79974404D02*
X219565200Y-80022023D01*
X219565200Y-80022023D02*
X219517580Y-80117261D01*
X219517580Y-80117261D02*
X219517580Y-80402975D01*
X219517580Y-80402975D02*
X219565200Y-80498213D01*
X219565200Y-80498213D02*
X219612819Y-80545832D01*
X220517580Y-120550594D02*
X219708057Y-120550594D01*
X219708057Y-120550594D02*
X219612819Y-120502975D01*
X219612819Y-120502975D02*
X219565200Y-120455356D01*
X219565200Y-120455356D02*
X219517580Y-120360118D01*
X219517580Y-120360118D02*
X219517580Y-120169642D01*
X219517580Y-120169642D02*
X219565200Y-120074404D01*
X219565200Y-120074404D02*
X219612819Y-120026785D01*
X219612819Y-120026785D02*
X219708057Y-119979166D01*
X219708057Y-119979166D02*
X220517580Y-119979166D01*
X219517580Y-118979166D02*
X219517580Y-119550594D01*
X219517580Y-119264880D02*
X220517580Y-119264880D01*
X220517580Y-119264880D02*
X220374723Y-119360118D01*
X220374723Y-119360118D02*
X220279485Y-119455356D01*
X220279485Y-119455356D02*
X220231866Y-119550594D01*
X219517580Y-118026785D02*
X219517580Y-118598213D01*
X219517580Y-118312499D02*
X220517580Y-118312499D01*
X220517580Y-118312499D02*
X220374723Y-118407737D01*
X220374723Y-118407737D02*
X220279485Y-118502975D01*
X220279485Y-118502975D02*
X220231866Y-118598213D01*
X153738094Y-97869919D02*
X153738094Y-98679442D01*
X153738094Y-98679442D02*
X153690475Y-98774680D01*
X153690475Y-98774680D02*
X153642856Y-98822300D01*
X153642856Y-98822300D02*
X153547618Y-98869919D01*
X153547618Y-98869919D02*
X153357142Y-98869919D01*
X153357142Y-98869919D02*
X153261904Y-98822300D01*
X153261904Y-98822300D02*
X153214285Y-98774680D01*
X153214285Y-98774680D02*
X153166666Y-98679442D01*
X153166666Y-98679442D02*
X153166666Y-97869919D01*
X152166666Y-98869919D02*
X152738094Y-98869919D01*
X152452380Y-98869919D02*
X152452380Y-97869919D01*
X152452380Y-97869919D02*
X152547618Y-98012776D01*
X152547618Y-98012776D02*
X152642856Y-98108014D01*
X152642856Y-98108014D02*
X152738094Y-98155633D01*
X151547618Y-97869919D02*
X151452380Y-97869919D01*
X151452380Y-97869919D02*
X151357142Y-97917538D01*
X151357142Y-97917538D02*
X151309523Y-97965157D01*
X151309523Y-97965157D02*
X151261904Y-98060395D01*
X151261904Y-98060395D02*
X151214285Y-98250871D01*
X151214285Y-98250871D02*
X151214285Y-98488966D01*
X151214285Y-98488966D02*
X151261904Y-98679442D01*
X151261904Y-98679442D02*
X151309523Y-98774680D01*
X151309523Y-98774680D02*
X151357142Y-98822300D01*
X151357142Y-98822300D02*
X151452380Y-98869919D01*
X151452380Y-98869919D02*
X151547618Y-98869919D01*
X151547618Y-98869919D02*
X151642856Y-98822300D01*
X151642856Y-98822300D02*
X151690475Y-98774680D01*
X151690475Y-98774680D02*
X151738094Y-98679442D01*
X151738094Y-98679442D02*
X151785713Y-98488966D01*
X151785713Y-98488966D02*
X151785713Y-98250871D01*
X151785713Y-98250871D02*
X151738094Y-98060395D01*
X151738094Y-98060395D02*
X151690475Y-97965157D01*
X151690475Y-97965157D02*
X151642856Y-97917538D01*
X151642856Y-97917538D02*
X151547618Y-97869919D01*
X134211904Y-78819919D02*
X134211904Y-79629442D01*
X134211904Y-79629442D02*
X134164285Y-79724680D01*
X134164285Y-79724680D02*
X134116666Y-79772300D01*
X134116666Y-79772300D02*
X134021428Y-79819919D01*
X134021428Y-79819919D02*
X133830952Y-79819919D01*
X133830952Y-79819919D02*
X133735714Y-79772300D01*
X133735714Y-79772300D02*
X133688095Y-79724680D01*
X133688095Y-79724680D02*
X133640476Y-79629442D01*
X133640476Y-79629442D02*
X133640476Y-78819919D01*
X132735714Y-79153252D02*
X132735714Y-79819919D01*
X132973809Y-78772300D02*
X133211904Y-79486585D01*
X133211904Y-79486585D02*
X132592857Y-79486585D01*
X115638094Y-78819919D02*
X115638094Y-79629442D01*
X115638094Y-79629442D02*
X115590475Y-79724680D01*
X115590475Y-79724680D02*
X115542856Y-79772300D01*
X115542856Y-79772300D02*
X115447618Y-79819919D01*
X115447618Y-79819919D02*
X115257142Y-79819919D01*
X115257142Y-79819919D02*
X115161904Y-79772300D01*
X115161904Y-79772300D02*
X115114285Y-79724680D01*
X115114285Y-79724680D02*
X115066666Y-79629442D01*
X115066666Y-79629442D02*
X115066666Y-78819919D01*
X114066666Y-79819919D02*
X114638094Y-79819919D01*
X114352380Y-79819919D02*
X114352380Y-78819919D01*
X114352380Y-78819919D02*
X114447618Y-78962776D01*
X114447618Y-78962776D02*
X114542856Y-79058014D01*
X114542856Y-79058014D02*
X114638094Y-79105633D01*
X113209523Y-79153252D02*
X113209523Y-79819919D01*
X113447618Y-78772300D02*
X113685713Y-79486585D01*
X113685713Y-79486585D02*
X113066666Y-79486585D01*
X84482419Y-117574406D02*
X85291942Y-117574406D01*
X85291942Y-117574406D02*
X85387180Y-117622025D01*
X85387180Y-117622025D02*
X85434800Y-117669644D01*
X85434800Y-117669644D02*
X85482419Y-117764882D01*
X85482419Y-117764882D02*
X85482419Y-117955358D01*
X85482419Y-117955358D02*
X85434800Y-118050596D01*
X85434800Y-118050596D02*
X85387180Y-118098215D01*
X85387180Y-118098215D02*
X85291942Y-118145834D01*
X85291942Y-118145834D02*
X84482419Y-118145834D01*
X84577657Y-118574406D02*
X84530038Y-118622025D01*
X84530038Y-118622025D02*
X84482419Y-118717263D01*
X84482419Y-118717263D02*
X84482419Y-118955358D01*
X84482419Y-118955358D02*
X84530038Y-119050596D01*
X84530038Y-119050596D02*
X84577657Y-119098215D01*
X84577657Y-119098215D02*
X84672895Y-119145834D01*
X84672895Y-119145834D02*
X84768133Y-119145834D01*
X84768133Y-119145834D02*
X84910990Y-119098215D01*
X84910990Y-119098215D02*
X85482419Y-118526787D01*
X85482419Y-118526787D02*
X85482419Y-119145834D01*
X84577657Y-119526787D02*
X84530038Y-119574406D01*
X84530038Y-119574406D02*
X84482419Y-119669644D01*
X84482419Y-119669644D02*
X84482419Y-119907739D01*
X84482419Y-119907739D02*
X84530038Y-120002977D01*
X84530038Y-120002977D02*
X84577657Y-120050596D01*
X84577657Y-120050596D02*
X84672895Y-120098215D01*
X84672895Y-120098215D02*
X84768133Y-120098215D01*
X84768133Y-120098215D02*
X84910990Y-120050596D01*
X84910990Y-120050596D02*
X85482419Y-119479168D01*
X85482419Y-119479168D02*
X85482419Y-120098215D01*
X153261904Y-78819919D02*
X153261904Y-79629442D01*
X153261904Y-79629442D02*
X153214285Y-79724680D01*
X153214285Y-79724680D02*
X153166666Y-79772300D01*
X153166666Y-79772300D02*
X153071428Y-79819919D01*
X153071428Y-79819919D02*
X152880952Y-79819919D01*
X152880952Y-79819919D02*
X152785714Y-79772300D01*
X152785714Y-79772300D02*
X152738095Y-79724680D01*
X152738095Y-79724680D02*
X152690476Y-79629442D01*
X152690476Y-79629442D02*
X152690476Y-78819919D01*
X151738095Y-78819919D02*
X152214285Y-78819919D01*
X152214285Y-78819919D02*
X152261904Y-79296109D01*
X152261904Y-79296109D02*
X152214285Y-79248490D01*
X152214285Y-79248490D02*
X152119047Y-79200871D01*
X152119047Y-79200871D02*
X151880952Y-79200871D01*
X151880952Y-79200871D02*
X151785714Y-79248490D01*
X151785714Y-79248490D02*
X151738095Y-79296109D01*
X151738095Y-79296109D02*
X151690476Y-79391347D01*
X151690476Y-79391347D02*
X151690476Y-79629442D01*
X151690476Y-79629442D02*
X151738095Y-79724680D01*
X151738095Y-79724680D02*
X151785714Y-79772300D01*
X151785714Y-79772300D02*
X151880952Y-79819919D01*
X151880952Y-79819919D02*
X152119047Y-79819919D01*
X152119047Y-79819919D02*
X152214285Y-79772300D01*
X152214285Y-79772300D02*
X152261904Y-79724680D01*
X191361904Y-78819919D02*
X191361904Y-79629442D01*
X191361904Y-79629442D02*
X191314285Y-79724680D01*
X191314285Y-79724680D02*
X191266666Y-79772300D01*
X191266666Y-79772300D02*
X191171428Y-79819919D01*
X191171428Y-79819919D02*
X190980952Y-79819919D01*
X190980952Y-79819919D02*
X190885714Y-79772300D01*
X190885714Y-79772300D02*
X190838095Y-79724680D01*
X190838095Y-79724680D02*
X190790476Y-79629442D01*
X190790476Y-79629442D02*
X190790476Y-78819919D01*
X190409523Y-78819919D02*
X189742857Y-78819919D01*
X189742857Y-78819919D02*
X190171428Y-79819919D01*
X172788094Y-97869919D02*
X172788094Y-98679442D01*
X172788094Y-98679442D02*
X172740475Y-98774680D01*
X172740475Y-98774680D02*
X172692856Y-98822300D01*
X172692856Y-98822300D02*
X172597618Y-98869919D01*
X172597618Y-98869919D02*
X172407142Y-98869919D01*
X172407142Y-98869919D02*
X172311904Y-98822300D01*
X172311904Y-98822300D02*
X172264285Y-98774680D01*
X172264285Y-98774680D02*
X172216666Y-98679442D01*
X172216666Y-98679442D02*
X172216666Y-97869919D01*
X171216666Y-98869919D02*
X171788094Y-98869919D01*
X171502380Y-98869919D02*
X171502380Y-97869919D01*
X171502380Y-97869919D02*
X171597618Y-98012776D01*
X171597618Y-98012776D02*
X171692856Y-98108014D01*
X171692856Y-98108014D02*
X171788094Y-98155633D01*
X170311904Y-97869919D02*
X170788094Y-97869919D01*
X170788094Y-97869919D02*
X170835713Y-98346109D01*
X170835713Y-98346109D02*
X170788094Y-98298490D01*
X170788094Y-98298490D02*
X170692856Y-98250871D01*
X170692856Y-98250871D02*
X170454761Y-98250871D01*
X170454761Y-98250871D02*
X170359523Y-98298490D01*
X170359523Y-98298490D02*
X170311904Y-98346109D01*
X170311904Y-98346109D02*
X170264285Y-98441347D01*
X170264285Y-98441347D02*
X170264285Y-98679442D01*
X170264285Y-98679442D02*
X170311904Y-98774680D01*
X170311904Y-98774680D02*
X170359523Y-98822300D01*
X170359523Y-98822300D02*
X170454761Y-98869919D01*
X170454761Y-98869919D02*
X170692856Y-98869919D01*
X170692856Y-98869919D02*
X170788094Y-98822300D01*
X170788094Y-98822300D02*
X170835713Y-98774680D01*
X191838094Y-97869919D02*
X191838094Y-98679442D01*
X191838094Y-98679442D02*
X191790475Y-98774680D01*
X191790475Y-98774680D02*
X191742856Y-98822300D01*
X191742856Y-98822300D02*
X191647618Y-98869919D01*
X191647618Y-98869919D02*
X191457142Y-98869919D01*
X191457142Y-98869919D02*
X191361904Y-98822300D01*
X191361904Y-98822300D02*
X191314285Y-98774680D01*
X191314285Y-98774680D02*
X191266666Y-98679442D01*
X191266666Y-98679442D02*
X191266666Y-97869919D01*
X190266666Y-98869919D02*
X190838094Y-98869919D01*
X190552380Y-98869919D02*
X190552380Y-97869919D01*
X190552380Y-97869919D02*
X190647618Y-98012776D01*
X190647618Y-98012776D02*
X190742856Y-98108014D01*
X190742856Y-98108014D02*
X190838094Y-98155633D01*
X189409523Y-97869919D02*
X189599999Y-97869919D01*
X189599999Y-97869919D02*
X189695237Y-97917538D01*
X189695237Y-97917538D02*
X189742856Y-97965157D01*
X189742856Y-97965157D02*
X189838094Y-98108014D01*
X189838094Y-98108014D02*
X189885713Y-98298490D01*
X189885713Y-98298490D02*
X189885713Y-98679442D01*
X189885713Y-98679442D02*
X189838094Y-98774680D01*
X189838094Y-98774680D02*
X189790475Y-98822300D01*
X189790475Y-98822300D02*
X189695237Y-98869919D01*
X189695237Y-98869919D02*
X189504761Y-98869919D01*
X189504761Y-98869919D02*
X189409523Y-98822300D01*
X189409523Y-98822300D02*
X189361904Y-98774680D01*
X189361904Y-98774680D02*
X189314285Y-98679442D01*
X189314285Y-98679442D02*
X189314285Y-98441347D01*
X189314285Y-98441347D02*
X189361904Y-98346109D01*
X189361904Y-98346109D02*
X189409523Y-98298490D01*
X189409523Y-98298490D02*
X189504761Y-98250871D01*
X189504761Y-98250871D02*
X189695237Y-98250871D01*
X189695237Y-98250871D02*
X189790475Y-98298490D01*
X189790475Y-98298490D02*
X189838094Y-98346109D01*
X189838094Y-98346109D02*
X189885713Y-98441347D01*
X115161904Y-97869919D02*
X115161904Y-98679442D01*
X115161904Y-98679442D02*
X115114285Y-98774680D01*
X115114285Y-98774680D02*
X115066666Y-98822300D01*
X115066666Y-98822300D02*
X114971428Y-98869919D01*
X114971428Y-98869919D02*
X114780952Y-98869919D01*
X114780952Y-98869919D02*
X114685714Y-98822300D01*
X114685714Y-98822300D02*
X114638095Y-98774680D01*
X114638095Y-98774680D02*
X114590476Y-98679442D01*
X114590476Y-98679442D02*
X114590476Y-97869919D01*
X113971428Y-98298490D02*
X114066666Y-98250871D01*
X114066666Y-98250871D02*
X114114285Y-98203252D01*
X114114285Y-98203252D02*
X114161904Y-98108014D01*
X114161904Y-98108014D02*
X114161904Y-98060395D01*
X114161904Y-98060395D02*
X114114285Y-97965157D01*
X114114285Y-97965157D02*
X114066666Y-97917538D01*
X114066666Y-97917538D02*
X113971428Y-97869919D01*
X113971428Y-97869919D02*
X113780952Y-97869919D01*
X113780952Y-97869919D02*
X113685714Y-97917538D01*
X113685714Y-97917538D02*
X113638095Y-97965157D01*
X113638095Y-97965157D02*
X113590476Y-98060395D01*
X113590476Y-98060395D02*
X113590476Y-98108014D01*
X113590476Y-98108014D02*
X113638095Y-98203252D01*
X113638095Y-98203252D02*
X113685714Y-98250871D01*
X113685714Y-98250871D02*
X113780952Y-98298490D01*
X113780952Y-98298490D02*
X113971428Y-98298490D01*
X113971428Y-98298490D02*
X114066666Y-98346109D01*
X114066666Y-98346109D02*
X114114285Y-98393728D01*
X114114285Y-98393728D02*
X114161904Y-98488966D01*
X114161904Y-98488966D02*
X114161904Y-98679442D01*
X114161904Y-98679442D02*
X114114285Y-98774680D01*
X114114285Y-98774680D02*
X114066666Y-98822300D01*
X114066666Y-98822300D02*
X113971428Y-98869919D01*
X113971428Y-98869919D02*
X113780952Y-98869919D01*
X113780952Y-98869919D02*
X113685714Y-98822300D01*
X113685714Y-98822300D02*
X113638095Y-98774680D01*
X113638095Y-98774680D02*
X113590476Y-98679442D01*
X113590476Y-98679442D02*
X113590476Y-98488966D01*
X113590476Y-98488966D02*
X113638095Y-98393728D01*
X113638095Y-98393728D02*
X113685714Y-98346109D01*
X113685714Y-98346109D02*
X113780952Y-98298490D01*
X172311904Y-78819919D02*
X172311904Y-79629442D01*
X172311904Y-79629442D02*
X172264285Y-79724680D01*
X172264285Y-79724680D02*
X172216666Y-79772300D01*
X172216666Y-79772300D02*
X172121428Y-79819919D01*
X172121428Y-79819919D02*
X171930952Y-79819919D01*
X171930952Y-79819919D02*
X171835714Y-79772300D01*
X171835714Y-79772300D02*
X171788095Y-79724680D01*
X171788095Y-79724680D02*
X171740476Y-79629442D01*
X171740476Y-79629442D02*
X171740476Y-78819919D01*
X170835714Y-78819919D02*
X171026190Y-78819919D01*
X171026190Y-78819919D02*
X171121428Y-78867538D01*
X171121428Y-78867538D02*
X171169047Y-78915157D01*
X171169047Y-78915157D02*
X171264285Y-79058014D01*
X171264285Y-79058014D02*
X171311904Y-79248490D01*
X171311904Y-79248490D02*
X171311904Y-79629442D01*
X171311904Y-79629442D02*
X171264285Y-79724680D01*
X171264285Y-79724680D02*
X171216666Y-79772300D01*
X171216666Y-79772300D02*
X171121428Y-79819919D01*
X171121428Y-79819919D02*
X170930952Y-79819919D01*
X170930952Y-79819919D02*
X170835714Y-79772300D01*
X170835714Y-79772300D02*
X170788095Y-79724680D01*
X170788095Y-79724680D02*
X170740476Y-79629442D01*
X170740476Y-79629442D02*
X170740476Y-79391347D01*
X170740476Y-79391347D02*
X170788095Y-79296109D01*
X170788095Y-79296109D02*
X170835714Y-79248490D01*
X170835714Y-79248490D02*
X170930952Y-79200871D01*
X170930952Y-79200871D02*
X171121428Y-79200871D01*
X171121428Y-79200871D02*
X171216666Y-79248490D01*
X171216666Y-79248490D02*
X171264285Y-79296109D01*
X171264285Y-79296109D02*
X171311904Y-79391347D01*
X134211904Y-97869919D02*
X134211904Y-98679442D01*
X134211904Y-98679442D02*
X134164285Y-98774680D01*
X134164285Y-98774680D02*
X134116666Y-98822300D01*
X134116666Y-98822300D02*
X134021428Y-98869919D01*
X134021428Y-98869919D02*
X133830952Y-98869919D01*
X133830952Y-98869919D02*
X133735714Y-98822300D01*
X133735714Y-98822300D02*
X133688095Y-98774680D01*
X133688095Y-98774680D02*
X133640476Y-98679442D01*
X133640476Y-98679442D02*
X133640476Y-97869919D01*
X133116666Y-98869919D02*
X132926190Y-98869919D01*
X132926190Y-98869919D02*
X132830952Y-98822300D01*
X132830952Y-98822300D02*
X132783333Y-98774680D01*
X132783333Y-98774680D02*
X132688095Y-98631823D01*
X132688095Y-98631823D02*
X132640476Y-98441347D01*
X132640476Y-98441347D02*
X132640476Y-98060395D01*
X132640476Y-98060395D02*
X132688095Y-97965157D01*
X132688095Y-97965157D02*
X132735714Y-97917538D01*
X132735714Y-97917538D02*
X132830952Y-97869919D01*
X132830952Y-97869919D02*
X133021428Y-97869919D01*
X133021428Y-97869919D02*
X133116666Y-97917538D01*
X133116666Y-97917538D02*
X133164285Y-97965157D01*
X133164285Y-97965157D02*
X133211904Y-98060395D01*
X133211904Y-98060395D02*
X133211904Y-98298490D01*
X133211904Y-98298490D02*
X133164285Y-98393728D01*
X133164285Y-98393728D02*
X133116666Y-98441347D01*
X133116666Y-98441347D02*
X133021428Y-98488966D01*
X133021428Y-98488966D02*
X132830952Y-98488966D01*
X132830952Y-98488966D02*
X132735714Y-98441347D01*
X132735714Y-98441347D02*
X132688095Y-98393728D01*
X132688095Y-98393728D02*
X132640476Y-98298490D01*
X79732419Y-98524406D02*
X80541942Y-98524406D01*
X80541942Y-98524406D02*
X80637180Y-98572025D01*
X80637180Y-98572025D02*
X80684800Y-98619644D01*
X80684800Y-98619644D02*
X80732419Y-98714882D01*
X80732419Y-98714882D02*
X80732419Y-98905358D01*
X80732419Y-98905358D02*
X80684800Y-99000596D01*
X80684800Y-99000596D02*
X80637180Y-99048215D01*
X80637180Y-99048215D02*
X80541942Y-99095834D01*
X80541942Y-99095834D02*
X79732419Y-99095834D01*
X79827657Y-99524406D02*
X79780038Y-99572025D01*
X79780038Y-99572025D02*
X79732419Y-99667263D01*
X79732419Y-99667263D02*
X79732419Y-99905358D01*
X79732419Y-99905358D02*
X79780038Y-100000596D01*
X79780038Y-100000596D02*
X79827657Y-100048215D01*
X79827657Y-100048215D02*
X79922895Y-100095834D01*
X79922895Y-100095834D02*
X80018133Y-100095834D01*
X80018133Y-100095834D02*
X80160990Y-100048215D01*
X80160990Y-100048215D02*
X80732419Y-99476787D01*
X80732419Y-99476787D02*
X80732419Y-100095834D01*
X79732419Y-100429168D02*
X79732419Y-101048215D01*
X79732419Y-101048215D02*
X80113371Y-100714882D01*
X80113371Y-100714882D02*
X80113371Y-100857739D01*
X80113371Y-100857739D02*
X80160990Y-100952977D01*
X80160990Y-100952977D02*
X80208609Y-101000596D01*
X80208609Y-101000596D02*
X80303847Y-101048215D01*
X80303847Y-101048215D02*
X80541942Y-101048215D01*
X80541942Y-101048215D02*
X80637180Y-101000596D01*
X80637180Y-101000596D02*
X80684800Y-100952977D01*
X80684800Y-100952977D02*
X80732419Y-100857739D01*
X80732419Y-100857739D02*
X80732419Y-100572025D01*
X80732419Y-100572025D02*
X80684800Y-100476787D01*
X80684800Y-100476787D02*
X80637180Y-100429168D01*
X84482419Y-79474406D02*
X85291942Y-79474406D01*
X85291942Y-79474406D02*
X85387180Y-79522025D01*
X85387180Y-79522025D02*
X85434800Y-79569644D01*
X85434800Y-79569644D02*
X85482419Y-79664882D01*
X85482419Y-79664882D02*
X85482419Y-79855358D01*
X85482419Y-79855358D02*
X85434800Y-79950596D01*
X85434800Y-79950596D02*
X85387180Y-79998215D01*
X85387180Y-79998215D02*
X85291942Y-80045834D01*
X85291942Y-80045834D02*
X84482419Y-80045834D01*
X84577657Y-80474406D02*
X84530038Y-80522025D01*
X84530038Y-80522025D02*
X84482419Y-80617263D01*
X84482419Y-80617263D02*
X84482419Y-80855358D01*
X84482419Y-80855358D02*
X84530038Y-80950596D01*
X84530038Y-80950596D02*
X84577657Y-80998215D01*
X84577657Y-80998215D02*
X84672895Y-81045834D01*
X84672895Y-81045834D02*
X84768133Y-81045834D01*
X84768133Y-81045834D02*
X84910990Y-80998215D01*
X84910990Y-80998215D02*
X85482419Y-80426787D01*
X85482419Y-80426787D02*
X85482419Y-81045834D01*
X84815752Y-81902977D02*
X85482419Y-81902977D01*
X84434800Y-81664882D02*
X85149085Y-81426787D01*
X85149085Y-81426787D02*
X85149085Y-82045834D01*
D11*
X89366666Y-109624819D02*
X89699999Y-109148628D01*
X89938094Y-109624819D02*
X89938094Y-108624819D01*
X89938094Y-108624819D02*
X89557142Y-108624819D01*
X89557142Y-108624819D02*
X89461904Y-108672438D01*
X89461904Y-108672438D02*
X89414285Y-108720057D01*
X89414285Y-108720057D02*
X89366666Y-108815295D01*
X89366666Y-108815295D02*
X89366666Y-108958152D01*
X89366666Y-108958152D02*
X89414285Y-109053390D01*
X89414285Y-109053390D02*
X89461904Y-109101009D01*
X89461904Y-109101009D02*
X89557142Y-109148628D01*
X89557142Y-109148628D02*
X89938094Y-109148628D01*
X88795237Y-109053390D02*
X88890475Y-109005771D01*
X88890475Y-109005771D02*
X88938094Y-108958152D01*
X88938094Y-108958152D02*
X88985713Y-108862914D01*
X88985713Y-108862914D02*
X88985713Y-108815295D01*
X88985713Y-108815295D02*
X88938094Y-108720057D01*
X88938094Y-108720057D02*
X88890475Y-108672438D01*
X88890475Y-108672438D02*
X88795237Y-108624819D01*
X88795237Y-108624819D02*
X88604761Y-108624819D01*
X88604761Y-108624819D02*
X88509523Y-108672438D01*
X88509523Y-108672438D02*
X88461904Y-108720057D01*
X88461904Y-108720057D02*
X88414285Y-108815295D01*
X88414285Y-108815295D02*
X88414285Y-108862914D01*
X88414285Y-108862914D02*
X88461904Y-108958152D01*
X88461904Y-108958152D02*
X88509523Y-109005771D01*
X88509523Y-109005771D02*
X88604761Y-109053390D01*
X88604761Y-109053390D02*
X88795237Y-109053390D01*
X88795237Y-109053390D02*
X88890475Y-109101009D01*
X88890475Y-109101009D02*
X88938094Y-109148628D01*
X88938094Y-109148628D02*
X88985713Y-109243866D01*
X88985713Y-109243866D02*
X88985713Y-109434342D01*
X88985713Y-109434342D02*
X88938094Y-109529580D01*
X88938094Y-109529580D02*
X88890475Y-109577200D01*
X88890475Y-109577200D02*
X88795237Y-109624819D01*
X88795237Y-109624819D02*
X88604761Y-109624819D01*
X88604761Y-109624819D02*
X88509523Y-109577200D01*
X88509523Y-109577200D02*
X88461904Y-109529580D01*
X88461904Y-109529580D02*
X88414285Y-109434342D01*
X88414285Y-109434342D02*
X88414285Y-109243866D01*
X88414285Y-109243866D02*
X88461904Y-109148628D01*
X88461904Y-109148628D02*
X88509523Y-109101009D01*
X88509523Y-109101009D02*
X88604761Y-109053390D01*
X83867857Y-104372080D02*
X83915476Y-104419700D01*
X83915476Y-104419700D02*
X84058333Y-104467319D01*
X84058333Y-104467319D02*
X84153571Y-104467319D01*
X84153571Y-104467319D02*
X84296428Y-104419700D01*
X84296428Y-104419700D02*
X84391666Y-104324461D01*
X84391666Y-104324461D02*
X84439285Y-104229223D01*
X84439285Y-104229223D02*
X84486904Y-104038747D01*
X84486904Y-104038747D02*
X84486904Y-103895890D01*
X84486904Y-103895890D02*
X84439285Y-103705414D01*
X84439285Y-103705414D02*
X84391666Y-103610176D01*
X84391666Y-103610176D02*
X84296428Y-103514938D01*
X84296428Y-103514938D02*
X84153571Y-103467319D01*
X84153571Y-103467319D02*
X84058333Y-103467319D01*
X84058333Y-103467319D02*
X83915476Y-103514938D01*
X83915476Y-103514938D02*
X83867857Y-103562557D01*
X83534523Y-103467319D02*
X82915476Y-103467319D01*
X82915476Y-103467319D02*
X83248809Y-103848271D01*
X83248809Y-103848271D02*
X83105952Y-103848271D01*
X83105952Y-103848271D02*
X83010714Y-103895890D01*
X83010714Y-103895890D02*
X82963095Y-103943509D01*
X82963095Y-103943509D02*
X82915476Y-104038747D01*
X82915476Y-104038747D02*
X82915476Y-104276842D01*
X82915476Y-104276842D02*
X82963095Y-104372080D01*
X82963095Y-104372080D02*
X83010714Y-104419700D01*
X83010714Y-104419700D02*
X83105952Y-104467319D01*
X83105952Y-104467319D02*
X83391666Y-104467319D01*
X83391666Y-104467319D02*
X83486904Y-104419700D01*
X83486904Y-104419700D02*
X83534523Y-104372080D01*
X82296428Y-103467319D02*
X82201190Y-103467319D01*
X82201190Y-103467319D02*
X82105952Y-103514938D01*
X82105952Y-103514938D02*
X82058333Y-103562557D01*
X82058333Y-103562557D02*
X82010714Y-103657795D01*
X82010714Y-103657795D02*
X81963095Y-103848271D01*
X81963095Y-103848271D02*
X81963095Y-104086366D01*
X81963095Y-104086366D02*
X82010714Y-104276842D01*
X82010714Y-104276842D02*
X82058333Y-104372080D01*
X82058333Y-104372080D02*
X82105952Y-104419700D01*
X82105952Y-104419700D02*
X82201190Y-104467319D01*
X82201190Y-104467319D02*
X82296428Y-104467319D01*
X82296428Y-104467319D02*
X82391666Y-104419700D01*
X82391666Y-104419700D02*
X82439285Y-104372080D01*
X82439285Y-104372080D02*
X82486904Y-104276842D01*
X82486904Y-104276842D02*
X82534523Y-104086366D01*
X82534523Y-104086366D02*
X82534523Y-103848271D01*
X82534523Y-103848271D02*
X82486904Y-103657795D01*
X82486904Y-103657795D02*
X82439285Y-103562557D01*
X82439285Y-103562557D02*
X82391666Y-103514938D01*
X82391666Y-103514938D02*
X82296428Y-103467319D01*
X87354819Y-115157142D02*
X86878628Y-114823809D01*
X87354819Y-114585714D02*
X86354819Y-114585714D01*
X86354819Y-114585714D02*
X86354819Y-114966666D01*
X86354819Y-114966666D02*
X86402438Y-115061904D01*
X86402438Y-115061904D02*
X86450057Y-115109523D01*
X86450057Y-115109523D02*
X86545295Y-115157142D01*
X86545295Y-115157142D02*
X86688152Y-115157142D01*
X86688152Y-115157142D02*
X86783390Y-115109523D01*
X86783390Y-115109523D02*
X86831009Y-115061904D01*
X86831009Y-115061904D02*
X86878628Y-114966666D01*
X86878628Y-114966666D02*
X86878628Y-114585714D01*
X86354819Y-115490476D02*
X86354819Y-116109523D01*
X86354819Y-116109523D02*
X86735771Y-115776190D01*
X86735771Y-115776190D02*
X86735771Y-115919047D01*
X86735771Y-115919047D02*
X86783390Y-116014285D01*
X86783390Y-116014285D02*
X86831009Y-116061904D01*
X86831009Y-116061904D02*
X86926247Y-116109523D01*
X86926247Y-116109523D02*
X87164342Y-116109523D01*
X87164342Y-116109523D02*
X87259580Y-116061904D01*
X87259580Y-116061904D02*
X87307200Y-116014285D01*
X87307200Y-116014285D02*
X87354819Y-115919047D01*
X87354819Y-115919047D02*
X87354819Y-115633333D01*
X87354819Y-115633333D02*
X87307200Y-115538095D01*
X87307200Y-115538095D02*
X87259580Y-115490476D01*
X86354819Y-116442857D02*
X86354819Y-117061904D01*
X86354819Y-117061904D02*
X86735771Y-116728571D01*
X86735771Y-116728571D02*
X86735771Y-116871428D01*
X86735771Y-116871428D02*
X86783390Y-116966666D01*
X86783390Y-116966666D02*
X86831009Y-117014285D01*
X86831009Y-117014285D02*
X86926247Y-117061904D01*
X86926247Y-117061904D02*
X87164342Y-117061904D01*
X87164342Y-117061904D02*
X87259580Y-117014285D01*
X87259580Y-117014285D02*
X87307200Y-116966666D01*
X87307200Y-116966666D02*
X87354819Y-116871428D01*
X87354819Y-116871428D02*
X87354819Y-116585714D01*
X87354819Y-116585714D02*
X87307200Y-116490476D01*
X87307200Y-116490476D02*
X87259580Y-116442857D01*
X167159580Y-88319642D02*
X167207200Y-88272023D01*
X167207200Y-88272023D02*
X167254819Y-88129166D01*
X167254819Y-88129166D02*
X167254819Y-88033928D01*
X167254819Y-88033928D02*
X167207200Y-87891071D01*
X167207200Y-87891071D02*
X167111961Y-87795833D01*
X167111961Y-87795833D02*
X167016723Y-87748214D01*
X167016723Y-87748214D02*
X166826247Y-87700595D01*
X166826247Y-87700595D02*
X166683390Y-87700595D01*
X166683390Y-87700595D02*
X166492914Y-87748214D01*
X166492914Y-87748214D02*
X166397676Y-87795833D01*
X166397676Y-87795833D02*
X166302438Y-87891071D01*
X166302438Y-87891071D02*
X166254819Y-88033928D01*
X166254819Y-88033928D02*
X166254819Y-88129166D01*
X166254819Y-88129166D02*
X166302438Y-88272023D01*
X166302438Y-88272023D02*
X166350057Y-88319642D01*
X167254819Y-89272023D02*
X167254819Y-88700595D01*
X167254819Y-88986309D02*
X166254819Y-88986309D01*
X166254819Y-88986309D02*
X166397676Y-88891071D01*
X166397676Y-88891071D02*
X166492914Y-88795833D01*
X166492914Y-88795833D02*
X166540533Y-88700595D01*
X166254819Y-89605357D02*
X166254819Y-90224404D01*
X166254819Y-90224404D02*
X166635771Y-89891071D01*
X166635771Y-89891071D02*
X166635771Y-90033928D01*
X166635771Y-90033928D02*
X166683390Y-90129166D01*
X166683390Y-90129166D02*
X166731009Y-90176785D01*
X166731009Y-90176785D02*
X166826247Y-90224404D01*
X166826247Y-90224404D02*
X167064342Y-90224404D01*
X167064342Y-90224404D02*
X167159580Y-90176785D01*
X167159580Y-90176785D02*
X167207200Y-90129166D01*
X167207200Y-90129166D02*
X167254819Y-90033928D01*
X167254819Y-90033928D02*
X167254819Y-89748214D01*
X167254819Y-89748214D02*
X167207200Y-89652976D01*
X167207200Y-89652976D02*
X167159580Y-89605357D01*
X136592857Y-73167319D02*
X136926190Y-72691128D01*
X137164285Y-73167319D02*
X137164285Y-72167319D01*
X137164285Y-72167319D02*
X136783333Y-72167319D01*
X136783333Y-72167319D02*
X136688095Y-72214938D01*
X136688095Y-72214938D02*
X136640476Y-72262557D01*
X136640476Y-72262557D02*
X136592857Y-72357795D01*
X136592857Y-72357795D02*
X136592857Y-72500652D01*
X136592857Y-72500652D02*
X136640476Y-72595890D01*
X136640476Y-72595890D02*
X136688095Y-72643509D01*
X136688095Y-72643509D02*
X136783333Y-72691128D01*
X136783333Y-72691128D02*
X137164285Y-72691128D01*
X135640476Y-73167319D02*
X136211904Y-73167319D01*
X135926190Y-73167319D02*
X135926190Y-72167319D01*
X135926190Y-72167319D02*
X136021428Y-72310176D01*
X136021428Y-72310176D02*
X136116666Y-72405414D01*
X136116666Y-72405414D02*
X136211904Y-72453033D01*
X135021428Y-72167319D02*
X134926190Y-72167319D01*
X134926190Y-72167319D02*
X134830952Y-72214938D01*
X134830952Y-72214938D02*
X134783333Y-72262557D01*
X134783333Y-72262557D02*
X134735714Y-72357795D01*
X134735714Y-72357795D02*
X134688095Y-72548271D01*
X134688095Y-72548271D02*
X134688095Y-72786366D01*
X134688095Y-72786366D02*
X134735714Y-72976842D01*
X134735714Y-72976842D02*
X134783333Y-73072080D01*
X134783333Y-73072080D02*
X134830952Y-73119700D01*
X134830952Y-73119700D02*
X134926190Y-73167319D01*
X134926190Y-73167319D02*
X135021428Y-73167319D01*
X135021428Y-73167319D02*
X135116666Y-73119700D01*
X135116666Y-73119700D02*
X135164285Y-73072080D01*
X135164285Y-73072080D02*
X135211904Y-72976842D01*
X135211904Y-72976842D02*
X135259523Y-72786366D01*
X135259523Y-72786366D02*
X135259523Y-72548271D01*
X135259523Y-72548271D02*
X135211904Y-72357795D01*
X135211904Y-72357795D02*
X135164285Y-72262557D01*
X135164285Y-72262557D02*
X135116666Y-72214938D01*
X135116666Y-72214938D02*
X135021428Y-72167319D01*
X155642857Y-111267319D02*
X155976190Y-110791128D01*
X156214285Y-111267319D02*
X156214285Y-110267319D01*
X156214285Y-110267319D02*
X155833333Y-110267319D01*
X155833333Y-110267319D02*
X155738095Y-110314938D01*
X155738095Y-110314938D02*
X155690476Y-110362557D01*
X155690476Y-110362557D02*
X155642857Y-110457795D01*
X155642857Y-110457795D02*
X155642857Y-110600652D01*
X155642857Y-110600652D02*
X155690476Y-110695890D01*
X155690476Y-110695890D02*
X155738095Y-110743509D01*
X155738095Y-110743509D02*
X155833333Y-110791128D01*
X155833333Y-110791128D02*
X156214285Y-110791128D01*
X155309523Y-110267319D02*
X154690476Y-110267319D01*
X154690476Y-110267319D02*
X155023809Y-110648271D01*
X155023809Y-110648271D02*
X154880952Y-110648271D01*
X154880952Y-110648271D02*
X154785714Y-110695890D01*
X154785714Y-110695890D02*
X154738095Y-110743509D01*
X154738095Y-110743509D02*
X154690476Y-110838747D01*
X154690476Y-110838747D02*
X154690476Y-111076842D01*
X154690476Y-111076842D02*
X154738095Y-111172080D01*
X154738095Y-111172080D02*
X154785714Y-111219700D01*
X154785714Y-111219700D02*
X154880952Y-111267319D01*
X154880952Y-111267319D02*
X155166666Y-111267319D01*
X155166666Y-111267319D02*
X155261904Y-111219700D01*
X155261904Y-111219700D02*
X155309523Y-111172080D01*
X154071428Y-110267319D02*
X153976190Y-110267319D01*
X153976190Y-110267319D02*
X153880952Y-110314938D01*
X153880952Y-110314938D02*
X153833333Y-110362557D01*
X153833333Y-110362557D02*
X153785714Y-110457795D01*
X153785714Y-110457795D02*
X153738095Y-110648271D01*
X153738095Y-110648271D02*
X153738095Y-110886366D01*
X153738095Y-110886366D02*
X153785714Y-111076842D01*
X153785714Y-111076842D02*
X153833333Y-111172080D01*
X153833333Y-111172080D02*
X153880952Y-111219700D01*
X153880952Y-111219700D02*
X153976190Y-111267319D01*
X153976190Y-111267319D02*
X154071428Y-111267319D01*
X154071428Y-111267319D02*
X154166666Y-111219700D01*
X154166666Y-111219700D02*
X154214285Y-111172080D01*
X154214285Y-111172080D02*
X154261904Y-111076842D01*
X154261904Y-111076842D02*
X154309523Y-110886366D01*
X154309523Y-110886366D02*
X154309523Y-110648271D01*
X154309523Y-110648271D02*
X154261904Y-110457795D01*
X154261904Y-110457795D02*
X154214285Y-110362557D01*
X154214285Y-110362557D02*
X154166666Y-110314938D01*
X154166666Y-110314938D02*
X154071428Y-110267319D01*
X78484580Y-83669642D02*
X78532200Y-83622023D01*
X78532200Y-83622023D02*
X78579819Y-83479166D01*
X78579819Y-83479166D02*
X78579819Y-83383928D01*
X78579819Y-83383928D02*
X78532200Y-83241071D01*
X78532200Y-83241071D02*
X78436961Y-83145833D01*
X78436961Y-83145833D02*
X78341723Y-83098214D01*
X78341723Y-83098214D02*
X78151247Y-83050595D01*
X78151247Y-83050595D02*
X78008390Y-83050595D01*
X78008390Y-83050595D02*
X77817914Y-83098214D01*
X77817914Y-83098214D02*
X77722676Y-83145833D01*
X77722676Y-83145833D02*
X77627438Y-83241071D01*
X77627438Y-83241071D02*
X77579819Y-83383928D01*
X77579819Y-83383928D02*
X77579819Y-83479166D01*
X77579819Y-83479166D02*
X77627438Y-83622023D01*
X77627438Y-83622023D02*
X77675057Y-83669642D01*
X77579819Y-84002976D02*
X77579819Y-84622023D01*
X77579819Y-84622023D02*
X77960771Y-84288690D01*
X77960771Y-84288690D02*
X77960771Y-84431547D01*
X77960771Y-84431547D02*
X78008390Y-84526785D01*
X78008390Y-84526785D02*
X78056009Y-84574404D01*
X78056009Y-84574404D02*
X78151247Y-84622023D01*
X78151247Y-84622023D02*
X78389342Y-84622023D01*
X78389342Y-84622023D02*
X78484580Y-84574404D01*
X78484580Y-84574404D02*
X78532200Y-84526785D01*
X78532200Y-84526785D02*
X78579819Y-84431547D01*
X78579819Y-84431547D02*
X78579819Y-84145833D01*
X78579819Y-84145833D02*
X78532200Y-84050595D01*
X78532200Y-84050595D02*
X78484580Y-84002976D01*
X78579819Y-85574404D02*
X78579819Y-85002976D01*
X78579819Y-85288690D02*
X77579819Y-85288690D01*
X77579819Y-85288690D02*
X77722676Y-85193452D01*
X77722676Y-85193452D02*
X77817914Y-85098214D01*
X77817914Y-85098214D02*
X77865533Y-85002976D01*
X129059580Y-107369642D02*
X129107200Y-107322023D01*
X129107200Y-107322023D02*
X129154819Y-107179166D01*
X129154819Y-107179166D02*
X129154819Y-107083928D01*
X129154819Y-107083928D02*
X129107200Y-106941071D01*
X129107200Y-106941071D02*
X129011961Y-106845833D01*
X129011961Y-106845833D02*
X128916723Y-106798214D01*
X128916723Y-106798214D02*
X128726247Y-106750595D01*
X128726247Y-106750595D02*
X128583390Y-106750595D01*
X128583390Y-106750595D02*
X128392914Y-106798214D01*
X128392914Y-106798214D02*
X128297676Y-106845833D01*
X128297676Y-106845833D02*
X128202438Y-106941071D01*
X128202438Y-106941071D02*
X128154819Y-107083928D01*
X128154819Y-107083928D02*
X128154819Y-107179166D01*
X128154819Y-107179166D02*
X128202438Y-107322023D01*
X128202438Y-107322023D02*
X128250057Y-107369642D01*
X129154819Y-108322023D02*
X129154819Y-107750595D01*
X129154819Y-108036309D02*
X128154819Y-108036309D01*
X128154819Y-108036309D02*
X128297676Y-107941071D01*
X128297676Y-107941071D02*
X128392914Y-107845833D01*
X128392914Y-107845833D02*
X128440533Y-107750595D01*
X128154819Y-109179166D02*
X128154819Y-108988690D01*
X128154819Y-108988690D02*
X128202438Y-108893452D01*
X128202438Y-108893452D02*
X128250057Y-108845833D01*
X128250057Y-108845833D02*
X128392914Y-108750595D01*
X128392914Y-108750595D02*
X128583390Y-108702976D01*
X128583390Y-108702976D02*
X128964342Y-108702976D01*
X128964342Y-108702976D02*
X129059580Y-108750595D01*
X129059580Y-108750595D02*
X129107200Y-108798214D01*
X129107200Y-108798214D02*
X129154819Y-108893452D01*
X129154819Y-108893452D02*
X129154819Y-109083928D01*
X129154819Y-109083928D02*
X129107200Y-109179166D01*
X129107200Y-109179166D02*
X129059580Y-109226785D01*
X129059580Y-109226785D02*
X128964342Y-109274404D01*
X128964342Y-109274404D02*
X128726247Y-109274404D01*
X128726247Y-109274404D02*
X128631009Y-109226785D01*
X128631009Y-109226785D02*
X128583390Y-109179166D01*
X128583390Y-109179166D02*
X128535771Y-109083928D01*
X128535771Y-109083928D02*
X128535771Y-108893452D01*
X128535771Y-108893452D02*
X128583390Y-108798214D01*
X128583390Y-108798214D02*
X128631009Y-108750595D01*
X128631009Y-108750595D02*
X128726247Y-108702976D01*
X87354819Y-83257142D02*
X86878628Y-82923809D01*
X87354819Y-82685714D02*
X86354819Y-82685714D01*
X86354819Y-82685714D02*
X86354819Y-83066666D01*
X86354819Y-83066666D02*
X86402438Y-83161904D01*
X86402438Y-83161904D02*
X86450057Y-83209523D01*
X86450057Y-83209523D02*
X86545295Y-83257142D01*
X86545295Y-83257142D02*
X86688152Y-83257142D01*
X86688152Y-83257142D02*
X86783390Y-83209523D01*
X86783390Y-83209523D02*
X86831009Y-83161904D01*
X86831009Y-83161904D02*
X86878628Y-83066666D01*
X86878628Y-83066666D02*
X86878628Y-82685714D01*
X86688152Y-84114285D02*
X87354819Y-84114285D01*
X86307200Y-83876190D02*
X87021485Y-83638095D01*
X87021485Y-83638095D02*
X87021485Y-84257142D01*
X87354819Y-85161904D02*
X87354819Y-84590476D01*
X87354819Y-84876190D02*
X86354819Y-84876190D01*
X86354819Y-84876190D02*
X86497676Y-84780952D01*
X86497676Y-84780952D02*
X86592914Y-84685714D01*
X86592914Y-84685714D02*
X86640533Y-84590476D01*
X226592856Y-112354819D02*
X226926189Y-111878628D01*
X227164284Y-112354819D02*
X227164284Y-111354819D01*
X227164284Y-111354819D02*
X226783332Y-111354819D01*
X226783332Y-111354819D02*
X226688094Y-111402438D01*
X226688094Y-111402438D02*
X226640475Y-111450057D01*
X226640475Y-111450057D02*
X226592856Y-111545295D01*
X226592856Y-111545295D02*
X226592856Y-111688152D01*
X226592856Y-111688152D02*
X226640475Y-111783390D01*
X226640475Y-111783390D02*
X226688094Y-111831009D01*
X226688094Y-111831009D02*
X226783332Y-111878628D01*
X226783332Y-111878628D02*
X227164284Y-111878628D01*
X225640475Y-112354819D02*
X226211903Y-112354819D01*
X225926189Y-112354819D02*
X225926189Y-111354819D01*
X225926189Y-111354819D02*
X226021427Y-111497676D01*
X226021427Y-111497676D02*
X226116665Y-111592914D01*
X226116665Y-111592914D02*
X226211903Y-111640533D01*
X225164284Y-112354819D02*
X224973808Y-112354819D01*
X224973808Y-112354819D02*
X224878570Y-112307200D01*
X224878570Y-112307200D02*
X224830951Y-112259580D01*
X224830951Y-112259580D02*
X224735713Y-112116723D01*
X224735713Y-112116723D02*
X224688094Y-111926247D01*
X224688094Y-111926247D02*
X224688094Y-111545295D01*
X224688094Y-111545295D02*
X224735713Y-111450057D01*
X224735713Y-111450057D02*
X224783332Y-111402438D01*
X224783332Y-111402438D02*
X224878570Y-111354819D01*
X224878570Y-111354819D02*
X225069046Y-111354819D01*
X225069046Y-111354819D02*
X225164284Y-111402438D01*
X225164284Y-111402438D02*
X225211903Y-111450057D01*
X225211903Y-111450057D02*
X225259522Y-111545295D01*
X225259522Y-111545295D02*
X225259522Y-111783390D01*
X225259522Y-111783390D02*
X225211903Y-111878628D01*
X225211903Y-111878628D02*
X225164284Y-111926247D01*
X225164284Y-111926247D02*
X225069046Y-111973866D01*
X225069046Y-111973866D02*
X224878570Y-111973866D01*
X224878570Y-111973866D02*
X224783332Y-111926247D01*
X224783332Y-111926247D02*
X224735713Y-111878628D01*
X224735713Y-111878628D02*
X224688094Y-111783390D01*
X176709580Y-120419642D02*
X176757200Y-120372023D01*
X176757200Y-120372023D02*
X176804819Y-120229166D01*
X176804819Y-120229166D02*
X176804819Y-120133928D01*
X176804819Y-120133928D02*
X176757200Y-119991071D01*
X176757200Y-119991071D02*
X176661961Y-119895833D01*
X176661961Y-119895833D02*
X176566723Y-119848214D01*
X176566723Y-119848214D02*
X176376247Y-119800595D01*
X176376247Y-119800595D02*
X176233390Y-119800595D01*
X176233390Y-119800595D02*
X176042914Y-119848214D01*
X176042914Y-119848214D02*
X175947676Y-119895833D01*
X175947676Y-119895833D02*
X175852438Y-119991071D01*
X175852438Y-119991071D02*
X175804819Y-120133928D01*
X175804819Y-120133928D02*
X175804819Y-120229166D01*
X175804819Y-120229166D02*
X175852438Y-120372023D01*
X175852438Y-120372023D02*
X175900057Y-120419642D01*
X175900057Y-120800595D02*
X175852438Y-120848214D01*
X175852438Y-120848214D02*
X175804819Y-120943452D01*
X175804819Y-120943452D02*
X175804819Y-121181547D01*
X175804819Y-121181547D02*
X175852438Y-121276785D01*
X175852438Y-121276785D02*
X175900057Y-121324404D01*
X175900057Y-121324404D02*
X175995295Y-121372023D01*
X175995295Y-121372023D02*
X176090533Y-121372023D01*
X176090533Y-121372023D02*
X176233390Y-121324404D01*
X176233390Y-121324404D02*
X176804819Y-120752976D01*
X176804819Y-120752976D02*
X176804819Y-121372023D01*
X175804819Y-121705357D02*
X175804819Y-122372023D01*
X175804819Y-122372023D02*
X176804819Y-121943452D01*
X136592857Y-92217319D02*
X136926190Y-91741128D01*
X137164285Y-92217319D02*
X137164285Y-91217319D01*
X137164285Y-91217319D02*
X136783333Y-91217319D01*
X136783333Y-91217319D02*
X136688095Y-91264938D01*
X136688095Y-91264938D02*
X136640476Y-91312557D01*
X136640476Y-91312557D02*
X136592857Y-91407795D01*
X136592857Y-91407795D02*
X136592857Y-91550652D01*
X136592857Y-91550652D02*
X136640476Y-91645890D01*
X136640476Y-91645890D02*
X136688095Y-91693509D01*
X136688095Y-91693509D02*
X136783333Y-91741128D01*
X136783333Y-91741128D02*
X137164285Y-91741128D01*
X135640476Y-92217319D02*
X136211904Y-92217319D01*
X135926190Y-92217319D02*
X135926190Y-91217319D01*
X135926190Y-91217319D02*
X136021428Y-91360176D01*
X136021428Y-91360176D02*
X136116666Y-91455414D01*
X136116666Y-91455414D02*
X136211904Y-91503033D01*
X134735714Y-91217319D02*
X135211904Y-91217319D01*
X135211904Y-91217319D02*
X135259523Y-91693509D01*
X135259523Y-91693509D02*
X135211904Y-91645890D01*
X135211904Y-91645890D02*
X135116666Y-91598271D01*
X135116666Y-91598271D02*
X134878571Y-91598271D01*
X134878571Y-91598271D02*
X134783333Y-91645890D01*
X134783333Y-91645890D02*
X134735714Y-91693509D01*
X134735714Y-91693509D02*
X134688095Y-91788747D01*
X134688095Y-91788747D02*
X134688095Y-92026842D01*
X134688095Y-92026842D02*
X134735714Y-92122080D01*
X134735714Y-92122080D02*
X134783333Y-92169700D01*
X134783333Y-92169700D02*
X134878571Y-92217319D01*
X134878571Y-92217319D02*
X135116666Y-92217319D01*
X135116666Y-92217319D02*
X135211904Y-92169700D01*
X135211904Y-92169700D02*
X135259523Y-92122080D01*
X117066666Y-73167319D02*
X117399999Y-72691128D01*
X117638094Y-73167319D02*
X117638094Y-72167319D01*
X117638094Y-72167319D02*
X117257142Y-72167319D01*
X117257142Y-72167319D02*
X117161904Y-72214938D01*
X117161904Y-72214938D02*
X117114285Y-72262557D01*
X117114285Y-72262557D02*
X117066666Y-72357795D01*
X117066666Y-72357795D02*
X117066666Y-72500652D01*
X117066666Y-72500652D02*
X117114285Y-72595890D01*
X117114285Y-72595890D02*
X117161904Y-72643509D01*
X117161904Y-72643509D02*
X117257142Y-72691128D01*
X117257142Y-72691128D02*
X117638094Y-72691128D01*
X116590475Y-73167319D02*
X116399999Y-73167319D01*
X116399999Y-73167319D02*
X116304761Y-73119700D01*
X116304761Y-73119700D02*
X116257142Y-73072080D01*
X116257142Y-73072080D02*
X116161904Y-72929223D01*
X116161904Y-72929223D02*
X116114285Y-72738747D01*
X116114285Y-72738747D02*
X116114285Y-72357795D01*
X116114285Y-72357795D02*
X116161904Y-72262557D01*
X116161904Y-72262557D02*
X116209523Y-72214938D01*
X116209523Y-72214938D02*
X116304761Y-72167319D01*
X116304761Y-72167319D02*
X116495237Y-72167319D01*
X116495237Y-72167319D02*
X116590475Y-72214938D01*
X116590475Y-72214938D02*
X116638094Y-72262557D01*
X116638094Y-72262557D02*
X116685713Y-72357795D01*
X116685713Y-72357795D02*
X116685713Y-72595890D01*
X116685713Y-72595890D02*
X116638094Y-72691128D01*
X116638094Y-72691128D02*
X116590475Y-72738747D01*
X116590475Y-72738747D02*
X116495237Y-72786366D01*
X116495237Y-72786366D02*
X116304761Y-72786366D01*
X116304761Y-72786366D02*
X116209523Y-72738747D01*
X116209523Y-72738747D02*
X116161904Y-72691128D01*
X116161904Y-72691128D02*
X116114285Y-72595890D01*
X117542857Y-111267319D02*
X117876190Y-110791128D01*
X118114285Y-111267319D02*
X118114285Y-110267319D01*
X118114285Y-110267319D02*
X117733333Y-110267319D01*
X117733333Y-110267319D02*
X117638095Y-110314938D01*
X117638095Y-110314938D02*
X117590476Y-110362557D01*
X117590476Y-110362557D02*
X117542857Y-110457795D01*
X117542857Y-110457795D02*
X117542857Y-110600652D01*
X117542857Y-110600652D02*
X117590476Y-110695890D01*
X117590476Y-110695890D02*
X117638095Y-110743509D01*
X117638095Y-110743509D02*
X117733333Y-110791128D01*
X117733333Y-110791128D02*
X118114285Y-110791128D01*
X117161904Y-110362557D02*
X117114285Y-110314938D01*
X117114285Y-110314938D02*
X117019047Y-110267319D01*
X117019047Y-110267319D02*
X116780952Y-110267319D01*
X116780952Y-110267319D02*
X116685714Y-110314938D01*
X116685714Y-110314938D02*
X116638095Y-110362557D01*
X116638095Y-110362557D02*
X116590476Y-110457795D01*
X116590476Y-110457795D02*
X116590476Y-110553033D01*
X116590476Y-110553033D02*
X116638095Y-110695890D01*
X116638095Y-110695890D02*
X117209523Y-111267319D01*
X117209523Y-111267319D02*
X116590476Y-111267319D01*
X116019047Y-110695890D02*
X116114285Y-110648271D01*
X116114285Y-110648271D02*
X116161904Y-110600652D01*
X116161904Y-110600652D02*
X116209523Y-110505414D01*
X116209523Y-110505414D02*
X116209523Y-110457795D01*
X116209523Y-110457795D02*
X116161904Y-110362557D01*
X116161904Y-110362557D02*
X116114285Y-110314938D01*
X116114285Y-110314938D02*
X116019047Y-110267319D01*
X116019047Y-110267319D02*
X115828571Y-110267319D01*
X115828571Y-110267319D02*
X115733333Y-110314938D01*
X115733333Y-110314938D02*
X115685714Y-110362557D01*
X115685714Y-110362557D02*
X115638095Y-110457795D01*
X115638095Y-110457795D02*
X115638095Y-110505414D01*
X115638095Y-110505414D02*
X115685714Y-110600652D01*
X115685714Y-110600652D02*
X115733333Y-110648271D01*
X115733333Y-110648271D02*
X115828571Y-110695890D01*
X115828571Y-110695890D02*
X116019047Y-110695890D01*
X116019047Y-110695890D02*
X116114285Y-110743509D01*
X116114285Y-110743509D02*
X116161904Y-110791128D01*
X116161904Y-110791128D02*
X116209523Y-110886366D01*
X116209523Y-110886366D02*
X116209523Y-111076842D01*
X116209523Y-111076842D02*
X116161904Y-111172080D01*
X116161904Y-111172080D02*
X116114285Y-111219700D01*
X116114285Y-111219700D02*
X116019047Y-111267319D01*
X116019047Y-111267319D02*
X115828571Y-111267319D01*
X115828571Y-111267319D02*
X115733333Y-111219700D01*
X115733333Y-111219700D02*
X115685714Y-111172080D01*
X115685714Y-111172080D02*
X115638095Y-111076842D01*
X115638095Y-111076842D02*
X115638095Y-110886366D01*
X115638095Y-110886366D02*
X115685714Y-110791128D01*
X115685714Y-110791128D02*
X115733333Y-110743509D01*
X115733333Y-110743509D02*
X115828571Y-110695890D01*
X138609580Y-120419642D02*
X138657200Y-120372023D01*
X138657200Y-120372023D02*
X138704819Y-120229166D01*
X138704819Y-120229166D02*
X138704819Y-120133928D01*
X138704819Y-120133928D02*
X138657200Y-119991071D01*
X138657200Y-119991071D02*
X138561961Y-119895833D01*
X138561961Y-119895833D02*
X138466723Y-119848214D01*
X138466723Y-119848214D02*
X138276247Y-119800595D01*
X138276247Y-119800595D02*
X138133390Y-119800595D01*
X138133390Y-119800595D02*
X137942914Y-119848214D01*
X137942914Y-119848214D02*
X137847676Y-119895833D01*
X137847676Y-119895833D02*
X137752438Y-119991071D01*
X137752438Y-119991071D02*
X137704819Y-120133928D01*
X137704819Y-120133928D02*
X137704819Y-120229166D01*
X137704819Y-120229166D02*
X137752438Y-120372023D01*
X137752438Y-120372023D02*
X137800057Y-120419642D01*
X137800057Y-120800595D02*
X137752438Y-120848214D01*
X137752438Y-120848214D02*
X137704819Y-120943452D01*
X137704819Y-120943452D02*
X137704819Y-121181547D01*
X137704819Y-121181547D02*
X137752438Y-121276785D01*
X137752438Y-121276785D02*
X137800057Y-121324404D01*
X137800057Y-121324404D02*
X137895295Y-121372023D01*
X137895295Y-121372023D02*
X137990533Y-121372023D01*
X137990533Y-121372023D02*
X138133390Y-121324404D01*
X138133390Y-121324404D02*
X138704819Y-120752976D01*
X138704819Y-120752976D02*
X138704819Y-121372023D01*
X137704819Y-122276785D02*
X137704819Y-121800595D01*
X137704819Y-121800595D02*
X138181009Y-121752976D01*
X138181009Y-121752976D02*
X138133390Y-121800595D01*
X138133390Y-121800595D02*
X138085771Y-121895833D01*
X138085771Y-121895833D02*
X138085771Y-122133928D01*
X138085771Y-122133928D02*
X138133390Y-122229166D01*
X138133390Y-122229166D02*
X138181009Y-122276785D01*
X138181009Y-122276785D02*
X138276247Y-122324404D01*
X138276247Y-122324404D02*
X138514342Y-122324404D01*
X138514342Y-122324404D02*
X138609580Y-122276785D01*
X138609580Y-122276785D02*
X138657200Y-122229166D01*
X138657200Y-122229166D02*
X138704819Y-122133928D01*
X138704819Y-122133928D02*
X138704819Y-121895833D01*
X138704819Y-121895833D02*
X138657200Y-121800595D01*
X138657200Y-121800595D02*
X138609580Y-121752976D01*
X222417857Y-95017319D02*
X222751190Y-94541128D01*
X222989285Y-95017319D02*
X222989285Y-94017319D01*
X222989285Y-94017319D02*
X222608333Y-94017319D01*
X222608333Y-94017319D02*
X222513095Y-94064938D01*
X222513095Y-94064938D02*
X222465476Y-94112557D01*
X222465476Y-94112557D02*
X222417857Y-94207795D01*
X222417857Y-94207795D02*
X222417857Y-94350652D01*
X222417857Y-94350652D02*
X222465476Y-94445890D01*
X222465476Y-94445890D02*
X222513095Y-94493509D01*
X222513095Y-94493509D02*
X222608333Y-94541128D01*
X222608333Y-94541128D02*
X222989285Y-94541128D01*
X222036904Y-94112557D02*
X221989285Y-94064938D01*
X221989285Y-94064938D02*
X221894047Y-94017319D01*
X221894047Y-94017319D02*
X221655952Y-94017319D01*
X221655952Y-94017319D02*
X221560714Y-94064938D01*
X221560714Y-94064938D02*
X221513095Y-94112557D01*
X221513095Y-94112557D02*
X221465476Y-94207795D01*
X221465476Y-94207795D02*
X221465476Y-94303033D01*
X221465476Y-94303033D02*
X221513095Y-94445890D01*
X221513095Y-94445890D02*
X222084523Y-95017319D01*
X222084523Y-95017319D02*
X221465476Y-95017319D01*
X220846428Y-94017319D02*
X220751190Y-94017319D01*
X220751190Y-94017319D02*
X220655952Y-94064938D01*
X220655952Y-94064938D02*
X220608333Y-94112557D01*
X220608333Y-94112557D02*
X220560714Y-94207795D01*
X220560714Y-94207795D02*
X220513095Y-94398271D01*
X220513095Y-94398271D02*
X220513095Y-94636366D01*
X220513095Y-94636366D02*
X220560714Y-94826842D01*
X220560714Y-94826842D02*
X220608333Y-94922080D01*
X220608333Y-94922080D02*
X220655952Y-94969700D01*
X220655952Y-94969700D02*
X220751190Y-95017319D01*
X220751190Y-95017319D02*
X220846428Y-95017319D01*
X220846428Y-95017319D02*
X220941666Y-94969700D01*
X220941666Y-94969700D02*
X220989285Y-94922080D01*
X220989285Y-94922080D02*
X221036904Y-94826842D01*
X221036904Y-94826842D02*
X221084523Y-94636366D01*
X221084523Y-94636366D02*
X221084523Y-94398271D01*
X221084523Y-94398271D02*
X221036904Y-94207795D01*
X221036904Y-94207795D02*
X220989285Y-94112557D01*
X220989285Y-94112557D02*
X220941666Y-94064938D01*
X220941666Y-94064938D02*
X220846428Y-94017319D01*
X148109580Y-88319642D02*
X148157200Y-88272023D01*
X148157200Y-88272023D02*
X148204819Y-88129166D01*
X148204819Y-88129166D02*
X148204819Y-88033928D01*
X148204819Y-88033928D02*
X148157200Y-87891071D01*
X148157200Y-87891071D02*
X148061961Y-87795833D01*
X148061961Y-87795833D02*
X147966723Y-87748214D01*
X147966723Y-87748214D02*
X147776247Y-87700595D01*
X147776247Y-87700595D02*
X147633390Y-87700595D01*
X147633390Y-87700595D02*
X147442914Y-87748214D01*
X147442914Y-87748214D02*
X147347676Y-87795833D01*
X147347676Y-87795833D02*
X147252438Y-87891071D01*
X147252438Y-87891071D02*
X147204819Y-88033928D01*
X147204819Y-88033928D02*
X147204819Y-88129166D01*
X147204819Y-88129166D02*
X147252438Y-88272023D01*
X147252438Y-88272023D02*
X147300057Y-88319642D01*
X148204819Y-89272023D02*
X148204819Y-88700595D01*
X148204819Y-88986309D02*
X147204819Y-88986309D01*
X147204819Y-88986309D02*
X147347676Y-88891071D01*
X147347676Y-88891071D02*
X147442914Y-88795833D01*
X147442914Y-88795833D02*
X147490533Y-88700595D01*
X147300057Y-89652976D02*
X147252438Y-89700595D01*
X147252438Y-89700595D02*
X147204819Y-89795833D01*
X147204819Y-89795833D02*
X147204819Y-90033928D01*
X147204819Y-90033928D02*
X147252438Y-90129166D01*
X147252438Y-90129166D02*
X147300057Y-90176785D01*
X147300057Y-90176785D02*
X147395295Y-90224404D01*
X147395295Y-90224404D02*
X147490533Y-90224404D01*
X147490533Y-90224404D02*
X147633390Y-90176785D01*
X147633390Y-90176785D02*
X148204819Y-89605357D01*
X148204819Y-89605357D02*
X148204819Y-90224404D01*
X174692857Y-111267319D02*
X175026190Y-110791128D01*
X175264285Y-111267319D02*
X175264285Y-110267319D01*
X175264285Y-110267319D02*
X174883333Y-110267319D01*
X174883333Y-110267319D02*
X174788095Y-110314938D01*
X174788095Y-110314938D02*
X174740476Y-110362557D01*
X174740476Y-110362557D02*
X174692857Y-110457795D01*
X174692857Y-110457795D02*
X174692857Y-110600652D01*
X174692857Y-110600652D02*
X174740476Y-110695890D01*
X174740476Y-110695890D02*
X174788095Y-110743509D01*
X174788095Y-110743509D02*
X174883333Y-110791128D01*
X174883333Y-110791128D02*
X175264285Y-110791128D01*
X174359523Y-110267319D02*
X173740476Y-110267319D01*
X173740476Y-110267319D02*
X174073809Y-110648271D01*
X174073809Y-110648271D02*
X173930952Y-110648271D01*
X173930952Y-110648271D02*
X173835714Y-110695890D01*
X173835714Y-110695890D02*
X173788095Y-110743509D01*
X173788095Y-110743509D02*
X173740476Y-110838747D01*
X173740476Y-110838747D02*
X173740476Y-111076842D01*
X173740476Y-111076842D02*
X173788095Y-111172080D01*
X173788095Y-111172080D02*
X173835714Y-111219700D01*
X173835714Y-111219700D02*
X173930952Y-111267319D01*
X173930952Y-111267319D02*
X174216666Y-111267319D01*
X174216666Y-111267319D02*
X174311904Y-111219700D01*
X174311904Y-111219700D02*
X174359523Y-111172080D01*
X172788095Y-111267319D02*
X173359523Y-111267319D01*
X173073809Y-111267319D02*
X173073809Y-110267319D01*
X173073809Y-110267319D02*
X173169047Y-110410176D01*
X173169047Y-110410176D02*
X173264285Y-110505414D01*
X173264285Y-110505414D02*
X173359523Y-110553033D01*
X96091666Y-111612080D02*
X96139285Y-111659700D01*
X96139285Y-111659700D02*
X96282142Y-111707319D01*
X96282142Y-111707319D02*
X96377380Y-111707319D01*
X96377380Y-111707319D02*
X96520237Y-111659700D01*
X96520237Y-111659700D02*
X96615475Y-111564461D01*
X96615475Y-111564461D02*
X96663094Y-111469223D01*
X96663094Y-111469223D02*
X96710713Y-111278747D01*
X96710713Y-111278747D02*
X96710713Y-111135890D01*
X96710713Y-111135890D02*
X96663094Y-110945414D01*
X96663094Y-110945414D02*
X96615475Y-110850176D01*
X96615475Y-110850176D02*
X96520237Y-110754938D01*
X96520237Y-110754938D02*
X96377380Y-110707319D01*
X96377380Y-110707319D02*
X96282142Y-110707319D01*
X96282142Y-110707319D02*
X96139285Y-110754938D01*
X96139285Y-110754938D02*
X96091666Y-110802557D01*
X95186904Y-110707319D02*
X95663094Y-110707319D01*
X95663094Y-110707319D02*
X95710713Y-111183509D01*
X95710713Y-111183509D02*
X95663094Y-111135890D01*
X95663094Y-111135890D02*
X95567856Y-111088271D01*
X95567856Y-111088271D02*
X95329761Y-111088271D01*
X95329761Y-111088271D02*
X95234523Y-111135890D01*
X95234523Y-111135890D02*
X95186904Y-111183509D01*
X95186904Y-111183509D02*
X95139285Y-111278747D01*
X95139285Y-111278747D02*
X95139285Y-111516842D01*
X95139285Y-111516842D02*
X95186904Y-111612080D01*
X95186904Y-111612080D02*
X95234523Y-111659700D01*
X95234523Y-111659700D02*
X95329761Y-111707319D01*
X95329761Y-111707319D02*
X95567856Y-111707319D01*
X95567856Y-111707319D02*
X95663094Y-111659700D01*
X95663094Y-111659700D02*
X95710713Y-111612080D01*
X100399819Y-84095833D02*
X99923628Y-83762500D01*
X100399819Y-83524405D02*
X99399819Y-83524405D01*
X99399819Y-83524405D02*
X99399819Y-83905357D01*
X99399819Y-83905357D02*
X99447438Y-84000595D01*
X99447438Y-84000595D02*
X99495057Y-84048214D01*
X99495057Y-84048214D02*
X99590295Y-84095833D01*
X99590295Y-84095833D02*
X99733152Y-84095833D01*
X99733152Y-84095833D02*
X99828390Y-84048214D01*
X99828390Y-84048214D02*
X99876009Y-84000595D01*
X99876009Y-84000595D02*
X99923628Y-83905357D01*
X99923628Y-83905357D02*
X99923628Y-83524405D01*
X100399819Y-85048214D02*
X100399819Y-84476786D01*
X100399819Y-84762500D02*
X99399819Y-84762500D01*
X99399819Y-84762500D02*
X99542676Y-84667262D01*
X99542676Y-84667262D02*
X99637914Y-84572024D01*
X99637914Y-84572024D02*
X99685533Y-84476786D01*
X199834580Y-121419642D02*
X199882200Y-121372023D01*
X199882200Y-121372023D02*
X199929819Y-121229166D01*
X199929819Y-121229166D02*
X199929819Y-121133928D01*
X199929819Y-121133928D02*
X199882200Y-120991071D01*
X199882200Y-120991071D02*
X199786961Y-120895833D01*
X199786961Y-120895833D02*
X199691723Y-120848214D01*
X199691723Y-120848214D02*
X199501247Y-120800595D01*
X199501247Y-120800595D02*
X199358390Y-120800595D01*
X199358390Y-120800595D02*
X199167914Y-120848214D01*
X199167914Y-120848214D02*
X199072676Y-120895833D01*
X199072676Y-120895833D02*
X198977438Y-120991071D01*
X198977438Y-120991071D02*
X198929819Y-121133928D01*
X198929819Y-121133928D02*
X198929819Y-121229166D01*
X198929819Y-121229166D02*
X198977438Y-121372023D01*
X198977438Y-121372023D02*
X199025057Y-121419642D01*
X199929819Y-122372023D02*
X199929819Y-121800595D01*
X199929819Y-122086309D02*
X198929819Y-122086309D01*
X198929819Y-122086309D02*
X199072676Y-121991071D01*
X199072676Y-121991071D02*
X199167914Y-121895833D01*
X199167914Y-121895833D02*
X199215533Y-121800595D01*
X198929819Y-122991071D02*
X198929819Y-123086309D01*
X198929819Y-123086309D02*
X198977438Y-123181547D01*
X198977438Y-123181547D02*
X199025057Y-123229166D01*
X199025057Y-123229166D02*
X199120295Y-123276785D01*
X199120295Y-123276785D02*
X199310771Y-123324404D01*
X199310771Y-123324404D02*
X199548866Y-123324404D01*
X199548866Y-123324404D02*
X199739342Y-123276785D01*
X199739342Y-123276785D02*
X199834580Y-123229166D01*
X199834580Y-123229166D02*
X199882200Y-123181547D01*
X199882200Y-123181547D02*
X199929819Y-123086309D01*
X199929819Y-123086309D02*
X199929819Y-122991071D01*
X199929819Y-122991071D02*
X199882200Y-122895833D01*
X199882200Y-122895833D02*
X199834580Y-122848214D01*
X199834580Y-122848214D02*
X199739342Y-122800595D01*
X199739342Y-122800595D02*
X199548866Y-122752976D01*
X199548866Y-122752976D02*
X199310771Y-122752976D01*
X199310771Y-122752976D02*
X199120295Y-122800595D01*
X199120295Y-122800595D02*
X199025057Y-122848214D01*
X199025057Y-122848214D02*
X198977438Y-122895833D01*
X198977438Y-122895833D02*
X198929819Y-122991071D01*
X196904580Y-116895833D02*
X196952200Y-116848214D01*
X196952200Y-116848214D02*
X196999819Y-116705357D01*
X196999819Y-116705357D02*
X196999819Y-116610119D01*
X196999819Y-116610119D02*
X196952200Y-116467262D01*
X196952200Y-116467262D02*
X196856961Y-116372024D01*
X196856961Y-116372024D02*
X196761723Y-116324405D01*
X196761723Y-116324405D02*
X196571247Y-116276786D01*
X196571247Y-116276786D02*
X196428390Y-116276786D01*
X196428390Y-116276786D02*
X196237914Y-116324405D01*
X196237914Y-116324405D02*
X196142676Y-116372024D01*
X196142676Y-116372024D02*
X196047438Y-116467262D01*
X196047438Y-116467262D02*
X195999819Y-116610119D01*
X195999819Y-116610119D02*
X195999819Y-116705357D01*
X195999819Y-116705357D02*
X196047438Y-116848214D01*
X196047438Y-116848214D02*
X196095057Y-116895833D01*
X196428390Y-117467262D02*
X196380771Y-117372024D01*
X196380771Y-117372024D02*
X196333152Y-117324405D01*
X196333152Y-117324405D02*
X196237914Y-117276786D01*
X196237914Y-117276786D02*
X196190295Y-117276786D01*
X196190295Y-117276786D02*
X196095057Y-117324405D01*
X196095057Y-117324405D02*
X196047438Y-117372024D01*
X196047438Y-117372024D02*
X195999819Y-117467262D01*
X195999819Y-117467262D02*
X195999819Y-117657738D01*
X195999819Y-117657738D02*
X196047438Y-117752976D01*
X196047438Y-117752976D02*
X196095057Y-117800595D01*
X196095057Y-117800595D02*
X196190295Y-117848214D01*
X196190295Y-117848214D02*
X196237914Y-117848214D01*
X196237914Y-117848214D02*
X196333152Y-117800595D01*
X196333152Y-117800595D02*
X196380771Y-117752976D01*
X196380771Y-117752976D02*
X196428390Y-117657738D01*
X196428390Y-117657738D02*
X196428390Y-117467262D01*
X196428390Y-117467262D02*
X196476009Y-117372024D01*
X196476009Y-117372024D02*
X196523628Y-117324405D01*
X196523628Y-117324405D02*
X196618866Y-117276786D01*
X196618866Y-117276786D02*
X196809342Y-117276786D01*
X196809342Y-117276786D02*
X196904580Y-117324405D01*
X196904580Y-117324405D02*
X196952200Y-117372024D01*
X196952200Y-117372024D02*
X196999819Y-117467262D01*
X196999819Y-117467262D02*
X196999819Y-117657738D01*
X196999819Y-117657738D02*
X196952200Y-117752976D01*
X196952200Y-117752976D02*
X196904580Y-117800595D01*
X196904580Y-117800595D02*
X196809342Y-117848214D01*
X196809342Y-117848214D02*
X196618866Y-117848214D01*
X196618866Y-117848214D02*
X196523628Y-117800595D01*
X196523628Y-117800595D02*
X196476009Y-117752976D01*
X196476009Y-117752976D02*
X196428390Y-117657738D01*
X212713094Y-87817319D02*
X212713094Y-88626842D01*
X212713094Y-88626842D02*
X212665475Y-88722080D01*
X212665475Y-88722080D02*
X212617856Y-88769700D01*
X212617856Y-88769700D02*
X212522618Y-88817319D01*
X212522618Y-88817319D02*
X212332142Y-88817319D01*
X212332142Y-88817319D02*
X212236904Y-88769700D01*
X212236904Y-88769700D02*
X212189285Y-88722080D01*
X212189285Y-88722080D02*
X212141666Y-88626842D01*
X212141666Y-88626842D02*
X212141666Y-87817319D01*
X211713094Y-87912557D02*
X211665475Y-87864938D01*
X211665475Y-87864938D02*
X211570237Y-87817319D01*
X211570237Y-87817319D02*
X211332142Y-87817319D01*
X211332142Y-87817319D02*
X211236904Y-87864938D01*
X211236904Y-87864938D02*
X211189285Y-87912557D01*
X211189285Y-87912557D02*
X211141666Y-88007795D01*
X211141666Y-88007795D02*
X211141666Y-88103033D01*
X211141666Y-88103033D02*
X211189285Y-88245890D01*
X211189285Y-88245890D02*
X211760713Y-88817319D01*
X211760713Y-88817319D02*
X211141666Y-88817319D01*
X210570237Y-88245890D02*
X210665475Y-88198271D01*
X210665475Y-88198271D02*
X210713094Y-88150652D01*
X210713094Y-88150652D02*
X210760713Y-88055414D01*
X210760713Y-88055414D02*
X210760713Y-88007795D01*
X210760713Y-88007795D02*
X210713094Y-87912557D01*
X210713094Y-87912557D02*
X210665475Y-87864938D01*
X210665475Y-87864938D02*
X210570237Y-87817319D01*
X210570237Y-87817319D02*
X210379761Y-87817319D01*
X210379761Y-87817319D02*
X210284523Y-87864938D01*
X210284523Y-87864938D02*
X210236904Y-87912557D01*
X210236904Y-87912557D02*
X210189285Y-88007795D01*
X210189285Y-88007795D02*
X210189285Y-88055414D01*
X210189285Y-88055414D02*
X210236904Y-88150652D01*
X210236904Y-88150652D02*
X210284523Y-88198271D01*
X210284523Y-88198271D02*
X210379761Y-88245890D01*
X210379761Y-88245890D02*
X210570237Y-88245890D01*
X210570237Y-88245890D02*
X210665475Y-88293509D01*
X210665475Y-88293509D02*
X210713094Y-88341128D01*
X210713094Y-88341128D02*
X210760713Y-88436366D01*
X210760713Y-88436366D02*
X210760713Y-88626842D01*
X210760713Y-88626842D02*
X210713094Y-88722080D01*
X210713094Y-88722080D02*
X210665475Y-88769700D01*
X210665475Y-88769700D02*
X210570237Y-88817319D01*
X210570237Y-88817319D02*
X210379761Y-88817319D01*
X210379761Y-88817319D02*
X210284523Y-88769700D01*
X210284523Y-88769700D02*
X210236904Y-88722080D01*
X210236904Y-88722080D02*
X210189285Y-88626842D01*
X210189285Y-88626842D02*
X210189285Y-88436366D01*
X210189285Y-88436366D02*
X210236904Y-88341128D01*
X210236904Y-88341128D02*
X210284523Y-88293509D01*
X210284523Y-88293509D02*
X210379761Y-88245890D01*
X208263094Y-90804819D02*
X208263094Y-91614342D01*
X208263094Y-91614342D02*
X208215475Y-91709580D01*
X208215475Y-91709580D02*
X208167856Y-91757200D01*
X208167856Y-91757200D02*
X208072618Y-91804819D01*
X208072618Y-91804819D02*
X207882142Y-91804819D01*
X207882142Y-91804819D02*
X207786904Y-91757200D01*
X207786904Y-91757200D02*
X207739285Y-91709580D01*
X207739285Y-91709580D02*
X207691666Y-91614342D01*
X207691666Y-91614342D02*
X207691666Y-90804819D01*
X207263094Y-90900057D02*
X207215475Y-90852438D01*
X207215475Y-90852438D02*
X207120237Y-90804819D01*
X207120237Y-90804819D02*
X206882142Y-90804819D01*
X206882142Y-90804819D02*
X206786904Y-90852438D01*
X206786904Y-90852438D02*
X206739285Y-90900057D01*
X206739285Y-90900057D02*
X206691666Y-90995295D01*
X206691666Y-90995295D02*
X206691666Y-91090533D01*
X206691666Y-91090533D02*
X206739285Y-91233390D01*
X206739285Y-91233390D02*
X207310713Y-91804819D01*
X207310713Y-91804819D02*
X206691666Y-91804819D01*
X205786904Y-90804819D02*
X206263094Y-90804819D01*
X206263094Y-90804819D02*
X206310713Y-91281009D01*
X206310713Y-91281009D02*
X206263094Y-91233390D01*
X206263094Y-91233390D02*
X206167856Y-91185771D01*
X206167856Y-91185771D02*
X205929761Y-91185771D01*
X205929761Y-91185771D02*
X205834523Y-91233390D01*
X205834523Y-91233390D02*
X205786904Y-91281009D01*
X205786904Y-91281009D02*
X205739285Y-91376247D01*
X205739285Y-91376247D02*
X205739285Y-91614342D01*
X205739285Y-91614342D02*
X205786904Y-91709580D01*
X205786904Y-91709580D02*
X205834523Y-91757200D01*
X205834523Y-91757200D02*
X205929761Y-91804819D01*
X205929761Y-91804819D02*
X206167856Y-91804819D01*
X206167856Y-91804819D02*
X206263094Y-91757200D01*
X206263094Y-91757200D02*
X206310713Y-91709580D01*
X110009580Y-107369642D02*
X110057200Y-107322023D01*
X110057200Y-107322023D02*
X110104819Y-107179166D01*
X110104819Y-107179166D02*
X110104819Y-107083928D01*
X110104819Y-107083928D02*
X110057200Y-106941071D01*
X110057200Y-106941071D02*
X109961961Y-106845833D01*
X109961961Y-106845833D02*
X109866723Y-106798214D01*
X109866723Y-106798214D02*
X109676247Y-106750595D01*
X109676247Y-106750595D02*
X109533390Y-106750595D01*
X109533390Y-106750595D02*
X109342914Y-106798214D01*
X109342914Y-106798214D02*
X109247676Y-106845833D01*
X109247676Y-106845833D02*
X109152438Y-106941071D01*
X109152438Y-106941071D02*
X109104819Y-107083928D01*
X109104819Y-107083928D02*
X109104819Y-107179166D01*
X109104819Y-107179166D02*
X109152438Y-107322023D01*
X109152438Y-107322023D02*
X109200057Y-107369642D01*
X110104819Y-108322023D02*
X110104819Y-107750595D01*
X110104819Y-108036309D02*
X109104819Y-108036309D01*
X109104819Y-108036309D02*
X109247676Y-107941071D01*
X109247676Y-107941071D02*
X109342914Y-107845833D01*
X109342914Y-107845833D02*
X109390533Y-107750595D01*
X109104819Y-109226785D02*
X109104819Y-108750595D01*
X109104819Y-108750595D02*
X109581009Y-108702976D01*
X109581009Y-108702976D02*
X109533390Y-108750595D01*
X109533390Y-108750595D02*
X109485771Y-108845833D01*
X109485771Y-108845833D02*
X109485771Y-109083928D01*
X109485771Y-109083928D02*
X109533390Y-109179166D01*
X109533390Y-109179166D02*
X109581009Y-109226785D01*
X109581009Y-109226785D02*
X109676247Y-109274404D01*
X109676247Y-109274404D02*
X109914342Y-109274404D01*
X109914342Y-109274404D02*
X110009580Y-109226785D01*
X110009580Y-109226785D02*
X110057200Y-109179166D01*
X110057200Y-109179166D02*
X110104819Y-109083928D01*
X110104819Y-109083928D02*
X110104819Y-108845833D01*
X110104819Y-108845833D02*
X110057200Y-108750595D01*
X110057200Y-108750595D02*
X110009580Y-108702976D01*
X102938828Y-84237534D02*
X102938828Y-83937362D01*
X102938828Y-83937362D02*
X102308467Y-83937362D01*
X102938828Y-84777844D02*
X102938828Y-84417637D01*
X102938828Y-84597740D02*
X102308467Y-84597740D01*
X102308467Y-84597740D02*
X102398518Y-84537706D01*
X102398518Y-84537706D02*
X102458553Y-84477672D01*
X102458553Y-84477672D02*
X102488570Y-84417637D01*
X97499819Y-84070833D02*
X97023628Y-83737500D01*
X97499819Y-83499405D02*
X96499819Y-83499405D01*
X96499819Y-83499405D02*
X96499819Y-83880357D01*
X96499819Y-83880357D02*
X96547438Y-83975595D01*
X96547438Y-83975595D02*
X96595057Y-84023214D01*
X96595057Y-84023214D02*
X96690295Y-84070833D01*
X96690295Y-84070833D02*
X96833152Y-84070833D01*
X96833152Y-84070833D02*
X96928390Y-84023214D01*
X96928390Y-84023214D02*
X96976009Y-83975595D01*
X96976009Y-83975595D02*
X97023628Y-83880357D01*
X97023628Y-83880357D02*
X97023628Y-83499405D01*
X96595057Y-84451786D02*
X96547438Y-84499405D01*
X96547438Y-84499405D02*
X96499819Y-84594643D01*
X96499819Y-84594643D02*
X96499819Y-84832738D01*
X96499819Y-84832738D02*
X96547438Y-84927976D01*
X96547438Y-84927976D02*
X96595057Y-84975595D01*
X96595057Y-84975595D02*
X96690295Y-85023214D01*
X96690295Y-85023214D02*
X96785533Y-85023214D01*
X96785533Y-85023214D02*
X96928390Y-84975595D01*
X96928390Y-84975595D02*
X97499819Y-84404167D01*
X97499819Y-84404167D02*
X97499819Y-85023214D01*
X222417857Y-77322080D02*
X222465476Y-77369700D01*
X222465476Y-77369700D02*
X222608333Y-77417319D01*
X222608333Y-77417319D02*
X222703571Y-77417319D01*
X222703571Y-77417319D02*
X222846428Y-77369700D01*
X222846428Y-77369700D02*
X222941666Y-77274461D01*
X222941666Y-77274461D02*
X222989285Y-77179223D01*
X222989285Y-77179223D02*
X223036904Y-76988747D01*
X223036904Y-76988747D02*
X223036904Y-76845890D01*
X223036904Y-76845890D02*
X222989285Y-76655414D01*
X222989285Y-76655414D02*
X222941666Y-76560176D01*
X222941666Y-76560176D02*
X222846428Y-76464938D01*
X222846428Y-76464938D02*
X222703571Y-76417319D01*
X222703571Y-76417319D02*
X222608333Y-76417319D01*
X222608333Y-76417319D02*
X222465476Y-76464938D01*
X222465476Y-76464938D02*
X222417857Y-76512557D01*
X222036904Y-76512557D02*
X221989285Y-76464938D01*
X221989285Y-76464938D02*
X221894047Y-76417319D01*
X221894047Y-76417319D02*
X221655952Y-76417319D01*
X221655952Y-76417319D02*
X221560714Y-76464938D01*
X221560714Y-76464938D02*
X221513095Y-76512557D01*
X221513095Y-76512557D02*
X221465476Y-76607795D01*
X221465476Y-76607795D02*
X221465476Y-76703033D01*
X221465476Y-76703033D02*
X221513095Y-76845890D01*
X221513095Y-76845890D02*
X222084523Y-77417319D01*
X222084523Y-77417319D02*
X221465476Y-77417319D01*
X220846428Y-76417319D02*
X220751190Y-76417319D01*
X220751190Y-76417319D02*
X220655952Y-76464938D01*
X220655952Y-76464938D02*
X220608333Y-76512557D01*
X220608333Y-76512557D02*
X220560714Y-76607795D01*
X220560714Y-76607795D02*
X220513095Y-76798271D01*
X220513095Y-76798271D02*
X220513095Y-77036366D01*
X220513095Y-77036366D02*
X220560714Y-77226842D01*
X220560714Y-77226842D02*
X220608333Y-77322080D01*
X220608333Y-77322080D02*
X220655952Y-77369700D01*
X220655952Y-77369700D02*
X220751190Y-77417319D01*
X220751190Y-77417319D02*
X220846428Y-77417319D01*
X220846428Y-77417319D02*
X220941666Y-77369700D01*
X220941666Y-77369700D02*
X220989285Y-77322080D01*
X220989285Y-77322080D02*
X221036904Y-77226842D01*
X221036904Y-77226842D02*
X221084523Y-77036366D01*
X221084523Y-77036366D02*
X221084523Y-76798271D01*
X221084523Y-76798271D02*
X221036904Y-76607795D01*
X221036904Y-76607795D02*
X220989285Y-76512557D01*
X220989285Y-76512557D02*
X220941666Y-76464938D01*
X220941666Y-76464938D02*
X220846428Y-76417319D01*
X193742857Y-73167319D02*
X194076190Y-72691128D01*
X194314285Y-73167319D02*
X194314285Y-72167319D01*
X194314285Y-72167319D02*
X193933333Y-72167319D01*
X193933333Y-72167319D02*
X193838095Y-72214938D01*
X193838095Y-72214938D02*
X193790476Y-72262557D01*
X193790476Y-72262557D02*
X193742857Y-72357795D01*
X193742857Y-72357795D02*
X193742857Y-72500652D01*
X193742857Y-72500652D02*
X193790476Y-72595890D01*
X193790476Y-72595890D02*
X193838095Y-72643509D01*
X193838095Y-72643509D02*
X193933333Y-72691128D01*
X193933333Y-72691128D02*
X194314285Y-72691128D01*
X192790476Y-73167319D02*
X193361904Y-73167319D01*
X193076190Y-73167319D02*
X193076190Y-72167319D01*
X193076190Y-72167319D02*
X193171428Y-72310176D01*
X193171428Y-72310176D02*
X193266666Y-72405414D01*
X193266666Y-72405414D02*
X193361904Y-72453033D01*
X192457142Y-72167319D02*
X191838095Y-72167319D01*
X191838095Y-72167319D02*
X192171428Y-72548271D01*
X192171428Y-72548271D02*
X192028571Y-72548271D01*
X192028571Y-72548271D02*
X191933333Y-72595890D01*
X191933333Y-72595890D02*
X191885714Y-72643509D01*
X191885714Y-72643509D02*
X191838095Y-72738747D01*
X191838095Y-72738747D02*
X191838095Y-72976842D01*
X191838095Y-72976842D02*
X191885714Y-73072080D01*
X191885714Y-73072080D02*
X191933333Y-73119700D01*
X191933333Y-73119700D02*
X192028571Y-73167319D01*
X192028571Y-73167319D02*
X192314285Y-73167319D01*
X192314285Y-73167319D02*
X192409523Y-73119700D01*
X192409523Y-73119700D02*
X192457142Y-73072080D01*
X96091666Y-113362080D02*
X96139285Y-113409700D01*
X96139285Y-113409700D02*
X96282142Y-113457319D01*
X96282142Y-113457319D02*
X96377380Y-113457319D01*
X96377380Y-113457319D02*
X96520237Y-113409700D01*
X96520237Y-113409700D02*
X96615475Y-113314461D01*
X96615475Y-113314461D02*
X96663094Y-113219223D01*
X96663094Y-113219223D02*
X96710713Y-113028747D01*
X96710713Y-113028747D02*
X96710713Y-112885890D01*
X96710713Y-112885890D02*
X96663094Y-112695414D01*
X96663094Y-112695414D02*
X96615475Y-112600176D01*
X96615475Y-112600176D02*
X96520237Y-112504938D01*
X96520237Y-112504938D02*
X96377380Y-112457319D01*
X96377380Y-112457319D02*
X96282142Y-112457319D01*
X96282142Y-112457319D02*
X96139285Y-112504938D01*
X96139285Y-112504938D02*
X96091666Y-112552557D01*
X95758332Y-112457319D02*
X95091666Y-112457319D01*
X95091666Y-112457319D02*
X95520237Y-113457319D01*
X136592857Y-111267319D02*
X136926190Y-110791128D01*
X137164285Y-111267319D02*
X137164285Y-110267319D01*
X137164285Y-110267319D02*
X136783333Y-110267319D01*
X136783333Y-110267319D02*
X136688095Y-110314938D01*
X136688095Y-110314938D02*
X136640476Y-110362557D01*
X136640476Y-110362557D02*
X136592857Y-110457795D01*
X136592857Y-110457795D02*
X136592857Y-110600652D01*
X136592857Y-110600652D02*
X136640476Y-110695890D01*
X136640476Y-110695890D02*
X136688095Y-110743509D01*
X136688095Y-110743509D02*
X136783333Y-110791128D01*
X136783333Y-110791128D02*
X137164285Y-110791128D01*
X136211904Y-110362557D02*
X136164285Y-110314938D01*
X136164285Y-110314938D02*
X136069047Y-110267319D01*
X136069047Y-110267319D02*
X135830952Y-110267319D01*
X135830952Y-110267319D02*
X135735714Y-110314938D01*
X135735714Y-110314938D02*
X135688095Y-110362557D01*
X135688095Y-110362557D02*
X135640476Y-110457795D01*
X135640476Y-110457795D02*
X135640476Y-110553033D01*
X135640476Y-110553033D02*
X135688095Y-110695890D01*
X135688095Y-110695890D02*
X136259523Y-111267319D01*
X136259523Y-111267319D02*
X135640476Y-111267319D01*
X135164285Y-111267319D02*
X134973809Y-111267319D01*
X134973809Y-111267319D02*
X134878571Y-111219700D01*
X134878571Y-111219700D02*
X134830952Y-111172080D01*
X134830952Y-111172080D02*
X134735714Y-111029223D01*
X134735714Y-111029223D02*
X134688095Y-110838747D01*
X134688095Y-110838747D02*
X134688095Y-110457795D01*
X134688095Y-110457795D02*
X134735714Y-110362557D01*
X134735714Y-110362557D02*
X134783333Y-110314938D01*
X134783333Y-110314938D02*
X134878571Y-110267319D01*
X134878571Y-110267319D02*
X135069047Y-110267319D01*
X135069047Y-110267319D02*
X135164285Y-110314938D01*
X135164285Y-110314938D02*
X135211904Y-110362557D01*
X135211904Y-110362557D02*
X135259523Y-110457795D01*
X135259523Y-110457795D02*
X135259523Y-110695890D01*
X135259523Y-110695890D02*
X135211904Y-110791128D01*
X135211904Y-110791128D02*
X135164285Y-110838747D01*
X135164285Y-110838747D02*
X135069047Y-110886366D01*
X135069047Y-110886366D02*
X134878571Y-110886366D01*
X134878571Y-110886366D02*
X134783333Y-110838747D01*
X134783333Y-110838747D02*
X134735714Y-110791128D01*
X134735714Y-110791128D02*
X134688095Y-110695890D01*
X99008333Y-78064819D02*
X99008333Y-78779104D01*
X99008333Y-78779104D02*
X99055952Y-78921961D01*
X99055952Y-78921961D02*
X99151190Y-79017200D01*
X99151190Y-79017200D02*
X99294047Y-79064819D01*
X99294047Y-79064819D02*
X99389285Y-79064819D01*
X98008333Y-79064819D02*
X98579761Y-79064819D01*
X98294047Y-79064819D02*
X98294047Y-78064819D01*
X98294047Y-78064819D02*
X98389285Y-78207676D01*
X98389285Y-78207676D02*
X98484523Y-78302914D01*
X98484523Y-78302914D02*
X98579761Y-78350533D01*
X199929819Y-113145833D02*
X199453628Y-112812500D01*
X199929819Y-112574405D02*
X198929819Y-112574405D01*
X198929819Y-112574405D02*
X198929819Y-112955357D01*
X198929819Y-112955357D02*
X198977438Y-113050595D01*
X198977438Y-113050595D02*
X199025057Y-113098214D01*
X199025057Y-113098214D02*
X199120295Y-113145833D01*
X199120295Y-113145833D02*
X199263152Y-113145833D01*
X199263152Y-113145833D02*
X199358390Y-113098214D01*
X199358390Y-113098214D02*
X199406009Y-113050595D01*
X199406009Y-113050595D02*
X199453628Y-112955357D01*
X199453628Y-112955357D02*
X199453628Y-112574405D01*
X198929819Y-113479167D02*
X198929819Y-114145833D01*
X198929819Y-114145833D02*
X199929819Y-113717262D01*
X216842857Y-83354819D02*
X217176190Y-82878628D01*
X217414285Y-83354819D02*
X217414285Y-82354819D01*
X217414285Y-82354819D02*
X217033333Y-82354819D01*
X217033333Y-82354819D02*
X216938095Y-82402438D01*
X216938095Y-82402438D02*
X216890476Y-82450057D01*
X216890476Y-82450057D02*
X216842857Y-82545295D01*
X216842857Y-82545295D02*
X216842857Y-82688152D01*
X216842857Y-82688152D02*
X216890476Y-82783390D01*
X216890476Y-82783390D02*
X216938095Y-82831009D01*
X216938095Y-82831009D02*
X217033333Y-82878628D01*
X217033333Y-82878628D02*
X217414285Y-82878628D01*
X216461904Y-82450057D02*
X216414285Y-82402438D01*
X216414285Y-82402438D02*
X216319047Y-82354819D01*
X216319047Y-82354819D02*
X216080952Y-82354819D01*
X216080952Y-82354819D02*
X215985714Y-82402438D01*
X215985714Y-82402438D02*
X215938095Y-82450057D01*
X215938095Y-82450057D02*
X215890476Y-82545295D01*
X215890476Y-82545295D02*
X215890476Y-82640533D01*
X215890476Y-82640533D02*
X215938095Y-82783390D01*
X215938095Y-82783390D02*
X216509523Y-83354819D01*
X216509523Y-83354819D02*
X215890476Y-83354819D01*
X215557142Y-82354819D02*
X214938095Y-82354819D01*
X214938095Y-82354819D02*
X215271428Y-82735771D01*
X215271428Y-82735771D02*
X215128571Y-82735771D01*
X215128571Y-82735771D02*
X215033333Y-82783390D01*
X215033333Y-82783390D02*
X214985714Y-82831009D01*
X214985714Y-82831009D02*
X214938095Y-82926247D01*
X214938095Y-82926247D02*
X214938095Y-83164342D01*
X214938095Y-83164342D02*
X214985714Y-83259580D01*
X214985714Y-83259580D02*
X215033333Y-83307200D01*
X215033333Y-83307200D02*
X215128571Y-83354819D01*
X215128571Y-83354819D02*
X215414285Y-83354819D01*
X215414285Y-83354819D02*
X215509523Y-83307200D01*
X215509523Y-83307200D02*
X215557142Y-83259580D01*
X96141666Y-92672080D02*
X96189285Y-92719700D01*
X96189285Y-92719700D02*
X96332142Y-92767319D01*
X96332142Y-92767319D02*
X96427380Y-92767319D01*
X96427380Y-92767319D02*
X96570237Y-92719700D01*
X96570237Y-92719700D02*
X96665475Y-92624461D01*
X96665475Y-92624461D02*
X96713094Y-92529223D01*
X96713094Y-92529223D02*
X96760713Y-92338747D01*
X96760713Y-92338747D02*
X96760713Y-92195890D01*
X96760713Y-92195890D02*
X96713094Y-92005414D01*
X96713094Y-92005414D02*
X96665475Y-91910176D01*
X96665475Y-91910176D02*
X96570237Y-91814938D01*
X96570237Y-91814938D02*
X96427380Y-91767319D01*
X96427380Y-91767319D02*
X96332142Y-91767319D01*
X96332142Y-91767319D02*
X96189285Y-91814938D01*
X96189285Y-91814938D02*
X96141666Y-91862557D01*
X95284523Y-92100652D02*
X95284523Y-92767319D01*
X95522618Y-91719700D02*
X95760713Y-92433985D01*
X95760713Y-92433985D02*
X95141666Y-92433985D01*
X174692857Y-73167319D02*
X175026190Y-72691128D01*
X175264285Y-73167319D02*
X175264285Y-72167319D01*
X175264285Y-72167319D02*
X174883333Y-72167319D01*
X174883333Y-72167319D02*
X174788095Y-72214938D01*
X174788095Y-72214938D02*
X174740476Y-72262557D01*
X174740476Y-72262557D02*
X174692857Y-72357795D01*
X174692857Y-72357795D02*
X174692857Y-72500652D01*
X174692857Y-72500652D02*
X174740476Y-72595890D01*
X174740476Y-72595890D02*
X174788095Y-72643509D01*
X174788095Y-72643509D02*
X174883333Y-72691128D01*
X174883333Y-72691128D02*
X175264285Y-72691128D01*
X173740476Y-73167319D02*
X174311904Y-73167319D01*
X174026190Y-73167319D02*
X174026190Y-72167319D01*
X174026190Y-72167319D02*
X174121428Y-72310176D01*
X174121428Y-72310176D02*
X174216666Y-72405414D01*
X174216666Y-72405414D02*
X174311904Y-72453033D01*
X173359523Y-72262557D02*
X173311904Y-72214938D01*
X173311904Y-72214938D02*
X173216666Y-72167319D01*
X173216666Y-72167319D02*
X172978571Y-72167319D01*
X172978571Y-72167319D02*
X172883333Y-72214938D01*
X172883333Y-72214938D02*
X172835714Y-72262557D01*
X172835714Y-72262557D02*
X172788095Y-72357795D01*
X172788095Y-72357795D02*
X172788095Y-72453033D01*
X172788095Y-72453033D02*
X172835714Y-72595890D01*
X172835714Y-72595890D02*
X173407142Y-73167319D01*
X173407142Y-73167319D02*
X172788095Y-73167319D01*
X96141666Y-94422080D02*
X96189285Y-94469700D01*
X96189285Y-94469700D02*
X96332142Y-94517319D01*
X96332142Y-94517319D02*
X96427380Y-94517319D01*
X96427380Y-94517319D02*
X96570237Y-94469700D01*
X96570237Y-94469700D02*
X96665475Y-94374461D01*
X96665475Y-94374461D02*
X96713094Y-94279223D01*
X96713094Y-94279223D02*
X96760713Y-94088747D01*
X96760713Y-94088747D02*
X96760713Y-93945890D01*
X96760713Y-93945890D02*
X96713094Y-93755414D01*
X96713094Y-93755414D02*
X96665475Y-93660176D01*
X96665475Y-93660176D02*
X96570237Y-93564938D01*
X96570237Y-93564938D02*
X96427380Y-93517319D01*
X96427380Y-93517319D02*
X96332142Y-93517319D01*
X96332142Y-93517319D02*
X96189285Y-93564938D01*
X96189285Y-93564938D02*
X96141666Y-93612557D01*
X95284523Y-93517319D02*
X95474999Y-93517319D01*
X95474999Y-93517319D02*
X95570237Y-93564938D01*
X95570237Y-93564938D02*
X95617856Y-93612557D01*
X95617856Y-93612557D02*
X95713094Y-93755414D01*
X95713094Y-93755414D02*
X95760713Y-93945890D01*
X95760713Y-93945890D02*
X95760713Y-94326842D01*
X95760713Y-94326842D02*
X95713094Y-94422080D01*
X95713094Y-94422080D02*
X95665475Y-94469700D01*
X95665475Y-94469700D02*
X95570237Y-94517319D01*
X95570237Y-94517319D02*
X95379761Y-94517319D01*
X95379761Y-94517319D02*
X95284523Y-94469700D01*
X95284523Y-94469700D02*
X95236904Y-94422080D01*
X95236904Y-94422080D02*
X95189285Y-94326842D01*
X95189285Y-94326842D02*
X95189285Y-94088747D01*
X95189285Y-94088747D02*
X95236904Y-93993509D01*
X95236904Y-93993509D02*
X95284523Y-93945890D01*
X95284523Y-93945890D02*
X95379761Y-93898271D01*
X95379761Y-93898271D02*
X95570237Y-93898271D01*
X95570237Y-93898271D02*
X95665475Y-93945890D01*
X95665475Y-93945890D02*
X95713094Y-93993509D01*
X95713094Y-93993509D02*
X95760713Y-94088747D01*
X92959580Y-89633333D02*
X93007200Y-89585714D01*
X93007200Y-89585714D02*
X93054819Y-89442857D01*
X93054819Y-89442857D02*
X93054819Y-89347619D01*
X93054819Y-89347619D02*
X93007200Y-89204762D01*
X93007200Y-89204762D02*
X92911961Y-89109524D01*
X92911961Y-89109524D02*
X92816723Y-89061905D01*
X92816723Y-89061905D02*
X92626247Y-89014286D01*
X92626247Y-89014286D02*
X92483390Y-89014286D01*
X92483390Y-89014286D02*
X92292914Y-89061905D01*
X92292914Y-89061905D02*
X92197676Y-89109524D01*
X92197676Y-89109524D02*
X92102438Y-89204762D01*
X92102438Y-89204762D02*
X92054819Y-89347619D01*
X92054819Y-89347619D02*
X92054819Y-89442857D01*
X92054819Y-89442857D02*
X92102438Y-89585714D01*
X92102438Y-89585714D02*
X92150057Y-89633333D01*
X92150057Y-90014286D02*
X92102438Y-90061905D01*
X92102438Y-90061905D02*
X92054819Y-90157143D01*
X92054819Y-90157143D02*
X92054819Y-90395238D01*
X92054819Y-90395238D02*
X92102438Y-90490476D01*
X92102438Y-90490476D02*
X92150057Y-90538095D01*
X92150057Y-90538095D02*
X92245295Y-90585714D01*
X92245295Y-90585714D02*
X92340533Y-90585714D01*
X92340533Y-90585714D02*
X92483390Y-90538095D01*
X92483390Y-90538095D02*
X93054819Y-89966667D01*
X93054819Y-89966667D02*
X93054819Y-90585714D01*
X221617857Y-85917319D02*
X221951190Y-85441128D01*
X222189285Y-85917319D02*
X222189285Y-84917319D01*
X222189285Y-84917319D02*
X221808333Y-84917319D01*
X221808333Y-84917319D02*
X221713095Y-84964938D01*
X221713095Y-84964938D02*
X221665476Y-85012557D01*
X221665476Y-85012557D02*
X221617857Y-85107795D01*
X221617857Y-85107795D02*
X221617857Y-85250652D01*
X221617857Y-85250652D02*
X221665476Y-85345890D01*
X221665476Y-85345890D02*
X221713095Y-85393509D01*
X221713095Y-85393509D02*
X221808333Y-85441128D01*
X221808333Y-85441128D02*
X222189285Y-85441128D01*
X221236904Y-85012557D02*
X221189285Y-84964938D01*
X221189285Y-84964938D02*
X221094047Y-84917319D01*
X221094047Y-84917319D02*
X220855952Y-84917319D01*
X220855952Y-84917319D02*
X220760714Y-84964938D01*
X220760714Y-84964938D02*
X220713095Y-85012557D01*
X220713095Y-85012557D02*
X220665476Y-85107795D01*
X220665476Y-85107795D02*
X220665476Y-85203033D01*
X220665476Y-85203033D02*
X220713095Y-85345890D01*
X220713095Y-85345890D02*
X221284523Y-85917319D01*
X221284523Y-85917319D02*
X220665476Y-85917319D01*
X219760714Y-84917319D02*
X220236904Y-84917319D01*
X220236904Y-84917319D02*
X220284523Y-85393509D01*
X220284523Y-85393509D02*
X220236904Y-85345890D01*
X220236904Y-85345890D02*
X220141666Y-85298271D01*
X220141666Y-85298271D02*
X219903571Y-85298271D01*
X219903571Y-85298271D02*
X219808333Y-85345890D01*
X219808333Y-85345890D02*
X219760714Y-85393509D01*
X219760714Y-85393509D02*
X219713095Y-85488747D01*
X219713095Y-85488747D02*
X219713095Y-85726842D01*
X219713095Y-85726842D02*
X219760714Y-85822080D01*
X219760714Y-85822080D02*
X219808333Y-85869700D01*
X219808333Y-85869700D02*
X219903571Y-85917319D01*
X219903571Y-85917319D02*
X220141666Y-85917319D01*
X220141666Y-85917319D02*
X220236904Y-85869700D01*
X220236904Y-85869700D02*
X220284523Y-85822080D01*
X83867857Y-123422080D02*
X83915476Y-123469700D01*
X83915476Y-123469700D02*
X84058333Y-123517319D01*
X84058333Y-123517319D02*
X84153571Y-123517319D01*
X84153571Y-123517319D02*
X84296428Y-123469700D01*
X84296428Y-123469700D02*
X84391666Y-123374461D01*
X84391666Y-123374461D02*
X84439285Y-123279223D01*
X84439285Y-123279223D02*
X84486904Y-123088747D01*
X84486904Y-123088747D02*
X84486904Y-122945890D01*
X84486904Y-122945890D02*
X84439285Y-122755414D01*
X84439285Y-122755414D02*
X84391666Y-122660176D01*
X84391666Y-122660176D02*
X84296428Y-122564938D01*
X84296428Y-122564938D02*
X84153571Y-122517319D01*
X84153571Y-122517319D02*
X84058333Y-122517319D01*
X84058333Y-122517319D02*
X83915476Y-122564938D01*
X83915476Y-122564938D02*
X83867857Y-122612557D01*
X83486904Y-122612557D02*
X83439285Y-122564938D01*
X83439285Y-122564938D02*
X83344047Y-122517319D01*
X83344047Y-122517319D02*
X83105952Y-122517319D01*
X83105952Y-122517319D02*
X83010714Y-122564938D01*
X83010714Y-122564938D02*
X82963095Y-122612557D01*
X82963095Y-122612557D02*
X82915476Y-122707795D01*
X82915476Y-122707795D02*
X82915476Y-122803033D01*
X82915476Y-122803033D02*
X82963095Y-122945890D01*
X82963095Y-122945890D02*
X83534523Y-123517319D01*
X83534523Y-123517319D02*
X82915476Y-123517319D01*
X82439285Y-123517319D02*
X82248809Y-123517319D01*
X82248809Y-123517319D02*
X82153571Y-123469700D01*
X82153571Y-123469700D02*
X82105952Y-123422080D01*
X82105952Y-123422080D02*
X82010714Y-123279223D01*
X82010714Y-123279223D02*
X81963095Y-123088747D01*
X81963095Y-123088747D02*
X81963095Y-122707795D01*
X81963095Y-122707795D02*
X82010714Y-122612557D01*
X82010714Y-122612557D02*
X82058333Y-122564938D01*
X82058333Y-122564938D02*
X82153571Y-122517319D01*
X82153571Y-122517319D02*
X82344047Y-122517319D01*
X82344047Y-122517319D02*
X82439285Y-122564938D01*
X82439285Y-122564938D02*
X82486904Y-122612557D01*
X82486904Y-122612557D02*
X82534523Y-122707795D01*
X82534523Y-122707795D02*
X82534523Y-122945890D01*
X82534523Y-122945890D02*
X82486904Y-123041128D01*
X82486904Y-123041128D02*
X82439285Y-123088747D01*
X82439285Y-123088747D02*
X82344047Y-123136366D01*
X82344047Y-123136366D02*
X82153571Y-123136366D01*
X82153571Y-123136366D02*
X82058333Y-123088747D01*
X82058333Y-123088747D02*
X82010714Y-123041128D01*
X82010714Y-123041128D02*
X81963095Y-122945890D01*
X88429819Y-118369642D02*
X87953628Y-118036309D01*
X88429819Y-117798214D02*
X87429819Y-117798214D01*
X87429819Y-117798214D02*
X87429819Y-118179166D01*
X87429819Y-118179166D02*
X87477438Y-118274404D01*
X87477438Y-118274404D02*
X87525057Y-118322023D01*
X87525057Y-118322023D02*
X87620295Y-118369642D01*
X87620295Y-118369642D02*
X87763152Y-118369642D01*
X87763152Y-118369642D02*
X87858390Y-118322023D01*
X87858390Y-118322023D02*
X87906009Y-118274404D01*
X87906009Y-118274404D02*
X87953628Y-118179166D01*
X87953628Y-118179166D02*
X87953628Y-117798214D01*
X87429819Y-118702976D02*
X87429819Y-119322023D01*
X87429819Y-119322023D02*
X87810771Y-118988690D01*
X87810771Y-118988690D02*
X87810771Y-119131547D01*
X87810771Y-119131547D02*
X87858390Y-119226785D01*
X87858390Y-119226785D02*
X87906009Y-119274404D01*
X87906009Y-119274404D02*
X88001247Y-119322023D01*
X88001247Y-119322023D02*
X88239342Y-119322023D01*
X88239342Y-119322023D02*
X88334580Y-119274404D01*
X88334580Y-119274404D02*
X88382200Y-119226785D01*
X88382200Y-119226785D02*
X88429819Y-119131547D01*
X88429819Y-119131547D02*
X88429819Y-118845833D01*
X88429819Y-118845833D02*
X88382200Y-118750595D01*
X88382200Y-118750595D02*
X88334580Y-118702976D01*
X87429819Y-120226785D02*
X87429819Y-119750595D01*
X87429819Y-119750595D02*
X87906009Y-119702976D01*
X87906009Y-119702976D02*
X87858390Y-119750595D01*
X87858390Y-119750595D02*
X87810771Y-119845833D01*
X87810771Y-119845833D02*
X87810771Y-120083928D01*
X87810771Y-120083928D02*
X87858390Y-120179166D01*
X87858390Y-120179166D02*
X87906009Y-120226785D01*
X87906009Y-120226785D02*
X88001247Y-120274404D01*
X88001247Y-120274404D02*
X88239342Y-120274404D01*
X88239342Y-120274404D02*
X88334580Y-120226785D01*
X88334580Y-120226785D02*
X88382200Y-120179166D01*
X88382200Y-120179166D02*
X88429819Y-120083928D01*
X88429819Y-120083928D02*
X88429819Y-119845833D01*
X88429819Y-119845833D02*
X88382200Y-119750595D01*
X88382200Y-119750595D02*
X88334580Y-119702976D01*
X212367856Y-128293509D02*
X212034523Y-128293509D01*
X211891666Y-128817319D02*
X212367856Y-128817319D01*
X212367856Y-128817319D02*
X212367856Y-127817319D01*
X212367856Y-127817319D02*
X211891666Y-127817319D01*
X211510713Y-128769700D02*
X211367856Y-128817319D01*
X211367856Y-128817319D02*
X211129761Y-128817319D01*
X211129761Y-128817319D02*
X211034523Y-128769700D01*
X211034523Y-128769700D02*
X210986904Y-128722080D01*
X210986904Y-128722080D02*
X210939285Y-128626842D01*
X210939285Y-128626842D02*
X210939285Y-128531604D01*
X210939285Y-128531604D02*
X210986904Y-128436366D01*
X210986904Y-128436366D02*
X211034523Y-128388747D01*
X211034523Y-128388747D02*
X211129761Y-128341128D01*
X211129761Y-128341128D02*
X211320237Y-128293509D01*
X211320237Y-128293509D02*
X211415475Y-128245890D01*
X211415475Y-128245890D02*
X211463094Y-128198271D01*
X211463094Y-128198271D02*
X211510713Y-128103033D01*
X211510713Y-128103033D02*
X211510713Y-128007795D01*
X211510713Y-128007795D02*
X211463094Y-127912557D01*
X211463094Y-127912557D02*
X211415475Y-127864938D01*
X211415475Y-127864938D02*
X211320237Y-127817319D01*
X211320237Y-127817319D02*
X211082142Y-127817319D01*
X211082142Y-127817319D02*
X210939285Y-127864938D01*
X210510713Y-128817319D02*
X210510713Y-127817319D01*
X210510713Y-127817319D02*
X210129761Y-127817319D01*
X210129761Y-127817319D02*
X210034523Y-127864938D01*
X210034523Y-127864938D02*
X209986904Y-127912557D01*
X209986904Y-127912557D02*
X209939285Y-128007795D01*
X209939285Y-128007795D02*
X209939285Y-128150652D01*
X209939285Y-128150652D02*
X209986904Y-128245890D01*
X209986904Y-128245890D02*
X210034523Y-128293509D01*
X210034523Y-128293509D02*
X210129761Y-128341128D01*
X210129761Y-128341128D02*
X210510713Y-128341128D01*
X209605951Y-127817319D02*
X208986904Y-127817319D01*
X208986904Y-127817319D02*
X209320237Y-128198271D01*
X209320237Y-128198271D02*
X209177380Y-128198271D01*
X209177380Y-128198271D02*
X209082142Y-128245890D01*
X209082142Y-128245890D02*
X209034523Y-128293509D01*
X209034523Y-128293509D02*
X208986904Y-128388747D01*
X208986904Y-128388747D02*
X208986904Y-128626842D01*
X208986904Y-128626842D02*
X209034523Y-128722080D01*
X209034523Y-128722080D02*
X209082142Y-128769700D01*
X209082142Y-128769700D02*
X209177380Y-128817319D01*
X209177380Y-128817319D02*
X209463094Y-128817319D01*
X209463094Y-128817319D02*
X209558332Y-128769700D01*
X209558332Y-128769700D02*
X209605951Y-128722080D01*
X208605951Y-127912557D02*
X208558332Y-127864938D01*
X208558332Y-127864938D02*
X208463094Y-127817319D01*
X208463094Y-127817319D02*
X208224999Y-127817319D01*
X208224999Y-127817319D02*
X208129761Y-127864938D01*
X208129761Y-127864938D02*
X208082142Y-127912557D01*
X208082142Y-127912557D02*
X208034523Y-128007795D01*
X208034523Y-128007795D02*
X208034523Y-128103033D01*
X208034523Y-128103033D02*
X208082142Y-128245890D01*
X208082142Y-128245890D02*
X208653570Y-128817319D01*
X208653570Y-128817319D02*
X208034523Y-128817319D01*
X214986905Y-124231604D02*
X214510715Y-124231604D01*
X215082143Y-124517319D02*
X214748810Y-123517319D01*
X214748810Y-123517319D02*
X214415477Y-124517319D01*
X214082143Y-123850652D02*
X214082143Y-124517319D01*
X214082143Y-123945890D02*
X214034524Y-123898271D01*
X214034524Y-123898271D02*
X213939286Y-123850652D01*
X213939286Y-123850652D02*
X213796429Y-123850652D01*
X213796429Y-123850652D02*
X213701191Y-123898271D01*
X213701191Y-123898271D02*
X213653572Y-123993509D01*
X213653572Y-123993509D02*
X213653572Y-124517319D01*
X213320238Y-123850652D02*
X212939286Y-123850652D01*
X213177381Y-123517319D02*
X213177381Y-124374461D01*
X213177381Y-124374461D02*
X213129762Y-124469700D01*
X213129762Y-124469700D02*
X213034524Y-124517319D01*
X213034524Y-124517319D02*
X212939286Y-124517319D01*
X212225000Y-124469700D02*
X212320238Y-124517319D01*
X212320238Y-124517319D02*
X212510714Y-124517319D01*
X212510714Y-124517319D02*
X212605952Y-124469700D01*
X212605952Y-124469700D02*
X212653571Y-124374461D01*
X212653571Y-124374461D02*
X212653571Y-123993509D01*
X212653571Y-123993509D02*
X212605952Y-123898271D01*
X212605952Y-123898271D02*
X212510714Y-123850652D01*
X212510714Y-123850652D02*
X212320238Y-123850652D01*
X212320238Y-123850652D02*
X212225000Y-123898271D01*
X212225000Y-123898271D02*
X212177381Y-123993509D01*
X212177381Y-123993509D02*
X212177381Y-124088747D01*
X212177381Y-124088747D02*
X212653571Y-124183985D01*
X211748809Y-123850652D02*
X211748809Y-124517319D01*
X211748809Y-123945890D02*
X211701190Y-123898271D01*
X211701190Y-123898271D02*
X211605952Y-123850652D01*
X211605952Y-123850652D02*
X211463095Y-123850652D01*
X211463095Y-123850652D02*
X211367857Y-123898271D01*
X211367857Y-123898271D02*
X211320238Y-123993509D01*
X211320238Y-123993509D02*
X211320238Y-124517319D01*
X210844047Y-123850652D02*
X210844047Y-124517319D01*
X210844047Y-123945890D02*
X210796428Y-123898271D01*
X210796428Y-123898271D02*
X210701190Y-123850652D01*
X210701190Y-123850652D02*
X210558333Y-123850652D01*
X210558333Y-123850652D02*
X210463095Y-123898271D01*
X210463095Y-123898271D02*
X210415476Y-123993509D01*
X210415476Y-123993509D02*
X210415476Y-124517319D01*
X209510714Y-124517319D02*
X209510714Y-123993509D01*
X209510714Y-123993509D02*
X209558333Y-123898271D01*
X209558333Y-123898271D02*
X209653571Y-123850652D01*
X209653571Y-123850652D02*
X209844047Y-123850652D01*
X209844047Y-123850652D02*
X209939285Y-123898271D01*
X209510714Y-124469700D02*
X209605952Y-124517319D01*
X209605952Y-124517319D02*
X209844047Y-124517319D01*
X209844047Y-124517319D02*
X209939285Y-124469700D01*
X209939285Y-124469700D02*
X209986904Y-124374461D01*
X209986904Y-124374461D02*
X209986904Y-124279223D01*
X209986904Y-124279223D02*
X209939285Y-124183985D01*
X209939285Y-124183985D02*
X209844047Y-124136366D01*
X209844047Y-124136366D02*
X209605952Y-124136366D01*
X209605952Y-124136366D02*
X209510714Y-124088747D01*
X208320237Y-124231604D02*
X207844047Y-124231604D01*
X208415475Y-124517319D02*
X208082142Y-123517319D01*
X208082142Y-123517319D02*
X207748809Y-124517319D01*
X207415475Y-124517319D02*
X207415475Y-123850652D01*
X207415475Y-124041128D02*
X207367856Y-123945890D01*
X207367856Y-123945890D02*
X207320237Y-123898271D01*
X207320237Y-123898271D02*
X207224999Y-123850652D01*
X207224999Y-123850652D02*
X207129761Y-123850652D01*
X206415475Y-124469700D02*
X206510713Y-124517319D01*
X206510713Y-124517319D02*
X206701189Y-124517319D01*
X206701189Y-124517319D02*
X206796427Y-124469700D01*
X206796427Y-124469700D02*
X206844046Y-124374461D01*
X206844046Y-124374461D02*
X206844046Y-123993509D01*
X206844046Y-123993509D02*
X206796427Y-123898271D01*
X206796427Y-123898271D02*
X206701189Y-123850652D01*
X206701189Y-123850652D02*
X206510713Y-123850652D01*
X206510713Y-123850652D02*
X206415475Y-123898271D01*
X206415475Y-123898271D02*
X206367856Y-123993509D01*
X206367856Y-123993509D02*
X206367856Y-124088747D01*
X206367856Y-124088747D02*
X206844046Y-124183985D01*
X205510713Y-124517319D02*
X205510713Y-123993509D01*
X205510713Y-123993509D02*
X205558332Y-123898271D01*
X205558332Y-123898271D02*
X205653570Y-123850652D01*
X205653570Y-123850652D02*
X205844046Y-123850652D01*
X205844046Y-123850652D02*
X205939284Y-123898271D01*
X205510713Y-124469700D02*
X205605951Y-124517319D01*
X205605951Y-124517319D02*
X205844046Y-124517319D01*
X205844046Y-124517319D02*
X205939284Y-124469700D01*
X205939284Y-124469700D02*
X205986903Y-124374461D01*
X205986903Y-124374461D02*
X205986903Y-124279223D01*
X205986903Y-124279223D02*
X205939284Y-124183985D01*
X205939284Y-124183985D02*
X205844046Y-124136366D01*
X205844046Y-124136366D02*
X205605951Y-124136366D01*
X205605951Y-124136366D02*
X205510713Y-124088747D01*
X117542857Y-92217319D02*
X117876190Y-91741128D01*
X118114285Y-92217319D02*
X118114285Y-91217319D01*
X118114285Y-91217319D02*
X117733333Y-91217319D01*
X117733333Y-91217319D02*
X117638095Y-91264938D01*
X117638095Y-91264938D02*
X117590476Y-91312557D01*
X117590476Y-91312557D02*
X117542857Y-91407795D01*
X117542857Y-91407795D02*
X117542857Y-91550652D01*
X117542857Y-91550652D02*
X117590476Y-91645890D01*
X117590476Y-91645890D02*
X117638095Y-91693509D01*
X117638095Y-91693509D02*
X117733333Y-91741128D01*
X117733333Y-91741128D02*
X118114285Y-91741128D01*
X116590476Y-92217319D02*
X117161904Y-92217319D01*
X116876190Y-92217319D02*
X116876190Y-91217319D01*
X116876190Y-91217319D02*
X116971428Y-91360176D01*
X116971428Y-91360176D02*
X117066666Y-91455414D01*
X117066666Y-91455414D02*
X117161904Y-91503033D01*
X115733333Y-91550652D02*
X115733333Y-92217319D01*
X115971428Y-91169700D02*
X116209523Y-91883985D01*
X116209523Y-91883985D02*
X115590476Y-91883985D01*
D10*
X97932419Y-89050595D02*
X98741942Y-89050595D01*
X98741942Y-89050595D02*
X98837180Y-89098214D01*
X98837180Y-89098214D02*
X98884800Y-89145833D01*
X98884800Y-89145833D02*
X98932419Y-89241071D01*
X98932419Y-89241071D02*
X98932419Y-89431547D01*
X98932419Y-89431547D02*
X98884800Y-89526785D01*
X98884800Y-89526785D02*
X98837180Y-89574404D01*
X98837180Y-89574404D02*
X98741942Y-89622023D01*
X98741942Y-89622023D02*
X97932419Y-89622023D01*
X98932419Y-90622023D02*
X98932419Y-90050595D01*
X98932419Y-90336309D02*
X97932419Y-90336309D01*
X97932419Y-90336309D02*
X98075276Y-90241071D01*
X98075276Y-90241071D02*
X98170514Y-90145833D01*
X98170514Y-90145833D02*
X98218133Y-90050595D01*
X97882419Y-108000595D02*
X98691942Y-108000595D01*
X98691942Y-108000595D02*
X98787180Y-108048214D01*
X98787180Y-108048214D02*
X98834800Y-108095833D01*
X98834800Y-108095833D02*
X98882419Y-108191071D01*
X98882419Y-108191071D02*
X98882419Y-108381547D01*
X98882419Y-108381547D02*
X98834800Y-108476785D01*
X98834800Y-108476785D02*
X98787180Y-108524404D01*
X98787180Y-108524404D02*
X98691942Y-108572023D01*
X98691942Y-108572023D02*
X97882419Y-108572023D01*
X97977657Y-109000595D02*
X97930038Y-109048214D01*
X97930038Y-109048214D02*
X97882419Y-109143452D01*
X97882419Y-109143452D02*
X97882419Y-109381547D01*
X97882419Y-109381547D02*
X97930038Y-109476785D01*
X97930038Y-109476785D02*
X97977657Y-109524404D01*
X97977657Y-109524404D02*
X98072895Y-109572023D01*
X98072895Y-109572023D02*
X98168133Y-109572023D01*
X98168133Y-109572023D02*
X98310990Y-109524404D01*
X98310990Y-109524404D02*
X98882419Y-108952976D01*
X98882419Y-108952976D02*
X98882419Y-109572023D01*
D11*
X91459580Y-89633333D02*
X91507200Y-89585714D01*
X91507200Y-89585714D02*
X91554819Y-89442857D01*
X91554819Y-89442857D02*
X91554819Y-89347619D01*
X91554819Y-89347619D02*
X91507200Y-89204762D01*
X91507200Y-89204762D02*
X91411961Y-89109524D01*
X91411961Y-89109524D02*
X91316723Y-89061905D01*
X91316723Y-89061905D02*
X91126247Y-89014286D01*
X91126247Y-89014286D02*
X90983390Y-89014286D01*
X90983390Y-89014286D02*
X90792914Y-89061905D01*
X90792914Y-89061905D02*
X90697676Y-89109524D01*
X90697676Y-89109524D02*
X90602438Y-89204762D01*
X90602438Y-89204762D02*
X90554819Y-89347619D01*
X90554819Y-89347619D02*
X90554819Y-89442857D01*
X90554819Y-89442857D02*
X90602438Y-89585714D01*
X90602438Y-89585714D02*
X90650057Y-89633333D01*
X91554819Y-90585714D02*
X91554819Y-90014286D01*
X91554819Y-90300000D02*
X90554819Y-90300000D01*
X90554819Y-90300000D02*
X90697676Y-90204762D01*
X90697676Y-90204762D02*
X90792914Y-90109524D01*
X90792914Y-90109524D02*
X90840533Y-90014286D01*
X186209580Y-88319642D02*
X186257200Y-88272023D01*
X186257200Y-88272023D02*
X186304819Y-88129166D01*
X186304819Y-88129166D02*
X186304819Y-88033928D01*
X186304819Y-88033928D02*
X186257200Y-87891071D01*
X186257200Y-87891071D02*
X186161961Y-87795833D01*
X186161961Y-87795833D02*
X186066723Y-87748214D01*
X186066723Y-87748214D02*
X185876247Y-87700595D01*
X185876247Y-87700595D02*
X185733390Y-87700595D01*
X185733390Y-87700595D02*
X185542914Y-87748214D01*
X185542914Y-87748214D02*
X185447676Y-87795833D01*
X185447676Y-87795833D02*
X185352438Y-87891071D01*
X185352438Y-87891071D02*
X185304819Y-88033928D01*
X185304819Y-88033928D02*
X185304819Y-88129166D01*
X185304819Y-88129166D02*
X185352438Y-88272023D01*
X185352438Y-88272023D02*
X185400057Y-88319642D01*
X186304819Y-89272023D02*
X186304819Y-88700595D01*
X186304819Y-88986309D02*
X185304819Y-88986309D01*
X185304819Y-88986309D02*
X185447676Y-88891071D01*
X185447676Y-88891071D02*
X185542914Y-88795833D01*
X185542914Y-88795833D02*
X185590533Y-88700595D01*
X185638152Y-90129166D02*
X186304819Y-90129166D01*
X185257200Y-89891071D02*
X185971485Y-89652976D01*
X185971485Y-89652976D02*
X185971485Y-90272023D01*
X87429819Y-76469642D02*
X86953628Y-76136309D01*
X87429819Y-75898214D02*
X86429819Y-75898214D01*
X86429819Y-75898214D02*
X86429819Y-76279166D01*
X86429819Y-76279166D02*
X86477438Y-76374404D01*
X86477438Y-76374404D02*
X86525057Y-76422023D01*
X86525057Y-76422023D02*
X86620295Y-76469642D01*
X86620295Y-76469642D02*
X86763152Y-76469642D01*
X86763152Y-76469642D02*
X86858390Y-76422023D01*
X86858390Y-76422023D02*
X86906009Y-76374404D01*
X86906009Y-76374404D02*
X86953628Y-76279166D01*
X86953628Y-76279166D02*
X86953628Y-75898214D01*
X86429819Y-76802976D02*
X86429819Y-77422023D01*
X86429819Y-77422023D02*
X86810771Y-77088690D01*
X86810771Y-77088690D02*
X86810771Y-77231547D01*
X86810771Y-77231547D02*
X86858390Y-77326785D01*
X86858390Y-77326785D02*
X86906009Y-77374404D01*
X86906009Y-77374404D02*
X87001247Y-77422023D01*
X87001247Y-77422023D02*
X87239342Y-77422023D01*
X87239342Y-77422023D02*
X87334580Y-77374404D01*
X87334580Y-77374404D02*
X87382200Y-77326785D01*
X87382200Y-77326785D02*
X87429819Y-77231547D01*
X87429819Y-77231547D02*
X87429819Y-76945833D01*
X87429819Y-76945833D02*
X87382200Y-76850595D01*
X87382200Y-76850595D02*
X87334580Y-76802976D01*
X87429819Y-77898214D02*
X87429819Y-78088690D01*
X87429819Y-78088690D02*
X87382200Y-78183928D01*
X87382200Y-78183928D02*
X87334580Y-78231547D01*
X87334580Y-78231547D02*
X87191723Y-78326785D01*
X87191723Y-78326785D02*
X87001247Y-78374404D01*
X87001247Y-78374404D02*
X86620295Y-78374404D01*
X86620295Y-78374404D02*
X86525057Y-78326785D01*
X86525057Y-78326785D02*
X86477438Y-78279166D01*
X86477438Y-78279166D02*
X86429819Y-78183928D01*
X86429819Y-78183928D02*
X86429819Y-77993452D01*
X86429819Y-77993452D02*
X86477438Y-77898214D01*
X86477438Y-77898214D02*
X86525057Y-77850595D01*
X86525057Y-77850595D02*
X86620295Y-77802976D01*
X86620295Y-77802976D02*
X86858390Y-77802976D01*
X86858390Y-77802976D02*
X86953628Y-77850595D01*
X86953628Y-77850595D02*
X87001247Y-77898214D01*
X87001247Y-77898214D02*
X87048866Y-77993452D01*
X87048866Y-77993452D02*
X87048866Y-78183928D01*
X87048866Y-78183928D02*
X87001247Y-78279166D01*
X87001247Y-78279166D02*
X86953628Y-78326785D01*
X86953628Y-78326785D02*
X86858390Y-78374404D01*
X203963094Y-93917319D02*
X203963094Y-94726842D01*
X203963094Y-94726842D02*
X203915475Y-94822080D01*
X203915475Y-94822080D02*
X203867856Y-94869700D01*
X203867856Y-94869700D02*
X203772618Y-94917319D01*
X203772618Y-94917319D02*
X203582142Y-94917319D01*
X203582142Y-94917319D02*
X203486904Y-94869700D01*
X203486904Y-94869700D02*
X203439285Y-94822080D01*
X203439285Y-94822080D02*
X203391666Y-94726842D01*
X203391666Y-94726842D02*
X203391666Y-93917319D01*
X202963094Y-94012557D02*
X202915475Y-93964938D01*
X202915475Y-93964938D02*
X202820237Y-93917319D01*
X202820237Y-93917319D02*
X202582142Y-93917319D01*
X202582142Y-93917319D02*
X202486904Y-93964938D01*
X202486904Y-93964938D02*
X202439285Y-94012557D01*
X202439285Y-94012557D02*
X202391666Y-94107795D01*
X202391666Y-94107795D02*
X202391666Y-94203033D01*
X202391666Y-94203033D02*
X202439285Y-94345890D01*
X202439285Y-94345890D02*
X203010713Y-94917319D01*
X203010713Y-94917319D02*
X202391666Y-94917319D01*
X201534523Y-93917319D02*
X201724999Y-93917319D01*
X201724999Y-93917319D02*
X201820237Y-93964938D01*
X201820237Y-93964938D02*
X201867856Y-94012557D01*
X201867856Y-94012557D02*
X201963094Y-94155414D01*
X201963094Y-94155414D02*
X202010713Y-94345890D01*
X202010713Y-94345890D02*
X202010713Y-94726842D01*
X202010713Y-94726842D02*
X201963094Y-94822080D01*
X201963094Y-94822080D02*
X201915475Y-94869700D01*
X201915475Y-94869700D02*
X201820237Y-94917319D01*
X201820237Y-94917319D02*
X201629761Y-94917319D01*
X201629761Y-94917319D02*
X201534523Y-94869700D01*
X201534523Y-94869700D02*
X201486904Y-94822080D01*
X201486904Y-94822080D02*
X201439285Y-94726842D01*
X201439285Y-94726842D02*
X201439285Y-94488747D01*
X201439285Y-94488747D02*
X201486904Y-94393509D01*
X201486904Y-94393509D02*
X201534523Y-94345890D01*
X201534523Y-94345890D02*
X201629761Y-94298271D01*
X201629761Y-94298271D02*
X201820237Y-94298271D01*
X201820237Y-94298271D02*
X201915475Y-94345890D01*
X201915475Y-94345890D02*
X201963094Y-94393509D01*
X201963094Y-94393509D02*
X202010713Y-94488747D01*
X174692857Y-92217319D02*
X175026190Y-91741128D01*
X175264285Y-92217319D02*
X175264285Y-91217319D01*
X175264285Y-91217319D02*
X174883333Y-91217319D01*
X174883333Y-91217319D02*
X174788095Y-91264938D01*
X174788095Y-91264938D02*
X174740476Y-91312557D01*
X174740476Y-91312557D02*
X174692857Y-91407795D01*
X174692857Y-91407795D02*
X174692857Y-91550652D01*
X174692857Y-91550652D02*
X174740476Y-91645890D01*
X174740476Y-91645890D02*
X174788095Y-91693509D01*
X174788095Y-91693509D02*
X174883333Y-91741128D01*
X174883333Y-91741128D02*
X175264285Y-91741128D01*
X174311904Y-91312557D02*
X174264285Y-91264938D01*
X174264285Y-91264938D02*
X174169047Y-91217319D01*
X174169047Y-91217319D02*
X173930952Y-91217319D01*
X173930952Y-91217319D02*
X173835714Y-91264938D01*
X173835714Y-91264938D02*
X173788095Y-91312557D01*
X173788095Y-91312557D02*
X173740476Y-91407795D01*
X173740476Y-91407795D02*
X173740476Y-91503033D01*
X173740476Y-91503033D02*
X173788095Y-91645890D01*
X173788095Y-91645890D02*
X174359523Y-92217319D01*
X174359523Y-92217319D02*
X173740476Y-92217319D01*
X172883333Y-91217319D02*
X173073809Y-91217319D01*
X173073809Y-91217319D02*
X173169047Y-91264938D01*
X173169047Y-91264938D02*
X173216666Y-91312557D01*
X173216666Y-91312557D02*
X173311904Y-91455414D01*
X173311904Y-91455414D02*
X173359523Y-91645890D01*
X173359523Y-91645890D02*
X173359523Y-92026842D01*
X173359523Y-92026842D02*
X173311904Y-92122080D01*
X173311904Y-92122080D02*
X173264285Y-92169700D01*
X173264285Y-92169700D02*
X173169047Y-92217319D01*
X173169047Y-92217319D02*
X172978571Y-92217319D01*
X172978571Y-92217319D02*
X172883333Y-92169700D01*
X172883333Y-92169700D02*
X172835714Y-92122080D01*
X172835714Y-92122080D02*
X172788095Y-92026842D01*
X172788095Y-92026842D02*
X172788095Y-91788747D01*
X172788095Y-91788747D02*
X172835714Y-91693509D01*
X172835714Y-91693509D02*
X172883333Y-91645890D01*
X172883333Y-91645890D02*
X172978571Y-91598271D01*
X172978571Y-91598271D02*
X173169047Y-91598271D01*
X173169047Y-91598271D02*
X173264285Y-91645890D01*
X173264285Y-91645890D02*
X173311904Y-91693509D01*
X173311904Y-91693509D02*
X173359523Y-91788747D01*
X219917857Y-93417319D02*
X220251190Y-92941128D01*
X220489285Y-93417319D02*
X220489285Y-92417319D01*
X220489285Y-92417319D02*
X220108333Y-92417319D01*
X220108333Y-92417319D02*
X220013095Y-92464938D01*
X220013095Y-92464938D02*
X219965476Y-92512557D01*
X219965476Y-92512557D02*
X219917857Y-92607795D01*
X219917857Y-92607795D02*
X219917857Y-92750652D01*
X219917857Y-92750652D02*
X219965476Y-92845890D01*
X219965476Y-92845890D02*
X220013095Y-92893509D01*
X220013095Y-92893509D02*
X220108333Y-92941128D01*
X220108333Y-92941128D02*
X220489285Y-92941128D01*
X219536904Y-92512557D02*
X219489285Y-92464938D01*
X219489285Y-92464938D02*
X219394047Y-92417319D01*
X219394047Y-92417319D02*
X219155952Y-92417319D01*
X219155952Y-92417319D02*
X219060714Y-92464938D01*
X219060714Y-92464938D02*
X219013095Y-92512557D01*
X219013095Y-92512557D02*
X218965476Y-92607795D01*
X218965476Y-92607795D02*
X218965476Y-92703033D01*
X218965476Y-92703033D02*
X219013095Y-92845890D01*
X219013095Y-92845890D02*
X219584523Y-93417319D01*
X219584523Y-93417319D02*
X218965476Y-93417319D01*
X218584523Y-92512557D02*
X218536904Y-92464938D01*
X218536904Y-92464938D02*
X218441666Y-92417319D01*
X218441666Y-92417319D02*
X218203571Y-92417319D01*
X218203571Y-92417319D02*
X218108333Y-92464938D01*
X218108333Y-92464938D02*
X218060714Y-92512557D01*
X218060714Y-92512557D02*
X218013095Y-92607795D01*
X218013095Y-92607795D02*
X218013095Y-92703033D01*
X218013095Y-92703033D02*
X218060714Y-92845890D01*
X218060714Y-92845890D02*
X218632142Y-93417319D01*
X218632142Y-93417319D02*
X218013095Y-93417319D01*
X84089819Y-91991666D02*
X84804104Y-91991666D01*
X84804104Y-91991666D02*
X84946961Y-91944047D01*
X84946961Y-91944047D02*
X85042200Y-91848809D01*
X85042200Y-91848809D02*
X85089819Y-91705952D01*
X85089819Y-91705952D02*
X85089819Y-91610714D01*
X84185057Y-92420238D02*
X84137438Y-92467857D01*
X84137438Y-92467857D02*
X84089819Y-92563095D01*
X84089819Y-92563095D02*
X84089819Y-92801190D01*
X84089819Y-92801190D02*
X84137438Y-92896428D01*
X84137438Y-92896428D02*
X84185057Y-92944047D01*
X84185057Y-92944047D02*
X84280295Y-92991666D01*
X84280295Y-92991666D02*
X84375533Y-92991666D01*
X84375533Y-92991666D02*
X84518390Y-92944047D01*
X84518390Y-92944047D02*
X85089819Y-92372619D01*
X85089819Y-92372619D02*
X85089819Y-92991666D01*
X155642857Y-92217319D02*
X155976190Y-91741128D01*
X156214285Y-92217319D02*
X156214285Y-91217319D01*
X156214285Y-91217319D02*
X155833333Y-91217319D01*
X155833333Y-91217319D02*
X155738095Y-91264938D01*
X155738095Y-91264938D02*
X155690476Y-91312557D01*
X155690476Y-91312557D02*
X155642857Y-91407795D01*
X155642857Y-91407795D02*
X155642857Y-91550652D01*
X155642857Y-91550652D02*
X155690476Y-91645890D01*
X155690476Y-91645890D02*
X155738095Y-91693509D01*
X155738095Y-91693509D02*
X155833333Y-91741128D01*
X155833333Y-91741128D02*
X156214285Y-91741128D01*
X154690476Y-92217319D02*
X155261904Y-92217319D01*
X154976190Y-92217319D02*
X154976190Y-91217319D01*
X154976190Y-91217319D02*
X155071428Y-91360176D01*
X155071428Y-91360176D02*
X155166666Y-91455414D01*
X155166666Y-91455414D02*
X155261904Y-91503033D01*
X153833333Y-91217319D02*
X154023809Y-91217319D01*
X154023809Y-91217319D02*
X154119047Y-91264938D01*
X154119047Y-91264938D02*
X154166666Y-91312557D01*
X154166666Y-91312557D02*
X154261904Y-91455414D01*
X154261904Y-91455414D02*
X154309523Y-91645890D01*
X154309523Y-91645890D02*
X154309523Y-92026842D01*
X154309523Y-92026842D02*
X154261904Y-92122080D01*
X154261904Y-92122080D02*
X154214285Y-92169700D01*
X154214285Y-92169700D02*
X154119047Y-92217319D01*
X154119047Y-92217319D02*
X153928571Y-92217319D01*
X153928571Y-92217319D02*
X153833333Y-92169700D01*
X153833333Y-92169700D02*
X153785714Y-92122080D01*
X153785714Y-92122080D02*
X153738095Y-92026842D01*
X153738095Y-92026842D02*
X153738095Y-91788747D01*
X153738095Y-91788747D02*
X153785714Y-91693509D01*
X153785714Y-91693509D02*
X153833333Y-91645890D01*
X153833333Y-91645890D02*
X153928571Y-91598271D01*
X153928571Y-91598271D02*
X154119047Y-91598271D01*
X154119047Y-91598271D02*
X154214285Y-91645890D01*
X154214285Y-91645890D02*
X154261904Y-91693509D01*
X154261904Y-91693509D02*
X154309523Y-91788747D01*
X104429819Y-89645833D02*
X103953628Y-89312500D01*
X104429819Y-89074405D02*
X103429819Y-89074405D01*
X103429819Y-89074405D02*
X103429819Y-89455357D01*
X103429819Y-89455357D02*
X103477438Y-89550595D01*
X103477438Y-89550595D02*
X103525057Y-89598214D01*
X103525057Y-89598214D02*
X103620295Y-89645833D01*
X103620295Y-89645833D02*
X103763152Y-89645833D01*
X103763152Y-89645833D02*
X103858390Y-89598214D01*
X103858390Y-89598214D02*
X103906009Y-89550595D01*
X103906009Y-89550595D02*
X103953628Y-89455357D01*
X103953628Y-89455357D02*
X103953628Y-89074405D01*
X103429819Y-89979167D02*
X103429819Y-90598214D01*
X103429819Y-90598214D02*
X103810771Y-90264881D01*
X103810771Y-90264881D02*
X103810771Y-90407738D01*
X103810771Y-90407738D02*
X103858390Y-90502976D01*
X103858390Y-90502976D02*
X103906009Y-90550595D01*
X103906009Y-90550595D02*
X104001247Y-90598214D01*
X104001247Y-90598214D02*
X104239342Y-90598214D01*
X104239342Y-90598214D02*
X104334580Y-90550595D01*
X104334580Y-90550595D02*
X104382200Y-90502976D01*
X104382200Y-90502976D02*
X104429819Y-90407738D01*
X104429819Y-90407738D02*
X104429819Y-90122024D01*
X104429819Y-90122024D02*
X104382200Y-90026786D01*
X104382200Y-90026786D02*
X104334580Y-89979167D01*
X157659580Y-120419642D02*
X157707200Y-120372023D01*
X157707200Y-120372023D02*
X157754819Y-120229166D01*
X157754819Y-120229166D02*
X157754819Y-120133928D01*
X157754819Y-120133928D02*
X157707200Y-119991071D01*
X157707200Y-119991071D02*
X157611961Y-119895833D01*
X157611961Y-119895833D02*
X157516723Y-119848214D01*
X157516723Y-119848214D02*
X157326247Y-119800595D01*
X157326247Y-119800595D02*
X157183390Y-119800595D01*
X157183390Y-119800595D02*
X156992914Y-119848214D01*
X156992914Y-119848214D02*
X156897676Y-119895833D01*
X156897676Y-119895833D02*
X156802438Y-119991071D01*
X156802438Y-119991071D02*
X156754819Y-120133928D01*
X156754819Y-120133928D02*
X156754819Y-120229166D01*
X156754819Y-120229166D02*
X156802438Y-120372023D01*
X156802438Y-120372023D02*
X156850057Y-120419642D01*
X156850057Y-120800595D02*
X156802438Y-120848214D01*
X156802438Y-120848214D02*
X156754819Y-120943452D01*
X156754819Y-120943452D02*
X156754819Y-121181547D01*
X156754819Y-121181547D02*
X156802438Y-121276785D01*
X156802438Y-121276785D02*
X156850057Y-121324404D01*
X156850057Y-121324404D02*
X156945295Y-121372023D01*
X156945295Y-121372023D02*
X157040533Y-121372023D01*
X157040533Y-121372023D02*
X157183390Y-121324404D01*
X157183390Y-121324404D02*
X157754819Y-120752976D01*
X157754819Y-120752976D02*
X157754819Y-121372023D01*
X156754819Y-122229166D02*
X156754819Y-122038690D01*
X156754819Y-122038690D02*
X156802438Y-121943452D01*
X156802438Y-121943452D02*
X156850057Y-121895833D01*
X156850057Y-121895833D02*
X156992914Y-121800595D01*
X156992914Y-121800595D02*
X157183390Y-121752976D01*
X157183390Y-121752976D02*
X157564342Y-121752976D01*
X157564342Y-121752976D02*
X157659580Y-121800595D01*
X157659580Y-121800595D02*
X157707200Y-121848214D01*
X157707200Y-121848214D02*
X157754819Y-121943452D01*
X157754819Y-121943452D02*
X157754819Y-122133928D01*
X157754819Y-122133928D02*
X157707200Y-122229166D01*
X157707200Y-122229166D02*
X157659580Y-122276785D01*
X157659580Y-122276785D02*
X157564342Y-122324404D01*
X157564342Y-122324404D02*
X157326247Y-122324404D01*
X157326247Y-122324404D02*
X157231009Y-122276785D01*
X157231009Y-122276785D02*
X157183390Y-122229166D01*
X157183390Y-122229166D02*
X157135771Y-122133928D01*
X157135771Y-122133928D02*
X157135771Y-121943452D01*
X157135771Y-121943452D02*
X157183390Y-121848214D01*
X157183390Y-121848214D02*
X157231009Y-121800595D01*
X157231009Y-121800595D02*
X157326247Y-121752976D01*
X167159580Y-107369642D02*
X167207200Y-107322023D01*
X167207200Y-107322023D02*
X167254819Y-107179166D01*
X167254819Y-107179166D02*
X167254819Y-107083928D01*
X167254819Y-107083928D02*
X167207200Y-106941071D01*
X167207200Y-106941071D02*
X167111961Y-106845833D01*
X167111961Y-106845833D02*
X167016723Y-106798214D01*
X167016723Y-106798214D02*
X166826247Y-106750595D01*
X166826247Y-106750595D02*
X166683390Y-106750595D01*
X166683390Y-106750595D02*
X166492914Y-106798214D01*
X166492914Y-106798214D02*
X166397676Y-106845833D01*
X166397676Y-106845833D02*
X166302438Y-106941071D01*
X166302438Y-106941071D02*
X166254819Y-107083928D01*
X166254819Y-107083928D02*
X166254819Y-107179166D01*
X166254819Y-107179166D02*
X166302438Y-107322023D01*
X166302438Y-107322023D02*
X166350057Y-107369642D01*
X166350057Y-107750595D02*
X166302438Y-107798214D01*
X166302438Y-107798214D02*
X166254819Y-107893452D01*
X166254819Y-107893452D02*
X166254819Y-108131547D01*
X166254819Y-108131547D02*
X166302438Y-108226785D01*
X166302438Y-108226785D02*
X166350057Y-108274404D01*
X166350057Y-108274404D02*
X166445295Y-108322023D01*
X166445295Y-108322023D02*
X166540533Y-108322023D01*
X166540533Y-108322023D02*
X166683390Y-108274404D01*
X166683390Y-108274404D02*
X167254819Y-107702976D01*
X167254819Y-107702976D02*
X167254819Y-108322023D01*
X166350057Y-108702976D02*
X166302438Y-108750595D01*
X166302438Y-108750595D02*
X166254819Y-108845833D01*
X166254819Y-108845833D02*
X166254819Y-109083928D01*
X166254819Y-109083928D02*
X166302438Y-109179166D01*
X166302438Y-109179166D02*
X166350057Y-109226785D01*
X166350057Y-109226785D02*
X166445295Y-109274404D01*
X166445295Y-109274404D02*
X166540533Y-109274404D01*
X166540533Y-109274404D02*
X166683390Y-109226785D01*
X166683390Y-109226785D02*
X167254819Y-108655357D01*
X167254819Y-108655357D02*
X167254819Y-109274404D01*
X87429819Y-99069642D02*
X86953628Y-98736309D01*
X87429819Y-98498214D02*
X86429819Y-98498214D01*
X86429819Y-98498214D02*
X86429819Y-98879166D01*
X86429819Y-98879166D02*
X86477438Y-98974404D01*
X86477438Y-98974404D02*
X86525057Y-99022023D01*
X86525057Y-99022023D02*
X86620295Y-99069642D01*
X86620295Y-99069642D02*
X86763152Y-99069642D01*
X86763152Y-99069642D02*
X86858390Y-99022023D01*
X86858390Y-99022023D02*
X86906009Y-98974404D01*
X86906009Y-98974404D02*
X86953628Y-98879166D01*
X86953628Y-98879166D02*
X86953628Y-98498214D01*
X86429819Y-99402976D02*
X86429819Y-100022023D01*
X86429819Y-100022023D02*
X86810771Y-99688690D01*
X86810771Y-99688690D02*
X86810771Y-99831547D01*
X86810771Y-99831547D02*
X86858390Y-99926785D01*
X86858390Y-99926785D02*
X86906009Y-99974404D01*
X86906009Y-99974404D02*
X87001247Y-100022023D01*
X87001247Y-100022023D02*
X87239342Y-100022023D01*
X87239342Y-100022023D02*
X87334580Y-99974404D01*
X87334580Y-99974404D02*
X87382200Y-99926785D01*
X87382200Y-99926785D02*
X87429819Y-99831547D01*
X87429819Y-99831547D02*
X87429819Y-99545833D01*
X87429819Y-99545833D02*
X87382200Y-99450595D01*
X87382200Y-99450595D02*
X87334580Y-99402976D01*
X86858390Y-100593452D02*
X86810771Y-100498214D01*
X86810771Y-100498214D02*
X86763152Y-100450595D01*
X86763152Y-100450595D02*
X86667914Y-100402976D01*
X86667914Y-100402976D02*
X86620295Y-100402976D01*
X86620295Y-100402976D02*
X86525057Y-100450595D01*
X86525057Y-100450595D02*
X86477438Y-100498214D01*
X86477438Y-100498214D02*
X86429819Y-100593452D01*
X86429819Y-100593452D02*
X86429819Y-100783928D01*
X86429819Y-100783928D02*
X86477438Y-100879166D01*
X86477438Y-100879166D02*
X86525057Y-100926785D01*
X86525057Y-100926785D02*
X86620295Y-100974404D01*
X86620295Y-100974404D02*
X86667914Y-100974404D01*
X86667914Y-100974404D02*
X86763152Y-100926785D01*
X86763152Y-100926785D02*
X86810771Y-100879166D01*
X86810771Y-100879166D02*
X86858390Y-100783928D01*
X86858390Y-100783928D02*
X86858390Y-100593452D01*
X86858390Y-100593452D02*
X86906009Y-100498214D01*
X86906009Y-100498214D02*
X86953628Y-100450595D01*
X86953628Y-100450595D02*
X87048866Y-100402976D01*
X87048866Y-100402976D02*
X87239342Y-100402976D01*
X87239342Y-100402976D02*
X87334580Y-100450595D01*
X87334580Y-100450595D02*
X87382200Y-100498214D01*
X87382200Y-100498214D02*
X87429819Y-100593452D01*
X87429819Y-100593452D02*
X87429819Y-100783928D01*
X87429819Y-100783928D02*
X87382200Y-100879166D01*
X87382200Y-100879166D02*
X87334580Y-100926785D01*
X87334580Y-100926785D02*
X87239342Y-100974404D01*
X87239342Y-100974404D02*
X87048866Y-100974404D01*
X87048866Y-100974404D02*
X86953628Y-100926785D01*
X86953628Y-100926785D02*
X86906009Y-100879166D01*
X86906009Y-100879166D02*
X86858390Y-100783928D01*
X193742857Y-92217319D02*
X194076190Y-91741128D01*
X194314285Y-92217319D02*
X194314285Y-91217319D01*
X194314285Y-91217319D02*
X193933333Y-91217319D01*
X193933333Y-91217319D02*
X193838095Y-91264938D01*
X193838095Y-91264938D02*
X193790476Y-91312557D01*
X193790476Y-91312557D02*
X193742857Y-91407795D01*
X193742857Y-91407795D02*
X193742857Y-91550652D01*
X193742857Y-91550652D02*
X193790476Y-91645890D01*
X193790476Y-91645890D02*
X193838095Y-91693509D01*
X193838095Y-91693509D02*
X193933333Y-91741128D01*
X193933333Y-91741128D02*
X194314285Y-91741128D01*
X193361904Y-91312557D02*
X193314285Y-91264938D01*
X193314285Y-91264938D02*
X193219047Y-91217319D01*
X193219047Y-91217319D02*
X192980952Y-91217319D01*
X192980952Y-91217319D02*
X192885714Y-91264938D01*
X192885714Y-91264938D02*
X192838095Y-91312557D01*
X192838095Y-91312557D02*
X192790476Y-91407795D01*
X192790476Y-91407795D02*
X192790476Y-91503033D01*
X192790476Y-91503033D02*
X192838095Y-91645890D01*
X192838095Y-91645890D02*
X193409523Y-92217319D01*
X193409523Y-92217319D02*
X192790476Y-92217319D01*
X192457142Y-91217319D02*
X191790476Y-91217319D01*
X191790476Y-91217319D02*
X192219047Y-92217319D01*
X93284580Y-108585833D02*
X93332200Y-108538214D01*
X93332200Y-108538214D02*
X93379819Y-108395357D01*
X93379819Y-108395357D02*
X93379819Y-108300119D01*
X93379819Y-108300119D02*
X93332200Y-108157262D01*
X93332200Y-108157262D02*
X93236961Y-108062024D01*
X93236961Y-108062024D02*
X93141723Y-108014405D01*
X93141723Y-108014405D02*
X92951247Y-107966786D01*
X92951247Y-107966786D02*
X92808390Y-107966786D01*
X92808390Y-107966786D02*
X92617914Y-108014405D01*
X92617914Y-108014405D02*
X92522676Y-108062024D01*
X92522676Y-108062024D02*
X92427438Y-108157262D01*
X92427438Y-108157262D02*
X92379819Y-108300119D01*
X92379819Y-108300119D02*
X92379819Y-108395357D01*
X92379819Y-108395357D02*
X92427438Y-108538214D01*
X92427438Y-108538214D02*
X92475057Y-108585833D01*
X92379819Y-108919167D02*
X92379819Y-109538214D01*
X92379819Y-109538214D02*
X92760771Y-109204881D01*
X92760771Y-109204881D02*
X92760771Y-109347738D01*
X92760771Y-109347738D02*
X92808390Y-109442976D01*
X92808390Y-109442976D02*
X92856009Y-109490595D01*
X92856009Y-109490595D02*
X92951247Y-109538214D01*
X92951247Y-109538214D02*
X93189342Y-109538214D01*
X93189342Y-109538214D02*
X93284580Y-109490595D01*
X93284580Y-109490595D02*
X93332200Y-109442976D01*
X93332200Y-109442976D02*
X93379819Y-109347738D01*
X93379819Y-109347738D02*
X93379819Y-109062024D01*
X93379819Y-109062024D02*
X93332200Y-108966786D01*
X93332200Y-108966786D02*
X93284580Y-108919167D01*
X96141666Y-87767319D02*
X96474999Y-87291128D01*
X96713094Y-87767319D02*
X96713094Y-86767319D01*
X96713094Y-86767319D02*
X96332142Y-86767319D01*
X96332142Y-86767319D02*
X96236904Y-86814938D01*
X96236904Y-86814938D02*
X96189285Y-86862557D01*
X96189285Y-86862557D02*
X96141666Y-86957795D01*
X96141666Y-86957795D02*
X96141666Y-87100652D01*
X96141666Y-87100652D02*
X96189285Y-87195890D01*
X96189285Y-87195890D02*
X96236904Y-87243509D01*
X96236904Y-87243509D02*
X96332142Y-87291128D01*
X96332142Y-87291128D02*
X96713094Y-87291128D01*
X95284523Y-87100652D02*
X95284523Y-87767319D01*
X95522618Y-86719700D02*
X95760713Y-87433985D01*
X95760713Y-87433985D02*
X95141666Y-87433985D01*
X155642857Y-73167319D02*
X155976190Y-72691128D01*
X156214285Y-73167319D02*
X156214285Y-72167319D01*
X156214285Y-72167319D02*
X155833333Y-72167319D01*
X155833333Y-72167319D02*
X155738095Y-72214938D01*
X155738095Y-72214938D02*
X155690476Y-72262557D01*
X155690476Y-72262557D02*
X155642857Y-72357795D01*
X155642857Y-72357795D02*
X155642857Y-72500652D01*
X155642857Y-72500652D02*
X155690476Y-72595890D01*
X155690476Y-72595890D02*
X155738095Y-72643509D01*
X155738095Y-72643509D02*
X155833333Y-72691128D01*
X155833333Y-72691128D02*
X156214285Y-72691128D01*
X154690476Y-73167319D02*
X155261904Y-73167319D01*
X154976190Y-73167319D02*
X154976190Y-72167319D01*
X154976190Y-72167319D02*
X155071428Y-72310176D01*
X155071428Y-72310176D02*
X155166666Y-72405414D01*
X155166666Y-72405414D02*
X155261904Y-72453033D01*
X153738095Y-73167319D02*
X154309523Y-73167319D01*
X154023809Y-73167319D02*
X154023809Y-72167319D01*
X154023809Y-72167319D02*
X154119047Y-72310176D01*
X154119047Y-72310176D02*
X154214285Y-72405414D01*
X154214285Y-72405414D02*
X154309523Y-72453033D01*
X148109580Y-107369642D02*
X148157200Y-107322023D01*
X148157200Y-107322023D02*
X148204819Y-107179166D01*
X148204819Y-107179166D02*
X148204819Y-107083928D01*
X148204819Y-107083928D02*
X148157200Y-106941071D01*
X148157200Y-106941071D02*
X148061961Y-106845833D01*
X148061961Y-106845833D02*
X147966723Y-106798214D01*
X147966723Y-106798214D02*
X147776247Y-106750595D01*
X147776247Y-106750595D02*
X147633390Y-106750595D01*
X147633390Y-106750595D02*
X147442914Y-106798214D01*
X147442914Y-106798214D02*
X147347676Y-106845833D01*
X147347676Y-106845833D02*
X147252438Y-106941071D01*
X147252438Y-106941071D02*
X147204819Y-107083928D01*
X147204819Y-107083928D02*
X147204819Y-107179166D01*
X147204819Y-107179166D02*
X147252438Y-107322023D01*
X147252438Y-107322023D02*
X147300057Y-107369642D01*
X148204819Y-108322023D02*
X148204819Y-107750595D01*
X148204819Y-108036309D02*
X147204819Y-108036309D01*
X147204819Y-108036309D02*
X147347676Y-107941071D01*
X147347676Y-107941071D02*
X147442914Y-107845833D01*
X147442914Y-107845833D02*
X147490533Y-107750595D01*
X147204819Y-108655357D02*
X147204819Y-109322023D01*
X147204819Y-109322023D02*
X148204819Y-108893452D01*
X129059580Y-88319642D02*
X129107200Y-88272023D01*
X129107200Y-88272023D02*
X129154819Y-88129166D01*
X129154819Y-88129166D02*
X129154819Y-88033928D01*
X129154819Y-88033928D02*
X129107200Y-87891071D01*
X129107200Y-87891071D02*
X129011961Y-87795833D01*
X129011961Y-87795833D02*
X128916723Y-87748214D01*
X128916723Y-87748214D02*
X128726247Y-87700595D01*
X128726247Y-87700595D02*
X128583390Y-87700595D01*
X128583390Y-87700595D02*
X128392914Y-87748214D01*
X128392914Y-87748214D02*
X128297676Y-87795833D01*
X128297676Y-87795833D02*
X128202438Y-87891071D01*
X128202438Y-87891071D02*
X128154819Y-88033928D01*
X128154819Y-88033928D02*
X128154819Y-88129166D01*
X128154819Y-88129166D02*
X128202438Y-88272023D01*
X128202438Y-88272023D02*
X128250057Y-88319642D01*
X129154819Y-89272023D02*
X129154819Y-88700595D01*
X129154819Y-88986309D02*
X128154819Y-88986309D01*
X128154819Y-88986309D02*
X128297676Y-88891071D01*
X128297676Y-88891071D02*
X128392914Y-88795833D01*
X128392914Y-88795833D02*
X128440533Y-88700595D01*
X129154819Y-90224404D02*
X129154819Y-89652976D01*
X129154819Y-89938690D02*
X128154819Y-89938690D01*
X128154819Y-89938690D02*
X128297676Y-89843452D01*
X128297676Y-89843452D02*
X128392914Y-89748214D01*
X128392914Y-89748214D02*
X128440533Y-89652976D01*
X195759580Y-120419642D02*
X195807200Y-120372023D01*
X195807200Y-120372023D02*
X195854819Y-120229166D01*
X195854819Y-120229166D02*
X195854819Y-120133928D01*
X195854819Y-120133928D02*
X195807200Y-119991071D01*
X195807200Y-119991071D02*
X195711961Y-119895833D01*
X195711961Y-119895833D02*
X195616723Y-119848214D01*
X195616723Y-119848214D02*
X195426247Y-119800595D01*
X195426247Y-119800595D02*
X195283390Y-119800595D01*
X195283390Y-119800595D02*
X195092914Y-119848214D01*
X195092914Y-119848214D02*
X194997676Y-119895833D01*
X194997676Y-119895833D02*
X194902438Y-119991071D01*
X194902438Y-119991071D02*
X194854819Y-120133928D01*
X194854819Y-120133928D02*
X194854819Y-120229166D01*
X194854819Y-120229166D02*
X194902438Y-120372023D01*
X194902438Y-120372023D02*
X194950057Y-120419642D01*
X194950057Y-120800595D02*
X194902438Y-120848214D01*
X194902438Y-120848214D02*
X194854819Y-120943452D01*
X194854819Y-120943452D02*
X194854819Y-121181547D01*
X194854819Y-121181547D02*
X194902438Y-121276785D01*
X194902438Y-121276785D02*
X194950057Y-121324404D01*
X194950057Y-121324404D02*
X195045295Y-121372023D01*
X195045295Y-121372023D02*
X195140533Y-121372023D01*
X195140533Y-121372023D02*
X195283390Y-121324404D01*
X195283390Y-121324404D02*
X195854819Y-120752976D01*
X195854819Y-120752976D02*
X195854819Y-121372023D01*
X195283390Y-121943452D02*
X195235771Y-121848214D01*
X195235771Y-121848214D02*
X195188152Y-121800595D01*
X195188152Y-121800595D02*
X195092914Y-121752976D01*
X195092914Y-121752976D02*
X195045295Y-121752976D01*
X195045295Y-121752976D02*
X194950057Y-121800595D01*
X194950057Y-121800595D02*
X194902438Y-121848214D01*
X194902438Y-121848214D02*
X194854819Y-121943452D01*
X194854819Y-121943452D02*
X194854819Y-122133928D01*
X194854819Y-122133928D02*
X194902438Y-122229166D01*
X194902438Y-122229166D02*
X194950057Y-122276785D01*
X194950057Y-122276785D02*
X195045295Y-122324404D01*
X195045295Y-122324404D02*
X195092914Y-122324404D01*
X195092914Y-122324404D02*
X195188152Y-122276785D01*
X195188152Y-122276785D02*
X195235771Y-122229166D01*
X195235771Y-122229166D02*
X195283390Y-122133928D01*
X195283390Y-122133928D02*
X195283390Y-121943452D01*
X195283390Y-121943452D02*
X195331009Y-121848214D01*
X195331009Y-121848214D02*
X195378628Y-121800595D01*
X195378628Y-121800595D02*
X195473866Y-121752976D01*
X195473866Y-121752976D02*
X195664342Y-121752976D01*
X195664342Y-121752976D02*
X195759580Y-121800595D01*
X195759580Y-121800595D02*
X195807200Y-121848214D01*
X195807200Y-121848214D02*
X195854819Y-121943452D01*
X195854819Y-121943452D02*
X195854819Y-122133928D01*
X195854819Y-122133928D02*
X195807200Y-122229166D01*
X195807200Y-122229166D02*
X195759580Y-122276785D01*
X195759580Y-122276785D02*
X195664342Y-122324404D01*
X195664342Y-122324404D02*
X195473866Y-122324404D01*
X195473866Y-122324404D02*
X195378628Y-122276785D01*
X195378628Y-122276785D02*
X195331009Y-122229166D01*
X195331009Y-122229166D02*
X195283390Y-122133928D01*
X186209580Y-107369642D02*
X186257200Y-107322023D01*
X186257200Y-107322023D02*
X186304819Y-107179166D01*
X186304819Y-107179166D02*
X186304819Y-107083928D01*
X186304819Y-107083928D02*
X186257200Y-106941071D01*
X186257200Y-106941071D02*
X186161961Y-106845833D01*
X186161961Y-106845833D02*
X186066723Y-106798214D01*
X186066723Y-106798214D02*
X185876247Y-106750595D01*
X185876247Y-106750595D02*
X185733390Y-106750595D01*
X185733390Y-106750595D02*
X185542914Y-106798214D01*
X185542914Y-106798214D02*
X185447676Y-106845833D01*
X185447676Y-106845833D02*
X185352438Y-106941071D01*
X185352438Y-106941071D02*
X185304819Y-107083928D01*
X185304819Y-107083928D02*
X185304819Y-107179166D01*
X185304819Y-107179166D02*
X185352438Y-107322023D01*
X185352438Y-107322023D02*
X185400057Y-107369642D01*
X185400057Y-107750595D02*
X185352438Y-107798214D01*
X185352438Y-107798214D02*
X185304819Y-107893452D01*
X185304819Y-107893452D02*
X185304819Y-108131547D01*
X185304819Y-108131547D02*
X185352438Y-108226785D01*
X185352438Y-108226785D02*
X185400057Y-108274404D01*
X185400057Y-108274404D02*
X185495295Y-108322023D01*
X185495295Y-108322023D02*
X185590533Y-108322023D01*
X185590533Y-108322023D02*
X185733390Y-108274404D01*
X185733390Y-108274404D02*
X186304819Y-107702976D01*
X186304819Y-107702976D02*
X186304819Y-108322023D01*
X185304819Y-108655357D02*
X185304819Y-109274404D01*
X185304819Y-109274404D02*
X185685771Y-108941071D01*
X185685771Y-108941071D02*
X185685771Y-109083928D01*
X185685771Y-109083928D02*
X185733390Y-109179166D01*
X185733390Y-109179166D02*
X185781009Y-109226785D01*
X185781009Y-109226785D02*
X185876247Y-109274404D01*
X185876247Y-109274404D02*
X186114342Y-109274404D01*
X186114342Y-109274404D02*
X186209580Y-109226785D01*
X186209580Y-109226785D02*
X186257200Y-109179166D01*
X186257200Y-109179166D02*
X186304819Y-109083928D01*
X186304819Y-109083928D02*
X186304819Y-108798214D01*
X186304819Y-108798214D02*
X186257200Y-108702976D01*
X186257200Y-108702976D02*
X186209580Y-108655357D01*
X222417857Y-114067319D02*
X222751190Y-113591128D01*
X222989285Y-114067319D02*
X222989285Y-113067319D01*
X222989285Y-113067319D02*
X222608333Y-113067319D01*
X222608333Y-113067319D02*
X222513095Y-113114938D01*
X222513095Y-113114938D02*
X222465476Y-113162557D01*
X222465476Y-113162557D02*
X222417857Y-113257795D01*
X222417857Y-113257795D02*
X222417857Y-113400652D01*
X222417857Y-113400652D02*
X222465476Y-113495890D01*
X222465476Y-113495890D02*
X222513095Y-113543509D01*
X222513095Y-113543509D02*
X222608333Y-113591128D01*
X222608333Y-113591128D02*
X222989285Y-113591128D01*
X221465476Y-114067319D02*
X222036904Y-114067319D01*
X221751190Y-114067319D02*
X221751190Y-113067319D01*
X221751190Y-113067319D02*
X221846428Y-113210176D01*
X221846428Y-113210176D02*
X221941666Y-113305414D01*
X221941666Y-113305414D02*
X222036904Y-113353033D01*
X221132142Y-113067319D02*
X220465476Y-113067319D01*
X220465476Y-113067319D02*
X220894047Y-114067319D01*
X83867857Y-105917319D02*
X84201190Y-105441128D01*
X84439285Y-105917319D02*
X84439285Y-104917319D01*
X84439285Y-104917319D02*
X84058333Y-104917319D01*
X84058333Y-104917319D02*
X83963095Y-104964938D01*
X83963095Y-104964938D02*
X83915476Y-105012557D01*
X83915476Y-105012557D02*
X83867857Y-105107795D01*
X83867857Y-105107795D02*
X83867857Y-105250652D01*
X83867857Y-105250652D02*
X83915476Y-105345890D01*
X83915476Y-105345890D02*
X83963095Y-105393509D01*
X83963095Y-105393509D02*
X84058333Y-105441128D01*
X84058333Y-105441128D02*
X84439285Y-105441128D01*
X83534523Y-104917319D02*
X82915476Y-104917319D01*
X82915476Y-104917319D02*
X83248809Y-105298271D01*
X83248809Y-105298271D02*
X83105952Y-105298271D01*
X83105952Y-105298271D02*
X83010714Y-105345890D01*
X83010714Y-105345890D02*
X82963095Y-105393509D01*
X82963095Y-105393509D02*
X82915476Y-105488747D01*
X82915476Y-105488747D02*
X82915476Y-105726842D01*
X82915476Y-105726842D02*
X82963095Y-105822080D01*
X82963095Y-105822080D02*
X83010714Y-105869700D01*
X83010714Y-105869700D02*
X83105952Y-105917319D01*
X83105952Y-105917319D02*
X83391666Y-105917319D01*
X83391666Y-105917319D02*
X83486904Y-105869700D01*
X83486904Y-105869700D02*
X83534523Y-105822080D01*
X82058333Y-104917319D02*
X82248809Y-104917319D01*
X82248809Y-104917319D02*
X82344047Y-104964938D01*
X82344047Y-104964938D02*
X82391666Y-105012557D01*
X82391666Y-105012557D02*
X82486904Y-105155414D01*
X82486904Y-105155414D02*
X82534523Y-105345890D01*
X82534523Y-105345890D02*
X82534523Y-105726842D01*
X82534523Y-105726842D02*
X82486904Y-105822080D01*
X82486904Y-105822080D02*
X82439285Y-105869700D01*
X82439285Y-105869700D02*
X82344047Y-105917319D01*
X82344047Y-105917319D02*
X82153571Y-105917319D01*
X82153571Y-105917319D02*
X82058333Y-105869700D01*
X82058333Y-105869700D02*
X82010714Y-105822080D01*
X82010714Y-105822080D02*
X81963095Y-105726842D01*
X81963095Y-105726842D02*
X81963095Y-105488747D01*
X81963095Y-105488747D02*
X82010714Y-105393509D01*
X82010714Y-105393509D02*
X82058333Y-105345890D01*
X82058333Y-105345890D02*
X82153571Y-105298271D01*
X82153571Y-105298271D02*
X82344047Y-105298271D01*
X82344047Y-105298271D02*
X82439285Y-105345890D01*
X82439285Y-105345890D02*
X82486904Y-105393509D01*
X82486904Y-105393509D02*
X82534523Y-105488747D01*
X119559580Y-120419642D02*
X119607200Y-120372023D01*
X119607200Y-120372023D02*
X119654819Y-120229166D01*
X119654819Y-120229166D02*
X119654819Y-120133928D01*
X119654819Y-120133928D02*
X119607200Y-119991071D01*
X119607200Y-119991071D02*
X119511961Y-119895833D01*
X119511961Y-119895833D02*
X119416723Y-119848214D01*
X119416723Y-119848214D02*
X119226247Y-119800595D01*
X119226247Y-119800595D02*
X119083390Y-119800595D01*
X119083390Y-119800595D02*
X118892914Y-119848214D01*
X118892914Y-119848214D02*
X118797676Y-119895833D01*
X118797676Y-119895833D02*
X118702438Y-119991071D01*
X118702438Y-119991071D02*
X118654819Y-120133928D01*
X118654819Y-120133928D02*
X118654819Y-120229166D01*
X118654819Y-120229166D02*
X118702438Y-120372023D01*
X118702438Y-120372023D02*
X118750057Y-120419642D01*
X118750057Y-120800595D02*
X118702438Y-120848214D01*
X118702438Y-120848214D02*
X118654819Y-120943452D01*
X118654819Y-120943452D02*
X118654819Y-121181547D01*
X118654819Y-121181547D02*
X118702438Y-121276785D01*
X118702438Y-121276785D02*
X118750057Y-121324404D01*
X118750057Y-121324404D02*
X118845295Y-121372023D01*
X118845295Y-121372023D02*
X118940533Y-121372023D01*
X118940533Y-121372023D02*
X119083390Y-121324404D01*
X119083390Y-121324404D02*
X119654819Y-120752976D01*
X119654819Y-120752976D02*
X119654819Y-121372023D01*
X118988152Y-122229166D02*
X119654819Y-122229166D01*
X118607200Y-121991071D02*
X119321485Y-121752976D01*
X119321485Y-121752976D02*
X119321485Y-122372023D01*
X199263094Y-104917319D02*
X199263094Y-105726842D01*
X199263094Y-105726842D02*
X199215475Y-105822080D01*
X199215475Y-105822080D02*
X199167856Y-105869700D01*
X199167856Y-105869700D02*
X199072618Y-105917319D01*
X199072618Y-105917319D02*
X198882142Y-105917319D01*
X198882142Y-105917319D02*
X198786904Y-105869700D01*
X198786904Y-105869700D02*
X198739285Y-105822080D01*
X198739285Y-105822080D02*
X198691666Y-105726842D01*
X198691666Y-105726842D02*
X198691666Y-104917319D01*
X198263094Y-105012557D02*
X198215475Y-104964938D01*
X198215475Y-104964938D02*
X198120237Y-104917319D01*
X198120237Y-104917319D02*
X197882142Y-104917319D01*
X197882142Y-104917319D02*
X197786904Y-104964938D01*
X197786904Y-104964938D02*
X197739285Y-105012557D01*
X197739285Y-105012557D02*
X197691666Y-105107795D01*
X197691666Y-105107795D02*
X197691666Y-105203033D01*
X197691666Y-105203033D02*
X197739285Y-105345890D01*
X197739285Y-105345890D02*
X198310713Y-105917319D01*
X198310713Y-105917319D02*
X197691666Y-105917319D01*
X197358332Y-104917319D02*
X196691666Y-104917319D01*
X196691666Y-104917319D02*
X197120237Y-105917319D01*
X101286904Y-98417319D02*
X101286904Y-99226842D01*
X101286904Y-99226842D02*
X101239285Y-99322080D01*
X101239285Y-99322080D02*
X101191666Y-99369700D01*
X101191666Y-99369700D02*
X101096428Y-99417319D01*
X101096428Y-99417319D02*
X100905952Y-99417319D01*
X100905952Y-99417319D02*
X100810714Y-99369700D01*
X100810714Y-99369700D02*
X100763095Y-99322080D01*
X100763095Y-99322080D02*
X100715476Y-99226842D01*
X100715476Y-99226842D02*
X100715476Y-98417319D01*
X100334523Y-98417319D02*
X99715476Y-98417319D01*
X99715476Y-98417319D02*
X100048809Y-98798271D01*
X100048809Y-98798271D02*
X99905952Y-98798271D01*
X99905952Y-98798271D02*
X99810714Y-98845890D01*
X99810714Y-98845890D02*
X99763095Y-98893509D01*
X99763095Y-98893509D02*
X99715476Y-98988747D01*
X99715476Y-98988747D02*
X99715476Y-99226842D01*
X99715476Y-99226842D02*
X99763095Y-99322080D01*
X99763095Y-99322080D02*
X99810714Y-99369700D01*
X99810714Y-99369700D02*
X99905952Y-99417319D01*
X99905952Y-99417319D02*
X100191666Y-99417319D01*
X100191666Y-99417319D02*
X100286904Y-99369700D01*
X100286904Y-99369700D02*
X100334523Y-99322080D01*
X222417857Y-115422080D02*
X222465476Y-115469700D01*
X222465476Y-115469700D02*
X222608333Y-115517319D01*
X222608333Y-115517319D02*
X222703571Y-115517319D01*
X222703571Y-115517319D02*
X222846428Y-115469700D01*
X222846428Y-115469700D02*
X222941666Y-115374461D01*
X222941666Y-115374461D02*
X222989285Y-115279223D01*
X222989285Y-115279223D02*
X223036904Y-115088747D01*
X223036904Y-115088747D02*
X223036904Y-114945890D01*
X223036904Y-114945890D02*
X222989285Y-114755414D01*
X222989285Y-114755414D02*
X222941666Y-114660176D01*
X222941666Y-114660176D02*
X222846428Y-114564938D01*
X222846428Y-114564938D02*
X222703571Y-114517319D01*
X222703571Y-114517319D02*
X222608333Y-114517319D01*
X222608333Y-114517319D02*
X222465476Y-114564938D01*
X222465476Y-114564938D02*
X222417857Y-114612557D01*
X221465476Y-115517319D02*
X222036904Y-115517319D01*
X221751190Y-115517319D02*
X221751190Y-114517319D01*
X221751190Y-114517319D02*
X221846428Y-114660176D01*
X221846428Y-114660176D02*
X221941666Y-114755414D01*
X221941666Y-114755414D02*
X222036904Y-114803033D01*
X220894047Y-114945890D02*
X220989285Y-114898271D01*
X220989285Y-114898271D02*
X221036904Y-114850652D01*
X221036904Y-114850652D02*
X221084523Y-114755414D01*
X221084523Y-114755414D02*
X221084523Y-114707795D01*
X221084523Y-114707795D02*
X221036904Y-114612557D01*
X221036904Y-114612557D02*
X220989285Y-114564938D01*
X220989285Y-114564938D02*
X220894047Y-114517319D01*
X220894047Y-114517319D02*
X220703571Y-114517319D01*
X220703571Y-114517319D02*
X220608333Y-114564938D01*
X220608333Y-114564938D02*
X220560714Y-114612557D01*
X220560714Y-114612557D02*
X220513095Y-114707795D01*
X220513095Y-114707795D02*
X220513095Y-114755414D01*
X220513095Y-114755414D02*
X220560714Y-114850652D01*
X220560714Y-114850652D02*
X220608333Y-114898271D01*
X220608333Y-114898271D02*
X220703571Y-114945890D01*
X220703571Y-114945890D02*
X220894047Y-114945890D01*
X220894047Y-114945890D02*
X220989285Y-114993509D01*
X220989285Y-114993509D02*
X221036904Y-115041128D01*
X221036904Y-115041128D02*
X221084523Y-115136366D01*
X221084523Y-115136366D02*
X221084523Y-115326842D01*
X221084523Y-115326842D02*
X221036904Y-115422080D01*
X221036904Y-115422080D02*
X220989285Y-115469700D01*
X220989285Y-115469700D02*
X220894047Y-115517319D01*
X220894047Y-115517319D02*
X220703571Y-115517319D01*
X220703571Y-115517319D02*
X220608333Y-115469700D01*
X220608333Y-115469700D02*
X220560714Y-115422080D01*
X220560714Y-115422080D02*
X220513095Y-115326842D01*
X220513095Y-115326842D02*
X220513095Y-115136366D01*
X220513095Y-115136366D02*
X220560714Y-115041128D01*
X220560714Y-115041128D02*
X220608333Y-114993509D01*
X220608333Y-114993509D02*
X220703571Y-114945890D01*
D10*
X87742857Y-107233609D02*
X87600000Y-107281228D01*
X87600000Y-107281228D02*
X87552381Y-107328847D01*
X87552381Y-107328847D02*
X87504762Y-107424085D01*
X87504762Y-107424085D02*
X87504762Y-107566942D01*
X87504762Y-107566942D02*
X87552381Y-107662180D01*
X87552381Y-107662180D02*
X87600000Y-107709800D01*
X87600000Y-107709800D02*
X87695238Y-107757419D01*
X87695238Y-107757419D02*
X88076190Y-107757419D01*
X88076190Y-107757419D02*
X88076190Y-106757419D01*
X88076190Y-106757419D02*
X87742857Y-106757419D01*
X87742857Y-106757419D02*
X87647619Y-106805038D01*
X87647619Y-106805038D02*
X87600000Y-106852657D01*
X87600000Y-106852657D02*
X87552381Y-106947895D01*
X87552381Y-106947895D02*
X87552381Y-107043133D01*
X87552381Y-107043133D02*
X87600000Y-107138371D01*
X87600000Y-107138371D02*
X87647619Y-107185990D01*
X87647619Y-107185990D02*
X87742857Y-107233609D01*
X87742857Y-107233609D02*
X88076190Y-107233609D01*
X86933333Y-107757419D02*
X87028571Y-107709800D01*
X87028571Y-107709800D02*
X87076190Y-107662180D01*
X87076190Y-107662180D02*
X87123809Y-107566942D01*
X87123809Y-107566942D02*
X87123809Y-107281228D01*
X87123809Y-107281228D02*
X87076190Y-107185990D01*
X87076190Y-107185990D02*
X87028571Y-107138371D01*
X87028571Y-107138371D02*
X86933333Y-107090752D01*
X86933333Y-107090752D02*
X86790476Y-107090752D01*
X86790476Y-107090752D02*
X86695238Y-107138371D01*
X86695238Y-107138371D02*
X86647619Y-107185990D01*
X86647619Y-107185990D02*
X86600000Y-107281228D01*
X86600000Y-107281228D02*
X86600000Y-107566942D01*
X86600000Y-107566942D02*
X86647619Y-107662180D01*
X86647619Y-107662180D02*
X86695238Y-107709800D01*
X86695238Y-107709800D02*
X86790476Y-107757419D01*
X86790476Y-107757419D02*
X86933333Y-107757419D01*
X86028571Y-107757419D02*
X86123809Y-107709800D01*
X86123809Y-107709800D02*
X86171428Y-107662180D01*
X86171428Y-107662180D02*
X86219047Y-107566942D01*
X86219047Y-107566942D02*
X86219047Y-107281228D01*
X86219047Y-107281228D02*
X86171428Y-107185990D01*
X86171428Y-107185990D02*
X86123809Y-107138371D01*
X86123809Y-107138371D02*
X86028571Y-107090752D01*
X86028571Y-107090752D02*
X85885714Y-107090752D01*
X85885714Y-107090752D02*
X85790476Y-107138371D01*
X85790476Y-107138371D02*
X85742857Y-107185990D01*
X85742857Y-107185990D02*
X85695238Y-107281228D01*
X85695238Y-107281228D02*
X85695238Y-107566942D01*
X85695238Y-107566942D02*
X85742857Y-107662180D01*
X85742857Y-107662180D02*
X85790476Y-107709800D01*
X85790476Y-107709800D02*
X85885714Y-107757419D01*
X85885714Y-107757419D02*
X86028571Y-107757419D01*
X85409523Y-107090752D02*
X85028571Y-107090752D01*
X85266666Y-106757419D02*
X85266666Y-107614561D01*
X85266666Y-107614561D02*
X85219047Y-107709800D01*
X85219047Y-107709800D02*
X85123809Y-107757419D01*
X85123809Y-107757419D02*
X85028571Y-107757419D01*
X84742856Y-107709800D02*
X84599999Y-107757419D01*
X84599999Y-107757419D02*
X84361904Y-107757419D01*
X84361904Y-107757419D02*
X84266666Y-107709800D01*
X84266666Y-107709800D02*
X84219047Y-107662180D01*
X84219047Y-107662180D02*
X84171428Y-107566942D01*
X84171428Y-107566942D02*
X84171428Y-107471704D01*
X84171428Y-107471704D02*
X84219047Y-107376466D01*
X84219047Y-107376466D02*
X84266666Y-107328847D01*
X84266666Y-107328847D02*
X84361904Y-107281228D01*
X84361904Y-107281228D02*
X84552380Y-107233609D01*
X84552380Y-107233609D02*
X84647618Y-107185990D01*
X84647618Y-107185990D02*
X84695237Y-107138371D01*
X84695237Y-107138371D02*
X84742856Y-107043133D01*
X84742856Y-107043133D02*
X84742856Y-106947895D01*
X84742856Y-106947895D02*
X84695237Y-106852657D01*
X84695237Y-106852657D02*
X84647618Y-106805038D01*
X84647618Y-106805038D02*
X84552380Y-106757419D01*
X84552380Y-106757419D02*
X84314285Y-106757419D01*
X84314285Y-106757419D02*
X84171428Y-106805038D01*
X83838094Y-106757419D02*
X83599999Y-107757419D01*
X83599999Y-107757419D02*
X83409523Y-107043133D01*
X83409523Y-107043133D02*
X83219047Y-107757419D01*
X83219047Y-107757419D02*
X82980952Y-106757419D01*
X82076190Y-107757419D02*
X82647618Y-107757419D01*
X82361904Y-107757419D02*
X82361904Y-106757419D01*
X82361904Y-106757419D02*
X82457142Y-106900276D01*
X82457142Y-106900276D02*
X82552380Y-106995514D01*
X82552380Y-106995514D02*
X82647618Y-107043133D01*
D11*
X197834580Y-125645833D02*
X197882200Y-125598214D01*
X197882200Y-125598214D02*
X197929819Y-125455357D01*
X197929819Y-125455357D02*
X197929819Y-125360119D01*
X197929819Y-125360119D02*
X197882200Y-125217262D01*
X197882200Y-125217262D02*
X197786961Y-125122024D01*
X197786961Y-125122024D02*
X197691723Y-125074405D01*
X197691723Y-125074405D02*
X197501247Y-125026786D01*
X197501247Y-125026786D02*
X197358390Y-125026786D01*
X197358390Y-125026786D02*
X197167914Y-125074405D01*
X197167914Y-125074405D02*
X197072676Y-125122024D01*
X197072676Y-125122024D02*
X196977438Y-125217262D01*
X196977438Y-125217262D02*
X196929819Y-125360119D01*
X196929819Y-125360119D02*
X196929819Y-125455357D01*
X196929819Y-125455357D02*
X196977438Y-125598214D01*
X196977438Y-125598214D02*
X197025057Y-125645833D01*
X197929819Y-126122024D02*
X197929819Y-126312500D01*
X197929819Y-126312500D02*
X197882200Y-126407738D01*
X197882200Y-126407738D02*
X197834580Y-126455357D01*
X197834580Y-126455357D02*
X197691723Y-126550595D01*
X197691723Y-126550595D02*
X197501247Y-126598214D01*
X197501247Y-126598214D02*
X197120295Y-126598214D01*
X197120295Y-126598214D02*
X197025057Y-126550595D01*
X197025057Y-126550595D02*
X196977438Y-126502976D01*
X196977438Y-126502976D02*
X196929819Y-126407738D01*
X196929819Y-126407738D02*
X196929819Y-126217262D01*
X196929819Y-126217262D02*
X196977438Y-126122024D01*
X196977438Y-126122024D02*
X197025057Y-126074405D01*
X197025057Y-126074405D02*
X197120295Y-126026786D01*
X197120295Y-126026786D02*
X197358390Y-126026786D01*
X197358390Y-126026786D02*
X197453628Y-126074405D01*
X197453628Y-126074405D02*
X197501247Y-126122024D01*
X197501247Y-126122024D02*
X197548866Y-126217262D01*
X197548866Y-126217262D02*
X197548866Y-126407738D01*
X197548866Y-126407738D02*
X197501247Y-126502976D01*
X197501247Y-126502976D02*
X197453628Y-126550595D01*
X197453628Y-126550595D02*
X197358390Y-126598214D01*
X193742857Y-111267319D02*
X194076190Y-110791128D01*
X194314285Y-111267319D02*
X194314285Y-110267319D01*
X194314285Y-110267319D02*
X193933333Y-110267319D01*
X193933333Y-110267319D02*
X193838095Y-110314938D01*
X193838095Y-110314938D02*
X193790476Y-110362557D01*
X193790476Y-110362557D02*
X193742857Y-110457795D01*
X193742857Y-110457795D02*
X193742857Y-110600652D01*
X193742857Y-110600652D02*
X193790476Y-110695890D01*
X193790476Y-110695890D02*
X193838095Y-110743509D01*
X193838095Y-110743509D02*
X193933333Y-110791128D01*
X193933333Y-110791128D02*
X194314285Y-110791128D01*
X193409523Y-110267319D02*
X192790476Y-110267319D01*
X192790476Y-110267319D02*
X193123809Y-110648271D01*
X193123809Y-110648271D02*
X192980952Y-110648271D01*
X192980952Y-110648271D02*
X192885714Y-110695890D01*
X192885714Y-110695890D02*
X192838095Y-110743509D01*
X192838095Y-110743509D02*
X192790476Y-110838747D01*
X192790476Y-110838747D02*
X192790476Y-111076842D01*
X192790476Y-111076842D02*
X192838095Y-111172080D01*
X192838095Y-111172080D02*
X192885714Y-111219700D01*
X192885714Y-111219700D02*
X192980952Y-111267319D01*
X192980952Y-111267319D02*
X193266666Y-111267319D01*
X193266666Y-111267319D02*
X193361904Y-111219700D01*
X193361904Y-111219700D02*
X193409523Y-111172080D01*
X192409523Y-110362557D02*
X192361904Y-110314938D01*
X192361904Y-110314938D02*
X192266666Y-110267319D01*
X192266666Y-110267319D02*
X192028571Y-110267319D01*
X192028571Y-110267319D02*
X191933333Y-110314938D01*
X191933333Y-110314938D02*
X191885714Y-110362557D01*
X191885714Y-110362557D02*
X191838095Y-110457795D01*
X191838095Y-110457795D02*
X191838095Y-110553033D01*
X191838095Y-110553033D02*
X191885714Y-110695890D01*
X191885714Y-110695890D02*
X192457142Y-111267319D01*
X192457142Y-111267319D02*
X191838095Y-111267319D01*
X110009580Y-88319642D02*
X110057200Y-88272023D01*
X110057200Y-88272023D02*
X110104819Y-88129166D01*
X110104819Y-88129166D02*
X110104819Y-88033928D01*
X110104819Y-88033928D02*
X110057200Y-87891071D01*
X110057200Y-87891071D02*
X109961961Y-87795833D01*
X109961961Y-87795833D02*
X109866723Y-87748214D01*
X109866723Y-87748214D02*
X109676247Y-87700595D01*
X109676247Y-87700595D02*
X109533390Y-87700595D01*
X109533390Y-87700595D02*
X109342914Y-87748214D01*
X109342914Y-87748214D02*
X109247676Y-87795833D01*
X109247676Y-87795833D02*
X109152438Y-87891071D01*
X109152438Y-87891071D02*
X109104819Y-88033928D01*
X109104819Y-88033928D02*
X109104819Y-88129166D01*
X109104819Y-88129166D02*
X109152438Y-88272023D01*
X109152438Y-88272023D02*
X109200057Y-88319642D01*
X109200057Y-88700595D02*
X109152438Y-88748214D01*
X109152438Y-88748214D02*
X109104819Y-88843452D01*
X109104819Y-88843452D02*
X109104819Y-89081547D01*
X109104819Y-89081547D02*
X109152438Y-89176785D01*
X109152438Y-89176785D02*
X109200057Y-89224404D01*
X109200057Y-89224404D02*
X109295295Y-89272023D01*
X109295295Y-89272023D02*
X109390533Y-89272023D01*
X109390533Y-89272023D02*
X109533390Y-89224404D01*
X109533390Y-89224404D02*
X110104819Y-88652976D01*
X110104819Y-88652976D02*
X110104819Y-89272023D01*
X110104819Y-90224404D02*
X110104819Y-89652976D01*
X110104819Y-89938690D02*
X109104819Y-89938690D01*
X109104819Y-89938690D02*
X109247676Y-89843452D01*
X109247676Y-89843452D02*
X109342914Y-89748214D01*
X109342914Y-89748214D02*
X109390533Y-89652976D01*
X222417857Y-96372080D02*
X222465476Y-96419700D01*
X222465476Y-96419700D02*
X222608333Y-96467319D01*
X222608333Y-96467319D02*
X222703571Y-96467319D01*
X222703571Y-96467319D02*
X222846428Y-96419700D01*
X222846428Y-96419700D02*
X222941666Y-96324461D01*
X222941666Y-96324461D02*
X222989285Y-96229223D01*
X222989285Y-96229223D02*
X223036904Y-96038747D01*
X223036904Y-96038747D02*
X223036904Y-95895890D01*
X223036904Y-95895890D02*
X222989285Y-95705414D01*
X222989285Y-95705414D02*
X222941666Y-95610176D01*
X222941666Y-95610176D02*
X222846428Y-95514938D01*
X222846428Y-95514938D02*
X222703571Y-95467319D01*
X222703571Y-95467319D02*
X222608333Y-95467319D01*
X222608333Y-95467319D02*
X222465476Y-95514938D01*
X222465476Y-95514938D02*
X222417857Y-95562557D01*
X221465476Y-96467319D02*
X222036904Y-96467319D01*
X221751190Y-96467319D02*
X221751190Y-95467319D01*
X221751190Y-95467319D02*
X221846428Y-95610176D01*
X221846428Y-95610176D02*
X221941666Y-95705414D01*
X221941666Y-95705414D02*
X222036904Y-95753033D01*
X220989285Y-96467319D02*
X220798809Y-96467319D01*
X220798809Y-96467319D02*
X220703571Y-96419700D01*
X220703571Y-96419700D02*
X220655952Y-96372080D01*
X220655952Y-96372080D02*
X220560714Y-96229223D01*
X220560714Y-96229223D02*
X220513095Y-96038747D01*
X220513095Y-96038747D02*
X220513095Y-95657795D01*
X220513095Y-95657795D02*
X220560714Y-95562557D01*
X220560714Y-95562557D02*
X220608333Y-95514938D01*
X220608333Y-95514938D02*
X220703571Y-95467319D01*
X220703571Y-95467319D02*
X220894047Y-95467319D01*
X220894047Y-95467319D02*
X220989285Y-95514938D01*
X220989285Y-95514938D02*
X221036904Y-95562557D01*
X221036904Y-95562557D02*
X221084523Y-95657795D01*
X221084523Y-95657795D02*
X221084523Y-95895890D01*
X221084523Y-95895890D02*
X221036904Y-95991128D01*
X221036904Y-95991128D02*
X220989285Y-96038747D01*
X220989285Y-96038747D02*
X220894047Y-96086366D01*
X220894047Y-96086366D02*
X220703571Y-96086366D01*
X220703571Y-96086366D02*
X220608333Y-96038747D01*
X220608333Y-96038747D02*
X220560714Y-95991128D01*
X220560714Y-95991128D02*
X220513095Y-95895890D01*
%TO.C,U12*%
D10*
X226425000Y-102162500D02*
X223025000Y-102162500D01*
X223025000Y-98362500D01*
X226425000Y-98362500D01*
X226425000Y-102162500D01*
%TO.C,U13*%
X226425000Y-83112500D02*
X223025000Y-83112500D01*
X223025000Y-79312500D01*
X226425000Y-79312500D01*
X226425000Y-83112500D01*
%TO.C,U11*%
X226425000Y-121212500D02*
X223025000Y-121212500D01*
X223025000Y-117412500D01*
X226425000Y-117412500D01*
X226425000Y-121212500D01*
%TO.C,U10*%
X154400000Y-103312500D02*
X150600000Y-103312500D01*
X150600000Y-106712500D01*
X154400000Y-106712500D01*
X154400000Y-103312500D01*
%TO.C,U4*%
X135350000Y-84262500D02*
X131550000Y-84262500D01*
X131550000Y-87662500D01*
X135350000Y-87662500D01*
X135350000Y-84262500D01*
%TO.C,U19*%
X150650000Y-125762500D02*
X154450000Y-125762500D01*
X154450000Y-122362500D01*
X150650000Y-122362500D01*
X150650000Y-125762500D01*
%TO.C,U14*%
X116300000Y-84262500D02*
X112500000Y-84262500D01*
X112500000Y-87662500D01*
X116300000Y-87662500D01*
X116300000Y-84262500D01*
%TO.C,U22*%
X78575000Y-116912501D02*
X81975000Y-116912501D01*
X81975000Y-120712501D01*
X78575000Y-120712501D01*
X78575000Y-116912501D01*
%TO.C,U5*%
X154400000Y-84262500D02*
X150600000Y-84262500D01*
X150600000Y-87662500D01*
X154400000Y-87662500D01*
X154400000Y-84262500D01*
%TO.C,U18*%
X131600000Y-125762500D02*
X135400000Y-125762500D01*
X135400000Y-122362500D01*
X131600000Y-122362500D01*
X131600000Y-125762500D01*
%TO.C,U7*%
X192500000Y-84262500D02*
X188700000Y-84262500D01*
X188700000Y-87662500D01*
X192500000Y-87662500D01*
X192500000Y-84262500D01*
%TO.C,U21*%
X188750000Y-125762500D02*
X192550000Y-125762500D01*
X192550000Y-122362500D01*
X188750000Y-122362500D01*
X188750000Y-125762500D01*
%TO.C,U15*%
X173450000Y-103312500D02*
X169650000Y-103312500D01*
X169650000Y-106712500D01*
X173450000Y-106712500D01*
X173450000Y-103312500D01*
%TO.C,U20*%
X169700000Y-125762500D02*
X173500000Y-125762500D01*
X173500000Y-122362500D01*
X169700000Y-122362500D01*
X169700000Y-125762500D01*
%TO.C,U16*%
X192500000Y-103312500D02*
X188700000Y-103312500D01*
X188700000Y-106712500D01*
X192500000Y-106712500D01*
X192500000Y-103312500D01*
%TO.C,U8*%
X116300000Y-103312500D02*
X112500000Y-103312500D01*
X112500000Y-106712500D01*
X116300000Y-106712500D01*
X116300000Y-103312500D01*
%TO.C,U6*%
X173450000Y-84262500D02*
X169650000Y-84262500D01*
X169650000Y-87662500D01*
X173450000Y-87662500D01*
X173450000Y-84262500D01*
%TO.C,U17*%
X112550000Y-125762500D02*
X116350000Y-125762500D01*
X116350000Y-122362500D01*
X112550000Y-122362500D01*
X112550000Y-125762500D01*
%TO.C,U9*%
X135350000Y-103312500D02*
X131550000Y-103312500D01*
X131550000Y-106712500D01*
X135350000Y-106712500D01*
X135350000Y-103312500D01*
%TO.C,U23*%
X78575000Y-97862501D02*
X81975000Y-97862501D01*
X81975000Y-101662501D01*
X78575000Y-101662501D01*
X78575000Y-97862501D01*
%TO.C,U24*%
X78575000Y-78812501D02*
X81975000Y-78812501D01*
X81975000Y-82612501D01*
X78575000Y-82612501D01*
X78575000Y-78812501D01*
D12*
%TO.C,SW3*%
X148400000Y-74062500D02*
X153500000Y-74062500D01*
X152300000Y-78262500D02*
X157400000Y-78262500D01*
X146400000Y-76062500D02*
G75*
G02*
X148400000Y-74062500I1999999J1D01*
G01*
X150300000Y-80262500D02*
G75*
G02*
X152300000Y-78262500I1999999J1D01*
G01*
%TO.C,SW14*%
X167450000Y-112162500D02*
X172550000Y-112162500D01*
X171350000Y-116362500D02*
X176450000Y-116362500D01*
X165450000Y-114162500D02*
G75*
G02*
X167450000Y-112162500I1999999J1D01*
G01*
X169350000Y-118362500D02*
G75*
G02*
X171350000Y-116362500I1999999J1D01*
G01*
%TO.C,SW7*%
X129350000Y-93112500D02*
X134450000Y-93112500D01*
X133250000Y-97312500D02*
X138350000Y-97312500D01*
X127350000Y-95112500D02*
G75*
G02*
X129350000Y-93112500I1999999J1D01*
G01*
X131250000Y-99312500D02*
G75*
G02*
X133250000Y-97312500I1999999J1D01*
G01*
%TO.C,SW15*%
X186500000Y-112162500D02*
X191600000Y-112162500D01*
X190400000Y-116362500D02*
X195500000Y-116362500D01*
X184500000Y-114162500D02*
G75*
G02*
X186500000Y-112162500I1999999J1D01*
G01*
X188400000Y-118362500D02*
G75*
G02*
X190400000Y-116362500I1999999J1D01*
G01*
%TO.C,SW4*%
X167450000Y-74062500D02*
X172550000Y-74062500D01*
X171350000Y-78262500D02*
X176450000Y-78262500D01*
X165450000Y-76062500D02*
G75*
G02*
X167450000Y-74062500I1999999J1D01*
G01*
X169350000Y-80262500D02*
G75*
G02*
X171350000Y-78262500I1999999J1D01*
G01*
%TO.C,SW8*%
X148400000Y-93112500D02*
X153500000Y-93112500D01*
X152300000Y-97312500D02*
X157400000Y-97312500D01*
X146400000Y-95112500D02*
G75*
G02*
X148400000Y-93112500I1999999J1D01*
G01*
X150300000Y-99312500D02*
G75*
G02*
X152300000Y-97312500I1999999J1D01*
G01*
%TO.C,SW10*%
X186500000Y-93112500D02*
X191600000Y-93112500D01*
X190400000Y-97312500D02*
X195500000Y-97312500D01*
X184500000Y-95112500D02*
G75*
G02*
X186500000Y-93112500I1999999J1D01*
G01*
X188400000Y-99312500D02*
G75*
G02*
X190400000Y-97312500I1999999J1D01*
G01*
%TO.C,SW13*%
X148400000Y-112162500D02*
X153500000Y-112162500D01*
X152300000Y-116362500D02*
X157400000Y-116362500D01*
X146400000Y-114162500D02*
G75*
G02*
X148400000Y-112162500I1999999J1D01*
G01*
X150300000Y-118362500D02*
G75*
G02*
X152300000Y-116362500I1999999J1D01*
G01*
%TO.C,SW1*%
X110300000Y-74062500D02*
X115400000Y-74062500D01*
X114200000Y-78262500D02*
X119300000Y-78262500D01*
X108300000Y-76062500D02*
G75*
G02*
X110300000Y-74062500I1999999J1D01*
G01*
X112200000Y-80262500D02*
G75*
G02*
X114200000Y-78262500I1999999J1D01*
G01*
%TO.C,SW9*%
X167450000Y-93112500D02*
X172550000Y-93112500D01*
X171350000Y-97312500D02*
X176450000Y-97312500D01*
X165450000Y-95112500D02*
G75*
G02*
X167450000Y-93112500I1999999J1D01*
G01*
X169350000Y-99312500D02*
G75*
G02*
X171350000Y-97312500I1999999J1D01*
G01*
%TO.C,SW6*%
X110300000Y-93112500D02*
X115400000Y-93112500D01*
X114200000Y-97312500D02*
X119300000Y-97312500D01*
X108300000Y-95112500D02*
G75*
G02*
X110300000Y-93112500I1999999J1D01*
G01*
X112200000Y-99312500D02*
G75*
G02*
X114200000Y-97312500I1999999J1D01*
G01*
%TO.C,SW11*%
X110300000Y-112162500D02*
X115400000Y-112162500D01*
X114200000Y-116362500D02*
X119300000Y-116362500D01*
X108300000Y-114162500D02*
G75*
G02*
X110300000Y-112162500I1999999J1D01*
G01*
X112200000Y-118362500D02*
G75*
G02*
X114200000Y-116362500I1999999J1D01*
G01*
%TO.C,SW12*%
X129350000Y-112162500D02*
X134450000Y-112162500D01*
X133250000Y-116362500D02*
X138350000Y-116362500D01*
X127350000Y-114162500D02*
G75*
G02*
X129350000Y-112162500I1999999J1D01*
G01*
X131250000Y-118362500D02*
G75*
G02*
X133250000Y-116362500I1999999J1D01*
G01*
%TO.C,SW2*%
X129350000Y-74062500D02*
X134450000Y-74062500D01*
X133250000Y-78262500D02*
X138350000Y-78262500D01*
X127350000Y-76062500D02*
G75*
G02*
X129350000Y-74062500I1999999J1D01*
G01*
X131250000Y-80262500D02*
G75*
G02*
X133250000Y-78262500I1999999J1D01*
G01*
%TO.C,SW5*%
X186500000Y-74062500D02*
X191600000Y-74062500D01*
X190400000Y-78262500D02*
X195500000Y-78262500D01*
X184500000Y-76062500D02*
G75*
G02*
X186500000Y-74062500I1999999J1D01*
G01*
X188400000Y-80262500D02*
G75*
G02*
X190400000Y-78262500I1999999J1D01*
G01*
%TO.C,R8*%
X88962742Y-110077500D02*
X89437258Y-110077500D01*
X88962742Y-111122500D02*
X89437258Y-111122500D01*
%TO.C,C30*%
X80415580Y-103502500D02*
X80134420Y-103502500D01*
X80415580Y-104522500D02*
X80134420Y-104522500D01*
%TO.C,R33*%
X84877500Y-115937258D02*
X84877500Y-115462742D01*
X85922500Y-115937258D02*
X85922500Y-115462742D01*
%TO.C,C13*%
X166290000Y-86103080D02*
X166290000Y-85821920D01*
X167310000Y-86103080D02*
X167310000Y-85821920D01*
%TO.C,R10*%
X138287742Y-72190000D02*
X138762258Y-72190000D01*
X138287742Y-73235000D02*
X138762258Y-73235000D01*
%TO.C,R30*%
X157337742Y-110290000D02*
X157812258Y-110290000D01*
X157337742Y-111335000D02*
X157812258Y-111335000D01*
%TO.C,C31*%
X80365580Y-84202500D02*
X80084420Y-84202500D01*
X80365580Y-85222500D02*
X80084420Y-85222500D01*
%TO.C,C16*%
X128190000Y-105153080D02*
X128190000Y-104871920D01*
X129210000Y-105153080D02*
X129210000Y-104871920D01*
%TO.C,R41*%
X84777500Y-83937258D02*
X84777500Y-83462742D01*
X85822500Y-83937258D02*
X85822500Y-83462742D01*
%TO.C,R19*%
X222437258Y-111377500D02*
X221962742Y-111377500D01*
X222437258Y-112422500D02*
X221962742Y-112422500D01*
%TO.C,C27*%
X175840000Y-123921920D02*
X175840000Y-124203080D01*
X176860000Y-123921920D02*
X176860000Y-124203080D01*
%TO.C,R15*%
X138287742Y-91240000D02*
X138762258Y-91240000D01*
X138287742Y-92285000D02*
X138762258Y-92285000D01*
%TO.C,R9*%
X119237742Y-72190000D02*
X119712258Y-72190000D01*
X119237742Y-73235000D02*
X119712258Y-73235000D01*
%TO.C,R28*%
X119237742Y-110290000D02*
X119712258Y-110290000D01*
X119237742Y-111335000D02*
X119712258Y-111335000D01*
%TO.C,C25*%
X137740000Y-123921920D02*
X137740000Y-124203080D01*
X138760000Y-123921920D02*
X138760000Y-124203080D01*
%TO.C,R20*%
X224487742Y-93990000D02*
X224962258Y-93990000D01*
X224487742Y-95035000D02*
X224962258Y-95035000D01*
%TO.C,C12*%
X147240000Y-86103080D02*
X147240000Y-85821920D01*
X148260000Y-86103080D02*
X148260000Y-85821920D01*
%TO.C,R31*%
X176387742Y-110290000D02*
X176862258Y-110290000D01*
X176387742Y-111335000D02*
X176862258Y-111335000D01*
%TO.C,C5*%
X98187742Y-110730000D02*
X98662258Y-110730000D01*
X98187742Y-111775000D02*
X98662258Y-111775000D01*
%TO.C,R1*%
X100852500Y-84499758D02*
X100852500Y-84025242D01*
X101897500Y-84499758D02*
X101897500Y-84025242D01*
%TO.C,C10*%
X198965000Y-119203080D02*
X198965000Y-118921920D01*
X199985000Y-119203080D02*
X199985000Y-118921920D01*
%TO.C,C8*%
X197465000Y-117703080D02*
X197465000Y-117421920D01*
X198485000Y-117703080D02*
X198485000Y-117421920D01*
%TO.C,U28*%
X210675000Y-89202500D02*
X211475000Y-89202500D01*
X210675000Y-92322500D02*
X211475000Y-92322500D01*
X212275000Y-89202500D02*
X211475000Y-89202500D01*
X212275000Y-92322500D02*
X211475000Y-92322500D01*
X212775000Y-89252500D02*
X212535000Y-88922500D01*
X213015000Y-88922500D01*
X212775000Y-89252500D01*
G36*
X212775000Y-89252500D02*
G01*
X212535000Y-88922500D01*
X213015000Y-88922500D01*
X212775000Y-89252500D01*
G37*
%TO.C,U25*%
X206225000Y-92190000D02*
X207025000Y-92190000D01*
X206225000Y-95310000D02*
X207025000Y-95310000D01*
X207825000Y-92190000D02*
X207025000Y-92190000D01*
X207825000Y-95310000D02*
X207025000Y-95310000D01*
X208325000Y-92240000D02*
X208085000Y-91910000D01*
X208565000Y-91910000D01*
X208325000Y-92240000D01*
G36*
X208325000Y-92240000D02*
G01*
X208085000Y-91910000D01*
X208565000Y-91910000D01*
X208325000Y-92240000D01*
G37*
%TO.C,C15*%
X109140000Y-105153080D02*
X109140000Y-104871920D01*
X110160000Y-105153080D02*
X110160000Y-104871920D01*
D13*
%TO.C,L1*%
X103410000Y-85012500D02*
X103410000Y-83412500D01*
X104740000Y-85012500D02*
X104740000Y-83412500D01*
D12*
%TO.C,R2*%
X97952500Y-84474758D02*
X97952500Y-84000242D01*
X98997500Y-84474758D02*
X98997500Y-84000242D01*
%TO.C,C20*%
X224584420Y-76452500D02*
X224865580Y-76452500D01*
X224584420Y-77472500D02*
X224865580Y-77472500D01*
%TO.C,R13*%
X195437742Y-72190000D02*
X195912258Y-72190000D01*
X195437742Y-73235000D02*
X195912258Y-73235000D01*
%TO.C,C7*%
X98284420Y-112492500D02*
X98565580Y-112492500D01*
X98284420Y-113512500D02*
X98565580Y-113512500D01*
%TO.C,R29*%
X138287742Y-110290000D02*
X138762258Y-110290000D01*
X138287742Y-111335000D02*
X138762258Y-111335000D01*
D13*
%TO.C,J1*%
X95530000Y-70375000D02*
X104470000Y-70375000D01*
X95530000Y-71180000D02*
X95530000Y-70375000D01*
X95530000Y-73770000D02*
X95530000Y-75380000D01*
X104470000Y-71180000D02*
X104470000Y-70375000D01*
X104470000Y-73770000D02*
X104470000Y-75380000D01*
D12*
%TO.C,R7*%
X198952500Y-115575242D02*
X198952500Y-116049758D01*
X199997500Y-115575242D02*
X199997500Y-116049758D01*
%TO.C,R23*%
X219362258Y-82377500D02*
X218887742Y-82377500D01*
X219362258Y-83422500D02*
X218887742Y-83422500D01*
%TO.C,C4*%
X98237742Y-91790000D02*
X98712258Y-91790000D01*
X98237742Y-92835000D02*
X98712258Y-92835000D01*
%TO.C,R12*%
X176387742Y-72190000D02*
X176862258Y-72190000D01*
X176387742Y-73235000D02*
X176862258Y-73235000D01*
%TO.C,C6*%
X98334420Y-93552500D02*
X98615580Y-93552500D01*
X98334420Y-94572500D02*
X98615580Y-94572500D01*
%TO.C,C2*%
X95202500Y-90049758D02*
X95202500Y-89575242D01*
X96247500Y-90049758D02*
X96247500Y-89575242D01*
%TO.C,R25*%
X224487742Y-84940000D02*
X224962258Y-84940000D01*
X224487742Y-85985000D02*
X224962258Y-85985000D01*
%TO.C,C29*%
X80415580Y-122552500D02*
X80134420Y-122552500D01*
X80415580Y-123572500D02*
X80134420Y-123572500D01*
%TO.C,R35*%
X85902500Y-118775242D02*
X85902500Y-119249758D01*
X86947500Y-118775242D02*
X86947500Y-119249758D01*
%TO.C,ESP32*%
X201225000Y-101562500D02*
X201225000Y-102312500D01*
X201225000Y-120312500D02*
X201225000Y-127062500D01*
X201225000Y-121122500D02*
X219225000Y-121122500D01*
X202225000Y-101562500D02*
X201225000Y-101562500D01*
X218225000Y-101562500D02*
X219225000Y-101562500D01*
X219225000Y-101562500D02*
X219225000Y-102312500D01*
X219225000Y-120312500D02*
X219225000Y-127062500D01*
X219225000Y-127062500D02*
X201225000Y-127062500D01*
%TO.C,R14*%
X119237742Y-91240000D02*
X119712258Y-91240000D01*
X119237742Y-92285000D02*
X119712258Y-92285000D01*
%TO.C,U1*%
D14*
X97625000Y-88262500D02*
X99325000Y-88262500D01*
X99325000Y-91362500D01*
X97625000Y-91362500D01*
X97625000Y-88262500D01*
%TO.C,U2*%
X97575000Y-107212500D02*
X99275000Y-107212500D01*
X99275000Y-110312500D01*
X97575000Y-110312500D01*
X97575000Y-107212500D01*
D12*
%TO.C,C1*%
X93590000Y-89940580D02*
X93590000Y-89659420D01*
X94610000Y-89940580D02*
X94610000Y-89659420D01*
%TO.C,C14*%
X185340000Y-86103080D02*
X185340000Y-85821920D01*
X186360000Y-86103080D02*
X186360000Y-85821920D01*
%TO.C,R39*%
X86502500Y-79825242D02*
X86502500Y-80299758D01*
X87547500Y-79825242D02*
X87547500Y-80299758D01*
%TO.C,U26*%
X201925000Y-95302500D02*
X202725000Y-95302500D01*
X201925000Y-98422500D02*
X202725000Y-98422500D01*
X203525000Y-95302500D02*
X202725000Y-95302500D01*
X203525000Y-98422500D02*
X202725000Y-98422500D01*
X204025000Y-95352500D02*
X203785000Y-95022500D01*
X204265000Y-95022500D01*
X204025000Y-95352500D01*
G36*
X204025000Y-95352500D02*
G01*
X203785000Y-95022500D01*
X204265000Y-95022500D01*
X204025000Y-95352500D01*
G37*
%TO.C,R26*%
X176387742Y-91240000D02*
X176862258Y-91240000D01*
X176387742Y-92285000D02*
X176862258Y-92285000D01*
%TO.C,R22*%
X222462258Y-92440000D02*
X221987742Y-92440000D01*
X222462258Y-93485000D02*
X221987742Y-93485000D01*
D13*
%TO.C,J2*%
X76400000Y-95470000D02*
X76400000Y-86530000D01*
X77205000Y-86530000D02*
X76400000Y-86530000D01*
X77205000Y-95470000D02*
X76400000Y-95470000D01*
X79795000Y-86530000D02*
X81405000Y-86530000D01*
X79795000Y-95470000D02*
X81405000Y-95470000D01*
D12*
%TO.C,R16*%
X157337742Y-91240000D02*
X157812258Y-91240000D01*
X157337742Y-92285000D02*
X157812258Y-92285000D01*
%TO.C,R3*%
X100702500Y-89575242D02*
X100702500Y-90049758D01*
X101747500Y-89575242D02*
X101747500Y-90049758D01*
%TO.C,C26*%
X156790000Y-123921920D02*
X156790000Y-124203080D01*
X157810000Y-123921920D02*
X157810000Y-124203080D01*
%TO.C,C22*%
X166290000Y-105153080D02*
X166290000Y-104871920D01*
X167310000Y-105153080D02*
X167310000Y-104871920D01*
%TO.C,R38*%
X84852500Y-99575242D02*
X84852500Y-100049758D01*
X85897500Y-99575242D02*
X85897500Y-100049758D01*
%TO.C,R27*%
X195437742Y-91240000D02*
X195912258Y-91240000D01*
X195437742Y-92285000D02*
X195912258Y-92285000D01*
%TO.C,C3*%
X95152500Y-108989758D02*
X95152500Y-108515242D01*
X96197500Y-108989758D02*
X96197500Y-108515242D01*
%TO.C,R4*%
X98237742Y-86790000D02*
X98712258Y-86790000D01*
X98237742Y-87835000D02*
X98712258Y-87835000D01*
%TO.C,R11*%
X157337742Y-72190000D02*
X157812258Y-72190000D01*
X157337742Y-73235000D02*
X157812258Y-73235000D01*
%TO.C,C17*%
X147240000Y-105153080D02*
X147240000Y-104871920D01*
X148260000Y-105153080D02*
X148260000Y-104871920D01*
%TO.C,C11*%
X128190000Y-86103080D02*
X128190000Y-85821920D01*
X129210000Y-86103080D02*
X129210000Y-85821920D01*
%TO.C,C28*%
X194890000Y-123921920D02*
X194890000Y-124203080D01*
X195910000Y-123921920D02*
X195910000Y-124203080D01*
%TO.C,C23*%
X185340000Y-105153080D02*
X185340000Y-104871920D01*
X186360000Y-105153080D02*
X186360000Y-104871920D01*
%TO.C,R17*%
X224487742Y-113040000D02*
X224962258Y-113040000D01*
X224487742Y-114085000D02*
X224962258Y-114085000D01*
%TO.C,R36*%
X80512258Y-104990000D02*
X80037742Y-104990000D01*
X80512258Y-106035000D02*
X80037742Y-106035000D01*
%TO.C,C24*%
X118690000Y-123921920D02*
X118690000Y-124203080D01*
X119710000Y-123921920D02*
X119710000Y-124203080D01*
%TO.C,U27*%
X197225000Y-106302500D02*
X198025000Y-106302500D01*
X197225000Y-109422500D02*
X198025000Y-109422500D01*
X198825000Y-106302500D02*
X198025000Y-106302500D01*
X198825000Y-109422500D02*
X198025000Y-109422500D01*
X199325000Y-106352500D02*
X199085000Y-106022500D01*
X199565000Y-106022500D01*
X199325000Y-106352500D01*
G36*
X199325000Y-106352500D02*
G01*
X199085000Y-106022500D01*
X199565000Y-106022500D01*
X199325000Y-106352500D01*
G37*
%TO.C,U3*%
X99725000Y-99802500D02*
X100525000Y-99802500D01*
X99725000Y-102922500D02*
X100525000Y-102922500D01*
X101325000Y-99802500D02*
X100525000Y-99802500D01*
X101325000Y-102922500D02*
X100525000Y-102922500D01*
X101825000Y-99852500D02*
X101585000Y-99522500D01*
X102065000Y-99522500D01*
X101825000Y-99852500D01*
G36*
X101825000Y-99852500D02*
G01*
X101585000Y-99522500D01*
X102065000Y-99522500D01*
X101825000Y-99852500D01*
G37*
%TO.C,C18*%
X224584420Y-114552500D02*
X224865580Y-114552500D01*
X224584420Y-115572500D02*
X224865580Y-115572500D01*
%TO.C,BootSW1*%
D10*
X86900000Y-108200000D02*
X83300000Y-108200000D01*
X83300000Y-111600000D01*
X86900000Y-111600000D01*
X86900000Y-108200000D01*
D12*
%TO.C,C9*%
X196565000Y-123273752D02*
X196565000Y-121851248D01*
X198385000Y-123273752D02*
X198385000Y-121851248D01*
%TO.C,R32*%
X195437742Y-110290000D02*
X195912258Y-110290000D01*
X195437742Y-111335000D02*
X195912258Y-111335000D01*
%TO.C,C21*%
X109140000Y-86103080D02*
X109140000Y-85821920D01*
X110160000Y-86103080D02*
X110160000Y-85821920D01*
%TO.C,C19*%
X224584420Y-95502500D02*
X224865580Y-95502500D01*
X224584420Y-96522500D02*
X224865580Y-96522500D01*
%TD*%
M02*
