%TF.GenerationSoftware,KiCad,Pcbnew,8.0.5*%
%TF.CreationDate,2024-11-23T20:31:24+11:00*%
%TF.ProjectId,Macro Mixer,4d616372-6f20-44d6-9978-65722e6b6963,rev?*%
%TF.SameCoordinates,Original*%
%TF.FileFunction,Drillmap*%
%TF.FilePolarity,Positive*%
%FSLAX45Y45*%
G04 Gerber Fmt 4.5, Leading zero omitted, Abs format (unit mm)*
G04 Created by KiCad (PCBNEW 8.0.5) date 2024-11-23 20:31:24*
%MOMM*%
%LPD*%
G01*
G04 APERTURE LIST*
%ADD10C,0.050000*%
%ADD11C,0.100000*%
%ADD12C,0.200000*%
%ADD13C,0.180000*%
G04 APERTURE END LIST*
D10*
X8200000Y-7500000D02*
G75*
G02*
X8000000Y-7500000I-100000J0D01*
G01*
X8000000Y-7500000D02*
G75*
G02*
X8200000Y-7500000I100000J0D01*
G01*
X22500000Y-12500000D02*
G75*
G02*
X22300000Y-12500000I-100000J0D01*
G01*
X22300000Y-12500000D02*
G75*
G02*
X22500000Y-12500000I100000J0D01*
G01*
X18210000Y-8100000D02*
G75*
G02*
X18010000Y-8100000I-100000J0D01*
G01*
X18010000Y-8100000D02*
G75*
G02*
X18210000Y-8100000I100000J0D01*
G01*
X7600000Y-8000000D02*
G75*
G02*
X8600000Y-7000000I1000000J0D01*
G01*
X8600000Y-13000000D02*
G75*
G02*
X7600000Y-12000000I0J1000000D01*
G01*
X12490000Y-8100000D02*
G75*
G02*
X12290000Y-8100000I-100000J0D01*
G01*
X12290000Y-8100000D02*
G75*
G02*
X12490000Y-8100000I100000J0D01*
G01*
X8200000Y-12500000D02*
G75*
G02*
X8000000Y-12500000I-100000J0D01*
G01*
X8000000Y-12500000D02*
G75*
G02*
X8200000Y-12500000I100000J0D01*
G01*
X7600000Y-8000000D02*
X7600000Y-12000000D01*
X12490000Y-11900000D02*
G75*
G02*
X12290000Y-11900000I-100000J0D01*
G01*
X12290000Y-11900000D02*
G75*
G02*
X12490000Y-11900000I100000J0D01*
G01*
X22900000Y-8000000D02*
X22900000Y-12000000D01*
X8600000Y-13000000D02*
X21900000Y-13000000D01*
X22900000Y-12000000D02*
G75*
G02*
X21900000Y-13000000I-1000000J0D01*
G01*
X22500000Y-7500000D02*
G75*
G02*
X22300000Y-7500000I-100000J0D01*
G01*
X22300000Y-7500000D02*
G75*
G02*
X22500000Y-7500000I100000J0D01*
G01*
X18210000Y-11900000D02*
G75*
G02*
X18010000Y-11900000I-100000J0D01*
G01*
X18010000Y-11900000D02*
G75*
G02*
X18210000Y-11900000I100000J0D01*
G01*
X8600000Y-7000000D02*
X21900000Y-7000000D01*
X21900000Y-7000000D02*
G75*
G02*
X22900000Y-8000000I0J-1000000D01*
G01*
D11*
X22622500Y-10196250D02*
X22322500Y-10196250D01*
X22322500Y-9856250D01*
X22622500Y-9856250D01*
X22622500Y-10196250D01*
X22622500Y-8291250D02*
X22322500Y-8291250D01*
X22322500Y-7951250D01*
X22622500Y-7951250D01*
X22622500Y-8291250D01*
X22622500Y-12101250D02*
X22322500Y-12101250D01*
X22322500Y-11761250D01*
X22622500Y-11761250D01*
X22622500Y-12101250D01*
X15420000Y-10351250D02*
X15080000Y-10351250D01*
X15080000Y-10651250D01*
X15420000Y-10651250D01*
X15420000Y-10351250D01*
X13515000Y-8446250D02*
X13175000Y-8446250D01*
X13175000Y-8746250D01*
X13515000Y-8746250D01*
X13515000Y-8446250D01*
X15085000Y-12556250D02*
X15425000Y-12556250D01*
X15425000Y-12256250D01*
X15085000Y-12256250D01*
X15085000Y-12556250D01*
X11610000Y-8446250D02*
X11270000Y-8446250D01*
X11270000Y-8746250D01*
X11610000Y-8746250D01*
X11610000Y-8446250D01*
X7877500Y-11711250D02*
X8177500Y-11711250D01*
X8177500Y-12051250D01*
X7877500Y-12051250D01*
X7877500Y-11711250D01*
X15420000Y-8446250D02*
X15080000Y-8446250D01*
X15080000Y-8746250D01*
X15420000Y-8746250D01*
X15420000Y-8446250D01*
X13180000Y-12556250D02*
X13520000Y-12556250D01*
X13520000Y-12256250D01*
X13180000Y-12256250D01*
X13180000Y-12556250D01*
X19230000Y-8446250D02*
X18890000Y-8446250D01*
X18890000Y-8746250D01*
X19230000Y-8746250D01*
X19230000Y-8446250D01*
X18895000Y-12556250D02*
X19235000Y-12556250D01*
X19235000Y-12256250D01*
X18895000Y-12256250D01*
X18895000Y-12556250D01*
X17325000Y-10351250D02*
X16985000Y-10351250D01*
X16985000Y-10651250D01*
X17325000Y-10651250D01*
X17325000Y-10351250D01*
X16990000Y-12556250D02*
X17330000Y-12556250D01*
X17330000Y-12256250D01*
X16990000Y-12256250D01*
X16990000Y-12556250D01*
X19230000Y-10351250D02*
X18890000Y-10351250D01*
X18890000Y-10651250D01*
X19230000Y-10651250D01*
X19230000Y-10351250D01*
X11610000Y-10351250D02*
X11270000Y-10351250D01*
X11270000Y-10651250D01*
X11610000Y-10651250D01*
X11610000Y-10351250D01*
X17325000Y-8446250D02*
X16985000Y-8446250D01*
X16985000Y-8746250D01*
X17325000Y-8746250D01*
X17325000Y-8446250D01*
X11275000Y-12556250D02*
X11615000Y-12556250D01*
X11615000Y-12256250D01*
X11275000Y-12256250D01*
X11275000Y-12556250D01*
X13515000Y-10351250D02*
X13175000Y-10351250D01*
X13175000Y-10651250D01*
X13515000Y-10651250D01*
X13515000Y-10351250D01*
X7877500Y-9806250D02*
X8177500Y-9806250D01*
X8177500Y-10146250D01*
X7877500Y-10146250D01*
X7877500Y-9806250D01*
X7877500Y-7901250D02*
X8177500Y-7901250D01*
X8177500Y-8241250D01*
X7877500Y-8241250D01*
X7877500Y-7901250D01*
D12*
D11*
X7942500Y-9711250D02*
X7972500Y-9741250D01*
X7972500Y-9711250D02*
X7942500Y-9741250D01*
X8077500Y-11616250D02*
X8107500Y-11646250D01*
X8107500Y-11616250D02*
X8077500Y-11646250D01*
X8082500Y-7806250D02*
X8112500Y-7836250D01*
X8112500Y-7806250D02*
X8082500Y-7836250D01*
X8082500Y-8306250D02*
X8112500Y-8336250D01*
X8112500Y-8306250D02*
X8082500Y-8336250D01*
X8082500Y-9711250D02*
X8112500Y-9741250D01*
X8112500Y-9711250D02*
X8082500Y-9741250D01*
X8092500Y-10386250D02*
X8122500Y-10416250D01*
X8122500Y-10386250D02*
X8092500Y-10416250D01*
X8097500Y-12291250D02*
X8127500Y-12321250D01*
X8127500Y-12291250D02*
X8097500Y-12321250D01*
X8192500Y-8456250D02*
X8222500Y-8486250D01*
X8222500Y-8456250D02*
X8192500Y-8486250D01*
X8292500Y-9405000D02*
X8322500Y-9435000D01*
X8322500Y-9405000D02*
X8292500Y-9435000D01*
X8295000Y-8765000D02*
X8325000Y-8795000D01*
X8325000Y-8765000D02*
X8295000Y-8795000D01*
X8485000Y-9018750D02*
X8515000Y-9048750D01*
X8515000Y-9018750D02*
X8485000Y-9048750D01*
X8485000Y-9103750D02*
X8515000Y-9133750D01*
X8515000Y-9103750D02*
X8485000Y-9133750D01*
X8515000Y-8435000D02*
X8545000Y-8465000D01*
X8545000Y-8435000D02*
X8515000Y-8465000D01*
X8522500Y-9886250D02*
X8552500Y-9916250D01*
X8552500Y-9886250D02*
X8522500Y-9916250D01*
X8627500Y-11806250D02*
X8657500Y-11836250D01*
X8657500Y-11806250D02*
X8627500Y-11836250D01*
X9195000Y-8935000D02*
X9225000Y-8965000D01*
X9225000Y-8935000D02*
X9195000Y-8965000D01*
X9665000Y-7690000D02*
X9695000Y-7720000D01*
X9695000Y-7690000D02*
X9665000Y-7720000D01*
X9697500Y-10861250D02*
X9727500Y-10891250D01*
X9727500Y-10861250D02*
X9697500Y-10891250D01*
X9702500Y-8966250D02*
X9732500Y-8996250D01*
X9732500Y-8966250D02*
X9702500Y-8996250D01*
X9747500Y-8711250D02*
X9777500Y-8741250D01*
X9777500Y-8711250D02*
X9747500Y-8741250D01*
X9832500Y-8326250D02*
X9862500Y-8356250D01*
X9862500Y-8326250D02*
X9832500Y-8356250D01*
X9832500Y-8491250D02*
X9862500Y-8521250D01*
X9862500Y-8491250D02*
X9832500Y-8521250D01*
X9922500Y-10216250D02*
X9952500Y-10246250D01*
X9952500Y-10216250D02*
X9922500Y-10246250D01*
X9932500Y-7946250D02*
X9962500Y-7976250D01*
X9962500Y-7946250D02*
X9932500Y-7976250D01*
X10012500Y-7946250D02*
X10042500Y-7976250D01*
X10042500Y-7946250D02*
X10012500Y-7976250D01*
X10102500Y-10942750D02*
X10132500Y-10972750D01*
X10132500Y-10942750D02*
X10102500Y-10972750D01*
X10122500Y-8491250D02*
X10152500Y-8521250D01*
X10152500Y-8491250D02*
X10122500Y-8521250D01*
X10152500Y-10026250D02*
X10182500Y-10056250D01*
X10182500Y-10026250D02*
X10152500Y-10056250D01*
X10175000Y-12425000D02*
X10205000Y-12455000D01*
X10205000Y-12425000D02*
X10175000Y-12455000D01*
X10257500Y-10121250D02*
X10287500Y-10151250D01*
X10287500Y-10121250D02*
X10257500Y-10151250D01*
X10305000Y-7690000D02*
X10335000Y-7720000D01*
X10335000Y-7690000D02*
X10305000Y-7720000D01*
X10392500Y-10795000D02*
X10422500Y-10825000D01*
X10422500Y-10795000D02*
X10392500Y-10825000D01*
X10467500Y-12311250D02*
X10497500Y-12341250D01*
X10497500Y-12311250D02*
X10467500Y-12341250D01*
X10522500Y-8711250D02*
X10552500Y-8741250D01*
X10552500Y-8711250D02*
X10522500Y-8741250D01*
X10532500Y-10171250D02*
X10562500Y-10201250D01*
X10562500Y-10171250D02*
X10532500Y-10201250D01*
X10542500Y-10795000D02*
X10572500Y-10825000D01*
X10572500Y-10795000D02*
X10542500Y-10825000D01*
X10716500Y-7827250D02*
X10746500Y-7857250D01*
X10746500Y-7827250D02*
X10716500Y-7857250D01*
X10716500Y-11637250D02*
X10746500Y-11667250D01*
X10746500Y-11637250D02*
X10716500Y-11667250D01*
X10717500Y-9731250D02*
X10747500Y-9761250D01*
X10747500Y-9731250D02*
X10717500Y-9761250D01*
X10947500Y-8746250D02*
X10977500Y-8776250D01*
X10977500Y-8746250D02*
X10947500Y-8776250D01*
X10947500Y-10661250D02*
X10977500Y-10691250D01*
X10977500Y-10661250D02*
X10947500Y-10691250D01*
X10950000Y-8503750D02*
X10980000Y-8533750D01*
X10980000Y-8503750D02*
X10950000Y-8533750D01*
X10950000Y-10408750D02*
X10980000Y-10438750D01*
X10980000Y-10408750D02*
X10950000Y-10438750D01*
X11072500Y-12321250D02*
X11102500Y-12351250D01*
X11102500Y-12321250D02*
X11072500Y-12351250D01*
X11777500Y-8511250D02*
X11807500Y-8541250D01*
X11807500Y-8511250D02*
X11777500Y-8541250D01*
X11777500Y-8651250D02*
X11807500Y-8681250D01*
X11807500Y-8651250D02*
X11777500Y-8681250D01*
X11782500Y-10556250D02*
X11812500Y-10586250D01*
X11812500Y-10556250D02*
X11782500Y-10586250D01*
X11797500Y-12316250D02*
X11827500Y-12346250D01*
X11827500Y-12316250D02*
X11797500Y-12346250D01*
X11847500Y-9261250D02*
X11877500Y-9291250D01*
X11877500Y-9261250D02*
X11847500Y-9291250D01*
X11847500Y-11166250D02*
X11877500Y-11196250D01*
X11877500Y-11166250D02*
X11847500Y-11196250D01*
X11852500Y-7356250D02*
X11882500Y-7386250D01*
X11882500Y-7356250D02*
X11852500Y-7386250D01*
X11905000Y-12468750D02*
X11935000Y-12498750D01*
X11935000Y-12468750D02*
X11905000Y-12498750D01*
X12852500Y-8751250D02*
X12882500Y-8781250D01*
X12882500Y-8751250D02*
X12852500Y-8781250D01*
X12855000Y-8503750D02*
X12885000Y-8533750D01*
X12885000Y-8503750D02*
X12855000Y-8533750D01*
X12855000Y-10408750D02*
X12885000Y-10438750D01*
X12885000Y-10408750D02*
X12855000Y-10438750D01*
X12962500Y-10566250D02*
X12992500Y-10596250D01*
X12992500Y-10566250D02*
X12962500Y-10596250D01*
X12967500Y-8651250D02*
X12997500Y-8681250D01*
X12997500Y-8651250D02*
X12967500Y-8681250D01*
X12977500Y-12321250D02*
X13007500Y-12351250D01*
X13007500Y-12321250D02*
X12977500Y-12351250D01*
X13682500Y-8511250D02*
X13712500Y-8541250D01*
X13712500Y-8511250D02*
X13682500Y-8541250D01*
X13682500Y-8651250D02*
X13712500Y-8681250D01*
X13712500Y-8651250D02*
X13682500Y-8681250D01*
X13687500Y-10556250D02*
X13717500Y-10586250D01*
X13717500Y-10556250D02*
X13687500Y-10586250D01*
X13707500Y-12311250D02*
X13737500Y-12341250D01*
X13737500Y-12311250D02*
X13707500Y-12341250D01*
X13752500Y-9261250D02*
X13782500Y-9291250D01*
X13782500Y-9261250D02*
X13752500Y-9291250D01*
X13757500Y-7356250D02*
X13787500Y-7386250D01*
X13787500Y-7356250D02*
X13757500Y-7386250D01*
X13757500Y-11166250D02*
X13787500Y-11196250D01*
X13787500Y-11166250D02*
X13757500Y-11196250D01*
X13810000Y-12468750D02*
X13840000Y-12498750D01*
X13840000Y-12468750D02*
X13810000Y-12498750D01*
X14757500Y-8756250D02*
X14787500Y-8786250D01*
X14787500Y-8756250D02*
X14757500Y-8786250D01*
X14760000Y-8503750D02*
X14790000Y-8533750D01*
X14790000Y-8503750D02*
X14760000Y-8533750D01*
X14760000Y-10408750D02*
X14790000Y-10438750D01*
X14790000Y-10408750D02*
X14760000Y-10438750D01*
X14857500Y-10566250D02*
X14887500Y-10596250D01*
X14887500Y-10566250D02*
X14857500Y-10596250D01*
X14872500Y-8651250D02*
X14902500Y-8681250D01*
X14902500Y-8651250D02*
X14872500Y-8681250D01*
X14882500Y-12321250D02*
X14912500Y-12351250D01*
X14912500Y-12321250D02*
X14882500Y-12351250D01*
X15587500Y-8511250D02*
X15617500Y-8541250D01*
X15617500Y-8511250D02*
X15587500Y-8541250D01*
X15587500Y-8651250D02*
X15617500Y-8681250D01*
X15617500Y-8651250D02*
X15587500Y-8681250D01*
X15587500Y-10561250D02*
X15617500Y-10591250D01*
X15617500Y-10561250D02*
X15587500Y-10591250D01*
X15612500Y-12316250D02*
X15642500Y-12346250D01*
X15642500Y-12316250D02*
X15612500Y-12346250D01*
X15657500Y-7356250D02*
X15687500Y-7386250D01*
X15687500Y-7356250D02*
X15657500Y-7386250D01*
X15657500Y-9266250D02*
X15687500Y-9296250D01*
X15687500Y-9266250D02*
X15657500Y-9296250D01*
X15657500Y-11166250D02*
X15687500Y-11196250D01*
X15687500Y-11166250D02*
X15657500Y-11196250D01*
X15715000Y-12468750D02*
X15745000Y-12498750D01*
X15745000Y-12468750D02*
X15715000Y-12498750D01*
X16662500Y-8751250D02*
X16692500Y-8781250D01*
X16692500Y-8751250D02*
X16662500Y-8781250D01*
X16665000Y-8503750D02*
X16695000Y-8533750D01*
X16695000Y-8503750D02*
X16665000Y-8533750D01*
X16665000Y-10408750D02*
X16695000Y-10438750D01*
X16695000Y-10408750D02*
X16665000Y-10438750D01*
X16767500Y-10566250D02*
X16797500Y-10596250D01*
X16797500Y-10566250D02*
X16767500Y-10596250D01*
X16777500Y-8651250D02*
X16807500Y-8681250D01*
X16807500Y-8651250D02*
X16777500Y-8681250D01*
X16792500Y-12321250D02*
X16822500Y-12351250D01*
X16822500Y-12321250D02*
X16792500Y-12351250D01*
X17492500Y-8511250D02*
X17522500Y-8541250D01*
X17522500Y-8511250D02*
X17492500Y-8541250D01*
X17497500Y-8651250D02*
X17527500Y-8681250D01*
X17527500Y-8651250D02*
X17497500Y-8681250D01*
X17497500Y-10556250D02*
X17527500Y-10586250D01*
X17527500Y-10556250D02*
X17497500Y-10586250D01*
X17517500Y-12316250D02*
X17547500Y-12346250D01*
X17547500Y-12316250D02*
X17517500Y-12346250D01*
X17562500Y-7356250D02*
X17592500Y-7386250D01*
X17592500Y-7356250D02*
X17562500Y-7386250D01*
X17562500Y-9261250D02*
X17592500Y-9291250D01*
X17592500Y-9261250D02*
X17562500Y-9291250D01*
X17562500Y-11171250D02*
X17592500Y-11201250D01*
X17592500Y-11171250D02*
X17562500Y-11201250D01*
X17620000Y-12468750D02*
X17650000Y-12498750D01*
X17650000Y-12468750D02*
X17620000Y-12498750D01*
X18567500Y-8743750D02*
X18597500Y-8773750D01*
X18597500Y-8743750D02*
X18567500Y-8773750D01*
X18570000Y-8503750D02*
X18600000Y-8533750D01*
X18600000Y-8503750D02*
X18570000Y-8533750D01*
X18570000Y-10408750D02*
X18600000Y-10438750D01*
X18600000Y-10408750D02*
X18570000Y-10438750D01*
X18667500Y-10566250D02*
X18697500Y-10596250D01*
X18697500Y-10566250D02*
X18667500Y-10596250D01*
X18682500Y-8651250D02*
X18712500Y-8681250D01*
X18712500Y-8651250D02*
X18682500Y-8681250D01*
X18697500Y-12321250D02*
X18727500Y-12351250D01*
X18727500Y-12321250D02*
X18697500Y-12351250D01*
X19300000Y-12321250D02*
X19330000Y-12351250D01*
X19330000Y-12321250D02*
X19300000Y-12351250D01*
X19352500Y-8226250D02*
X19382500Y-8256250D01*
X19382500Y-8226250D02*
X19352500Y-8256250D01*
X19397500Y-8511250D02*
X19427500Y-8541250D01*
X19427500Y-8511250D02*
X19397500Y-8541250D01*
X19397500Y-8651250D02*
X19427500Y-8681250D01*
X19427500Y-8651250D02*
X19397500Y-8681250D01*
X19397500Y-10556250D02*
X19427500Y-10586250D01*
X19427500Y-10556250D02*
X19397500Y-10586250D01*
X19422249Y-10722337D02*
X19452249Y-10752337D01*
X19452249Y-10722337D02*
X19422249Y-10752337D01*
X19422500Y-12316250D02*
X19452500Y-12346250D01*
X19452500Y-12316250D02*
X19422500Y-12346250D01*
X19467500Y-7356250D02*
X19497500Y-7386250D01*
X19497500Y-7356250D02*
X19467500Y-7386250D01*
X19467500Y-9261250D02*
X19497500Y-9291250D01*
X19497500Y-9261250D02*
X19467500Y-9291250D01*
X19467500Y-11171250D02*
X19497500Y-11201250D01*
X19497500Y-11171250D02*
X19467500Y-11201250D01*
X19512500Y-10631250D02*
X19542500Y-10661250D01*
X19542500Y-10631250D02*
X19512500Y-10661250D01*
X19525000Y-12468750D02*
X19555000Y-12498750D01*
X19555000Y-12468750D02*
X19525000Y-12498750D01*
X19533298Y-10866250D02*
X19563298Y-10896250D01*
X19563298Y-10866250D02*
X19533298Y-10896250D01*
X19567500Y-8436250D02*
X19597500Y-8466250D01*
X19597500Y-8436250D02*
X19567500Y-8466250D01*
X19672500Y-10771250D02*
X19702500Y-10801250D01*
X19702500Y-10771250D02*
X19672500Y-10801250D01*
X19673750Y-10866250D02*
X19703750Y-10896250D01*
X19703750Y-10866250D02*
X19673750Y-10896250D01*
X19732500Y-12396250D02*
X19762500Y-12426250D01*
X19762500Y-12396250D02*
X19732500Y-12426250D01*
X19782500Y-11816250D02*
X19812500Y-11846250D01*
X19812500Y-11816250D02*
X19782500Y-11846250D01*
X19877500Y-8736250D02*
X19907500Y-8766250D01*
X19907500Y-8736250D02*
X19877500Y-8766250D01*
X19901250Y-10676250D02*
X19931250Y-10706250D01*
X19931250Y-10676250D02*
X19901250Y-10706250D01*
X19907500Y-10771250D02*
X19937500Y-10801250D01*
X19937500Y-10771250D02*
X19907500Y-10801250D01*
X19925000Y-10315000D02*
X19955000Y-10345000D01*
X19955000Y-10315000D02*
X19925000Y-10345000D01*
X19925000Y-10397250D02*
X19955000Y-10427250D01*
X19955000Y-10397250D02*
X19925000Y-10427250D01*
X19932500Y-11968750D02*
X19962500Y-11998750D01*
X19962500Y-11968750D02*
X19932500Y-11998750D01*
X20072500Y-9356250D02*
X20102500Y-9386250D01*
X20102500Y-9356250D02*
X20072500Y-9386250D01*
X20115000Y-8685000D02*
X20145000Y-8715000D01*
X20145000Y-8685000D02*
X20115000Y-8715000D01*
X20132500Y-10545250D02*
X20162500Y-10575250D01*
X20162500Y-10545250D02*
X20132500Y-10575250D01*
X20132500Y-10926250D02*
X20162500Y-10956250D01*
X20162500Y-10926250D02*
X20132500Y-10956250D01*
X20132500Y-11180250D02*
X20162500Y-11210250D01*
X20162500Y-11180250D02*
X20132500Y-11210250D01*
X20132500Y-11307250D02*
X20162500Y-11337250D01*
X20162500Y-11307250D02*
X20132500Y-11337250D01*
X20132500Y-11434250D02*
X20162500Y-11464250D01*
X20162500Y-11434250D02*
X20132500Y-11464250D01*
X20132500Y-11561250D02*
X20162500Y-11591250D01*
X20162500Y-11561250D02*
X20132500Y-11591250D01*
X20142500Y-9671250D02*
X20172500Y-9701250D01*
X20172500Y-9671250D02*
X20142500Y-9701250D01*
X20371250Y-9766250D02*
X20401250Y-9796250D01*
X20401250Y-9766250D02*
X20371250Y-9796250D01*
X20372500Y-9671250D02*
X20402500Y-9701250D01*
X20402500Y-9671250D02*
X20372500Y-9701250D01*
X20502500Y-9171250D02*
X20532500Y-9201250D01*
X20532500Y-9171250D02*
X20502500Y-9201250D01*
X20572500Y-9361250D02*
X20602500Y-9391250D01*
X20602500Y-9361250D02*
X20572500Y-9391250D01*
X20717500Y-11030250D02*
X20747500Y-11060250D01*
X20747500Y-11030250D02*
X20717500Y-11060250D01*
X20717500Y-11166250D02*
X20747500Y-11196250D01*
X20747500Y-11166250D02*
X20717500Y-11196250D01*
X20717500Y-11306250D02*
X20747500Y-11336250D01*
X20747500Y-11306250D02*
X20717500Y-11336250D01*
X20745000Y-10935000D02*
X20775000Y-10965000D01*
X20775000Y-10935000D02*
X20745000Y-10965000D01*
X20801250Y-9361250D02*
X20831250Y-9391250D01*
X20831250Y-9361250D02*
X20801250Y-9391250D01*
X20801250Y-9455000D02*
X20831250Y-9485000D01*
X20831250Y-9455000D02*
X20801250Y-9485000D01*
X20857500Y-11026250D02*
X20887500Y-11056250D01*
X20887500Y-11026250D02*
X20857500Y-11056250D01*
X20857500Y-11171250D02*
X20887500Y-11201250D01*
X20887500Y-11171250D02*
X20857500Y-11201250D01*
X20857500Y-11310250D02*
X20887500Y-11340250D01*
X20887500Y-11310250D02*
X20857500Y-11340250D01*
X20892500Y-8966250D02*
X20922500Y-8996250D01*
X20922500Y-8966250D02*
X20892500Y-8996250D01*
X20997500Y-11026250D02*
X21027500Y-11056250D01*
X21027500Y-11026250D02*
X20997500Y-11056250D01*
X20997500Y-11171250D02*
X21027500Y-11201250D01*
X21027500Y-11171250D02*
X20997500Y-11201250D01*
X20997500Y-11306250D02*
X21027500Y-11336250D01*
X21027500Y-11306250D02*
X20997500Y-11336250D01*
X21246250Y-8966250D02*
X21276250Y-8996250D01*
X21276250Y-8966250D02*
X21246250Y-8996250D01*
X21247500Y-9061250D02*
X21277500Y-9091250D01*
X21277500Y-9061250D02*
X21247500Y-9091250D01*
X21882500Y-11815250D02*
X21912500Y-11845250D01*
X21912500Y-11815250D02*
X21882500Y-11845250D01*
X21887500Y-11941250D02*
X21917500Y-11971250D01*
X21917500Y-11941250D02*
X21887500Y-11971250D01*
X22007500Y-10791250D02*
X22037500Y-10821250D01*
X22037500Y-10791250D02*
X22007500Y-10821250D01*
X22292500Y-9281250D02*
X22322500Y-9311250D01*
X22322500Y-9281250D02*
X22292500Y-9311250D01*
X22295000Y-11175000D02*
X22325000Y-11205000D01*
X22325000Y-11175000D02*
X22295000Y-11205000D01*
X22372500Y-8531250D02*
X22402500Y-8561250D01*
X22402500Y-8531250D02*
X22372500Y-8561250D01*
X22382500Y-7681250D02*
X22412500Y-7711250D01*
X22412500Y-7681250D02*
X22382500Y-7711250D01*
X22382500Y-9586250D02*
X22412500Y-9616250D01*
X22412500Y-9586250D02*
X22382500Y-9616250D01*
X22382500Y-11491250D02*
X22412500Y-11521250D01*
X22412500Y-11491250D02*
X22382500Y-11521250D01*
X22387500Y-7856250D02*
X22417500Y-7886250D01*
X22417500Y-7856250D02*
X22387500Y-7886250D01*
X22387500Y-10261250D02*
X22417500Y-10291250D01*
X22417500Y-10261250D02*
X22387500Y-10291250D01*
X22392500Y-8356250D02*
X22422500Y-8386250D01*
X22422500Y-8356250D02*
X22392500Y-8386250D01*
X22392500Y-12166250D02*
X22422500Y-12196250D01*
X22422500Y-12166250D02*
X22392500Y-12196250D01*
X22531250Y-8681250D02*
X22561250Y-8711250D01*
X22561250Y-8681250D02*
X22531250Y-8711250D01*
X22682500Y-8685000D02*
X22712500Y-8715000D01*
X22712500Y-8685000D02*
X22682500Y-8715000D01*
X7882500Y-8668000D02*
G75*
G02*
X7817500Y-8668000I-32500J0D01*
G01*
X7817500Y-8668000D02*
G75*
G02*
X7882500Y-8668000I32500J0D01*
G01*
X7805000Y-8700500D02*
X7895000Y-8700500D01*
X7895000Y-8635500D02*
G75*
G02*
X7895000Y-8700500I0J-32500D01*
G01*
X7895000Y-8635500D02*
X7805000Y-8635500D01*
X7805000Y-8635500D02*
G75*
G03*
X7805000Y-8700500I0J-32500D01*
G01*
X7882500Y-9532000D02*
G75*
G02*
X7817500Y-9532000I-32500J0D01*
G01*
X7817500Y-9532000D02*
G75*
G02*
X7882500Y-9532000I32500J0D01*
G01*
X7805000Y-9564500D02*
X7895000Y-9564500D01*
X7895000Y-9499500D02*
G75*
G02*
X7895000Y-9564500I0J-32500D01*
G01*
X7895000Y-9499500D02*
X7805000Y-9499500D01*
X7805000Y-9499500D02*
G75*
G03*
X7805000Y-9564500I0J-32500D01*
G01*
X8282500Y-8668000D02*
G75*
G02*
X8217500Y-8668000I-32500J0D01*
G01*
X8217500Y-8668000D02*
G75*
G02*
X8282500Y-8668000I32500J0D01*
G01*
X8225000Y-8700500D02*
X8275000Y-8700500D01*
X8275000Y-8635500D02*
G75*
G02*
X8275000Y-8700500I0J-32500D01*
G01*
X8275000Y-8635500D02*
X8225000Y-8635500D01*
X8225000Y-8635500D02*
G75*
G03*
X8225000Y-8700500I0J-32500D01*
G01*
X8282500Y-9532000D02*
G75*
G02*
X8217500Y-9532000I-32500J0D01*
G01*
X8217500Y-9532000D02*
G75*
G02*
X8282500Y-9532000I32500J0D01*
G01*
X8225000Y-9564500D02*
X8275000Y-9564500D01*
X8275000Y-9499500D02*
G75*
G02*
X8275000Y-9564500I0J-32500D01*
G01*
X8275000Y-9499500D02*
X8225000Y-9499500D01*
X8225000Y-9499500D02*
G75*
G03*
X8225000Y-9564500I0J-32500D01*
G01*
X9600500Y-7247500D02*
G75*
G02*
X9535500Y-7247500I-32500J0D01*
G01*
X9535500Y-7247500D02*
G75*
G02*
X9600500Y-7247500I32500J0D01*
G01*
X9535500Y-7202500D02*
X9535500Y-7292500D01*
X9600500Y-7292500D02*
G75*
G02*
X9535500Y-7292500I-32500J0D01*
G01*
X9600500Y-7292500D02*
X9600500Y-7202500D01*
X9600500Y-7202500D02*
G75*
G03*
X9535500Y-7202500I-32500J0D01*
G01*
X9600500Y-7647500D02*
G75*
G02*
X9535500Y-7647500I-32500J0D01*
G01*
X9535500Y-7647500D02*
G75*
G02*
X9600500Y-7647500I32500J0D01*
G01*
X9535500Y-7622500D02*
X9535500Y-7672500D01*
X9600500Y-7672500D02*
G75*
G02*
X9535500Y-7672500I-32500J0D01*
G01*
X9600500Y-7672500D02*
X9600500Y-7622500D01*
X9600500Y-7622500D02*
G75*
G03*
X9535500Y-7622500I-32500J0D01*
G01*
X10464500Y-7247500D02*
G75*
G02*
X10399500Y-7247500I-32500J0D01*
G01*
X10399500Y-7247500D02*
G75*
G02*
X10464500Y-7247500I32500J0D01*
G01*
X10399500Y-7202500D02*
X10399500Y-7292500D01*
X10464500Y-7292500D02*
G75*
G02*
X10399500Y-7292500I-32500J0D01*
G01*
X10464500Y-7292500D02*
X10464500Y-7202500D01*
X10464500Y-7202500D02*
G75*
G03*
X10399500Y-7202500I-32500J0D01*
G01*
X10464500Y-7647500D02*
G75*
G02*
X10399500Y-7647500I-32500J0D01*
G01*
X10399500Y-7647500D02*
G75*
G02*
X10464500Y-7647500I32500J0D01*
G01*
X10399500Y-7622500D02*
X10399500Y-7672500D01*
X10464500Y-7672500D02*
G75*
G02*
X10399500Y-7672500I-32500J0D01*
G01*
X10464500Y-7672500D02*
X10464500Y-7622500D01*
X10464500Y-7622500D02*
G75*
G03*
X10399500Y-7622500I-32500J0D01*
G01*
X8358750Y-7796250D02*
X8358750Y-7896250D01*
X8308750Y-7846250D02*
X8408750Y-7846250D01*
X8358750Y-8046250D02*
X8358750Y-8146250D01*
X8308750Y-8096250D02*
X8408750Y-8096250D01*
X8358750Y-8296250D02*
X8358750Y-8396250D01*
X8308750Y-8346250D02*
X8408750Y-8346250D01*
X8358750Y-9701250D02*
X8358750Y-9801250D01*
X8308750Y-9751250D02*
X8408750Y-9751250D01*
X8358750Y-9951250D02*
X8358750Y-10051250D01*
X8308750Y-10001250D02*
X8408750Y-10001250D01*
X8358750Y-10201250D02*
X8358750Y-10301250D01*
X8308750Y-10251250D02*
X8408750Y-10251250D01*
X8358750Y-11606250D02*
X8358750Y-11706250D01*
X8308750Y-11656250D02*
X8408750Y-11656250D01*
X8358750Y-11856250D02*
X8358750Y-11956250D01*
X8308750Y-11906250D02*
X8408750Y-11906250D01*
X8358750Y-12106250D02*
X8358750Y-12206250D01*
X8308750Y-12156250D02*
X8408750Y-12156250D01*
X22141250Y-7796250D02*
X22141250Y-7896250D01*
X22091250Y-7846250D02*
X22191250Y-7846250D01*
X22141250Y-8046250D02*
X22141250Y-8146250D01*
X22091250Y-8096250D02*
X22191250Y-8096250D01*
X22141250Y-8296250D02*
X22141250Y-8396250D01*
X22091250Y-8346250D02*
X22191250Y-8346250D01*
X22141250Y-9701250D02*
X22141250Y-9801250D01*
X22091250Y-9751250D02*
X22191250Y-9751250D01*
X22141250Y-9951250D02*
X22141250Y-10051250D01*
X22091250Y-10001250D02*
X22191250Y-10001250D01*
X22141250Y-10201250D02*
X22141250Y-10301250D01*
X22091250Y-10251250D02*
X22191250Y-10251250D01*
X22141250Y-11606250D02*
X22141250Y-11706250D01*
X22091250Y-11656250D02*
X22191250Y-11656250D01*
X22141250Y-11856250D02*
X22141250Y-11956250D01*
X22091250Y-11906250D02*
X22191250Y-11906250D01*
X22141250Y-12106250D02*
X22141250Y-12206250D01*
X22091250Y-12156250D02*
X22191250Y-12156250D01*
D13*
X9122390Y-7719890D02*
X9122390Y-7592610D01*
X8995110Y-7592610D01*
X8995110Y-7719890D01*
X9122390Y-7719890D01*
D11*
X9078750Y-7566250D02*
X9038750Y-7566250D01*
X9038750Y-7746250D02*
G75*
G02*
X9038750Y-7566250I0J90000D01*
G01*
X9038750Y-7746250D02*
X9078750Y-7746250D01*
X9078750Y-7746250D02*
G75*
G03*
X9078750Y-7566250I0J90000D01*
G01*
D13*
X9122390Y-8599890D02*
X9122390Y-8472610D01*
X8995110Y-8472610D01*
X8995110Y-8599890D01*
X9122390Y-8599890D01*
D11*
X9078750Y-8446250D02*
X9038750Y-8446250D01*
X9038750Y-8626250D02*
G75*
G02*
X9038750Y-8446250I0J90000D01*
G01*
X9038750Y-8626250D02*
X9078750Y-8626250D01*
X9078750Y-8626250D02*
G75*
G03*
X9078750Y-8446250I0J90000D01*
G01*
D13*
X9122390Y-9624890D02*
X9122390Y-9497610D01*
X8995110Y-9497610D01*
X8995110Y-9624890D01*
X9122390Y-9624890D01*
D11*
X9078750Y-9471250D02*
X9038750Y-9471250D01*
X9038750Y-9651250D02*
G75*
G02*
X9038750Y-9471250I0J90000D01*
G01*
X9038750Y-9651250D02*
X9078750Y-9651250D01*
X9078750Y-9651250D02*
G75*
G03*
X9078750Y-9471250I0J90000D01*
G01*
D13*
X9122390Y-10504890D02*
X9122390Y-10377610D01*
X8995110Y-10377610D01*
X8995110Y-10504890D01*
X9122390Y-10504890D01*
D11*
X9078750Y-10351250D02*
X9038750Y-10351250D01*
X9038750Y-10531250D02*
G75*
G02*
X9038750Y-10351250I0J90000D01*
G01*
X9038750Y-10531250D02*
X9078750Y-10531250D01*
X9078750Y-10531250D02*
G75*
G03*
X9078750Y-10351250I0J90000D01*
G01*
D13*
X9122390Y-11529890D02*
X9122390Y-11402610D01*
X8995110Y-11402610D01*
X8995110Y-11529890D01*
X9122390Y-11529890D01*
D11*
X9078750Y-11376250D02*
X9038750Y-11376250D01*
X9038750Y-11556250D02*
G75*
G02*
X9038750Y-11376250I0J90000D01*
G01*
X9038750Y-11556250D02*
X9078750Y-11556250D01*
X9078750Y-11556250D02*
G75*
G03*
X9078750Y-11376250I0J90000D01*
G01*
D13*
X9122390Y-12409890D02*
X9122390Y-12282610D01*
X8995110Y-12282610D01*
X8995110Y-12409890D01*
X9122390Y-12409890D01*
D11*
X9078750Y-12256250D02*
X9038750Y-12256250D01*
X9038750Y-12436250D02*
G75*
G02*
X9038750Y-12256250I0J90000D01*
G01*
X9038750Y-12436250D02*
X9078750Y-12436250D01*
X9078750Y-12436250D02*
G75*
G03*
X9078750Y-12256250I0J90000D01*
G01*
D13*
X21504890Y-7719890D02*
X21504890Y-7592610D01*
X21377610Y-7592610D01*
X21377610Y-7719890D01*
X21504890Y-7719890D01*
D11*
X21421250Y-7746250D02*
X21461250Y-7746250D01*
X21461250Y-7566250D02*
G75*
G02*
X21461250Y-7746250I0J-90000D01*
G01*
X21461250Y-7566250D02*
X21421250Y-7566250D01*
X21421250Y-7566250D02*
G75*
G03*
X21421250Y-7746250I0J-90000D01*
G01*
D13*
X21504890Y-8599890D02*
X21504890Y-8472610D01*
X21377610Y-8472610D01*
X21377610Y-8599890D01*
X21504890Y-8599890D01*
D11*
X21421250Y-8626250D02*
X21461250Y-8626250D01*
X21461250Y-8446250D02*
G75*
G02*
X21461250Y-8626250I0J-90000D01*
G01*
X21461250Y-8446250D02*
X21421250Y-8446250D01*
X21421250Y-8446250D02*
G75*
G03*
X21421250Y-8626250I0J-90000D01*
G01*
D13*
X21504890Y-9624890D02*
X21504890Y-9497610D01*
X21377610Y-9497610D01*
X21377610Y-9624890D01*
X21504890Y-9624890D01*
D11*
X21421250Y-9651250D02*
X21461250Y-9651250D01*
X21461250Y-9471250D02*
G75*
G02*
X21461250Y-9651250I0J-90000D01*
G01*
X21461250Y-9471250D02*
X21421250Y-9471250D01*
X21421250Y-9471250D02*
G75*
G03*
X21421250Y-9651250I0J-90000D01*
G01*
D13*
X21504890Y-10504890D02*
X21504890Y-10377610D01*
X21377610Y-10377610D01*
X21377610Y-10504890D01*
X21504890Y-10504890D01*
D11*
X21421250Y-10531250D02*
X21461250Y-10531250D01*
X21461250Y-10351250D02*
G75*
G02*
X21461250Y-10531250I0J-90000D01*
G01*
X21461250Y-10351250D02*
X21421250Y-10351250D01*
X21421250Y-10351250D02*
G75*
G03*
X21421250Y-10531250I0J-90000D01*
G01*
D13*
X21504890Y-11529890D02*
X21504890Y-11402610D01*
X21377610Y-11402610D01*
X21377610Y-11529890D01*
X21504890Y-11529890D01*
D11*
X21421250Y-11556250D02*
X21461250Y-11556250D01*
X21461250Y-11376250D02*
G75*
G02*
X21461250Y-11556250I0J-90000D01*
G01*
X21461250Y-11376250D02*
X21421250Y-11376250D01*
X21421250Y-11376250D02*
G75*
G03*
X21421250Y-11556250I0J-90000D01*
G01*
D13*
X21504890Y-12409890D02*
X21504890Y-12282610D01*
X21377610Y-12282610D01*
X21377610Y-12409890D01*
X21504890Y-12409890D01*
D11*
X21421250Y-12436250D02*
X21461250Y-12436250D01*
X21461250Y-12256250D02*
G75*
G02*
X21461250Y-12436250I0J-90000D01*
G01*
X21461250Y-12256250D02*
X21421250Y-12256250D01*
X21421250Y-12256250D02*
G75*
G03*
X21421250Y-12436250I0J-90000D01*
G01*
D12*
X7858277Y-13313984D02*
X7858277Y-13113984D01*
X7858277Y-13113984D02*
X7905896Y-13113984D01*
X7905896Y-13113984D02*
X7934467Y-13123508D01*
X7934467Y-13123508D02*
X7953515Y-13142555D01*
X7953515Y-13142555D02*
X7963039Y-13161603D01*
X7963039Y-13161603D02*
X7972562Y-13199698D01*
X7972562Y-13199698D02*
X7972562Y-13228269D01*
X7972562Y-13228269D02*
X7963039Y-13266365D01*
X7963039Y-13266365D02*
X7953515Y-13285412D01*
X7953515Y-13285412D02*
X7934467Y-13304460D01*
X7934467Y-13304460D02*
X7905896Y-13313984D01*
X7905896Y-13313984D02*
X7858277Y-13313984D01*
X8058277Y-13313984D02*
X8058277Y-13180650D01*
X8058277Y-13218746D02*
X8067801Y-13199698D01*
X8067801Y-13199698D02*
X8077324Y-13190174D01*
X8077324Y-13190174D02*
X8096372Y-13180650D01*
X8096372Y-13180650D02*
X8115420Y-13180650D01*
X8182086Y-13313984D02*
X8182086Y-13180650D01*
X8182086Y-13113984D02*
X8172562Y-13123508D01*
X8172562Y-13123508D02*
X8182086Y-13133031D01*
X8182086Y-13133031D02*
X8191610Y-13123508D01*
X8191610Y-13123508D02*
X8182086Y-13113984D01*
X8182086Y-13113984D02*
X8182086Y-13133031D01*
X8305896Y-13313984D02*
X8286848Y-13304460D01*
X8286848Y-13304460D02*
X8277324Y-13285412D01*
X8277324Y-13285412D02*
X8277324Y-13113984D01*
X8410658Y-13313984D02*
X8391610Y-13304460D01*
X8391610Y-13304460D02*
X8382086Y-13285412D01*
X8382086Y-13285412D02*
X8382086Y-13113984D01*
X8639229Y-13313984D02*
X8639229Y-13113984D01*
X8639229Y-13113984D02*
X8705896Y-13256841D01*
X8705896Y-13256841D02*
X8772563Y-13113984D01*
X8772563Y-13113984D02*
X8772563Y-13313984D01*
X8953515Y-13313984D02*
X8953515Y-13209222D01*
X8953515Y-13209222D02*
X8943991Y-13190174D01*
X8943991Y-13190174D02*
X8924944Y-13180650D01*
X8924944Y-13180650D02*
X8886848Y-13180650D01*
X8886848Y-13180650D02*
X8867801Y-13190174D01*
X8953515Y-13304460D02*
X8934467Y-13313984D01*
X8934467Y-13313984D02*
X8886848Y-13313984D01*
X8886848Y-13313984D02*
X8867801Y-13304460D01*
X8867801Y-13304460D02*
X8858277Y-13285412D01*
X8858277Y-13285412D02*
X8858277Y-13266365D01*
X8858277Y-13266365D02*
X8867801Y-13247317D01*
X8867801Y-13247317D02*
X8886848Y-13237793D01*
X8886848Y-13237793D02*
X8934467Y-13237793D01*
X8934467Y-13237793D02*
X8953515Y-13228269D01*
X9048753Y-13180650D02*
X9048753Y-13380650D01*
X9048753Y-13190174D02*
X9067801Y-13180650D01*
X9067801Y-13180650D02*
X9105896Y-13180650D01*
X9105896Y-13180650D02*
X9124944Y-13190174D01*
X9124944Y-13190174D02*
X9134467Y-13199698D01*
X9134467Y-13199698D02*
X9143991Y-13218746D01*
X9143991Y-13218746D02*
X9143991Y-13275888D01*
X9143991Y-13275888D02*
X9134467Y-13294936D01*
X9134467Y-13294936D02*
X9124944Y-13304460D01*
X9124944Y-13304460D02*
X9105896Y-13313984D01*
X9105896Y-13313984D02*
X9067801Y-13313984D01*
X9067801Y-13313984D02*
X9048753Y-13304460D01*
X9229705Y-13294936D02*
X9239229Y-13304460D01*
X9239229Y-13304460D02*
X9229705Y-13313984D01*
X9229705Y-13313984D02*
X9220182Y-13304460D01*
X9220182Y-13304460D02*
X9229705Y-13294936D01*
X9229705Y-13294936D02*
X9229705Y-13313984D01*
X9229705Y-13190174D02*
X9239229Y-13199698D01*
X9239229Y-13199698D02*
X9229705Y-13209222D01*
X9229705Y-13209222D02*
X9220182Y-13199698D01*
X9220182Y-13199698D02*
X9229705Y-13190174D01*
X9229705Y-13190174D02*
X9229705Y-13209222D01*
D11*
X7567500Y-13627500D02*
X7597500Y-13657500D01*
X7597500Y-13627500D02*
X7567500Y-13657500D01*
D12*
X7896372Y-13533984D02*
X7915420Y-13533984D01*
X7915420Y-13533984D02*
X7934467Y-13543508D01*
X7934467Y-13543508D02*
X7943991Y-13553031D01*
X7943991Y-13553031D02*
X7953515Y-13572079D01*
X7953515Y-13572079D02*
X7963039Y-13610174D01*
X7963039Y-13610174D02*
X7963039Y-13657793D01*
X7963039Y-13657793D02*
X7953515Y-13695888D01*
X7953515Y-13695888D02*
X7943991Y-13714936D01*
X7943991Y-13714936D02*
X7934467Y-13724460D01*
X7934467Y-13724460D02*
X7915420Y-13733984D01*
X7915420Y-13733984D02*
X7896372Y-13733984D01*
X7896372Y-13733984D02*
X7877324Y-13724460D01*
X7877324Y-13724460D02*
X7867801Y-13714936D01*
X7867801Y-13714936D02*
X7858277Y-13695888D01*
X7858277Y-13695888D02*
X7848753Y-13657793D01*
X7848753Y-13657793D02*
X7848753Y-13610174D01*
X7848753Y-13610174D02*
X7858277Y-13572079D01*
X7858277Y-13572079D02*
X7867801Y-13553031D01*
X7867801Y-13553031D02*
X7877324Y-13543508D01*
X7877324Y-13543508D02*
X7896372Y-13533984D01*
X8048753Y-13714936D02*
X8058277Y-13724460D01*
X8058277Y-13724460D02*
X8048753Y-13733984D01*
X8048753Y-13733984D02*
X8039229Y-13724460D01*
X8039229Y-13724460D02*
X8048753Y-13714936D01*
X8048753Y-13714936D02*
X8048753Y-13733984D01*
X8124943Y-13533984D02*
X8248753Y-13533984D01*
X8248753Y-13533984D02*
X8182086Y-13610174D01*
X8182086Y-13610174D02*
X8210658Y-13610174D01*
X8210658Y-13610174D02*
X8229705Y-13619698D01*
X8229705Y-13619698D02*
X8239229Y-13629222D01*
X8239229Y-13629222D02*
X8248753Y-13648269D01*
X8248753Y-13648269D02*
X8248753Y-13695888D01*
X8248753Y-13695888D02*
X8239229Y-13714936D01*
X8239229Y-13714936D02*
X8229705Y-13724460D01*
X8229705Y-13724460D02*
X8210658Y-13733984D01*
X8210658Y-13733984D02*
X8153515Y-13733984D01*
X8153515Y-13733984D02*
X8134467Y-13724460D01*
X8134467Y-13724460D02*
X8124943Y-13714936D01*
X8372562Y-13533984D02*
X8391610Y-13533984D01*
X8391610Y-13533984D02*
X8410658Y-13543508D01*
X8410658Y-13543508D02*
X8420182Y-13553031D01*
X8420182Y-13553031D02*
X8429705Y-13572079D01*
X8429705Y-13572079D02*
X8439229Y-13610174D01*
X8439229Y-13610174D02*
X8439229Y-13657793D01*
X8439229Y-13657793D02*
X8429705Y-13695888D01*
X8429705Y-13695888D02*
X8420182Y-13714936D01*
X8420182Y-13714936D02*
X8410658Y-13724460D01*
X8410658Y-13724460D02*
X8391610Y-13733984D01*
X8391610Y-13733984D02*
X8372562Y-13733984D01*
X8372562Y-13733984D02*
X8353515Y-13724460D01*
X8353515Y-13724460D02*
X8343991Y-13714936D01*
X8343991Y-13714936D02*
X8334467Y-13695888D01*
X8334467Y-13695888D02*
X8324943Y-13657793D01*
X8324943Y-13657793D02*
X8324943Y-13610174D01*
X8324943Y-13610174D02*
X8334467Y-13572079D01*
X8334467Y-13572079D02*
X8343991Y-13553031D01*
X8343991Y-13553031D02*
X8353515Y-13543508D01*
X8353515Y-13543508D02*
X8372562Y-13533984D01*
X8563039Y-13533984D02*
X8582086Y-13533984D01*
X8582086Y-13533984D02*
X8601134Y-13543508D01*
X8601134Y-13543508D02*
X8610658Y-13553031D01*
X8610658Y-13553031D02*
X8620182Y-13572079D01*
X8620182Y-13572079D02*
X8629705Y-13610174D01*
X8629705Y-13610174D02*
X8629705Y-13657793D01*
X8629705Y-13657793D02*
X8620182Y-13695888D01*
X8620182Y-13695888D02*
X8610658Y-13714936D01*
X8610658Y-13714936D02*
X8601134Y-13724460D01*
X8601134Y-13724460D02*
X8582086Y-13733984D01*
X8582086Y-13733984D02*
X8563039Y-13733984D01*
X8563039Y-13733984D02*
X8543991Y-13724460D01*
X8543991Y-13724460D02*
X8534467Y-13714936D01*
X8534467Y-13714936D02*
X8524944Y-13695888D01*
X8524944Y-13695888D02*
X8515420Y-13657793D01*
X8515420Y-13657793D02*
X8515420Y-13610174D01*
X8515420Y-13610174D02*
X8524944Y-13572079D01*
X8524944Y-13572079D02*
X8534467Y-13553031D01*
X8534467Y-13553031D02*
X8543991Y-13543508D01*
X8543991Y-13543508D02*
X8563039Y-13533984D01*
X8715420Y-13733984D02*
X8715420Y-13600650D01*
X8715420Y-13619698D02*
X8724944Y-13610174D01*
X8724944Y-13610174D02*
X8743991Y-13600650D01*
X8743991Y-13600650D02*
X8772563Y-13600650D01*
X8772563Y-13600650D02*
X8791610Y-13610174D01*
X8791610Y-13610174D02*
X8801134Y-13629222D01*
X8801134Y-13629222D02*
X8801134Y-13733984D01*
X8801134Y-13629222D02*
X8810658Y-13610174D01*
X8810658Y-13610174D02*
X8829705Y-13600650D01*
X8829705Y-13600650D02*
X8858277Y-13600650D01*
X8858277Y-13600650D02*
X8877325Y-13610174D01*
X8877325Y-13610174D02*
X8886848Y-13629222D01*
X8886848Y-13629222D02*
X8886848Y-13733984D01*
X8982086Y-13733984D02*
X8982086Y-13600650D01*
X8982086Y-13619698D02*
X8991610Y-13610174D01*
X8991610Y-13610174D02*
X9010658Y-13600650D01*
X9010658Y-13600650D02*
X9039229Y-13600650D01*
X9039229Y-13600650D02*
X9058277Y-13610174D01*
X9058277Y-13610174D02*
X9067801Y-13629222D01*
X9067801Y-13629222D02*
X9067801Y-13733984D01*
X9067801Y-13629222D02*
X9077325Y-13610174D01*
X9077325Y-13610174D02*
X9096372Y-13600650D01*
X9096372Y-13600650D02*
X9124944Y-13600650D01*
X9124944Y-13600650D02*
X9143991Y-13610174D01*
X9143991Y-13610174D02*
X9153515Y-13629222D01*
X9153515Y-13629222D02*
X9153515Y-13733984D01*
X9543991Y-13524460D02*
X9372563Y-13781603D01*
X9801134Y-13533984D02*
X9820182Y-13533984D01*
X9820182Y-13533984D02*
X9839229Y-13543508D01*
X9839229Y-13543508D02*
X9848753Y-13553031D01*
X9848753Y-13553031D02*
X9858277Y-13572079D01*
X9858277Y-13572079D02*
X9867801Y-13610174D01*
X9867801Y-13610174D02*
X9867801Y-13657793D01*
X9867801Y-13657793D02*
X9858277Y-13695888D01*
X9858277Y-13695888D02*
X9848753Y-13714936D01*
X9848753Y-13714936D02*
X9839229Y-13724460D01*
X9839229Y-13724460D02*
X9820182Y-13733984D01*
X9820182Y-13733984D02*
X9801134Y-13733984D01*
X9801134Y-13733984D02*
X9782087Y-13724460D01*
X9782087Y-13724460D02*
X9772563Y-13714936D01*
X9772563Y-13714936D02*
X9763039Y-13695888D01*
X9763039Y-13695888D02*
X9753515Y-13657793D01*
X9753515Y-13657793D02*
X9753515Y-13610174D01*
X9753515Y-13610174D02*
X9763039Y-13572079D01*
X9763039Y-13572079D02*
X9772563Y-13553031D01*
X9772563Y-13553031D02*
X9782087Y-13543508D01*
X9782087Y-13543508D02*
X9801134Y-13533984D01*
X9953515Y-13714936D02*
X9963039Y-13724460D01*
X9963039Y-13724460D02*
X9953515Y-13733984D01*
X9953515Y-13733984D02*
X9943991Y-13724460D01*
X9943991Y-13724460D02*
X9953515Y-13714936D01*
X9953515Y-13714936D02*
X9953515Y-13733984D01*
X10086848Y-13533984D02*
X10105896Y-13533984D01*
X10105896Y-13533984D02*
X10124944Y-13543508D01*
X10124944Y-13543508D02*
X10134468Y-13553031D01*
X10134468Y-13553031D02*
X10143991Y-13572079D01*
X10143991Y-13572079D02*
X10153515Y-13610174D01*
X10153515Y-13610174D02*
X10153515Y-13657793D01*
X10153515Y-13657793D02*
X10143991Y-13695888D01*
X10143991Y-13695888D02*
X10134468Y-13714936D01*
X10134468Y-13714936D02*
X10124944Y-13724460D01*
X10124944Y-13724460D02*
X10105896Y-13733984D01*
X10105896Y-13733984D02*
X10086848Y-13733984D01*
X10086848Y-13733984D02*
X10067801Y-13724460D01*
X10067801Y-13724460D02*
X10058277Y-13714936D01*
X10058277Y-13714936D02*
X10048753Y-13695888D01*
X10048753Y-13695888D02*
X10039229Y-13657793D01*
X10039229Y-13657793D02*
X10039229Y-13610174D01*
X10039229Y-13610174D02*
X10048753Y-13572079D01*
X10048753Y-13572079D02*
X10058277Y-13553031D01*
X10058277Y-13553031D02*
X10067801Y-13543508D01*
X10067801Y-13543508D02*
X10086848Y-13533984D01*
X10343991Y-13733984D02*
X10229706Y-13733984D01*
X10286848Y-13733984D02*
X10286848Y-13533984D01*
X10286848Y-13533984D02*
X10267801Y-13562555D01*
X10267801Y-13562555D02*
X10248753Y-13581603D01*
X10248753Y-13581603D02*
X10229706Y-13591127D01*
X10534468Y-13733984D02*
X10420182Y-13733984D01*
X10477325Y-13733984D02*
X10477325Y-13533984D01*
X10477325Y-13533984D02*
X10458277Y-13562555D01*
X10458277Y-13562555D02*
X10439229Y-13581603D01*
X10439229Y-13581603D02*
X10420182Y-13591127D01*
X10648753Y-13619698D02*
X10629706Y-13610174D01*
X10629706Y-13610174D02*
X10620182Y-13600650D01*
X10620182Y-13600650D02*
X10610658Y-13581603D01*
X10610658Y-13581603D02*
X10610658Y-13572079D01*
X10610658Y-13572079D02*
X10620182Y-13553031D01*
X10620182Y-13553031D02*
X10629706Y-13543508D01*
X10629706Y-13543508D02*
X10648753Y-13533984D01*
X10648753Y-13533984D02*
X10686849Y-13533984D01*
X10686849Y-13533984D02*
X10705896Y-13543508D01*
X10705896Y-13543508D02*
X10715420Y-13553031D01*
X10715420Y-13553031D02*
X10724944Y-13572079D01*
X10724944Y-13572079D02*
X10724944Y-13581603D01*
X10724944Y-13581603D02*
X10715420Y-13600650D01*
X10715420Y-13600650D02*
X10705896Y-13610174D01*
X10705896Y-13610174D02*
X10686849Y-13619698D01*
X10686849Y-13619698D02*
X10648753Y-13619698D01*
X10648753Y-13619698D02*
X10629706Y-13629222D01*
X10629706Y-13629222D02*
X10620182Y-13638746D01*
X10620182Y-13638746D02*
X10610658Y-13657793D01*
X10610658Y-13657793D02*
X10610658Y-13695888D01*
X10610658Y-13695888D02*
X10620182Y-13714936D01*
X10620182Y-13714936D02*
X10629706Y-13724460D01*
X10629706Y-13724460D02*
X10648753Y-13733984D01*
X10648753Y-13733984D02*
X10686849Y-13733984D01*
X10686849Y-13733984D02*
X10705896Y-13724460D01*
X10705896Y-13724460D02*
X10715420Y-13714936D01*
X10715420Y-13714936D02*
X10724944Y-13695888D01*
X10724944Y-13695888D02*
X10724944Y-13657793D01*
X10724944Y-13657793D02*
X10715420Y-13638746D01*
X10715420Y-13638746D02*
X10705896Y-13629222D01*
X10705896Y-13629222D02*
X10686849Y-13619698D01*
X10801134Y-13533984D02*
X10801134Y-13572079D01*
X10877325Y-13533984D02*
X10877325Y-13572079D01*
X11172563Y-13810174D02*
X11163039Y-13800650D01*
X11163039Y-13800650D02*
X11143991Y-13772079D01*
X11143991Y-13772079D02*
X11134468Y-13753031D01*
X11134468Y-13753031D02*
X11124944Y-13724460D01*
X11124944Y-13724460D02*
X11115420Y-13676841D01*
X11115420Y-13676841D02*
X11115420Y-13638746D01*
X11115420Y-13638746D02*
X11124944Y-13591127D01*
X11124944Y-13591127D02*
X11134468Y-13562555D01*
X11134468Y-13562555D02*
X11143991Y-13543508D01*
X11143991Y-13543508D02*
X11163039Y-13514936D01*
X11163039Y-13514936D02*
X11172563Y-13505412D01*
X11353515Y-13733984D02*
X11239229Y-13733984D01*
X11296372Y-13733984D02*
X11296372Y-13533984D01*
X11296372Y-13533984D02*
X11277325Y-13562555D01*
X11277325Y-13562555D02*
X11258277Y-13581603D01*
X11258277Y-13581603D02*
X11239229Y-13591127D01*
X11524944Y-13533984D02*
X11486848Y-13533984D01*
X11486848Y-13533984D02*
X11467801Y-13543508D01*
X11467801Y-13543508D02*
X11458277Y-13553031D01*
X11458277Y-13553031D02*
X11439229Y-13581603D01*
X11439229Y-13581603D02*
X11429706Y-13619698D01*
X11429706Y-13619698D02*
X11429706Y-13695888D01*
X11429706Y-13695888D02*
X11439229Y-13714936D01*
X11439229Y-13714936D02*
X11448753Y-13724460D01*
X11448753Y-13724460D02*
X11467801Y-13733984D01*
X11467801Y-13733984D02*
X11505896Y-13733984D01*
X11505896Y-13733984D02*
X11524944Y-13724460D01*
X11524944Y-13724460D02*
X11534468Y-13714936D01*
X11534468Y-13714936D02*
X11543991Y-13695888D01*
X11543991Y-13695888D02*
X11543991Y-13648269D01*
X11543991Y-13648269D02*
X11534468Y-13629222D01*
X11534468Y-13629222D02*
X11524944Y-13619698D01*
X11524944Y-13619698D02*
X11505896Y-13610174D01*
X11505896Y-13610174D02*
X11467801Y-13610174D01*
X11467801Y-13610174D02*
X11448753Y-13619698D01*
X11448753Y-13619698D02*
X11439229Y-13629222D01*
X11439229Y-13629222D02*
X11429706Y-13648269D01*
X11610658Y-13533984D02*
X11743991Y-13533984D01*
X11743991Y-13533984D02*
X11658277Y-13733984D01*
X11972563Y-13733984D02*
X11972563Y-13533984D01*
X12058277Y-13733984D02*
X12058277Y-13629222D01*
X12058277Y-13629222D02*
X12048753Y-13610174D01*
X12048753Y-13610174D02*
X12029706Y-13600650D01*
X12029706Y-13600650D02*
X12001134Y-13600650D01*
X12001134Y-13600650D02*
X11982087Y-13610174D01*
X11982087Y-13610174D02*
X11972563Y-13619698D01*
X12182087Y-13733984D02*
X12163039Y-13724460D01*
X12163039Y-13724460D02*
X12153515Y-13714936D01*
X12153515Y-13714936D02*
X12143991Y-13695888D01*
X12143991Y-13695888D02*
X12143991Y-13638746D01*
X12143991Y-13638746D02*
X12153515Y-13619698D01*
X12153515Y-13619698D02*
X12163039Y-13610174D01*
X12163039Y-13610174D02*
X12182087Y-13600650D01*
X12182087Y-13600650D02*
X12210658Y-13600650D01*
X12210658Y-13600650D02*
X12229706Y-13610174D01*
X12229706Y-13610174D02*
X12239230Y-13619698D01*
X12239230Y-13619698D02*
X12248753Y-13638746D01*
X12248753Y-13638746D02*
X12248753Y-13695888D01*
X12248753Y-13695888D02*
X12239230Y-13714936D01*
X12239230Y-13714936D02*
X12229706Y-13724460D01*
X12229706Y-13724460D02*
X12210658Y-13733984D01*
X12210658Y-13733984D02*
X12182087Y-13733984D01*
X12363039Y-13733984D02*
X12343991Y-13724460D01*
X12343991Y-13724460D02*
X12334468Y-13705412D01*
X12334468Y-13705412D02*
X12334468Y-13533984D01*
X12515420Y-13724460D02*
X12496372Y-13733984D01*
X12496372Y-13733984D02*
X12458277Y-13733984D01*
X12458277Y-13733984D02*
X12439230Y-13724460D01*
X12439230Y-13724460D02*
X12429706Y-13705412D01*
X12429706Y-13705412D02*
X12429706Y-13629222D01*
X12429706Y-13629222D02*
X12439230Y-13610174D01*
X12439230Y-13610174D02*
X12458277Y-13600650D01*
X12458277Y-13600650D02*
X12496372Y-13600650D01*
X12496372Y-13600650D02*
X12515420Y-13610174D01*
X12515420Y-13610174D02*
X12524944Y-13629222D01*
X12524944Y-13629222D02*
X12524944Y-13648269D01*
X12524944Y-13648269D02*
X12429706Y-13667317D01*
X12601134Y-13724460D02*
X12620182Y-13733984D01*
X12620182Y-13733984D02*
X12658277Y-13733984D01*
X12658277Y-13733984D02*
X12677325Y-13724460D01*
X12677325Y-13724460D02*
X12686849Y-13705412D01*
X12686849Y-13705412D02*
X12686849Y-13695888D01*
X12686849Y-13695888D02*
X12677325Y-13676841D01*
X12677325Y-13676841D02*
X12658277Y-13667317D01*
X12658277Y-13667317D02*
X12629706Y-13667317D01*
X12629706Y-13667317D02*
X12610658Y-13657793D01*
X12610658Y-13657793D02*
X12601134Y-13638746D01*
X12601134Y-13638746D02*
X12601134Y-13629222D01*
X12601134Y-13629222D02*
X12610658Y-13610174D01*
X12610658Y-13610174D02*
X12629706Y-13600650D01*
X12629706Y-13600650D02*
X12658277Y-13600650D01*
X12658277Y-13600650D02*
X12677325Y-13610174D01*
X12753515Y-13810174D02*
X12763039Y-13800650D01*
X12763039Y-13800650D02*
X12782087Y-13772079D01*
X12782087Y-13772079D02*
X12791611Y-13753031D01*
X12791611Y-13753031D02*
X12801134Y-13724460D01*
X12801134Y-13724460D02*
X12810658Y-13676841D01*
X12810658Y-13676841D02*
X12810658Y-13638746D01*
X12810658Y-13638746D02*
X12801134Y-13591127D01*
X12801134Y-13591127D02*
X12791611Y-13562555D01*
X12791611Y-13562555D02*
X12782087Y-13543508D01*
X12782087Y-13543508D02*
X12763039Y-13514936D01*
X12763039Y-13514936D02*
X12753515Y-13505412D01*
D11*
X7597500Y-13906500D02*
G75*
G02*
X7532500Y-13906500I-32500J0D01*
G01*
X7532500Y-13906500D02*
G75*
G02*
X7597500Y-13906500I32500J0D01*
G01*
D12*
X7896372Y-13797984D02*
X7915420Y-13797984D01*
X7915420Y-13797984D02*
X7934467Y-13807508D01*
X7934467Y-13807508D02*
X7943991Y-13817031D01*
X7943991Y-13817031D02*
X7953515Y-13836079D01*
X7953515Y-13836079D02*
X7963039Y-13874174D01*
X7963039Y-13874174D02*
X7963039Y-13921793D01*
X7963039Y-13921793D02*
X7953515Y-13959888D01*
X7953515Y-13959888D02*
X7943991Y-13978936D01*
X7943991Y-13978936D02*
X7934467Y-13988460D01*
X7934467Y-13988460D02*
X7915420Y-13997984D01*
X7915420Y-13997984D02*
X7896372Y-13997984D01*
X7896372Y-13997984D02*
X7877324Y-13988460D01*
X7877324Y-13988460D02*
X7867801Y-13978936D01*
X7867801Y-13978936D02*
X7858277Y-13959888D01*
X7858277Y-13959888D02*
X7848753Y-13921793D01*
X7848753Y-13921793D02*
X7848753Y-13874174D01*
X7848753Y-13874174D02*
X7858277Y-13836079D01*
X7858277Y-13836079D02*
X7867801Y-13817031D01*
X7867801Y-13817031D02*
X7877324Y-13807508D01*
X7877324Y-13807508D02*
X7896372Y-13797984D01*
X8048753Y-13978936D02*
X8058277Y-13988460D01*
X8058277Y-13988460D02*
X8048753Y-13997984D01*
X8048753Y-13997984D02*
X8039229Y-13988460D01*
X8039229Y-13988460D02*
X8048753Y-13978936D01*
X8048753Y-13978936D02*
X8048753Y-13997984D01*
X8229705Y-13797984D02*
X8191610Y-13797984D01*
X8191610Y-13797984D02*
X8172562Y-13807508D01*
X8172562Y-13807508D02*
X8163039Y-13817031D01*
X8163039Y-13817031D02*
X8143991Y-13845603D01*
X8143991Y-13845603D02*
X8134467Y-13883698D01*
X8134467Y-13883698D02*
X8134467Y-13959888D01*
X8134467Y-13959888D02*
X8143991Y-13978936D01*
X8143991Y-13978936D02*
X8153515Y-13988460D01*
X8153515Y-13988460D02*
X8172562Y-13997984D01*
X8172562Y-13997984D02*
X8210658Y-13997984D01*
X8210658Y-13997984D02*
X8229705Y-13988460D01*
X8229705Y-13988460D02*
X8239229Y-13978936D01*
X8239229Y-13978936D02*
X8248753Y-13959888D01*
X8248753Y-13959888D02*
X8248753Y-13912269D01*
X8248753Y-13912269D02*
X8239229Y-13893222D01*
X8239229Y-13893222D02*
X8229705Y-13883698D01*
X8229705Y-13883698D02*
X8210658Y-13874174D01*
X8210658Y-13874174D02*
X8172562Y-13874174D01*
X8172562Y-13874174D02*
X8153515Y-13883698D01*
X8153515Y-13883698D02*
X8143991Y-13893222D01*
X8143991Y-13893222D02*
X8134467Y-13912269D01*
X8429705Y-13797984D02*
X8334467Y-13797984D01*
X8334467Y-13797984D02*
X8324943Y-13893222D01*
X8324943Y-13893222D02*
X8334467Y-13883698D01*
X8334467Y-13883698D02*
X8353515Y-13874174D01*
X8353515Y-13874174D02*
X8401134Y-13874174D01*
X8401134Y-13874174D02*
X8420182Y-13883698D01*
X8420182Y-13883698D02*
X8429705Y-13893222D01*
X8429705Y-13893222D02*
X8439229Y-13912269D01*
X8439229Y-13912269D02*
X8439229Y-13959888D01*
X8439229Y-13959888D02*
X8429705Y-13978936D01*
X8429705Y-13978936D02*
X8420182Y-13988460D01*
X8420182Y-13988460D02*
X8401134Y-13997984D01*
X8401134Y-13997984D02*
X8353515Y-13997984D01*
X8353515Y-13997984D02*
X8334467Y-13988460D01*
X8334467Y-13988460D02*
X8324943Y-13978936D01*
X8563039Y-13797984D02*
X8582086Y-13797984D01*
X8582086Y-13797984D02*
X8601134Y-13807508D01*
X8601134Y-13807508D02*
X8610658Y-13817031D01*
X8610658Y-13817031D02*
X8620182Y-13836079D01*
X8620182Y-13836079D02*
X8629705Y-13874174D01*
X8629705Y-13874174D02*
X8629705Y-13921793D01*
X8629705Y-13921793D02*
X8620182Y-13959888D01*
X8620182Y-13959888D02*
X8610658Y-13978936D01*
X8610658Y-13978936D02*
X8601134Y-13988460D01*
X8601134Y-13988460D02*
X8582086Y-13997984D01*
X8582086Y-13997984D02*
X8563039Y-13997984D01*
X8563039Y-13997984D02*
X8543991Y-13988460D01*
X8543991Y-13988460D02*
X8534467Y-13978936D01*
X8534467Y-13978936D02*
X8524944Y-13959888D01*
X8524944Y-13959888D02*
X8515420Y-13921793D01*
X8515420Y-13921793D02*
X8515420Y-13874174D01*
X8515420Y-13874174D02*
X8524944Y-13836079D01*
X8524944Y-13836079D02*
X8534467Y-13817031D01*
X8534467Y-13817031D02*
X8543991Y-13807508D01*
X8543991Y-13807508D02*
X8563039Y-13797984D01*
X8715420Y-13997984D02*
X8715420Y-13864650D01*
X8715420Y-13883698D02*
X8724944Y-13874174D01*
X8724944Y-13874174D02*
X8743991Y-13864650D01*
X8743991Y-13864650D02*
X8772563Y-13864650D01*
X8772563Y-13864650D02*
X8791610Y-13874174D01*
X8791610Y-13874174D02*
X8801134Y-13893222D01*
X8801134Y-13893222D02*
X8801134Y-13997984D01*
X8801134Y-13893222D02*
X8810658Y-13874174D01*
X8810658Y-13874174D02*
X8829705Y-13864650D01*
X8829705Y-13864650D02*
X8858277Y-13864650D01*
X8858277Y-13864650D02*
X8877325Y-13874174D01*
X8877325Y-13874174D02*
X8886848Y-13893222D01*
X8886848Y-13893222D02*
X8886848Y-13997984D01*
X8982086Y-13997984D02*
X8982086Y-13864650D01*
X8982086Y-13883698D02*
X8991610Y-13874174D01*
X8991610Y-13874174D02*
X9010658Y-13864650D01*
X9010658Y-13864650D02*
X9039229Y-13864650D01*
X9039229Y-13864650D02*
X9058277Y-13874174D01*
X9058277Y-13874174D02*
X9067801Y-13893222D01*
X9067801Y-13893222D02*
X9067801Y-13997984D01*
X9067801Y-13893222D02*
X9077325Y-13874174D01*
X9077325Y-13874174D02*
X9096372Y-13864650D01*
X9096372Y-13864650D02*
X9124944Y-13864650D01*
X9124944Y-13864650D02*
X9143991Y-13874174D01*
X9143991Y-13874174D02*
X9153515Y-13893222D01*
X9153515Y-13893222D02*
X9153515Y-13997984D01*
X9543991Y-13788460D02*
X9372563Y-14045603D01*
X9801134Y-13797984D02*
X9820182Y-13797984D01*
X9820182Y-13797984D02*
X9839229Y-13807508D01*
X9839229Y-13807508D02*
X9848753Y-13817031D01*
X9848753Y-13817031D02*
X9858277Y-13836079D01*
X9858277Y-13836079D02*
X9867801Y-13874174D01*
X9867801Y-13874174D02*
X9867801Y-13921793D01*
X9867801Y-13921793D02*
X9858277Y-13959888D01*
X9858277Y-13959888D02*
X9848753Y-13978936D01*
X9848753Y-13978936D02*
X9839229Y-13988460D01*
X9839229Y-13988460D02*
X9820182Y-13997984D01*
X9820182Y-13997984D02*
X9801134Y-13997984D01*
X9801134Y-13997984D02*
X9782087Y-13988460D01*
X9782087Y-13988460D02*
X9772563Y-13978936D01*
X9772563Y-13978936D02*
X9763039Y-13959888D01*
X9763039Y-13959888D02*
X9753515Y-13921793D01*
X9753515Y-13921793D02*
X9753515Y-13874174D01*
X9753515Y-13874174D02*
X9763039Y-13836079D01*
X9763039Y-13836079D02*
X9772563Y-13817031D01*
X9772563Y-13817031D02*
X9782087Y-13807508D01*
X9782087Y-13807508D02*
X9801134Y-13797984D01*
X9953515Y-13978936D02*
X9963039Y-13988460D01*
X9963039Y-13988460D02*
X9953515Y-13997984D01*
X9953515Y-13997984D02*
X9943991Y-13988460D01*
X9943991Y-13988460D02*
X9953515Y-13978936D01*
X9953515Y-13978936D02*
X9953515Y-13997984D01*
X10086848Y-13797984D02*
X10105896Y-13797984D01*
X10105896Y-13797984D02*
X10124944Y-13807508D01*
X10124944Y-13807508D02*
X10134468Y-13817031D01*
X10134468Y-13817031D02*
X10143991Y-13836079D01*
X10143991Y-13836079D02*
X10153515Y-13874174D01*
X10153515Y-13874174D02*
X10153515Y-13921793D01*
X10153515Y-13921793D02*
X10143991Y-13959888D01*
X10143991Y-13959888D02*
X10134468Y-13978936D01*
X10134468Y-13978936D02*
X10124944Y-13988460D01*
X10124944Y-13988460D02*
X10105896Y-13997984D01*
X10105896Y-13997984D02*
X10086848Y-13997984D01*
X10086848Y-13997984D02*
X10067801Y-13988460D01*
X10067801Y-13988460D02*
X10058277Y-13978936D01*
X10058277Y-13978936D02*
X10048753Y-13959888D01*
X10048753Y-13959888D02*
X10039229Y-13921793D01*
X10039229Y-13921793D02*
X10039229Y-13874174D01*
X10039229Y-13874174D02*
X10048753Y-13836079D01*
X10048753Y-13836079D02*
X10058277Y-13817031D01*
X10058277Y-13817031D02*
X10067801Y-13807508D01*
X10067801Y-13807508D02*
X10086848Y-13797984D01*
X10229706Y-13817031D02*
X10239229Y-13807508D01*
X10239229Y-13807508D02*
X10258277Y-13797984D01*
X10258277Y-13797984D02*
X10305896Y-13797984D01*
X10305896Y-13797984D02*
X10324944Y-13807508D01*
X10324944Y-13807508D02*
X10334468Y-13817031D01*
X10334468Y-13817031D02*
X10343991Y-13836079D01*
X10343991Y-13836079D02*
X10343991Y-13855127D01*
X10343991Y-13855127D02*
X10334468Y-13883698D01*
X10334468Y-13883698D02*
X10220182Y-13997984D01*
X10220182Y-13997984D02*
X10343991Y-13997984D01*
X10524944Y-13797984D02*
X10429706Y-13797984D01*
X10429706Y-13797984D02*
X10420182Y-13893222D01*
X10420182Y-13893222D02*
X10429706Y-13883698D01*
X10429706Y-13883698D02*
X10448753Y-13874174D01*
X10448753Y-13874174D02*
X10496372Y-13874174D01*
X10496372Y-13874174D02*
X10515420Y-13883698D01*
X10515420Y-13883698D02*
X10524944Y-13893222D01*
X10524944Y-13893222D02*
X10534468Y-13912269D01*
X10534468Y-13912269D02*
X10534468Y-13959888D01*
X10534468Y-13959888D02*
X10524944Y-13978936D01*
X10524944Y-13978936D02*
X10515420Y-13988460D01*
X10515420Y-13988460D02*
X10496372Y-13997984D01*
X10496372Y-13997984D02*
X10448753Y-13997984D01*
X10448753Y-13997984D02*
X10429706Y-13988460D01*
X10429706Y-13988460D02*
X10420182Y-13978936D01*
X10705896Y-13797984D02*
X10667801Y-13797984D01*
X10667801Y-13797984D02*
X10648753Y-13807508D01*
X10648753Y-13807508D02*
X10639229Y-13817031D01*
X10639229Y-13817031D02*
X10620182Y-13845603D01*
X10620182Y-13845603D02*
X10610658Y-13883698D01*
X10610658Y-13883698D02*
X10610658Y-13959888D01*
X10610658Y-13959888D02*
X10620182Y-13978936D01*
X10620182Y-13978936D02*
X10629706Y-13988460D01*
X10629706Y-13988460D02*
X10648753Y-13997984D01*
X10648753Y-13997984D02*
X10686849Y-13997984D01*
X10686849Y-13997984D02*
X10705896Y-13988460D01*
X10705896Y-13988460D02*
X10715420Y-13978936D01*
X10715420Y-13978936D02*
X10724944Y-13959888D01*
X10724944Y-13959888D02*
X10724944Y-13912269D01*
X10724944Y-13912269D02*
X10715420Y-13893222D01*
X10715420Y-13893222D02*
X10705896Y-13883698D01*
X10705896Y-13883698D02*
X10686849Y-13874174D01*
X10686849Y-13874174D02*
X10648753Y-13874174D01*
X10648753Y-13874174D02*
X10629706Y-13883698D01*
X10629706Y-13883698D02*
X10620182Y-13893222D01*
X10620182Y-13893222D02*
X10610658Y-13912269D01*
X10801134Y-13797984D02*
X10801134Y-13836079D01*
X10877325Y-13797984D02*
X10877325Y-13836079D01*
X11172563Y-14074174D02*
X11163039Y-14064650D01*
X11163039Y-14064650D02*
X11143991Y-14036079D01*
X11143991Y-14036079D02*
X11134468Y-14017031D01*
X11134468Y-14017031D02*
X11124944Y-13988460D01*
X11124944Y-13988460D02*
X11115420Y-13940841D01*
X11115420Y-13940841D02*
X11115420Y-13902746D01*
X11115420Y-13902746D02*
X11124944Y-13855127D01*
X11124944Y-13855127D02*
X11134468Y-13826555D01*
X11134468Y-13826555D02*
X11143991Y-13807508D01*
X11143991Y-13807508D02*
X11163039Y-13778936D01*
X11163039Y-13778936D02*
X11172563Y-13769412D01*
X11286848Y-13797984D02*
X11305896Y-13797984D01*
X11305896Y-13797984D02*
X11324944Y-13807508D01*
X11324944Y-13807508D02*
X11334468Y-13817031D01*
X11334468Y-13817031D02*
X11343991Y-13836079D01*
X11343991Y-13836079D02*
X11353515Y-13874174D01*
X11353515Y-13874174D02*
X11353515Y-13921793D01*
X11353515Y-13921793D02*
X11343991Y-13959888D01*
X11343991Y-13959888D02*
X11334468Y-13978936D01*
X11334468Y-13978936D02*
X11324944Y-13988460D01*
X11324944Y-13988460D02*
X11305896Y-13997984D01*
X11305896Y-13997984D02*
X11286848Y-13997984D01*
X11286848Y-13997984D02*
X11267801Y-13988460D01*
X11267801Y-13988460D02*
X11258277Y-13978936D01*
X11258277Y-13978936D02*
X11248753Y-13959888D01*
X11248753Y-13959888D02*
X11239229Y-13921793D01*
X11239229Y-13921793D02*
X11239229Y-13874174D01*
X11239229Y-13874174D02*
X11248753Y-13836079D01*
X11248753Y-13836079D02*
X11258277Y-13817031D01*
X11258277Y-13817031D02*
X11267801Y-13807508D01*
X11267801Y-13807508D02*
X11286848Y-13797984D01*
X11591610Y-13997984D02*
X11591610Y-13797984D01*
X11677325Y-13997984D02*
X11677325Y-13893222D01*
X11677325Y-13893222D02*
X11667801Y-13874174D01*
X11667801Y-13874174D02*
X11648753Y-13864650D01*
X11648753Y-13864650D02*
X11620182Y-13864650D01*
X11620182Y-13864650D02*
X11601134Y-13874174D01*
X11601134Y-13874174D02*
X11591610Y-13883698D01*
X11801134Y-13997984D02*
X11782087Y-13988460D01*
X11782087Y-13988460D02*
X11772563Y-13978936D01*
X11772563Y-13978936D02*
X11763039Y-13959888D01*
X11763039Y-13959888D02*
X11763039Y-13902746D01*
X11763039Y-13902746D02*
X11772563Y-13883698D01*
X11772563Y-13883698D02*
X11782087Y-13874174D01*
X11782087Y-13874174D02*
X11801134Y-13864650D01*
X11801134Y-13864650D02*
X11829706Y-13864650D01*
X11829706Y-13864650D02*
X11848753Y-13874174D01*
X11848753Y-13874174D02*
X11858277Y-13883698D01*
X11858277Y-13883698D02*
X11867801Y-13902746D01*
X11867801Y-13902746D02*
X11867801Y-13959888D01*
X11867801Y-13959888D02*
X11858277Y-13978936D01*
X11858277Y-13978936D02*
X11848753Y-13988460D01*
X11848753Y-13988460D02*
X11829706Y-13997984D01*
X11829706Y-13997984D02*
X11801134Y-13997984D01*
X11982087Y-13997984D02*
X11963039Y-13988460D01*
X11963039Y-13988460D02*
X11953515Y-13969412D01*
X11953515Y-13969412D02*
X11953515Y-13797984D01*
X12134468Y-13988460D02*
X12115420Y-13997984D01*
X12115420Y-13997984D02*
X12077325Y-13997984D01*
X12077325Y-13997984D02*
X12058277Y-13988460D01*
X12058277Y-13988460D02*
X12048753Y-13969412D01*
X12048753Y-13969412D02*
X12048753Y-13893222D01*
X12048753Y-13893222D02*
X12058277Y-13874174D01*
X12058277Y-13874174D02*
X12077325Y-13864650D01*
X12077325Y-13864650D02*
X12115420Y-13864650D01*
X12115420Y-13864650D02*
X12134468Y-13874174D01*
X12134468Y-13874174D02*
X12143991Y-13893222D01*
X12143991Y-13893222D02*
X12143991Y-13912269D01*
X12143991Y-13912269D02*
X12048753Y-13931317D01*
X12220182Y-13988460D02*
X12239230Y-13997984D01*
X12239230Y-13997984D02*
X12277325Y-13997984D01*
X12277325Y-13997984D02*
X12296372Y-13988460D01*
X12296372Y-13988460D02*
X12305896Y-13969412D01*
X12305896Y-13969412D02*
X12305896Y-13959888D01*
X12305896Y-13959888D02*
X12296372Y-13940841D01*
X12296372Y-13940841D02*
X12277325Y-13931317D01*
X12277325Y-13931317D02*
X12248753Y-13931317D01*
X12248753Y-13931317D02*
X12229706Y-13921793D01*
X12229706Y-13921793D02*
X12220182Y-13902746D01*
X12220182Y-13902746D02*
X12220182Y-13893222D01*
X12220182Y-13893222D02*
X12229706Y-13874174D01*
X12229706Y-13874174D02*
X12248753Y-13864650D01*
X12248753Y-13864650D02*
X12277325Y-13864650D01*
X12277325Y-13864650D02*
X12296372Y-13874174D01*
X12543992Y-13921793D02*
X12696373Y-13921793D01*
X12620182Y-13997984D02*
X12620182Y-13845603D01*
X12972563Y-13883698D02*
X12953515Y-13874174D01*
X12953515Y-13874174D02*
X12943992Y-13864650D01*
X12943992Y-13864650D02*
X12934468Y-13845603D01*
X12934468Y-13845603D02*
X12934468Y-13836079D01*
X12934468Y-13836079D02*
X12943992Y-13817031D01*
X12943992Y-13817031D02*
X12953515Y-13807508D01*
X12953515Y-13807508D02*
X12972563Y-13797984D01*
X12972563Y-13797984D02*
X13010658Y-13797984D01*
X13010658Y-13797984D02*
X13029706Y-13807508D01*
X13029706Y-13807508D02*
X13039230Y-13817031D01*
X13039230Y-13817031D02*
X13048753Y-13836079D01*
X13048753Y-13836079D02*
X13048753Y-13845603D01*
X13048753Y-13845603D02*
X13039230Y-13864650D01*
X13039230Y-13864650D02*
X13029706Y-13874174D01*
X13029706Y-13874174D02*
X13010658Y-13883698D01*
X13010658Y-13883698D02*
X12972563Y-13883698D01*
X12972563Y-13883698D02*
X12953515Y-13893222D01*
X12953515Y-13893222D02*
X12943992Y-13902746D01*
X12943992Y-13902746D02*
X12934468Y-13921793D01*
X12934468Y-13921793D02*
X12934468Y-13959888D01*
X12934468Y-13959888D02*
X12943992Y-13978936D01*
X12943992Y-13978936D02*
X12953515Y-13988460D01*
X12953515Y-13988460D02*
X12972563Y-13997984D01*
X12972563Y-13997984D02*
X13010658Y-13997984D01*
X13010658Y-13997984D02*
X13029706Y-13988460D01*
X13029706Y-13988460D02*
X13039230Y-13978936D01*
X13039230Y-13978936D02*
X13048753Y-13959888D01*
X13048753Y-13959888D02*
X13048753Y-13921793D01*
X13048753Y-13921793D02*
X13039230Y-13902746D01*
X13039230Y-13902746D02*
X13029706Y-13893222D01*
X13029706Y-13893222D02*
X13010658Y-13883698D01*
X13277325Y-13988460D02*
X13296373Y-13997984D01*
X13296373Y-13997984D02*
X13334468Y-13997984D01*
X13334468Y-13997984D02*
X13353515Y-13988460D01*
X13353515Y-13988460D02*
X13363039Y-13969412D01*
X13363039Y-13969412D02*
X13363039Y-13959888D01*
X13363039Y-13959888D02*
X13353515Y-13940841D01*
X13353515Y-13940841D02*
X13334468Y-13931317D01*
X13334468Y-13931317D02*
X13305896Y-13931317D01*
X13305896Y-13931317D02*
X13286849Y-13921793D01*
X13286849Y-13921793D02*
X13277325Y-13902746D01*
X13277325Y-13902746D02*
X13277325Y-13893222D01*
X13277325Y-13893222D02*
X13286849Y-13874174D01*
X13286849Y-13874174D02*
X13305896Y-13864650D01*
X13305896Y-13864650D02*
X13334468Y-13864650D01*
X13334468Y-13864650D02*
X13353515Y-13874174D01*
X13477325Y-13997984D02*
X13458277Y-13988460D01*
X13458277Y-13988460D02*
X13448754Y-13969412D01*
X13448754Y-13969412D02*
X13448754Y-13797984D01*
X13582087Y-13997984D02*
X13563039Y-13988460D01*
X13563039Y-13988460D02*
X13553515Y-13978936D01*
X13553515Y-13978936D02*
X13543992Y-13959888D01*
X13543992Y-13959888D02*
X13543992Y-13902746D01*
X13543992Y-13902746D02*
X13553515Y-13883698D01*
X13553515Y-13883698D02*
X13563039Y-13874174D01*
X13563039Y-13874174D02*
X13582087Y-13864650D01*
X13582087Y-13864650D02*
X13610658Y-13864650D01*
X13610658Y-13864650D02*
X13629706Y-13874174D01*
X13629706Y-13874174D02*
X13639230Y-13883698D01*
X13639230Y-13883698D02*
X13648754Y-13902746D01*
X13648754Y-13902746D02*
X13648754Y-13959888D01*
X13648754Y-13959888D02*
X13639230Y-13978936D01*
X13639230Y-13978936D02*
X13629706Y-13988460D01*
X13629706Y-13988460D02*
X13610658Y-13997984D01*
X13610658Y-13997984D02*
X13582087Y-13997984D01*
X13705896Y-13864650D02*
X13782087Y-13864650D01*
X13734468Y-13797984D02*
X13734468Y-13969412D01*
X13734468Y-13969412D02*
X13743992Y-13988460D01*
X13743992Y-13988460D02*
X13763039Y-13997984D01*
X13763039Y-13997984D02*
X13782087Y-13997984D01*
X13839230Y-13988460D02*
X13858277Y-13997984D01*
X13858277Y-13997984D02*
X13896373Y-13997984D01*
X13896373Y-13997984D02*
X13915420Y-13988460D01*
X13915420Y-13988460D02*
X13924944Y-13969412D01*
X13924944Y-13969412D02*
X13924944Y-13959888D01*
X13924944Y-13959888D02*
X13915420Y-13940841D01*
X13915420Y-13940841D02*
X13896373Y-13931317D01*
X13896373Y-13931317D02*
X13867801Y-13931317D01*
X13867801Y-13931317D02*
X13848754Y-13921793D01*
X13848754Y-13921793D02*
X13839230Y-13902746D01*
X13839230Y-13902746D02*
X13839230Y-13893222D01*
X13839230Y-13893222D02*
X13848754Y-13874174D01*
X13848754Y-13874174D02*
X13867801Y-13864650D01*
X13867801Y-13864650D02*
X13896373Y-13864650D01*
X13896373Y-13864650D02*
X13915420Y-13874174D01*
X13991611Y-14074174D02*
X14001135Y-14064650D01*
X14001135Y-14064650D02*
X14020182Y-14036079D01*
X14020182Y-14036079D02*
X14029706Y-14017031D01*
X14029706Y-14017031D02*
X14039230Y-13988460D01*
X14039230Y-13988460D02*
X14048754Y-13940841D01*
X14048754Y-13940841D02*
X14048754Y-13902746D01*
X14048754Y-13902746D02*
X14039230Y-13855127D01*
X14039230Y-13855127D02*
X14029706Y-13826555D01*
X14029706Y-13826555D02*
X14020182Y-13807508D01*
X14020182Y-13807508D02*
X14001135Y-13778936D01*
X14001135Y-13778936D02*
X13991611Y-13769412D01*
D11*
X7547500Y-14120500D02*
X7547500Y-14220500D01*
X7497500Y-14170500D02*
X7597500Y-14170500D01*
D12*
X7963039Y-14261984D02*
X7848753Y-14261984D01*
X7905896Y-14261984D02*
X7905896Y-14061984D01*
X7905896Y-14061984D02*
X7886848Y-14090555D01*
X7886848Y-14090555D02*
X7867801Y-14109603D01*
X7867801Y-14109603D02*
X7848753Y-14119127D01*
X8048753Y-14242936D02*
X8058277Y-14252460D01*
X8058277Y-14252460D02*
X8048753Y-14261984D01*
X8048753Y-14261984D02*
X8039229Y-14252460D01*
X8039229Y-14252460D02*
X8048753Y-14242936D01*
X8048753Y-14242936D02*
X8048753Y-14261984D01*
X8182086Y-14061984D02*
X8201134Y-14061984D01*
X8201134Y-14061984D02*
X8220182Y-14071508D01*
X8220182Y-14071508D02*
X8229705Y-14081031D01*
X8229705Y-14081031D02*
X8239229Y-14100079D01*
X8239229Y-14100079D02*
X8248753Y-14138174D01*
X8248753Y-14138174D02*
X8248753Y-14185793D01*
X8248753Y-14185793D02*
X8239229Y-14223888D01*
X8239229Y-14223888D02*
X8229705Y-14242936D01*
X8229705Y-14242936D02*
X8220182Y-14252460D01*
X8220182Y-14252460D02*
X8201134Y-14261984D01*
X8201134Y-14261984D02*
X8182086Y-14261984D01*
X8182086Y-14261984D02*
X8163039Y-14252460D01*
X8163039Y-14252460D02*
X8153515Y-14242936D01*
X8153515Y-14242936D02*
X8143991Y-14223888D01*
X8143991Y-14223888D02*
X8134467Y-14185793D01*
X8134467Y-14185793D02*
X8134467Y-14138174D01*
X8134467Y-14138174D02*
X8143991Y-14100079D01*
X8143991Y-14100079D02*
X8153515Y-14081031D01*
X8153515Y-14081031D02*
X8163039Y-14071508D01*
X8163039Y-14071508D02*
X8182086Y-14061984D01*
X8372562Y-14061984D02*
X8391610Y-14061984D01*
X8391610Y-14061984D02*
X8410658Y-14071508D01*
X8410658Y-14071508D02*
X8420182Y-14081031D01*
X8420182Y-14081031D02*
X8429705Y-14100079D01*
X8429705Y-14100079D02*
X8439229Y-14138174D01*
X8439229Y-14138174D02*
X8439229Y-14185793D01*
X8439229Y-14185793D02*
X8429705Y-14223888D01*
X8429705Y-14223888D02*
X8420182Y-14242936D01*
X8420182Y-14242936D02*
X8410658Y-14252460D01*
X8410658Y-14252460D02*
X8391610Y-14261984D01*
X8391610Y-14261984D02*
X8372562Y-14261984D01*
X8372562Y-14261984D02*
X8353515Y-14252460D01*
X8353515Y-14252460D02*
X8343991Y-14242936D01*
X8343991Y-14242936D02*
X8334467Y-14223888D01*
X8334467Y-14223888D02*
X8324943Y-14185793D01*
X8324943Y-14185793D02*
X8324943Y-14138174D01*
X8324943Y-14138174D02*
X8334467Y-14100079D01*
X8334467Y-14100079D02*
X8343991Y-14081031D01*
X8343991Y-14081031D02*
X8353515Y-14071508D01*
X8353515Y-14071508D02*
X8372562Y-14061984D01*
X8563039Y-14061984D02*
X8582086Y-14061984D01*
X8582086Y-14061984D02*
X8601134Y-14071508D01*
X8601134Y-14071508D02*
X8610658Y-14081031D01*
X8610658Y-14081031D02*
X8620182Y-14100079D01*
X8620182Y-14100079D02*
X8629705Y-14138174D01*
X8629705Y-14138174D02*
X8629705Y-14185793D01*
X8629705Y-14185793D02*
X8620182Y-14223888D01*
X8620182Y-14223888D02*
X8610658Y-14242936D01*
X8610658Y-14242936D02*
X8601134Y-14252460D01*
X8601134Y-14252460D02*
X8582086Y-14261984D01*
X8582086Y-14261984D02*
X8563039Y-14261984D01*
X8563039Y-14261984D02*
X8543991Y-14252460D01*
X8543991Y-14252460D02*
X8534467Y-14242936D01*
X8534467Y-14242936D02*
X8524944Y-14223888D01*
X8524944Y-14223888D02*
X8515420Y-14185793D01*
X8515420Y-14185793D02*
X8515420Y-14138174D01*
X8515420Y-14138174D02*
X8524944Y-14100079D01*
X8524944Y-14100079D02*
X8534467Y-14081031D01*
X8534467Y-14081031D02*
X8543991Y-14071508D01*
X8543991Y-14071508D02*
X8563039Y-14061984D01*
X8715420Y-14261984D02*
X8715420Y-14128650D01*
X8715420Y-14147698D02*
X8724944Y-14138174D01*
X8724944Y-14138174D02*
X8743991Y-14128650D01*
X8743991Y-14128650D02*
X8772563Y-14128650D01*
X8772563Y-14128650D02*
X8791610Y-14138174D01*
X8791610Y-14138174D02*
X8801134Y-14157222D01*
X8801134Y-14157222D02*
X8801134Y-14261984D01*
X8801134Y-14157222D02*
X8810658Y-14138174D01*
X8810658Y-14138174D02*
X8829705Y-14128650D01*
X8829705Y-14128650D02*
X8858277Y-14128650D01*
X8858277Y-14128650D02*
X8877325Y-14138174D01*
X8877325Y-14138174D02*
X8886848Y-14157222D01*
X8886848Y-14157222D02*
X8886848Y-14261984D01*
X8982086Y-14261984D02*
X8982086Y-14128650D01*
X8982086Y-14147698D02*
X8991610Y-14138174D01*
X8991610Y-14138174D02*
X9010658Y-14128650D01*
X9010658Y-14128650D02*
X9039229Y-14128650D01*
X9039229Y-14128650D02*
X9058277Y-14138174D01*
X9058277Y-14138174D02*
X9067801Y-14157222D01*
X9067801Y-14157222D02*
X9067801Y-14261984D01*
X9067801Y-14157222D02*
X9077325Y-14138174D01*
X9077325Y-14138174D02*
X9096372Y-14128650D01*
X9096372Y-14128650D02*
X9124944Y-14128650D01*
X9124944Y-14128650D02*
X9143991Y-14138174D01*
X9143991Y-14138174D02*
X9153515Y-14157222D01*
X9153515Y-14157222D02*
X9153515Y-14261984D01*
X9543991Y-14052460D02*
X9372563Y-14309603D01*
X9801134Y-14061984D02*
X9820182Y-14061984D01*
X9820182Y-14061984D02*
X9839229Y-14071508D01*
X9839229Y-14071508D02*
X9848753Y-14081031D01*
X9848753Y-14081031D02*
X9858277Y-14100079D01*
X9858277Y-14100079D02*
X9867801Y-14138174D01*
X9867801Y-14138174D02*
X9867801Y-14185793D01*
X9867801Y-14185793D02*
X9858277Y-14223888D01*
X9858277Y-14223888D02*
X9848753Y-14242936D01*
X9848753Y-14242936D02*
X9839229Y-14252460D01*
X9839229Y-14252460D02*
X9820182Y-14261984D01*
X9820182Y-14261984D02*
X9801134Y-14261984D01*
X9801134Y-14261984D02*
X9782087Y-14252460D01*
X9782087Y-14252460D02*
X9772563Y-14242936D01*
X9772563Y-14242936D02*
X9763039Y-14223888D01*
X9763039Y-14223888D02*
X9753515Y-14185793D01*
X9753515Y-14185793D02*
X9753515Y-14138174D01*
X9753515Y-14138174D02*
X9763039Y-14100079D01*
X9763039Y-14100079D02*
X9772563Y-14081031D01*
X9772563Y-14081031D02*
X9782087Y-14071508D01*
X9782087Y-14071508D02*
X9801134Y-14061984D01*
X9953515Y-14242936D02*
X9963039Y-14252460D01*
X9963039Y-14252460D02*
X9953515Y-14261984D01*
X9953515Y-14261984D02*
X9943991Y-14252460D01*
X9943991Y-14252460D02*
X9953515Y-14242936D01*
X9953515Y-14242936D02*
X9953515Y-14261984D01*
X10086848Y-14061984D02*
X10105896Y-14061984D01*
X10105896Y-14061984D02*
X10124944Y-14071508D01*
X10124944Y-14071508D02*
X10134468Y-14081031D01*
X10134468Y-14081031D02*
X10143991Y-14100079D01*
X10143991Y-14100079D02*
X10153515Y-14138174D01*
X10153515Y-14138174D02*
X10153515Y-14185793D01*
X10153515Y-14185793D02*
X10143991Y-14223888D01*
X10143991Y-14223888D02*
X10134468Y-14242936D01*
X10134468Y-14242936D02*
X10124944Y-14252460D01*
X10124944Y-14252460D02*
X10105896Y-14261984D01*
X10105896Y-14261984D02*
X10086848Y-14261984D01*
X10086848Y-14261984D02*
X10067801Y-14252460D01*
X10067801Y-14252460D02*
X10058277Y-14242936D01*
X10058277Y-14242936D02*
X10048753Y-14223888D01*
X10048753Y-14223888D02*
X10039229Y-14185793D01*
X10039229Y-14185793D02*
X10039229Y-14138174D01*
X10039229Y-14138174D02*
X10048753Y-14100079D01*
X10048753Y-14100079D02*
X10058277Y-14081031D01*
X10058277Y-14081031D02*
X10067801Y-14071508D01*
X10067801Y-14071508D02*
X10086848Y-14061984D01*
X10220182Y-14061984D02*
X10343991Y-14061984D01*
X10343991Y-14061984D02*
X10277325Y-14138174D01*
X10277325Y-14138174D02*
X10305896Y-14138174D01*
X10305896Y-14138174D02*
X10324944Y-14147698D01*
X10324944Y-14147698D02*
X10334468Y-14157222D01*
X10334468Y-14157222D02*
X10343991Y-14176269D01*
X10343991Y-14176269D02*
X10343991Y-14223888D01*
X10343991Y-14223888D02*
X10334468Y-14242936D01*
X10334468Y-14242936D02*
X10324944Y-14252460D01*
X10324944Y-14252460D02*
X10305896Y-14261984D01*
X10305896Y-14261984D02*
X10248753Y-14261984D01*
X10248753Y-14261984D02*
X10229706Y-14252460D01*
X10229706Y-14252460D02*
X10220182Y-14242936D01*
X10439229Y-14261984D02*
X10477325Y-14261984D01*
X10477325Y-14261984D02*
X10496372Y-14252460D01*
X10496372Y-14252460D02*
X10505896Y-14242936D01*
X10505896Y-14242936D02*
X10524944Y-14214365D01*
X10524944Y-14214365D02*
X10534468Y-14176269D01*
X10534468Y-14176269D02*
X10534468Y-14100079D01*
X10534468Y-14100079D02*
X10524944Y-14081031D01*
X10524944Y-14081031D02*
X10515420Y-14071508D01*
X10515420Y-14071508D02*
X10496372Y-14061984D01*
X10496372Y-14061984D02*
X10458277Y-14061984D01*
X10458277Y-14061984D02*
X10439229Y-14071508D01*
X10439229Y-14071508D02*
X10429706Y-14081031D01*
X10429706Y-14081031D02*
X10420182Y-14100079D01*
X10420182Y-14100079D02*
X10420182Y-14147698D01*
X10420182Y-14147698D02*
X10429706Y-14166746D01*
X10429706Y-14166746D02*
X10439229Y-14176269D01*
X10439229Y-14176269D02*
X10458277Y-14185793D01*
X10458277Y-14185793D02*
X10496372Y-14185793D01*
X10496372Y-14185793D02*
X10515420Y-14176269D01*
X10515420Y-14176269D02*
X10524944Y-14166746D01*
X10524944Y-14166746D02*
X10534468Y-14147698D01*
X10705896Y-14128650D02*
X10705896Y-14261984D01*
X10658277Y-14052460D02*
X10610658Y-14195317D01*
X10610658Y-14195317D02*
X10734468Y-14195317D01*
X10801134Y-14061984D02*
X10801134Y-14100079D01*
X10877325Y-14061984D02*
X10877325Y-14100079D01*
X11172563Y-14338174D02*
X11163039Y-14328650D01*
X11163039Y-14328650D02*
X11143991Y-14300079D01*
X11143991Y-14300079D02*
X11134468Y-14281031D01*
X11134468Y-14281031D02*
X11124944Y-14252460D01*
X11124944Y-14252460D02*
X11115420Y-14204841D01*
X11115420Y-14204841D02*
X11115420Y-14166746D01*
X11115420Y-14166746D02*
X11124944Y-14119127D01*
X11124944Y-14119127D02*
X11134468Y-14090555D01*
X11134468Y-14090555D02*
X11143991Y-14071508D01*
X11143991Y-14071508D02*
X11163039Y-14042936D01*
X11163039Y-14042936D02*
X11172563Y-14033412D01*
X11353515Y-14261984D02*
X11239229Y-14261984D01*
X11296372Y-14261984D02*
X11296372Y-14061984D01*
X11296372Y-14061984D02*
X11277325Y-14090555D01*
X11277325Y-14090555D02*
X11258277Y-14109603D01*
X11258277Y-14109603D02*
X11239229Y-14119127D01*
X11467801Y-14147698D02*
X11448753Y-14138174D01*
X11448753Y-14138174D02*
X11439229Y-14128650D01*
X11439229Y-14128650D02*
X11429706Y-14109603D01*
X11429706Y-14109603D02*
X11429706Y-14100079D01*
X11429706Y-14100079D02*
X11439229Y-14081031D01*
X11439229Y-14081031D02*
X11448753Y-14071508D01*
X11448753Y-14071508D02*
X11467801Y-14061984D01*
X11467801Y-14061984D02*
X11505896Y-14061984D01*
X11505896Y-14061984D02*
X11524944Y-14071508D01*
X11524944Y-14071508D02*
X11534468Y-14081031D01*
X11534468Y-14081031D02*
X11543991Y-14100079D01*
X11543991Y-14100079D02*
X11543991Y-14109603D01*
X11543991Y-14109603D02*
X11534468Y-14128650D01*
X11534468Y-14128650D02*
X11524944Y-14138174D01*
X11524944Y-14138174D02*
X11505896Y-14147698D01*
X11505896Y-14147698D02*
X11467801Y-14147698D01*
X11467801Y-14147698D02*
X11448753Y-14157222D01*
X11448753Y-14157222D02*
X11439229Y-14166746D01*
X11439229Y-14166746D02*
X11429706Y-14185793D01*
X11429706Y-14185793D02*
X11429706Y-14223888D01*
X11429706Y-14223888D02*
X11439229Y-14242936D01*
X11439229Y-14242936D02*
X11448753Y-14252460D01*
X11448753Y-14252460D02*
X11467801Y-14261984D01*
X11467801Y-14261984D02*
X11505896Y-14261984D01*
X11505896Y-14261984D02*
X11524944Y-14252460D01*
X11524944Y-14252460D02*
X11534468Y-14242936D01*
X11534468Y-14242936D02*
X11543991Y-14223888D01*
X11543991Y-14223888D02*
X11543991Y-14185793D01*
X11543991Y-14185793D02*
X11534468Y-14166746D01*
X11534468Y-14166746D02*
X11524944Y-14157222D01*
X11524944Y-14157222D02*
X11505896Y-14147698D01*
X11782087Y-14261984D02*
X11782087Y-14061984D01*
X11867801Y-14261984D02*
X11867801Y-14157222D01*
X11867801Y-14157222D02*
X11858277Y-14138174D01*
X11858277Y-14138174D02*
X11839230Y-14128650D01*
X11839230Y-14128650D02*
X11810658Y-14128650D01*
X11810658Y-14128650D02*
X11791610Y-14138174D01*
X11791610Y-14138174D02*
X11782087Y-14147698D01*
X11991610Y-14261984D02*
X11972563Y-14252460D01*
X11972563Y-14252460D02*
X11963039Y-14242936D01*
X11963039Y-14242936D02*
X11953515Y-14223888D01*
X11953515Y-14223888D02*
X11953515Y-14166746D01*
X11953515Y-14166746D02*
X11963039Y-14147698D01*
X11963039Y-14147698D02*
X11972563Y-14138174D01*
X11972563Y-14138174D02*
X11991610Y-14128650D01*
X11991610Y-14128650D02*
X12020182Y-14128650D01*
X12020182Y-14128650D02*
X12039230Y-14138174D01*
X12039230Y-14138174D02*
X12048753Y-14147698D01*
X12048753Y-14147698D02*
X12058277Y-14166746D01*
X12058277Y-14166746D02*
X12058277Y-14223888D01*
X12058277Y-14223888D02*
X12048753Y-14242936D01*
X12048753Y-14242936D02*
X12039230Y-14252460D01*
X12039230Y-14252460D02*
X12020182Y-14261984D01*
X12020182Y-14261984D02*
X11991610Y-14261984D01*
X12172563Y-14261984D02*
X12153515Y-14252460D01*
X12153515Y-14252460D02*
X12143991Y-14233412D01*
X12143991Y-14233412D02*
X12143991Y-14061984D01*
X12324944Y-14252460D02*
X12305896Y-14261984D01*
X12305896Y-14261984D02*
X12267801Y-14261984D01*
X12267801Y-14261984D02*
X12248753Y-14252460D01*
X12248753Y-14252460D02*
X12239230Y-14233412D01*
X12239230Y-14233412D02*
X12239230Y-14157222D01*
X12239230Y-14157222D02*
X12248753Y-14138174D01*
X12248753Y-14138174D02*
X12267801Y-14128650D01*
X12267801Y-14128650D02*
X12305896Y-14128650D01*
X12305896Y-14128650D02*
X12324944Y-14138174D01*
X12324944Y-14138174D02*
X12334468Y-14157222D01*
X12334468Y-14157222D02*
X12334468Y-14176269D01*
X12334468Y-14176269D02*
X12239230Y-14195317D01*
X12410658Y-14252460D02*
X12429706Y-14261984D01*
X12429706Y-14261984D02*
X12467801Y-14261984D01*
X12467801Y-14261984D02*
X12486849Y-14252460D01*
X12486849Y-14252460D02*
X12496372Y-14233412D01*
X12496372Y-14233412D02*
X12496372Y-14223888D01*
X12496372Y-14223888D02*
X12486849Y-14204841D01*
X12486849Y-14204841D02*
X12467801Y-14195317D01*
X12467801Y-14195317D02*
X12439230Y-14195317D01*
X12439230Y-14195317D02*
X12420182Y-14185793D01*
X12420182Y-14185793D02*
X12410658Y-14166746D01*
X12410658Y-14166746D02*
X12410658Y-14157222D01*
X12410658Y-14157222D02*
X12420182Y-14138174D01*
X12420182Y-14138174D02*
X12439230Y-14128650D01*
X12439230Y-14128650D02*
X12467801Y-14128650D01*
X12467801Y-14128650D02*
X12486849Y-14138174D01*
X12563039Y-14338174D02*
X12572563Y-14328650D01*
X12572563Y-14328650D02*
X12591611Y-14300079D01*
X12591611Y-14300079D02*
X12601134Y-14281031D01*
X12601134Y-14281031D02*
X12610658Y-14252460D01*
X12610658Y-14252460D02*
X12620182Y-14204841D01*
X12620182Y-14204841D02*
X12620182Y-14166746D01*
X12620182Y-14166746D02*
X12610658Y-14119127D01*
X12610658Y-14119127D02*
X12601134Y-14090555D01*
X12601134Y-14090555D02*
X12591611Y-14071508D01*
X12591611Y-14071508D02*
X12572563Y-14042936D01*
X12572563Y-14042936D02*
X12563039Y-14033412D01*
D13*
X7571140Y-14498140D02*
X7571140Y-14370860D01*
X7443860Y-14370860D01*
X7443860Y-14498140D01*
X7571140Y-14498140D01*
D12*
X7963039Y-14525984D02*
X7848753Y-14525984D01*
X7905896Y-14525984D02*
X7905896Y-14325984D01*
X7905896Y-14325984D02*
X7886848Y-14354555D01*
X7886848Y-14354555D02*
X7867801Y-14373603D01*
X7867801Y-14373603D02*
X7848753Y-14383127D01*
X8048753Y-14506936D02*
X8058277Y-14516460D01*
X8058277Y-14516460D02*
X8048753Y-14525984D01*
X8048753Y-14525984D02*
X8039229Y-14516460D01*
X8039229Y-14516460D02*
X8048753Y-14506936D01*
X8048753Y-14506936D02*
X8048753Y-14525984D01*
X8172562Y-14411698D02*
X8153515Y-14402174D01*
X8153515Y-14402174D02*
X8143991Y-14392650D01*
X8143991Y-14392650D02*
X8134467Y-14373603D01*
X8134467Y-14373603D02*
X8134467Y-14364079D01*
X8134467Y-14364079D02*
X8143991Y-14345031D01*
X8143991Y-14345031D02*
X8153515Y-14335508D01*
X8153515Y-14335508D02*
X8172562Y-14325984D01*
X8172562Y-14325984D02*
X8210658Y-14325984D01*
X8210658Y-14325984D02*
X8229705Y-14335508D01*
X8229705Y-14335508D02*
X8239229Y-14345031D01*
X8239229Y-14345031D02*
X8248753Y-14364079D01*
X8248753Y-14364079D02*
X8248753Y-14373603D01*
X8248753Y-14373603D02*
X8239229Y-14392650D01*
X8239229Y-14392650D02*
X8229705Y-14402174D01*
X8229705Y-14402174D02*
X8210658Y-14411698D01*
X8210658Y-14411698D02*
X8172562Y-14411698D01*
X8172562Y-14411698D02*
X8153515Y-14421222D01*
X8153515Y-14421222D02*
X8143991Y-14430746D01*
X8143991Y-14430746D02*
X8134467Y-14449793D01*
X8134467Y-14449793D02*
X8134467Y-14487888D01*
X8134467Y-14487888D02*
X8143991Y-14506936D01*
X8143991Y-14506936D02*
X8153515Y-14516460D01*
X8153515Y-14516460D02*
X8172562Y-14525984D01*
X8172562Y-14525984D02*
X8210658Y-14525984D01*
X8210658Y-14525984D02*
X8229705Y-14516460D01*
X8229705Y-14516460D02*
X8239229Y-14506936D01*
X8239229Y-14506936D02*
X8248753Y-14487888D01*
X8248753Y-14487888D02*
X8248753Y-14449793D01*
X8248753Y-14449793D02*
X8239229Y-14430746D01*
X8239229Y-14430746D02*
X8229705Y-14421222D01*
X8229705Y-14421222D02*
X8210658Y-14411698D01*
X8372562Y-14325984D02*
X8391610Y-14325984D01*
X8391610Y-14325984D02*
X8410658Y-14335508D01*
X8410658Y-14335508D02*
X8420182Y-14345031D01*
X8420182Y-14345031D02*
X8429705Y-14364079D01*
X8429705Y-14364079D02*
X8439229Y-14402174D01*
X8439229Y-14402174D02*
X8439229Y-14449793D01*
X8439229Y-14449793D02*
X8429705Y-14487888D01*
X8429705Y-14487888D02*
X8420182Y-14506936D01*
X8420182Y-14506936D02*
X8410658Y-14516460D01*
X8410658Y-14516460D02*
X8391610Y-14525984D01*
X8391610Y-14525984D02*
X8372562Y-14525984D01*
X8372562Y-14525984D02*
X8353515Y-14516460D01*
X8353515Y-14516460D02*
X8343991Y-14506936D01*
X8343991Y-14506936D02*
X8334467Y-14487888D01*
X8334467Y-14487888D02*
X8324943Y-14449793D01*
X8324943Y-14449793D02*
X8324943Y-14402174D01*
X8324943Y-14402174D02*
X8334467Y-14364079D01*
X8334467Y-14364079D02*
X8343991Y-14345031D01*
X8343991Y-14345031D02*
X8353515Y-14335508D01*
X8353515Y-14335508D02*
X8372562Y-14325984D01*
X8563039Y-14325984D02*
X8582086Y-14325984D01*
X8582086Y-14325984D02*
X8601134Y-14335508D01*
X8601134Y-14335508D02*
X8610658Y-14345031D01*
X8610658Y-14345031D02*
X8620182Y-14364079D01*
X8620182Y-14364079D02*
X8629705Y-14402174D01*
X8629705Y-14402174D02*
X8629705Y-14449793D01*
X8629705Y-14449793D02*
X8620182Y-14487888D01*
X8620182Y-14487888D02*
X8610658Y-14506936D01*
X8610658Y-14506936D02*
X8601134Y-14516460D01*
X8601134Y-14516460D02*
X8582086Y-14525984D01*
X8582086Y-14525984D02*
X8563039Y-14525984D01*
X8563039Y-14525984D02*
X8543991Y-14516460D01*
X8543991Y-14516460D02*
X8534467Y-14506936D01*
X8534467Y-14506936D02*
X8524944Y-14487888D01*
X8524944Y-14487888D02*
X8515420Y-14449793D01*
X8515420Y-14449793D02*
X8515420Y-14402174D01*
X8515420Y-14402174D02*
X8524944Y-14364079D01*
X8524944Y-14364079D02*
X8534467Y-14345031D01*
X8534467Y-14345031D02*
X8543991Y-14335508D01*
X8543991Y-14335508D02*
X8563039Y-14325984D01*
X8715420Y-14525984D02*
X8715420Y-14392650D01*
X8715420Y-14411698D02*
X8724944Y-14402174D01*
X8724944Y-14402174D02*
X8743991Y-14392650D01*
X8743991Y-14392650D02*
X8772563Y-14392650D01*
X8772563Y-14392650D02*
X8791610Y-14402174D01*
X8791610Y-14402174D02*
X8801134Y-14421222D01*
X8801134Y-14421222D02*
X8801134Y-14525984D01*
X8801134Y-14421222D02*
X8810658Y-14402174D01*
X8810658Y-14402174D02*
X8829705Y-14392650D01*
X8829705Y-14392650D02*
X8858277Y-14392650D01*
X8858277Y-14392650D02*
X8877325Y-14402174D01*
X8877325Y-14402174D02*
X8886848Y-14421222D01*
X8886848Y-14421222D02*
X8886848Y-14525984D01*
X8982086Y-14525984D02*
X8982086Y-14392650D01*
X8982086Y-14411698D02*
X8991610Y-14402174D01*
X8991610Y-14402174D02*
X9010658Y-14392650D01*
X9010658Y-14392650D02*
X9039229Y-14392650D01*
X9039229Y-14392650D02*
X9058277Y-14402174D01*
X9058277Y-14402174D02*
X9067801Y-14421222D01*
X9067801Y-14421222D02*
X9067801Y-14525984D01*
X9067801Y-14421222D02*
X9077325Y-14402174D01*
X9077325Y-14402174D02*
X9096372Y-14392650D01*
X9096372Y-14392650D02*
X9124944Y-14392650D01*
X9124944Y-14392650D02*
X9143991Y-14402174D01*
X9143991Y-14402174D02*
X9153515Y-14421222D01*
X9153515Y-14421222D02*
X9153515Y-14525984D01*
X9543991Y-14316460D02*
X9372563Y-14573603D01*
X9801134Y-14325984D02*
X9820182Y-14325984D01*
X9820182Y-14325984D02*
X9839229Y-14335508D01*
X9839229Y-14335508D02*
X9848753Y-14345031D01*
X9848753Y-14345031D02*
X9858277Y-14364079D01*
X9858277Y-14364079D02*
X9867801Y-14402174D01*
X9867801Y-14402174D02*
X9867801Y-14449793D01*
X9867801Y-14449793D02*
X9858277Y-14487888D01*
X9858277Y-14487888D02*
X9848753Y-14506936D01*
X9848753Y-14506936D02*
X9839229Y-14516460D01*
X9839229Y-14516460D02*
X9820182Y-14525984D01*
X9820182Y-14525984D02*
X9801134Y-14525984D01*
X9801134Y-14525984D02*
X9782087Y-14516460D01*
X9782087Y-14516460D02*
X9772563Y-14506936D01*
X9772563Y-14506936D02*
X9763039Y-14487888D01*
X9763039Y-14487888D02*
X9753515Y-14449793D01*
X9753515Y-14449793D02*
X9753515Y-14402174D01*
X9753515Y-14402174D02*
X9763039Y-14364079D01*
X9763039Y-14364079D02*
X9772563Y-14345031D01*
X9772563Y-14345031D02*
X9782087Y-14335508D01*
X9782087Y-14335508D02*
X9801134Y-14325984D01*
X9953515Y-14506936D02*
X9963039Y-14516460D01*
X9963039Y-14516460D02*
X9953515Y-14525984D01*
X9953515Y-14525984D02*
X9943991Y-14516460D01*
X9943991Y-14516460D02*
X9953515Y-14506936D01*
X9953515Y-14506936D02*
X9953515Y-14525984D01*
X10086848Y-14325984D02*
X10105896Y-14325984D01*
X10105896Y-14325984D02*
X10124944Y-14335508D01*
X10124944Y-14335508D02*
X10134468Y-14345031D01*
X10134468Y-14345031D02*
X10143991Y-14364079D01*
X10143991Y-14364079D02*
X10153515Y-14402174D01*
X10153515Y-14402174D02*
X10153515Y-14449793D01*
X10153515Y-14449793D02*
X10143991Y-14487888D01*
X10143991Y-14487888D02*
X10134468Y-14506936D01*
X10134468Y-14506936D02*
X10124944Y-14516460D01*
X10124944Y-14516460D02*
X10105896Y-14525984D01*
X10105896Y-14525984D02*
X10086848Y-14525984D01*
X10086848Y-14525984D02*
X10067801Y-14516460D01*
X10067801Y-14516460D02*
X10058277Y-14506936D01*
X10058277Y-14506936D02*
X10048753Y-14487888D01*
X10048753Y-14487888D02*
X10039229Y-14449793D01*
X10039229Y-14449793D02*
X10039229Y-14402174D01*
X10039229Y-14402174D02*
X10048753Y-14364079D01*
X10048753Y-14364079D02*
X10058277Y-14345031D01*
X10058277Y-14345031D02*
X10067801Y-14335508D01*
X10067801Y-14335508D02*
X10086848Y-14325984D01*
X10220182Y-14325984D02*
X10353515Y-14325984D01*
X10353515Y-14325984D02*
X10267801Y-14525984D01*
X10467801Y-14325984D02*
X10486849Y-14325984D01*
X10486849Y-14325984D02*
X10505896Y-14335508D01*
X10505896Y-14335508D02*
X10515420Y-14345031D01*
X10515420Y-14345031D02*
X10524944Y-14364079D01*
X10524944Y-14364079D02*
X10534468Y-14402174D01*
X10534468Y-14402174D02*
X10534468Y-14449793D01*
X10534468Y-14449793D02*
X10524944Y-14487888D01*
X10524944Y-14487888D02*
X10515420Y-14506936D01*
X10515420Y-14506936D02*
X10505896Y-14516460D01*
X10505896Y-14516460D02*
X10486849Y-14525984D01*
X10486849Y-14525984D02*
X10467801Y-14525984D01*
X10467801Y-14525984D02*
X10448753Y-14516460D01*
X10448753Y-14516460D02*
X10439229Y-14506936D01*
X10439229Y-14506936D02*
X10429706Y-14487888D01*
X10429706Y-14487888D02*
X10420182Y-14449793D01*
X10420182Y-14449793D02*
X10420182Y-14402174D01*
X10420182Y-14402174D02*
X10429706Y-14364079D01*
X10429706Y-14364079D02*
X10439229Y-14345031D01*
X10439229Y-14345031D02*
X10448753Y-14335508D01*
X10448753Y-14335508D02*
X10467801Y-14325984D01*
X10629706Y-14525984D02*
X10667801Y-14525984D01*
X10667801Y-14525984D02*
X10686849Y-14516460D01*
X10686849Y-14516460D02*
X10696372Y-14506936D01*
X10696372Y-14506936D02*
X10715420Y-14478365D01*
X10715420Y-14478365D02*
X10724944Y-14440269D01*
X10724944Y-14440269D02*
X10724944Y-14364079D01*
X10724944Y-14364079D02*
X10715420Y-14345031D01*
X10715420Y-14345031D02*
X10705896Y-14335508D01*
X10705896Y-14335508D02*
X10686849Y-14325984D01*
X10686849Y-14325984D02*
X10648753Y-14325984D01*
X10648753Y-14325984D02*
X10629706Y-14335508D01*
X10629706Y-14335508D02*
X10620182Y-14345031D01*
X10620182Y-14345031D02*
X10610658Y-14364079D01*
X10610658Y-14364079D02*
X10610658Y-14411698D01*
X10610658Y-14411698D02*
X10620182Y-14430746D01*
X10620182Y-14430746D02*
X10629706Y-14440269D01*
X10629706Y-14440269D02*
X10648753Y-14449793D01*
X10648753Y-14449793D02*
X10686849Y-14449793D01*
X10686849Y-14449793D02*
X10705896Y-14440269D01*
X10705896Y-14440269D02*
X10715420Y-14430746D01*
X10715420Y-14430746D02*
X10724944Y-14411698D01*
X10801134Y-14325984D02*
X10801134Y-14364079D01*
X10877325Y-14325984D02*
X10877325Y-14364079D01*
X11172563Y-14602174D02*
X11163039Y-14592650D01*
X11163039Y-14592650D02*
X11143991Y-14564079D01*
X11143991Y-14564079D02*
X11134468Y-14545031D01*
X11134468Y-14545031D02*
X11124944Y-14516460D01*
X11124944Y-14516460D02*
X11115420Y-14468841D01*
X11115420Y-14468841D02*
X11115420Y-14430746D01*
X11115420Y-14430746D02*
X11124944Y-14383127D01*
X11124944Y-14383127D02*
X11134468Y-14354555D01*
X11134468Y-14354555D02*
X11143991Y-14335508D01*
X11143991Y-14335508D02*
X11163039Y-14306936D01*
X11163039Y-14306936D02*
X11172563Y-14297412D01*
X11286848Y-14325984D02*
X11305896Y-14325984D01*
X11305896Y-14325984D02*
X11324944Y-14335508D01*
X11324944Y-14335508D02*
X11334468Y-14345031D01*
X11334468Y-14345031D02*
X11343991Y-14364079D01*
X11343991Y-14364079D02*
X11353515Y-14402174D01*
X11353515Y-14402174D02*
X11353515Y-14449793D01*
X11353515Y-14449793D02*
X11343991Y-14487888D01*
X11343991Y-14487888D02*
X11334468Y-14506936D01*
X11334468Y-14506936D02*
X11324944Y-14516460D01*
X11324944Y-14516460D02*
X11305896Y-14525984D01*
X11305896Y-14525984D02*
X11286848Y-14525984D01*
X11286848Y-14525984D02*
X11267801Y-14516460D01*
X11267801Y-14516460D02*
X11258277Y-14506936D01*
X11258277Y-14506936D02*
X11248753Y-14487888D01*
X11248753Y-14487888D02*
X11239229Y-14449793D01*
X11239229Y-14449793D02*
X11239229Y-14402174D01*
X11239229Y-14402174D02*
X11248753Y-14364079D01*
X11248753Y-14364079D02*
X11258277Y-14345031D01*
X11258277Y-14345031D02*
X11267801Y-14335508D01*
X11267801Y-14335508D02*
X11286848Y-14325984D01*
X11591610Y-14525984D02*
X11591610Y-14325984D01*
X11677325Y-14525984D02*
X11677325Y-14421222D01*
X11677325Y-14421222D02*
X11667801Y-14402174D01*
X11667801Y-14402174D02*
X11648753Y-14392650D01*
X11648753Y-14392650D02*
X11620182Y-14392650D01*
X11620182Y-14392650D02*
X11601134Y-14402174D01*
X11601134Y-14402174D02*
X11591610Y-14411698D01*
X11801134Y-14525984D02*
X11782087Y-14516460D01*
X11782087Y-14516460D02*
X11772563Y-14506936D01*
X11772563Y-14506936D02*
X11763039Y-14487888D01*
X11763039Y-14487888D02*
X11763039Y-14430746D01*
X11763039Y-14430746D02*
X11772563Y-14411698D01*
X11772563Y-14411698D02*
X11782087Y-14402174D01*
X11782087Y-14402174D02*
X11801134Y-14392650D01*
X11801134Y-14392650D02*
X11829706Y-14392650D01*
X11829706Y-14392650D02*
X11848753Y-14402174D01*
X11848753Y-14402174D02*
X11858277Y-14411698D01*
X11858277Y-14411698D02*
X11867801Y-14430746D01*
X11867801Y-14430746D02*
X11867801Y-14487888D01*
X11867801Y-14487888D02*
X11858277Y-14506936D01*
X11858277Y-14506936D02*
X11848753Y-14516460D01*
X11848753Y-14516460D02*
X11829706Y-14525984D01*
X11829706Y-14525984D02*
X11801134Y-14525984D01*
X11982087Y-14525984D02*
X11963039Y-14516460D01*
X11963039Y-14516460D02*
X11953515Y-14497412D01*
X11953515Y-14497412D02*
X11953515Y-14325984D01*
X12134468Y-14516460D02*
X12115420Y-14525984D01*
X12115420Y-14525984D02*
X12077325Y-14525984D01*
X12077325Y-14525984D02*
X12058277Y-14516460D01*
X12058277Y-14516460D02*
X12048753Y-14497412D01*
X12048753Y-14497412D02*
X12048753Y-14421222D01*
X12048753Y-14421222D02*
X12058277Y-14402174D01*
X12058277Y-14402174D02*
X12077325Y-14392650D01*
X12077325Y-14392650D02*
X12115420Y-14392650D01*
X12115420Y-14392650D02*
X12134468Y-14402174D01*
X12134468Y-14402174D02*
X12143991Y-14421222D01*
X12143991Y-14421222D02*
X12143991Y-14440269D01*
X12143991Y-14440269D02*
X12048753Y-14459317D01*
X12220182Y-14516460D02*
X12239230Y-14525984D01*
X12239230Y-14525984D02*
X12277325Y-14525984D01*
X12277325Y-14525984D02*
X12296372Y-14516460D01*
X12296372Y-14516460D02*
X12305896Y-14497412D01*
X12305896Y-14497412D02*
X12305896Y-14487888D01*
X12305896Y-14487888D02*
X12296372Y-14468841D01*
X12296372Y-14468841D02*
X12277325Y-14459317D01*
X12277325Y-14459317D02*
X12248753Y-14459317D01*
X12248753Y-14459317D02*
X12229706Y-14449793D01*
X12229706Y-14449793D02*
X12220182Y-14430746D01*
X12220182Y-14430746D02*
X12220182Y-14421222D01*
X12220182Y-14421222D02*
X12229706Y-14402174D01*
X12229706Y-14402174D02*
X12248753Y-14392650D01*
X12248753Y-14392650D02*
X12277325Y-14392650D01*
X12277325Y-14392650D02*
X12296372Y-14402174D01*
X12543992Y-14449793D02*
X12696373Y-14449793D01*
X12620182Y-14525984D02*
X12620182Y-14373603D01*
X13048753Y-14525984D02*
X12934468Y-14525984D01*
X12991611Y-14525984D02*
X12991611Y-14325984D01*
X12991611Y-14325984D02*
X12972563Y-14354555D01*
X12972563Y-14354555D02*
X12953515Y-14373603D01*
X12953515Y-14373603D02*
X12934468Y-14383127D01*
X13124944Y-14345031D02*
X13134468Y-14335508D01*
X13134468Y-14335508D02*
X13153515Y-14325984D01*
X13153515Y-14325984D02*
X13201134Y-14325984D01*
X13201134Y-14325984D02*
X13220182Y-14335508D01*
X13220182Y-14335508D02*
X13229706Y-14345031D01*
X13229706Y-14345031D02*
X13239230Y-14364079D01*
X13239230Y-14364079D02*
X13239230Y-14383127D01*
X13239230Y-14383127D02*
X13229706Y-14411698D01*
X13229706Y-14411698D02*
X13115420Y-14525984D01*
X13115420Y-14525984D02*
X13239230Y-14525984D01*
X13467801Y-14516460D02*
X13486849Y-14525984D01*
X13486849Y-14525984D02*
X13524944Y-14525984D01*
X13524944Y-14525984D02*
X13543992Y-14516460D01*
X13543992Y-14516460D02*
X13553515Y-14497412D01*
X13553515Y-14497412D02*
X13553515Y-14487888D01*
X13553515Y-14487888D02*
X13543992Y-14468841D01*
X13543992Y-14468841D02*
X13524944Y-14459317D01*
X13524944Y-14459317D02*
X13496373Y-14459317D01*
X13496373Y-14459317D02*
X13477325Y-14449793D01*
X13477325Y-14449793D02*
X13467801Y-14430746D01*
X13467801Y-14430746D02*
X13467801Y-14421222D01*
X13467801Y-14421222D02*
X13477325Y-14402174D01*
X13477325Y-14402174D02*
X13496373Y-14392650D01*
X13496373Y-14392650D02*
X13524944Y-14392650D01*
X13524944Y-14392650D02*
X13543992Y-14402174D01*
X13667801Y-14525984D02*
X13648754Y-14516460D01*
X13648754Y-14516460D02*
X13639230Y-14497412D01*
X13639230Y-14497412D02*
X13639230Y-14325984D01*
X13772563Y-14525984D02*
X13753515Y-14516460D01*
X13753515Y-14516460D02*
X13743992Y-14506936D01*
X13743992Y-14506936D02*
X13734468Y-14487888D01*
X13734468Y-14487888D02*
X13734468Y-14430746D01*
X13734468Y-14430746D02*
X13743992Y-14411698D01*
X13743992Y-14411698D02*
X13753515Y-14402174D01*
X13753515Y-14402174D02*
X13772563Y-14392650D01*
X13772563Y-14392650D02*
X13801135Y-14392650D01*
X13801135Y-14392650D02*
X13820182Y-14402174D01*
X13820182Y-14402174D02*
X13829706Y-14411698D01*
X13829706Y-14411698D02*
X13839230Y-14430746D01*
X13839230Y-14430746D02*
X13839230Y-14487888D01*
X13839230Y-14487888D02*
X13829706Y-14506936D01*
X13829706Y-14506936D02*
X13820182Y-14516460D01*
X13820182Y-14516460D02*
X13801135Y-14525984D01*
X13801135Y-14525984D02*
X13772563Y-14525984D01*
X13896373Y-14392650D02*
X13972563Y-14392650D01*
X13924944Y-14325984D02*
X13924944Y-14497412D01*
X13924944Y-14497412D02*
X13934468Y-14516460D01*
X13934468Y-14516460D02*
X13953515Y-14525984D01*
X13953515Y-14525984D02*
X13972563Y-14525984D01*
X14029706Y-14516460D02*
X14048754Y-14525984D01*
X14048754Y-14525984D02*
X14086849Y-14525984D01*
X14086849Y-14525984D02*
X14105896Y-14516460D01*
X14105896Y-14516460D02*
X14115420Y-14497412D01*
X14115420Y-14497412D02*
X14115420Y-14487888D01*
X14115420Y-14487888D02*
X14105896Y-14468841D01*
X14105896Y-14468841D02*
X14086849Y-14459317D01*
X14086849Y-14459317D02*
X14058277Y-14459317D01*
X14058277Y-14459317D02*
X14039230Y-14449793D01*
X14039230Y-14449793D02*
X14029706Y-14430746D01*
X14029706Y-14430746D02*
X14029706Y-14421222D01*
X14029706Y-14421222D02*
X14039230Y-14402174D01*
X14039230Y-14402174D02*
X14058277Y-14392650D01*
X14058277Y-14392650D02*
X14086849Y-14392650D01*
X14086849Y-14392650D02*
X14105896Y-14402174D01*
X14182087Y-14602174D02*
X14191611Y-14592650D01*
X14191611Y-14592650D02*
X14210658Y-14564079D01*
X14210658Y-14564079D02*
X14220182Y-14545031D01*
X14220182Y-14545031D02*
X14229706Y-14516460D01*
X14229706Y-14516460D02*
X14239230Y-14468841D01*
X14239230Y-14468841D02*
X14239230Y-14430746D01*
X14239230Y-14430746D02*
X14229706Y-14383127D01*
X14229706Y-14383127D02*
X14220182Y-14354555D01*
X14220182Y-14354555D02*
X14210658Y-14335508D01*
X14210658Y-14335508D02*
X14191611Y-14306936D01*
X14191611Y-14306936D02*
X14182087Y-14297412D01*
M02*
