%TF.GenerationSoftware,KiCad,Pcbnew,8.0.5*%
%TF.CreationDate,2024-11-23T20:31:31+11:00*%
%TF.ProjectId,Macro Mixer,4d616372-6f20-44d6-9978-65722e6b6963,rev?*%
%TF.SameCoordinates,Original*%
%TF.FileFunction,Soldermask,Bot*%
%TF.FilePolarity,Negative*%
%FSLAX46Y46*%
G04 Gerber Fmt 4.6, Leading zero omitted, Abs format (unit mm)*
G04 Created by KiCad (PCBNEW 8.0.5) date 2024-11-23 20:31:31*
%MOMM*%
%LPD*%
G01*
G04 APERTURE LIST*
G04 Aperture macros list*
%AMRoundRect*
0 Rectangle with rounded corners*
0 $1 Rounding radius*
0 $2 $3 $4 $5 $6 $7 $8 $9 X,Y pos of 4 corners*
0 Add a 4 corners polygon primitive as box body*
4,1,4,$2,$3,$4,$5,$6,$7,$8,$9,$2,$3,0*
0 Add four circle primitives for the rounded corners*
1,1,$1+$1,$2,$3*
1,1,$1+$1,$4,$5*
1,1,$1+$1,$6,$7*
1,1,$1+$1,$8,$9*
0 Add four rect primitives between the rounded corners*
20,1,$1+$1,$2,$3,$4,$5,0*
20,1,$1+$1,$4,$5,$6,$7,0*
20,1,$1+$1,$6,$7,$8,$9,0*
20,1,$1+$1,$8,$9,$2,$3,0*%
G04 Aperture macros list end*
%ADD10RoundRect,0.225000X0.225000X-0.440625X0.225000X0.440625X-0.225000X0.440625X-0.225000X-0.440625X0*%
%ADD11RoundRect,0.225000X0.225000X-0.439062X0.225000X0.439062X-0.225000X0.439062X-0.225000X-0.439062X0*%
%ADD12RoundRect,0.225000X0.225000X-0.437500X0.225000X0.437500X-0.225000X0.437500X-0.225000X-0.437500X0*%
%ADD13RoundRect,0.225000X0.440625X0.225000X-0.440625X0.225000X-0.440625X-0.225000X0.440625X-0.225000X0*%
%ADD14RoundRect,0.225000X0.439062X0.225000X-0.439062X0.225000X-0.439062X-0.225000X0.439062X-0.225000X0*%
%ADD15RoundRect,0.225000X0.437500X0.225000X-0.437500X0.225000X-0.437500X-0.225000X0.437500X-0.225000X0*%
%ADD16RoundRect,0.225000X-0.440625X-0.225000X0.440625X-0.225000X0.440625X0.225000X-0.440625X0.225000X0*%
%ADD17RoundRect,0.225000X-0.439062X-0.225000X0.439062X-0.225000X0.439062X0.225000X-0.439062X0.225000X0*%
%ADD18RoundRect,0.225000X-0.437500X-0.225000X0.437500X-0.225000X0.437500X0.225000X-0.437500X0.225000X0*%
%ADD19RoundRect,0.225000X-0.225000X0.440625X-0.225000X-0.440625X0.225000X-0.440625X0.225000X0.440625X0*%
%ADD20RoundRect,0.225000X-0.225000X0.439062X-0.225000X-0.439062X0.225000X-0.439062X0.225000X0.439062X0*%
%ADD21RoundRect,0.225000X-0.225000X0.437500X-0.225000X-0.437500X0.225000X-0.437500X0.225000X0.437500X0*%
%ADD22RoundRect,0.102000X0.754000X-0.754000X0.754000X0.754000X-0.754000X0.754000X-0.754000X-0.754000X0*%
%ADD23C,1.712000*%
%ADD24O,4.804000X2.504000*%
%ADD25RoundRect,0.102000X-0.754000X0.754000X-0.754000X-0.754000X0.754000X-0.754000X0.754000X0.754000X0*%
%ADD26C,1.750000*%
%ADD27C,3.050000*%
%ADD28C,4.000000*%
%ADD29RoundRect,0.250000X-1.025000X-1.000000X1.025000X-1.000000X1.025000X1.000000X-1.025000X1.000000X0*%
%ADD30RoundRect,0.200000X0.200000X0.275000X-0.200000X0.275000X-0.200000X-0.275000X0.200000X-0.275000X0*%
%ADD31RoundRect,0.225000X-0.225000X-0.250000X0.225000X-0.250000X0.225000X0.250000X-0.225000X0.250000X0*%
%ADD32RoundRect,0.200000X-0.275000X0.200000X-0.275000X-0.200000X0.275000X-0.200000X0.275000X0.200000X0*%
%ADD33RoundRect,0.225000X-0.250000X0.225000X-0.250000X-0.225000X0.250000X-0.225000X0.250000X0.225000X0*%
%ADD34RoundRect,0.200000X-0.200000X-0.275000X0.200000X-0.275000X0.200000X0.275000X-0.200000X0.275000X0*%
%ADD35RoundRect,0.225000X0.250000X-0.225000X0.250000X0.225000X-0.250000X0.225000X-0.250000X-0.225000X0*%
%ADD36RoundRect,0.150000X0.512500X0.150000X-0.512500X0.150000X-0.512500X-0.150000X0.512500X-0.150000X0*%
%ADD37RoundRect,0.165600X-0.421400X0.386400X-0.421400X-0.386400X0.421400X-0.386400X0.421400X0.386400X0*%
%ADD38RoundRect,0.225000X0.225000X0.250000X-0.225000X0.250000X-0.225000X-0.250000X0.225000X-0.250000X0*%
%ADD39RoundRect,0.102000X-0.300000X-0.575000X0.300000X-0.575000X0.300000X0.575000X-0.300000X0.575000X0*%
%ADD40RoundRect,0.102000X-0.150000X-0.575000X0.150000X-0.575000X0.150000X0.575000X-0.150000X0.575000X0*%
%ADD41O,1.254000X1.754000*%
%ADD42O,1.254000X2.154000*%
%ADD43RoundRect,0.200000X0.275000X-0.200000X0.275000X0.200000X-0.275000X0.200000X-0.275000X-0.200000X0*%
%ADD44R,1.500000X0.900000*%
%ADD45R,0.900000X1.500000*%
%ADD46R,0.900000X0.900000*%
%ADD47RoundRect,0.150000X0.250000X0.150000X-0.250000X0.150000X-0.250000X-0.150000X0.250000X-0.150000X0*%
%ADD48RoundRect,0.102000X0.575000X-0.300000X0.575000X0.300000X-0.575000X0.300000X-0.575000X-0.300000X0*%
%ADD49RoundRect,0.102000X0.575000X-0.150000X0.575000X0.150000X-0.575000X0.150000X-0.575000X-0.150000X0*%
%ADD50O,1.754000X1.254000*%
%ADD51O,2.154000X1.254000*%
%ADD52RoundRect,0.200000X0.200000X0.400000X-0.200000X0.400000X-0.200000X-0.400000X0.200000X-0.400000X0*%
%ADD53RoundRect,0.250000X-0.650000X0.412500X-0.650000X-0.412500X0.650000X-0.412500X0.650000X0.412500X0*%
G04 APERTURE END LIST*
D10*
%TO.C,U12*%
X225425000Y-97762500D03*
D11*
X224025000Y-97762500D03*
D12*
X224025000Y-102762500D03*
X225425000Y-102762500D03*
%TD*%
D10*
%TO.C,U13*%
X225425000Y-78712500D03*
D11*
X224025000Y-78712500D03*
D12*
X224025000Y-83712500D03*
X225425000Y-83712500D03*
%TD*%
D10*
%TO.C,U11*%
X225425000Y-116812500D03*
D11*
X224025000Y-116812500D03*
D12*
X224025000Y-121812500D03*
X225425000Y-121812500D03*
%TD*%
D13*
%TO.C,U10*%
X150000000Y-104312500D03*
D14*
X150000000Y-105712500D03*
D15*
X155000000Y-105712500D03*
X155000000Y-104312500D03*
%TD*%
D13*
%TO.C,U4*%
X130950000Y-85262500D03*
D14*
X130950000Y-86662500D03*
D15*
X135950000Y-86662500D03*
X135950000Y-85262500D03*
%TD*%
D16*
%TO.C,U19*%
X155050000Y-124762500D03*
D17*
X155050000Y-123362500D03*
D18*
X150050000Y-123362500D03*
X150050000Y-124762500D03*
%TD*%
D13*
%TO.C,U14*%
X111900000Y-85262500D03*
D14*
X111900000Y-86662500D03*
D15*
X116900000Y-86662500D03*
X116900000Y-85262500D03*
%TD*%
D19*
%TO.C,U22*%
X79575000Y-121312501D03*
D20*
X80975000Y-121312501D03*
D21*
X80975000Y-116312501D03*
X79575000Y-116312501D03*
%TD*%
D13*
%TO.C,U5*%
X150000000Y-85262500D03*
D14*
X150000000Y-86662500D03*
D15*
X155000000Y-86662500D03*
X155000000Y-85262500D03*
%TD*%
D16*
%TO.C,U18*%
X136000000Y-124762500D03*
D17*
X136000000Y-123362500D03*
D18*
X131000000Y-123362500D03*
X131000000Y-124762500D03*
%TD*%
D13*
%TO.C,U7*%
X188100000Y-85262500D03*
D14*
X188100000Y-86662500D03*
D15*
X193100000Y-86662500D03*
X193100000Y-85262500D03*
%TD*%
D16*
%TO.C,U21*%
X193150000Y-124762500D03*
D17*
X193150000Y-123362500D03*
D18*
X188150000Y-123362500D03*
X188150000Y-124762500D03*
%TD*%
D13*
%TO.C,U15*%
X169050000Y-104312500D03*
D14*
X169050000Y-105712500D03*
D15*
X174050000Y-105712500D03*
X174050000Y-104312500D03*
%TD*%
D16*
%TO.C,U20*%
X174100000Y-124762500D03*
D17*
X174100000Y-123362500D03*
D18*
X169100000Y-123362500D03*
X169100000Y-124762500D03*
%TD*%
D13*
%TO.C,U16*%
X188100000Y-104312500D03*
D14*
X188100000Y-105712500D03*
D15*
X193100000Y-105712500D03*
X193100000Y-104312500D03*
%TD*%
D13*
%TO.C,U8*%
X111900000Y-104312500D03*
D14*
X111900000Y-105712500D03*
D15*
X116900000Y-105712500D03*
X116900000Y-104312500D03*
%TD*%
D13*
%TO.C,U6*%
X169050000Y-85262500D03*
D14*
X169050000Y-86662500D03*
D15*
X174050000Y-86662500D03*
X174050000Y-85262500D03*
%TD*%
D16*
%TO.C,U17*%
X116950000Y-124762500D03*
D17*
X116950000Y-123362500D03*
D18*
X111950000Y-123362500D03*
X111950000Y-124762500D03*
%TD*%
D13*
%TO.C,U9*%
X130950000Y-104312500D03*
D14*
X130950000Y-105712500D03*
D15*
X135950000Y-105712500D03*
X135950000Y-104312500D03*
%TD*%
D19*
%TO.C,U23*%
X79575000Y-102262501D03*
D20*
X80975000Y-102262501D03*
D21*
X80975000Y-97262501D03*
X79575000Y-97262501D03*
%TD*%
D19*
%TO.C,U24*%
X79575000Y-83212501D03*
D20*
X80975000Y-83212501D03*
D21*
X80975000Y-78212501D03*
X79575000Y-78212501D03*
%TD*%
D22*
%TO.C,R21*%
X221412500Y-102512500D03*
D23*
X221412500Y-100012500D03*
X221412500Y-97512500D03*
D24*
X214412500Y-104412500D03*
X214412500Y-95612500D03*
%TD*%
D25*
%TO.C,R40*%
X83587500Y-78462500D03*
D23*
X83587500Y-80962500D03*
X83587500Y-83462500D03*
D24*
X90587500Y-76562500D03*
X90587500Y-85362500D03*
%TD*%
D26*
%TO.C,SW3*%
X147420000Y-80962500D03*
D27*
X148690000Y-78422500D03*
D28*
X152500000Y-80962500D03*
D27*
X155040000Y-75882500D03*
D26*
X157580000Y-80962500D03*
D29*
X145415000Y-78422500D03*
X158342000Y-75882500D03*
%TD*%
D26*
%TO.C,SW14*%
X166470000Y-119062500D03*
D27*
X167740000Y-116522500D03*
D28*
X171550000Y-119062500D03*
D27*
X174090000Y-113982500D03*
D26*
X176630000Y-119062500D03*
D29*
X164465000Y-116522500D03*
X177392000Y-113982500D03*
%TD*%
D22*
%TO.C,R18*%
X221412500Y-121562500D03*
D23*
X221412500Y-119062500D03*
X221412500Y-116562500D03*
D24*
X214412500Y-123462500D03*
X214412500Y-114662500D03*
%TD*%
D26*
%TO.C,SW7*%
X128370000Y-100012500D03*
D27*
X129640000Y-97472500D03*
D28*
X133450000Y-100012500D03*
D27*
X135990000Y-94932500D03*
D26*
X138530000Y-100012500D03*
D29*
X126365000Y-97472500D03*
X139292000Y-94932500D03*
%TD*%
D26*
%TO.C,SW15*%
X185520000Y-119062500D03*
D27*
X186790000Y-116522500D03*
D28*
X190600000Y-119062500D03*
D27*
X193140000Y-113982500D03*
D26*
X195680000Y-119062500D03*
D29*
X183515000Y-116522500D03*
X196442000Y-113982500D03*
%TD*%
D26*
%TO.C,SW4*%
X166470000Y-80962500D03*
D27*
X167740000Y-78422500D03*
D28*
X171550000Y-80962500D03*
D27*
X174090000Y-75882500D03*
D26*
X176630000Y-80962500D03*
D29*
X164465000Y-78422500D03*
X177392000Y-75882500D03*
%TD*%
D26*
%TO.C,SW8*%
X147420000Y-100012500D03*
D27*
X148690000Y-97472500D03*
D28*
X152500000Y-100012500D03*
D27*
X155040000Y-94932500D03*
D26*
X157580000Y-100012500D03*
D29*
X145415000Y-97472500D03*
X158342000Y-94932500D03*
%TD*%
D22*
%TO.C,R24*%
X221412500Y-83462500D03*
D23*
X221412500Y-80962500D03*
X221412500Y-78462500D03*
D24*
X214412500Y-85362500D03*
X214412500Y-76562500D03*
%TD*%
D26*
%TO.C,SW10*%
X185520000Y-100012500D03*
D27*
X186790000Y-97472500D03*
D28*
X190600000Y-100012500D03*
D27*
X193140000Y-94932500D03*
D26*
X195680000Y-100012500D03*
D29*
X183515000Y-97472500D03*
X196442000Y-94932500D03*
%TD*%
D25*
%TO.C,R37*%
X83587500Y-97512500D03*
D23*
X83587500Y-100012500D03*
X83587500Y-102512500D03*
D24*
X90587500Y-95612500D03*
X90587500Y-104412500D03*
%TD*%
D26*
%TO.C,SW13*%
X147420000Y-119062500D03*
D27*
X148690000Y-116522500D03*
D28*
X152500000Y-119062500D03*
D27*
X155040000Y-113982500D03*
D26*
X157580000Y-119062500D03*
D29*
X145415000Y-116522500D03*
X158342000Y-113982500D03*
%TD*%
D26*
%TO.C,SW1*%
X109320000Y-80962500D03*
D27*
X110590000Y-78422500D03*
D28*
X114400000Y-80962500D03*
D27*
X116940000Y-75882500D03*
D26*
X119480000Y-80962500D03*
D29*
X107315000Y-78422500D03*
X120242000Y-75882500D03*
%TD*%
D26*
%TO.C,SW9*%
X166470000Y-100012500D03*
D27*
X167740000Y-97472500D03*
D28*
X171550000Y-100012500D03*
D27*
X174090000Y-94932500D03*
D26*
X176630000Y-100012500D03*
D29*
X164465000Y-97472500D03*
X177392000Y-94932500D03*
%TD*%
D25*
%TO.C,R34*%
X83587500Y-116562500D03*
D23*
X83587500Y-119062500D03*
X83587500Y-121562500D03*
D24*
X90587500Y-114662500D03*
X90587500Y-123462500D03*
%TD*%
D26*
%TO.C,SW6*%
X109320000Y-100012500D03*
D27*
X110590000Y-97472500D03*
D28*
X114400000Y-100012500D03*
D27*
X116940000Y-94932500D03*
D26*
X119480000Y-100012500D03*
D29*
X107315000Y-97472500D03*
X120242000Y-94932500D03*
%TD*%
D26*
%TO.C,SW11*%
X109320000Y-119062500D03*
D27*
X110590000Y-116522500D03*
D28*
X114400000Y-119062500D03*
D27*
X116940000Y-113982500D03*
D26*
X119480000Y-119062500D03*
D29*
X107315000Y-116522500D03*
X120242000Y-113982500D03*
%TD*%
D26*
%TO.C,SW12*%
X128370000Y-119062500D03*
D27*
X129640000Y-116522500D03*
D28*
X133450000Y-119062500D03*
D27*
X135990000Y-113982500D03*
D26*
X138530000Y-119062500D03*
D29*
X126365000Y-116522500D03*
X139292000Y-113982500D03*
%TD*%
D26*
%TO.C,SW2*%
X128370000Y-80962500D03*
D27*
X129640000Y-78422500D03*
D28*
X133450000Y-80962500D03*
D27*
X135990000Y-75882500D03*
D26*
X138530000Y-80962500D03*
D29*
X126365000Y-78422500D03*
X139292000Y-75882500D03*
%TD*%
D26*
%TO.C,SW5*%
X185520000Y-80962500D03*
D27*
X186790000Y-78422500D03*
D28*
X190600000Y-80962500D03*
D27*
X193140000Y-75882500D03*
D26*
X195680000Y-80962500D03*
D29*
X183515000Y-78422500D03*
X196442000Y-75882500D03*
%TD*%
D30*
%TO.C,R8*%
X90025000Y-110600000D03*
X88375000Y-110600000D03*
%TD*%
D31*
%TO.C,C30*%
X79500000Y-104012500D03*
X81050000Y-104012500D03*
%TD*%
D32*
%TO.C,R33*%
X85400000Y-114875000D03*
X85400000Y-116525000D03*
%TD*%
D33*
%TO.C,C13*%
X166800000Y-85187500D03*
X166800000Y-86737500D03*
%TD*%
D30*
%TO.C,R10*%
X139350000Y-72712500D03*
X137700000Y-72712500D03*
%TD*%
%TO.C,R30*%
X158400000Y-110812500D03*
X156750000Y-110812500D03*
%TD*%
D31*
%TO.C,C31*%
X79450000Y-84712500D03*
X81000000Y-84712500D03*
%TD*%
D33*
%TO.C,C16*%
X128700000Y-104237500D03*
X128700000Y-105787500D03*
%TD*%
D32*
%TO.C,R41*%
X85300000Y-82875000D03*
X85300000Y-84525000D03*
%TD*%
D34*
%TO.C,R19*%
X221375000Y-111900000D03*
X223025000Y-111900000D03*
%TD*%
D35*
%TO.C,C27*%
X176350000Y-124837500D03*
X176350000Y-123287500D03*
%TD*%
D30*
%TO.C,R15*%
X139350000Y-91762500D03*
X137700000Y-91762500D03*
%TD*%
%TO.C,R9*%
X120300000Y-72712500D03*
X118650000Y-72712500D03*
%TD*%
%TO.C,R28*%
X120300000Y-110812500D03*
X118650000Y-110812500D03*
%TD*%
D35*
%TO.C,C25*%
X138250000Y-124837500D03*
X138250000Y-123287500D03*
%TD*%
D30*
%TO.C,R20*%
X225550000Y-94512500D03*
X223900000Y-94512500D03*
%TD*%
D33*
%TO.C,C12*%
X147750000Y-85187500D03*
X147750000Y-86737500D03*
%TD*%
D30*
%TO.C,R31*%
X177450000Y-110812500D03*
X175800000Y-110812500D03*
%TD*%
%TO.C,C5*%
X99250000Y-111252500D03*
X97600000Y-111252500D03*
%TD*%
D32*
%TO.C,R1*%
X101375000Y-83437500D03*
X101375000Y-85087500D03*
%TD*%
D33*
%TO.C,C10*%
X199475000Y-118287500D03*
X199475000Y-119837500D03*
%TD*%
%TO.C,C8*%
X197975000Y-116787500D03*
X197975000Y-118337500D03*
%TD*%
D36*
%TO.C,U28*%
X212612500Y-89812500D03*
X212612500Y-90762500D03*
X212612500Y-91712500D03*
X210337500Y-91712500D03*
X210337500Y-90762500D03*
X210337500Y-89812500D03*
%TD*%
%TO.C,U25*%
X208162500Y-92800000D03*
X208162500Y-93750000D03*
X208162500Y-94700000D03*
X205887500Y-94700000D03*
X205887500Y-93750000D03*
X205887500Y-92800000D03*
%TD*%
D33*
%TO.C,C15*%
X109650000Y-104237500D03*
X109650000Y-105787500D03*
%TD*%
D37*
%TO.C,L1*%
X104075000Y-83427500D03*
X104075000Y-84997500D03*
%TD*%
D32*
%TO.C,R2*%
X98475000Y-83412500D03*
X98475000Y-85062500D03*
%TD*%
D38*
%TO.C,C20*%
X225500000Y-76962500D03*
X223950000Y-76962500D03*
%TD*%
D30*
%TO.C,R13*%
X196500000Y-72712500D03*
X194850000Y-72712500D03*
%TD*%
D38*
%TO.C,C7*%
X99200000Y-113002500D03*
X97650000Y-113002500D03*
%TD*%
D30*
%TO.C,R29*%
X139350000Y-110812500D03*
X137700000Y-110812500D03*
%TD*%
D39*
%TO.C,J1*%
X96800000Y-77050000D03*
X97600000Y-77050000D03*
D40*
X98750000Y-77050000D03*
X99750000Y-77050000D03*
X100250000Y-77050000D03*
X101250000Y-77050000D03*
D39*
X103200000Y-77050000D03*
X102400000Y-77050000D03*
D40*
X101750000Y-77050000D03*
X100750000Y-77050000D03*
X99250000Y-77050000D03*
X98250000Y-77050000D03*
D41*
X95680000Y-76475000D03*
X104320000Y-76475000D03*
D42*
X95680000Y-72475000D03*
X104320000Y-72475000D03*
%TD*%
D43*
%TO.C,R7*%
X199475000Y-116637500D03*
X199475000Y-114987500D03*
%TD*%
D34*
%TO.C,R23*%
X218300000Y-82900000D03*
X219950000Y-82900000D03*
%TD*%
D30*
%TO.C,C4*%
X99300000Y-92312500D03*
X97650000Y-92312500D03*
%TD*%
%TO.C,R12*%
X177450000Y-72712500D03*
X175800000Y-72712500D03*
%TD*%
D38*
%TO.C,C6*%
X99250000Y-94062500D03*
X97700000Y-94062500D03*
%TD*%
D32*
%TO.C,C2*%
X95725000Y-88987500D03*
X95725000Y-90637500D03*
%TD*%
D30*
%TO.C,R25*%
X225550000Y-85462500D03*
X223900000Y-85462500D03*
%TD*%
D31*
%TO.C,C29*%
X79500000Y-123062500D03*
X81050000Y-123062500D03*
%TD*%
D43*
%TO.C,R35*%
X86425000Y-119837500D03*
X86425000Y-118187500D03*
%TD*%
D44*
%TO.C,ESP32*%
X201475000Y-119572500D03*
X201475000Y-118302500D03*
X201475000Y-117032500D03*
X201475000Y-115762500D03*
X201475000Y-114492500D03*
X201475000Y-113222500D03*
X201475000Y-111952500D03*
X201475000Y-110682500D03*
X201475000Y-109412500D03*
X201475000Y-108142500D03*
X201475000Y-106872500D03*
X201475000Y-105602500D03*
X201475000Y-104332500D03*
X201475000Y-103062500D03*
D45*
X203240000Y-101812500D03*
X204510000Y-101812500D03*
X205780000Y-101812500D03*
X207050000Y-101812500D03*
X208320000Y-101812500D03*
X209590000Y-101812500D03*
X210860000Y-101812500D03*
X212130000Y-101812500D03*
X213400000Y-101812500D03*
X214670000Y-101812500D03*
X215940000Y-101812500D03*
X217210000Y-101812500D03*
D44*
X218975000Y-103062500D03*
X218975000Y-104332500D03*
X218975000Y-105602500D03*
X218975000Y-106872500D03*
X218975000Y-108142500D03*
X218975000Y-109412500D03*
X218975000Y-110682500D03*
X218975000Y-111952500D03*
X218975000Y-113222500D03*
X218975000Y-114492500D03*
X218975000Y-115762500D03*
X218975000Y-117032500D03*
X218975000Y-118302500D03*
X218975000Y-119572500D03*
D46*
X207325000Y-110452500D03*
X207325000Y-110452500D03*
X207325000Y-111852500D03*
X207325000Y-113252500D03*
X208725000Y-110452500D03*
X208725000Y-111852500D03*
X208725000Y-113252500D03*
X208725000Y-113252500D03*
X210125000Y-110452500D03*
X210125000Y-111852500D03*
X210125000Y-113252500D03*
%TD*%
D30*
%TO.C,R14*%
X120300000Y-91762500D03*
X118650000Y-91762500D03*
%TD*%
D47*
%TO.C,U1*%
X97175000Y-90762500D03*
X97175000Y-89812500D03*
X97175000Y-88862500D03*
X99775000Y-88862500D03*
X99775000Y-90762500D03*
%TD*%
%TO.C,U2*%
X97125000Y-109712500D03*
X97125000Y-108762500D03*
X97125000Y-107812500D03*
X99725000Y-107812500D03*
X99725000Y-109712500D03*
%TD*%
D33*
%TO.C,C1*%
X94100000Y-89025000D03*
X94100000Y-90575000D03*
%TD*%
%TO.C,C14*%
X185850000Y-85187500D03*
X185850000Y-86737500D03*
%TD*%
D43*
%TO.C,R39*%
X87025000Y-80887500D03*
X87025000Y-79237500D03*
%TD*%
D36*
%TO.C,U26*%
X203862500Y-95912500D03*
X203862500Y-96862500D03*
X203862500Y-97812500D03*
X201587500Y-97812500D03*
X201587500Y-96862500D03*
X201587500Y-95912500D03*
%TD*%
D30*
%TO.C,R26*%
X177450000Y-91762500D03*
X175800000Y-91762500D03*
%TD*%
D34*
%TO.C,R22*%
X221400000Y-92962500D03*
X223050000Y-92962500D03*
%TD*%
D48*
%TO.C,J2*%
X83075000Y-94200000D03*
X83075000Y-93400000D03*
D49*
X83075000Y-92250000D03*
X83075000Y-91250000D03*
X83075000Y-90750000D03*
X83075000Y-89750000D03*
D48*
X83075000Y-87800000D03*
X83075000Y-88600000D03*
D49*
X83075000Y-89250000D03*
X83075000Y-90250000D03*
X83075000Y-91750000D03*
X83075000Y-92750000D03*
D50*
X82500000Y-95320000D03*
X82500000Y-86680000D03*
D51*
X78500000Y-95320000D03*
X78500000Y-86680000D03*
%TD*%
D30*
%TO.C,R16*%
X158400000Y-91762500D03*
X156750000Y-91762500D03*
%TD*%
D43*
%TO.C,R3*%
X101225000Y-90637500D03*
X101225000Y-88987500D03*
%TD*%
D35*
%TO.C,C26*%
X157300000Y-124837500D03*
X157300000Y-123287500D03*
%TD*%
D33*
%TO.C,C22*%
X166800000Y-104237500D03*
X166800000Y-105787500D03*
%TD*%
D43*
%TO.C,R38*%
X85375000Y-100637500D03*
X85375000Y-98987500D03*
%TD*%
D30*
%TO.C,R27*%
X196500000Y-91762500D03*
X194850000Y-91762500D03*
%TD*%
D32*
%TO.C,C3*%
X95675000Y-107927500D03*
X95675000Y-109577500D03*
%TD*%
D30*
%TO.C,R4*%
X99300000Y-87312500D03*
X97650000Y-87312500D03*
%TD*%
%TO.C,R11*%
X158400000Y-72712500D03*
X156750000Y-72712500D03*
%TD*%
D33*
%TO.C,C17*%
X147750000Y-104237500D03*
X147750000Y-105787500D03*
%TD*%
%TO.C,C11*%
X128700000Y-85187500D03*
X128700000Y-86737500D03*
%TD*%
D35*
%TO.C,C28*%
X195400000Y-124837500D03*
X195400000Y-123287500D03*
%TD*%
D33*
%TO.C,C23*%
X185850000Y-104237500D03*
X185850000Y-105787500D03*
%TD*%
D30*
%TO.C,R17*%
X225550000Y-113562500D03*
X223900000Y-113562500D03*
%TD*%
D34*
%TO.C,R36*%
X79450000Y-105512500D03*
X81100000Y-105512500D03*
%TD*%
D35*
%TO.C,C24*%
X119200000Y-124837500D03*
X119200000Y-123287500D03*
%TD*%
D36*
%TO.C,U27*%
X199162500Y-106912500D03*
X199162500Y-107862500D03*
X199162500Y-108812500D03*
X196887500Y-108812500D03*
X196887500Y-107862500D03*
X196887500Y-106912500D03*
%TD*%
%TO.C,U3*%
X101662500Y-100412500D03*
X101662500Y-101362500D03*
X101662500Y-102312500D03*
X99387500Y-102312500D03*
X99387500Y-101362500D03*
X99387500Y-100412500D03*
%TD*%
D38*
%TO.C,C18*%
X225500000Y-115062500D03*
X223950000Y-115062500D03*
%TD*%
D52*
%TO.C,BootSW1*%
X86950000Y-110650000D03*
X86950000Y-109150000D03*
X83250000Y-110650000D03*
X83250000Y-109150000D03*
%TD*%
D53*
%TO.C,C9*%
X197475000Y-121000000D03*
X197475000Y-124125000D03*
%TD*%
D30*
%TO.C,R32*%
X196500000Y-110812500D03*
X194850000Y-110812500D03*
%TD*%
D33*
%TO.C,C21*%
X109650000Y-85187500D03*
X109650000Y-86737500D03*
%TD*%
D38*
%TO.C,C19*%
X225500000Y-96012500D03*
X223950000Y-96012500D03*
%TD*%
M02*
