M48
; DRILL file {KiCad 8.0.5} date 2024-11-23T20:31:26+1100
; FORMAT={-:-/ absolute / inch / decimal}
; #@! TF.CreationDate,2024-11-23T20:31:26+11:00
; #@! TF.GenerationSoftware,Kicad,Pcbnew,8.0.5
; #@! TF.FileFunction,NonPlated,1,2,NPTH
FMAT,2
INCH
; #@! TA.AperFunction,NonPlated,NPTH,ComponentDrill
T1C0.0689
; #@! TA.AperFunction,NonPlated,NPTH,ComponentDrill
T2C0.1201
; #@! TA.AperFunction,NonPlated,NPTH,ComponentDrill
T3C0.1575
%
G90
G05
T1
X4.3039Y-3.1875
X4.3039Y-3.9375
X4.3039Y-4.6875
X4.7039Y-3.1875
X4.7039Y-3.9375
X4.7039Y-4.6875
X5.0539Y-3.1875
X5.0539Y-3.9375
X5.0539Y-4.6875
X5.4539Y-3.1875
X5.4539Y-3.9375
X5.4539Y-4.6875
X5.8039Y-3.1875
X5.8039Y-3.9375
X5.8039Y-4.6875
X6.2039Y-3.1875
X6.2039Y-3.9375
X6.2039Y-4.6875
X6.5539Y-3.1875
X6.5539Y-3.9375
X6.5539Y-4.6875
X6.9539Y-3.1875
X6.9539Y-3.9375
X6.9539Y-4.6875
X7.3039Y-3.1875
X7.3039Y-3.9375
X7.3039Y-4.6875
X7.7039Y-3.1875
X7.7039Y-3.9375
X7.7039Y-4.6875
T2
X4.3539Y-3.0875
X4.3539Y-3.8375
X4.3539Y-4.5875
X4.6039Y-2.9875
X4.6039Y-3.7375
X4.6039Y-4.4875
X5.1039Y-3.0875
X5.1039Y-3.8375
X5.1039Y-4.5875
X5.3539Y-2.9875
X5.3539Y-3.7375
X5.3539Y-4.4875
X5.8539Y-3.0875
X5.8539Y-3.8375
X5.8539Y-4.5875
X6.1039Y-2.9875
X6.1039Y-3.7375
X6.1039Y-4.4875
X6.6039Y-3.0875
X6.6039Y-3.8375
X6.6039Y-4.5875
X6.8539Y-2.9875
X6.8539Y-3.7375
X6.8539Y-4.4875
X7.3539Y-3.0875
X7.3539Y-3.8375
X7.3539Y-4.5875
X7.6039Y-2.9875
X7.6039Y-3.7375
X7.6039Y-4.4875
T3
X4.5039Y-3.1875
X4.5039Y-3.9375
X4.5039Y-4.6875
X5.2539Y-3.1875
X5.2539Y-3.9375
X5.2539Y-4.6875
X6.0039Y-3.1875
X6.0039Y-3.9375
X6.0039Y-4.6875
X6.7539Y-3.1875
X6.7539Y-3.9375
X6.7539Y-4.6875
X7.5039Y-3.1875
X7.5039Y-3.9375
X7.5039Y-4.6875
M30
